<svg width="29.99999842mm" height="49.99999906mm" viewBox="0 0 11811023 19685039"  version="1.1" xmlns="http://www.w3.org/2000/svg" xmlns:xlink="http://www.w3.org/1999/xlink">
<desc>
Origin 0 0 Bound 3937008 3937008 11811023 19685039
</desc>
<g fill-rule="evenodd" fill="rgb(0, 204, 102)" stroke="black" stroke-width="1" transform="translate(0, 19685039) scale(1, -1) translate(-3937008, -3937008)">
<path id="N" d="M 10057214.87 10940557.00 m -63921.13 0 a 63921.13 63921.13 0 1 1 127842.26 0a 63921.13 63921.13 0 1 1 -127842.26 0"/>
<path id="N" d="M 8576387.87 12976388.00 m -63921.13 0 a 63921.13 63921.13 0 1 1 127842.26 0a 63921.13 63921.13 0 1 1 -127842.26 0"/>
<path id="N" d="M 7961611.87 15358126.00 m -63921.13 0 a 63921.13 63921.13 0 1 1 127842.26 0a 63921.13 63921.13 0 1 1 -127842.26 0"/>
<path id="N" d="M 9864378.87 12701916.00 m -63921.13 0 a 63921.13 63921.13 0 1 1 127842.26 0a 63921.13 63921.13 0 1 1 -127842.26 0"/>
<path id="N" d="M 12491182.87 15076715.00 m -63921.13 0 a 63921.13 63921.13 0 1 1 127842.26 0a 63921.13 63921.13 0 1 1 -127842.26 0"/>
<path id="N" d="M 7899999.87 13250000.00 m -63921.13 0 a 63921.13 63921.13 0 1 1 127842.26 0a 63921.13 63921.13 0 1 1 -127842.26 0"/>
<path id="N" d="M 10249999.87 14709055.00 m -63921.13 0 a 63921.13 63921.13 0 1 1 127842.26 0a 63921.13 63921.13 0 1 1 -127842.26 0"/>
<path id="N" d="M 10263918.87 11501576.00 m -63921.13 0 a 63921.13 63921.13 0 1 1 127842.26 0a 63921.13 63921.13 0 1 1 -127842.26 0"/>
<path id="N" d="M 9091437.87 13044172.00 m -63921.13 0 a 63921.13 63921.13 0 1 1 127842.26 0a 63921.13 63921.13 0 1 1 -127842.26 0"/>
<path id="N" d="M 10508819.87 11508849.00 m -63921.13 0 a 63921.13 63921.13 0 1 1 127842.26 0a 63921.13 63921.13 0 1 1 -127842.26 0"/>
<path id="N" d="M 9307873.87 13071147.00 m -63921.13 0 a 63921.13 63921.13 0 1 1 127842.26 0a 63921.13 63921.13 0 1 1 -127842.26 0"/>
<path id="N" d="M 7949999.87 16200000.00 m -63921.13 0 a 63921.13 63921.13 0 1 1 127842.26 0a 63921.13 63921.13 0 1 1 -127842.26 0"/>
<path id="N" d="M 13059054.87 19148244.00 m -63921.13 0 a 63921.13 63921.13 0 1 1 127842.26 0a 63921.13 63921.13 0 1 1 -127842.26 0"/>
<path id="N" d="M 6522834.87 20300000.00 m -63921.13 0 a 63921.13 63921.13 0 1 1 127842.26 0a 63921.13 63921.13 0 1 1 -127842.26 0"/>
<path id="N" d="M 11038889.87 16392040.00 m -63921.13 0 a 63921.13 63921.13 0 1 1 127842.26 0a 63921.13 63921.13 0 1 1 -127842.26 0"/>
<path id="N" d="M 9299999.87 16109055.00 m -63921.13 0 a 63921.13 63921.13 0 1 1 127842.26 0a 63921.13 63921.13 0 1 1 -127842.26 0"/>
<path id="N" d="M 7568483.87 13471260.00 m -63921.13 0 a 63921.13 63921.13 0 1 1 127842.26 0a 63921.13 63921.13 0 1 1 -127842.26 0"/>
<path id="N" d="M 6935490.87 16135491.00 m -63921.13 0 a 63921.13 63921.13 0 1 1 127842.26 0a 63921.13 63921.13 0 1 1 -127842.26 0"/>
<path id="N" d="M 10870772.87 16570780.00 m -63921.13 0 a 63921.13 63921.13 0 1 1 127842.26 0a 63921.13 63921.13 0 1 1 -127842.26 0"/>
<path id="N" d="M 7249999.87 19328740.00 m -63921.13 0 a 63921.13 63921.13 0 1 1 127842.26 0a 63921.13 63921.13 0 1 1 -127842.26 0"/>
<path id="N" d="M 9764487.00 23214174.00 L 9764487.00 22741732.00 A 200706.53 200706.53 0 0 0 9363073.00 22741732.00 L 9363073.00 23214174.00 A 200706.53 200706.53 0 0 0 9764487.00 23214174.00  zM 9443356.00 23214173.00 L 9443356.00 22741733.00 A 120431.73 120431.73 0 0 1 9684204.00 22741733.00 L 9684204.00 23214173.00 A 120431.73 120431.73 0 0 1 9443356.00 23214173.00  z"/>
<path id="N" d="M 6364487.00 23214174.00 L 6364487.00 22741732.00 A 200706.53 200706.53 0 0 0 5963073.00 22741732.00 L 5963073.00 23214174.00 A 200706.53 200706.53 0 0 0 6364487.00 23214174.00  zM 6043356.00 23214173.00 L 6043356.00 22741733.00 A 120431.73 120431.73 0 0 1 6284204.00 22741733.00 L 6284204.00 23214173.00 A 120431.73 120431.73 0 0 1 6043356.00 23214173.00  z"/>
<path id="N" d="M 9764487.00 21489763.00 L 9764487.00 21174803.00 A 200706.53 200706.53 0 0 0 9363073.00 21174803.00 L 9363073.00 21489763.00 A 200706.53 200706.53 0 0 0 9764487.00 21489763.00  zM 9443356.00 21489763.00 L 9443356.00 21174803.00 A 120431.73 120431.73 0 0 1 9684204.00 21174803.00 L 9684204.00 21489763.00 A 120431.73 120431.73 0 1 1 9443356.00 21489763.00  z"/>
<path id="N" d="M 6367843.00 21442984.00 L 6367843.00 21128024.00 A 200706.53 200706.53 0 0 0 5966429.00 21128024.00 L 5966429.00 21442984.00 A 200706.53 200706.53 0 0 0 6367843.00 21442984.00  zM 6046712.00 21442984.00 L 6046712.00 21128024.00 A 120431.73 120431.73 0 0 1 6287560.00 21128024.00 L 6287560.00 21442984.00 A 120431.73 120431.73 0 0 1 6046712.00 21442984.00  z"/>
<path id="N" d="M 11365938.87 13887402.00 m -63921.13 0 a 63921.13 63921.13 0 1 1 127842.26 0a 63921.13 63921.13 0 1 1 -127842.26 0"/>
<path id="N" d="M 14499999.87 13800000.00 m -63921.13 0 a 63921.13 63921.13 0 1 1 127842.26 0a 63921.13 63921.13 0 1 1 -127842.26 0"/>
<path id="N" d="M 5549999.87 14500000.00 m -63921.13 0 a 63921.13 63921.13 0 1 1 127842.26 0a 63921.13 63921.13 0 1 1 -127842.26 0"/>
<path id="N" d="M 11249999.87 9350000.00 m -63921.13 0 a 63921.13 63921.13 0 1 1 127842.26 0a 63921.13 63921.13 0 1 1 -127842.26 0"/>
<path id="N" d="M 6649999.87 14650000.00 m -63921.13 0 a 63921.13 63921.13 0 1 1 127842.26 0a 63921.13 63921.13 0 1 1 -127842.26 0"/>
<path id="N" d="M 6599999.87 15650000.00 m -63921.13 0 a 63921.13 63921.13 0 1 1 127842.26 0a 63921.13 63921.13 0 1 1 -127842.26 0"/>
<path id="N" d="M 12499999.87 9400000.00 m -63921.13 0 a 63921.13 63921.13 0 1 1 127842.26 0a 63921.13 63921.13 0 1 1 -127842.26 0"/>
<path id="N" d="M 10749999.87 14350000.00 m -63921.13 0 a 63921.13 63921.13 0 1 1 127842.26 0a 63921.13 63921.13 0 1 1 -127842.26 0"/>
<path id="N" d="M 7910740.87 14420472.00 m -63921.13 0 a 63921.13 63921.13 0 1 1 127842.26 0a 63921.13 63921.13 0 1 1 -127842.26 0"/>
<path id="N" d="M 14699999.87 13750000.00 m -63921.13 0 a 63921.13 63921.13 0 1 1 127842.26 0a 63921.13 63921.13 0 1 1 -127842.26 0"/>
<path id="N" d="M 6549999.87 14050000.00 m -63921.13 0 a 63921.13 63921.13 0 1 1 127842.26 0a 63921.13 63921.13 0 1 1 -127842.26 0"/>
<path id="N" d="M 12185832.87 21378581.00 m -63921.13 0 a 63921.13 63921.13 0 1 1 127842.26 0a 63921.13 63921.13 0 1 1 -127842.26 0"/>
<path id="N" d="M 12614166.87 21507651.00 m -63921.13 0 a 63921.13 63921.13 0 1 1 127842.26 0a 63921.13 63921.13 0 1 1 -127842.26 0"/>
<path id="N" d="M 12185832.87 21596691.00 m -63921.13 0 a 63921.13 63921.13 0 1 1 127842.26 0a 63921.13 63921.13 0 1 1 -127842.26 0"/>
<path id="N" d="M 15099999.87 12900000.00 m -63921.13 0 a 63921.13 63921.13 0 1 1 127842.26 0a 63921.13 63921.13 0 1 1 -127842.26 0"/>
<path id="N" d="M 5999999.87 12950000.00 m -63921.13 0 a 63921.13 63921.13 0 1 1 127842.26 0a 63921.13 63921.13 0 1 1 -127842.26 0"/>
<path id="N" d="M 9291338.87 12172997.00 m -63921.13 0 a 63921.13 63921.13 0 1 1 127842.26 0a 63921.13 63921.13 0 1 1 -127842.26 0"/>
<path id="N" d="M 5999999.87 12600000.00 m -63921.13 0 a 63921.13 63921.13 0 1 1 127842.26 0a 63921.13 63921.13 0 1 1 -127842.26 0"/>
<path id="N" d="M 10236219.87 12172998.00 m -63921.13 0 a 63921.13 63921.13 0 1 1 127842.26 0a 63921.13 63921.13 0 1 1 -127842.26 0"/>
<path id="N" d="M 4932065.87 16462598.00 m -63921.13 0 a 63921.13 63921.13 0 1 1 127842.26 0a 63921.13 63921.13 0 1 1 -127842.26 0"/>
<path id="N" d="M 12149999.87 19023228.00 m -63921.13 0 a 63921.13 63921.13 0 1 1 127842.26 0a 63921.13 63921.13 0 1 1 -127842.26 0"/>
<path id="N" d="M 8346456.87 12417323.00 m -63921.13 0 a 63921.13 63921.13 0 1 1 127842.26 0a 63921.13 63921.13 0 1 1 -127842.26 0"/>
<path id="N" d="M 8818897.87 12417323.00 m -63921.13 0 a 63921.13 63921.13 0 1 1 127842.26 0a 63921.13 63921.13 0 1 1 -127842.26 0"/>
<path id="N" d="M 11923227.87 13450000.00 m -63921.13 0 a 63921.13 63921.13 0 1 1 127842.26 0a 63921.13 63921.13 0 1 1 -127842.26 0"/>
<path id="N" d="M 10866141.87 11204725.00 m -63921.13 0 a 63921.13 63921.13 0 1 1 127842.26 0a 63921.13 63921.13 0 1 1 -127842.26 0"/>
<path id="N" d="M 14749999.87 14900000.00 m -63921.13 0 a 63921.13 63921.13 0 1 1 127842.26 0a 63921.13 63921.13 0 1 1 -127842.26 0"/>
<path id="N" d="M 6699999.87 15200000.00 m -63921.13 0 a 63921.13 63921.13 0 1 1 127842.26 0a 63921.13 63921.13 0 1 1 -127842.26 0"/>
<path id="N" d="M 11181102.87 11204725.00 m -63921.13 0 a 63921.13 63921.13 0 1 1 127842.26 0a 63921.13 63921.13 0 1 1 -127842.26 0"/>
<path id="N" d="M 9599999.87 10909055.00 m -63921.13 0 a 63921.13 63921.13 0 1 1 127842.26 0a 63921.13 63921.13 0 1 1 -127842.26 0"/>
<path id="N" d="M 12949999.87 10517324.00 m -63921.13 0 a 63921.13 63921.13 0 1 1 127842.26 0a 63921.13 63921.13 0 1 1 -127842.26 0"/>
<path id="N" d="M 9707191.87 12132852.00 m -63921.13 0 a 63921.13 63921.13 0 1 1 127842.26 0a 63921.13 63921.13 0 1 1 -127842.26 0"/>
<path id="N" d="M 6799999.87 11150000.00 m -63921.13 0 a 63921.13 63921.13 0 1 1 127842.26 0a 63921.13 63921.13 0 1 1 -127842.26 0"/>
<path id="N" d="M 12780158.87 21867248.00 m -63921.13 0 a 63921.13 63921.13 0 1 1 127842.26 0a 63921.13 63921.13 0 1 1 -127842.26 0"/>
<path id="N" d="M 10449213.87 20300787.00 m -63921.13 0 a 63921.13 63921.13 0 1 1 127842.26 0a 63921.13 63921.13 0 1 1 -127842.26 0"/>
<path id="N" d="M 14499999.87 20950000.00 m -63921.13 0 a 63921.13 63921.13 0 1 1 127842.26 0a 63921.13 63921.13 0 1 1 -127842.26 0"/>
<path id="N" d="M 5799999.87 20300000.00 m -63921.13 0 a 63921.13 63921.13 0 1 1 127842.26 0a 63921.13 63921.13 0 1 1 -127842.26 0"/>
<path id="N" d="M 9825393.87 20300787.00 m -63921.13 0 a 63921.13 63921.13 0 1 1 127842.26 0a 63921.13 63921.13 0 1 1 -127842.26 0"/>
<path id="N" d="M 11969363.87 22166932.00 m -63921.13 0 a 63921.13 63921.13 0 1 1 127842.26 0a 63921.13 63921.13 0 1 1 -127842.26 0"/>
<path id="N" d="M 11249999.87 22000000.00 m -63921.13 0 a 63921.13 63921.13 0 1 1 127842.26 0a 63921.13 63921.13 0 1 1 -127842.26 0"/>
<path id="N" d="M 13499999.87 22000000.00 m -63921.13 0 a 63921.13 63921.13 0 1 1 127842.26 0a 63921.13 63921.13 0 1 1 -127842.26 0"/>
<path id="N" d="M 12830635.87 22297547.00 m -63921.13 0 a 63921.13 63921.13 0 1 1 127842.26 0a 63921.13 63921.13 0 1 1 -127842.26 0"/>
<path id="N" d="M 11969363.87 22385042.00 m -63921.13 0 a 63921.13 63921.13 0 1 1 127842.26 0a 63921.13 63921.13 0 1 1 -127842.26 0"/>
<path id="N" d="M 11049999.87 19650000.00 m -63921.13 0 a 63921.13 63921.13 0 1 1 127842.26 0a 63921.13 63921.13 0 1 1 -127842.26 0"/>
<path id="N" d="M 12464261.87 19790745.00 m -63921.13 0 a 63921.13 63921.13 0 1 1 127842.26 0a 63921.13 63921.13 0 1 1 -127842.26 0"/>
<path id="N" d="M 9884646.87 20050000.00 m -63921.13 0 a 63921.13 63921.13 0 1 1 127842.26 0a 63921.13 63921.13 0 1 1 -127842.26 0"/>
<path id="N" d="M 9449999.87 20100000.00 m -63921.13 0 a 63921.13 63921.13 0 1 1 127842.26 0a 63921.13 63921.13 0 1 1 -127842.26 0"/>
<path id="N" d="M 5399999.87 20000000.00 m -63921.13 0 a 63921.13 63921.13 0 1 1 127842.26 0a 63921.13 63921.13 0 1 1 -127842.26 0"/>
<path id="N" d="M 12566229.87 20421403.00 m -63921.13 0 a 63921.13 63921.13 0 1 1 127842.26 0a 63921.13 63921.13 0 1 1 -127842.26 0"/>
<path id="N" d="M 11287334.87 20427390.00 m -63921.13 0 a 63921.13 63921.13 0 1 1 127842.26 0a 63921.13 63921.13 0 1 1 -127842.26 0"/>
<path id="N" d="M 10915079.87 20230239.00 m -63921.13 0 a 63921.13 63921.13 0 1 1 127842.26 0a 63921.13 63921.13 0 1 1 -127842.26 0"/>
<path id="N" d="M 11074684.87 20378894.00 m -63921.13 0 a 63921.13 63921.13 0 1 1 127842.26 0a 63921.13 63921.13 0 1 1 -127842.26 0"/>
<path id="N" d="M 12614166.87 21289541.00 m -63921.13 0 a 63921.13 63921.13 0 1 1 127842.26 0a 63921.13 63921.13 0 1 1 -127842.26 0"/>
<path id="N" d="M 12614166.87 21071431.00 m -63921.13 0 a 63921.13 63921.13 0 1 1 127842.26 0a 63921.13 63921.13 0 1 1 -127842.26 0"/>
<path id="N" d="M 14499999.87 21150000.00 m -63921.13 0 a 63921.13 63921.13 0 1 1 127842.26 0a 63921.13 63921.13 0 1 1 -127842.26 0"/>
<path id="N" d="M 12185832.87 21160471.00 m -63921.13 0 a 63921.13 63921.13 0 1 1 127842.26 0a 63921.13 63921.13 0 1 1 -127842.26 0"/>
<path id="N" d="M 14099999.87 21150000.00 m -63921.13 0 a 63921.13 63921.13 0 1 1 127842.26 0a 63921.13 63921.13 0 1 1 -127842.26 0"/>
<path id="N" d="M 12614166.87 21725761.00 m -63921.13 0 a 63921.13 63921.13 0 1 1 127842.26 0a 63921.13 63921.13 0 1 1 -127842.26 0"/>
<path id="N" d="M 12146953.87 21811308.00 m -63921.13 0 a 63921.13 63921.13 0 1 1 127842.26 0a 63921.13 63921.13 0 1 1 -127842.26 0"/>
<path id="N" d="M 14299999.87 21150000.00 m -63921.13 0 a 63921.13 63921.13 0 1 1 127842.26 0a 63921.13 63921.13 0 1 1 -127842.26 0"/>
<path id="N" d="M 12999999.87 21300000.00 m -63921.13 0 a 63921.13 63921.13 0 1 1 127842.26 0a 63921.13 63921.13 0 1 1 -127842.26 0"/>
<path id="N" d="M 12830635.87 22951877.00 m -63921.13 0 a 63921.13 63921.13 0 1 1 127842.26 0a 63921.13 63921.13 0 1 1 -127842.26 0"/>
<path id="N" d="M 13499999.87 23150000.00 m -63921.13 0 a 63921.13 63921.13 0 1 1 127842.26 0a 63921.13 63921.13 0 1 1 -127842.26 0"/>
<path id="N" d="M 12830635.87 22079437.00 m -63921.13 0 a 63921.13 63921.13 0 1 1 127842.26 0a 63921.13 63921.13 0 1 1 -127842.26 0"/>
<path id="N" d="M 12830635.87 22515657.00 m -63921.13 0 a 63921.13 63921.13 0 1 1 127842.26 0a 63921.13 63921.13 0 1 1 -127842.26 0"/>
<path id="N" d="M 11249999.87 23200000.00 m -63921.13 0 a 63921.13 63921.13 0 1 1 127842.26 0a 63921.13 63921.13 0 1 1 -127842.26 0"/>
<path id="N" d="M 11969363.87 22821262.00 m -63921.13 0 a 63921.13 63921.13 0 1 1 127842.26 0a 63921.13 63921.13 0 1 1 -127842.26 0"/>
<path id="N" d="M 11977787.87 21948985.00 m -63921.13 0 a 63921.13 63921.13 0 1 1 127842.26 0a 63921.13 63921.13 0 1 1 -127842.26 0"/>
<path id="N" d="M 11969363.87 22603152.00 m -63921.13 0 a 63921.13 63921.13 0 1 1 127842.26 0a 63921.13 63921.13 0 1 1 -127842.26 0"/>
<path id="N" d="M 12830635.87 22733767.00 m -63921.13 0 a 63921.13 63921.13 0 1 1 127842.26 0a 63921.13 63921.13 0 1 1 -127842.26 0"/>
<path id="N" d="M 8818897.87 19050000.00 m -63921.13 0 a 63921.13 63921.13 0 1 1 127842.26 0a 63921.13 63921.13 0 1 1 -127842.26 0"/>
<path id="N" d="M 8399999.87 18850000.00 m -63921.13 0 a 63921.13 63921.13 0 1 1 127842.26 0a 63921.13 63921.13 0 1 1 -127842.26 0"/>
<path id="N" d="M 8849999.87 17400000.00 m -63921.13 0 a 63921.13 63921.13 0 1 1 127842.26 0a 63921.13 63921.13 0 1 1 -127842.26 0"/>
<path id="N" d="M 9155511.87 19428740.00 m -63921.13 0 a 63921.13 63921.13 0 1 1 127842.26 0a 63921.13 63921.13 0 1 1 -127842.26 0"/>
<path id="N" d="M 6849999.87 19476772.00 m -63921.13 0 a 63921.13 63921.13 0 1 1 127842.26 0a 63921.13 63921.13 0 1 1 -127842.26 0"/>
<path id="N" d="M 12649999.87 16900000.00 m -63921.13 0 a 63921.13 63921.13 0 1 1 127842.26 0a 63921.13 63921.13 0 1 1 -127842.26 0"/>
<path id="N" d="M 13049999.87 16900000.00 m -63921.13 0 a 63921.13 63921.13 0 1 1 127842.26 0a 63921.13 63921.13 0 1 1 -127842.26 0"/>
<path id="N" d="M 7299999.87 17700000.00 m -63921.13 0 a 63921.13 63921.13 0 1 1 127842.26 0a 63921.13 63921.13 0 1 1 -127842.26 0"/>
<path id="N" d="M 12167932.87 18037401.00 m -63921.13 0 a 63921.13 63921.13 0 1 1 127842.26 0a 63921.13 63921.13 0 1 1 -127842.26 0"/>
<path id="N" d="M 8818897.87 19409449.00 m -63921.13 0 a 63921.13 63921.13 0 1 1 127842.26 0a 63921.13 63921.13 0 1 1 -127842.26 0"/>
<path id="N" d="M 12449999.87 18950000.00 m -63921.13 0 a 63921.13 63921.13 0 1 1 127842.26 0a 63921.13 63921.13 0 1 1 -127842.26 0"/>
<path id="N" d="M 10433070.87 18985039.00 m -63921.13 0 a 63921.13 63921.13 0 1 1 127842.26 0a 63921.13 63921.13 0 1 1 -127842.26 0"/>
<path id="N" d="M 8399999.87 19250000.00 m -63921.13 0 a 63921.13 63921.13 0 1 1 127842.26 0a 63921.13 63921.13 0 1 1 -127842.26 0"/>
<path id="N" d="M 13799999.87 18850000.00 m -63921.13 0 a 63921.13 63921.13 0 1 1 127842.26 0a 63921.13 63921.13 0 1 1 -127842.26 0"/>
<path id="N" d="M 9566928.87 19614961.00 m -63921.13 0 a 63921.13 63921.13 0 1 1 127842.26 0a 63921.13 63921.13 0 1 1 -127842.26 0"/>
<path id="N" d="M 8999999.87 19650000.00 m -63921.13 0 a 63921.13 63921.13 0 1 1 127842.26 0a 63921.13 63921.13 0 1 1 -127842.26 0"/>
<path id="N" d="M 12149999.87 19326772.00 m -63921.13 0 a 63921.13 63921.13 0 1 1 127842.26 0a 63921.13 63921.13 0 1 1 -127842.26 0"/>
<path id="N" d="M 10867716.87 19600000.00 m -63921.13 0 a 63921.13 63921.13 0 1 1 127842.26 0a 63921.13 63921.13 0 1 1 -127842.26 0"/>
<path id="N" d="M 4549999.87 18600000.00 m -63921.13 0 a 63921.13 63921.13 0 1 1 127842.26 0a 63921.13 63921.13 0 1 1 -127842.26 0"/>
<path id="N" d="M 10369880.87 18650000.00 m -63921.13 0 a 63921.13 63921.13 0 1 1 127842.26 0a 63921.13 63921.13 0 1 1 -127842.26 0"/>
<path id="N" d="M 6899999.87 17000000.00 m -63921.13 0 a 63921.13 63921.13 0 1 1 127842.26 0a 63921.13 63921.13 0 1 1 -127842.26 0"/>
<path id="N" d="M 9930096.87 18408465.00 m -63921.13 0 a 63921.13 63921.13 0 1 1 127842.26 0a 63921.13 63921.13 0 1 1 -127842.26 0"/>
<path id="N" d="M 9446370.87 18569281.00 m -63921.13 0 a 63921.13 63921.13 0 1 1 127842.26 0a 63921.13 63921.13 0 1 1 -127842.26 0"/>
<path id="N" d="M 10845417.87 18598194.00 m -63921.13 0 a 63921.13 63921.13 0 1 1 127842.26 0a 63921.13 63921.13 0 1 1 -127842.26 0"/>
<path id="N" d="M 10848834.87 18825981.00 m -63921.13 0 a 63921.13 63921.13 0 1 1 127842.26 0a 63921.13 63921.13 0 1 1 -127842.26 0"/>
<path id="N" d="M 9123460.87 18569281.00 m -63921.13 0 a 63921.13 63921.13 0 1 1 127842.26 0a 63921.13 63921.13 0 1 1 -127842.26 0"/>
<path id="N" d="M 11706206.87 6549443.00 m -63921.13 0 a 63921.13 63921.13 0 1 1 127842.26 0a 63921.13 63921.13 0 1 1 -127842.26 0"/>
<path id="N" d="M 5899999.87 6800000.00 m -63921.13 0 a 63921.13 63921.13 0 1 1 127842.26 0a 63921.13 63921.13 0 1 1 -127842.26 0"/>
<path id="N" d="M 11299999.87 5600000.00 m -63921.13 0 a 63921.13 63921.13 0 1 1 127842.26 0a 63921.13 63921.13 0 1 1 -127842.26 0"/>
<path id="N" d="M 12049999.87 5600000.00 m -63921.13 0 a 63921.13 63921.13 0 1 1 127842.26 0a 63921.13 63921.13 0 1 1 -127842.26 0"/>
<path id="N" d="M 6099999.87 6800000.00 m -63921.13 0 a 63921.13 63921.13 0 1 1 127842.26 0a 63921.13 63921.13 0 1 1 -127842.26 0"/>
<path id="N" d="M 11349999.87 6750000.00 m -63921.13 0 a 63921.13 63921.13 0 1 1 127842.26 0a 63921.13 63921.13 0 1 1 -127842.26 0"/>
<path id="N" d="M 12099999.87 6750000.00 m -63921.13 0 a 63921.13 63921.13 0 1 1 127842.26 0a 63921.13 63921.13 0 1 1 -127842.26 0"/>
<path id="N" d="M 6299999.87 6800000.00 m -63921.13 0 a 63921.13 63921.13 0 1 1 127842.26 0a 63921.13 63921.13 0 1 1 -127842.26 0"/>
<path id="N" d="M 13599999.87 6750000.00 m -63921.13 0 a 63921.13 63921.13 0 1 1 127842.26 0a 63921.13 63921.13 0 1 1 -127842.26 0"/>
<path id="N" d="M 12399999.87 5350000.00 m -63921.13 0 a 63921.13 63921.13 0 1 1 127842.26 0a 63921.13 63921.13 0 1 1 -127842.26 0"/>
<path id="N" d="M 13649999.87 5350000.00 m -63921.13 0 a 63921.13 63921.13 0 1 1 127842.26 0a 63921.13 63921.13 0 1 1 -127842.26 0"/>
<path id="N" d="M 11556206.87 5599443.00 m -63921.13 0 a 63921.13 63921.13 0 1 1 127842.26 0a 63921.13 63921.13 0 1 1 -127842.26 0"/>
<path id="N" d="M 12149999.87 5350000.00 m -63921.13 0 a 63921.13 63921.13 0 1 1 127842.26 0a 63921.13 63921.13 0 1 1 -127842.26 0"/>
<path id="N" d="M 13549999.87 5600000.00 m -63921.13 0 a 63921.13 63921.13 0 1 1 127842.26 0a 63921.13 63921.13 0 1 1 -127842.26 0"/>
<path id="N" d="M 12299999.87 5600000.00 m -63921.13 0 a 63921.13 63921.13 0 1 1 127842.26 0a 63921.13 63921.13 0 1 1 -127842.26 0"/>
<path id="N" d="M 13306206.87 5599443.00 m -63921.13 0 a 63921.13 63921.13 0 1 1 127842.26 0a 63921.13 63921.13 0 1 1 -127842.26 0"/>
<path id="N" d="M 11356206.87 5849443.00 m -63921.13 0 a 63921.13 63921.13 0 1 1 127842.26 0a 63921.13 63921.13 0 1 1 -127842.26 0"/>
<path id="N" d="M 11606206.87 5849443.00 m -63921.13 0 a 63921.13 63921.13 0 1 1 127842.26 0a 63921.13 63921.13 0 1 1 -127842.26 0"/>
<path id="N" d="M 12349999.87 6750000.00 m -63921.13 0 a 63921.13 63921.13 0 1 1 127842.26 0a 63921.13 63921.13 0 1 1 -127842.26 0"/>
<path id="N" d="M 12456206.87 6549443.00 m -63921.13 0 a 63921.13 63921.13 0 1 1 127842.26 0a 63921.13 63921.13 0 1 1 -127842.26 0"/>
<path id="N" d="M 12706206.87 6549443.00 m -63921.13 0 a 63921.13 63921.13 0 1 1 127842.26 0a 63921.13 63921.13 0 1 1 -127842.26 0"/>
<path id="N" d="M 12199999.87 6550000.00 m -63921.13 0 a 63921.13 63921.13 0 1 1 127842.26 0a 63921.13 63921.13 0 1 1 -127842.26 0"/>
<path id="N" d="M 13206206.87 6549443.00 m -63921.13 0 a 63921.13 63921.13 0 1 1 127842.26 0a 63921.13 63921.13 0 1 1 -127842.26 0"/>
<path id="N" d="M 12956206.87 6549443.00 m -63921.13 0 a 63921.13 63921.13 0 1 1 127842.26 0a 63921.13 63921.13 0 1 1 -127842.26 0"/>
<path id="N" d="M 13356206.87 6749443.00 m -63921.13 0 a 63921.13 63921.13 0 1 1 127842.26 0a 63921.13 63921.13 0 1 1 -127842.26 0"/>
<path id="N" d="M 12606206.87 6749443.00 m -63921.13 0 a 63921.13 63921.13 0 1 1 127842.26 0a 63921.13 63921.13 0 1 1 -127842.26 0"/>
<path id="N" d="M 12856206.87 6749443.00 m -63921.13 0 a 63921.13 63921.13 0 1 1 127842.26 0a 63921.13 63921.13 0 1 1 -127842.26 0"/>
<path id="N" d="M 13106206.87 6749443.00 m -63921.13 0 a 63921.13 63921.13 0 1 1 127842.26 0a 63921.13 63921.13 0 1 1 -127842.26 0"/>
<path id="N" d="M 5349999.87 9300000.00 m -63921.13 0 a 63921.13 63921.13 0 1 1 127842.26 0a 63921.13 63921.13 0 1 1 -127842.26 0"/>
<path id="N" d="M 14751574.87 7448425.00 m -63921.13 0 a 63921.13 63921.13 0 1 1 127842.26 0a 63921.13 63921.13 0 1 1 -127842.26 0"/>
<path id="N" d="M 4449999.87 8300000.00 m -63921.13 0 a 63921.13 63921.13 0 1 1 127842.26 0a 63921.13 63921.13 0 1 1 -127842.26 0"/>
<path id="N" d="M 12400407.87 9149439.00 m -63921.13 0 a 63921.13 63921.13 0 1 1 127842.26 0a 63921.13 63921.13 0 1 1 -127842.26 0"/>
<path id="N" d="M 6499999.87 6800000.00 m -63921.13 0 a 63921.13 63921.13 0 1 1 127842.26 0a 63921.13 63921.13 0 1 1 -127842.26 0"/>
<path id="N" d="M 11199999.87 6550000.00 m -63921.13 0 a 63921.13 63921.13 0 1 1 127842.26 0a 63921.13 63921.13 0 1 1 -127842.26 0"/>
<path id="N" d="M 11949999.87 6550000.00 m -63921.13 0 a 63921.13 63921.13 0 1 1 127842.26 0a 63921.13 63921.13 0 1 1 -127842.26 0"/>
<path id="N" d="M 6749999.87 6800000.00 m -63921.13 0 a 63921.13 63921.13 0 1 1 127842.26 0a 63921.13 63921.13 0 1 1 -127842.26 0"/>
<path id="N" d="M 9399999.87 7250000.00 m -63921.13 0 a 63921.13 63921.13 0 1 1 127842.26 0a 63921.13 63921.13 0 1 1 -127842.26 0"/>
<path id="N" d="M 11599999.87 6300000.00 m -63921.13 0 a 63921.13 63921.13 0 1 1 127842.26 0a 63921.13 63921.13 0 1 1 -127842.26 0"/>
<path id="N" d="M 14049999.87 6150000.00 m -63921.13 0 a 63921.13 63921.13 0 1 1 127842.26 0a 63921.13 63921.13 0 1 1 -127842.26 0"/>
<path id="N" d="M 12093792.87 6300557.00 m -63921.13 0 a 63921.13 63921.13 0 1 1 127842.26 0a 63921.13 63921.13 0 1 1 -127842.26 0"/>
<path id="N" d="M 11456206.87 6549443.00 m -63921.13 0 a 63921.13 63921.13 0 1 1 127842.26 0a 63921.13 63921.13 0 1 1 -127842.26 0"/>
<path id="N" d="M 15026771.87 6200000.00 m -63921.13 0 a 63921.13 63921.13 0 1 1 127842.26 0a 63921.13 63921.13 0 1 1 -127842.26 0"/>
<path id="N" d="M 12806206.87 5599443.00 m -63921.13 0 a 63921.13 63921.13 0 1 1 127842.26 0a 63921.13 63921.13 0 1 1 -127842.26 0"/>
<path id="N" d="M 13056206.87 5599443.00 m -63921.13 0 a 63921.13 63921.13 0 1 1 127842.26 0a 63921.13 63921.13 0 1 1 -127842.26 0"/>
<path id="N" d="M 11349999.87 6300000.00 m -63921.13 0 a 63921.13 63921.13 0 1 1 127842.26 0a 63921.13 63921.13 0 1 1 -127842.26 0"/>
<path id="N" d="M 11806206.87 5599443.00 m -63921.13 0 a 63921.13 63921.13 0 1 1 127842.26 0a 63921.13 63921.13 0 1 1 -127842.26 0"/>
<path id="N" d="M 11693792.87 6100557.00 m -63921.13 0 a 63921.13 63921.13 0 1 1 127842.26 0a 63921.13 63921.13 0 1 1 -127842.26 0"/>
<path id="N" d="M 11943792.87 6100557.00 m -63921.13 0 a 63921.13 63921.13 0 1 1 127842.26 0a 63921.13 63921.13 0 1 1 -127842.26 0"/>
<path id="N" d="M 12199999.87 6100000.00 m -63921.13 0 a 63921.13 63921.13 0 1 1 127842.26 0a 63921.13 63921.13 0 1 1 -127842.26 0"/>
<path id="N" d="M 11449999.87 6100000.00 m -63921.13 0 a 63921.13 63921.13 0 1 1 127842.26 0a 63921.13 63921.13 0 1 1 -127842.26 0"/>
<path id="N" d="M 11199999.87 6100000.00 m -63921.13 0 a 63921.13 63921.13 0 1 1 127842.26 0a 63921.13 63921.13 0 1 1 -127842.26 0"/>
<path id="N" d="M 11843792.87 6300557.00 m -63921.13 0 a 63921.13 63921.13 0 1 1 127842.26 0a 63921.13 63921.13 0 1 1 -127842.26 0"/>
<path id="N" d="M 11849999.87 5850000.00 m -63921.13 0 a 63921.13 63921.13 0 1 1 127842.26 0a 63921.13 63921.13 0 1 1 -127842.26 0"/>
<path id="N" d="M 12099999.87 5850000.00 m -63921.13 0 a 63921.13 63921.13 0 1 1 127842.26 0a 63921.13 63921.13 0 1 1 -127842.26 0"/>
<path id="N" d="M 13449999.87 6550000.00 m -63921.13 0 a 63921.13 63921.13 0 1 1 127842.26 0a 63921.13 63921.13 0 1 1 -127842.26 0"/>
<path id="N" d="M 12656206.87 4949443.00 m -63921.13 0 a 63921.13 63921.13 0 1 1 127842.26 0a 63921.13 63921.13 0 1 1 -127842.26 0"/>
<path id="N" d="M 13549999.87 4750000.00 m -63921.13 0 a 63921.13 63921.13 0 1 1 127842.26 0a 63921.13 63921.13 0 1 1 -127842.26 0"/>
<path id="N" d="M 13156206.87 4949443.00 m -63921.13 0 a 63921.13 63921.13 0 1 1 127842.26 0a 63921.13 63921.13 0 1 1 -127842.26 0"/>
<path id="N" d="M 13406206.87 4949443.00 m -63921.13 0 a 63921.13 63921.13 0 1 1 127842.26 0a 63921.13 63921.13 0 1 1 -127842.26 0"/>
<path id="N" d="M 11656206.87 4949443.00 m -63921.13 0 a 63921.13 63921.13 0 1 1 127842.26 0a 63921.13 63921.13 0 1 1 -127842.26 0"/>
<path id="N" d="M 11806206.87 5149443.00 m -63921.13 0 a 63921.13 63921.13 0 1 1 127842.26 0a 63921.13 63921.13 0 1 1 -127842.26 0"/>
<path id="N" d="M 12556206.87 5149443.00 m -63921.13 0 a 63921.13 63921.13 0 1 1 127842.26 0a 63921.13 63921.13 0 1 1 -127842.26 0"/>
<path id="N" d="M 11906206.87 4949443.00 m -63921.13 0 a 63921.13 63921.13 0 1 1 127842.26 0a 63921.13 63921.13 0 1 1 -127842.26 0"/>
<path id="N" d="M 11556206.87 5149443.00 m -63921.13 0 a 63921.13 63921.13 0 1 1 127842.26 0a 63921.13 63921.13 0 1 1 -127842.26 0"/>
<path id="N" d="M 13406206.87 5349443.00 m -63921.13 0 a 63921.13 63921.13 0 1 1 127842.26 0a 63921.13 63921.13 0 1 1 -127842.26 0"/>
<path id="N" d="M 11399999.87 5350000.00 m -63921.13 0 a 63921.13 63921.13 0 1 1 127842.26 0a 63921.13 63921.13 0 1 1 -127842.26 0"/>
<path id="N" d="M 13306206.87 5149443.00 m -63921.13 0 a 63921.13 63921.13 0 1 1 127842.26 0a 63921.13 63921.13 0 1 1 -127842.26 0"/>
<path id="N" d="M 13156206.87 5349443.00 m -63921.13 0 a 63921.13 63921.13 0 1 1 127842.26 0a 63921.13 63921.13 0 1 1 -127842.26 0"/>
<path id="N" d="M 12906206.87 5349443.00 m -63921.13 0 a 63921.13 63921.13 0 1 1 127842.26 0a 63921.13 63921.13 0 1 1 -127842.26 0"/>
<path id="N" d="M 12656206.87 5349443.00 m -63921.13 0 a 63921.13 63921.13 0 1 1 127842.26 0a 63921.13 63921.13 0 1 1 -127842.26 0"/>
<path id="N" d="M 12906206.87 4949443.00 m -63921.13 0 a 63921.13 63921.13 0 1 1 127842.26 0a 63921.13 63921.13 0 1 1 -127842.26 0"/>
<path id="N" d="M 11656206.87 5349443.00 m -63921.13 0 a 63921.13 63921.13 0 1 1 127842.26 0a 63921.13 63921.13 0 1 1 -127842.26 0"/>
<path id="N" d="M 11906206.87 5349443.00 m -63921.13 0 a 63921.13 63921.13 0 1 1 127842.26 0a 63921.13 63921.13 0 1 1 -127842.26 0"/>
<path id="N" d="M 13649999.87 4950000.00 m -63921.13 0 a 63921.13 63921.13 0 1 1 127842.26 0a 63921.13 63921.13 0 1 1 -127842.26 0"/>
<path id="N" d="M 14099999.87 20950000.00 m -63921.13 0 a 63921.13 63921.13 0 1 1 127842.26 0a 63921.13 63921.13 0 1 1 -127842.26 0"/>
<path id="N" d="M 14299999.87 20950000.00 m -63921.13 0 a 63921.13 63921.13 0 1 1 127842.26 0a 63921.13 63921.13 0 1 1 -127842.26 0"/>
<path id="N" d="M 14499999.87 20700000.00 m -63921.13 0 a 63921.13 63921.13 0 1 1 127842.26 0a 63921.13 63921.13 0 1 1 -127842.26 0"/>
<path id="N" d="M 12185832.87 20942361.00 m -63921.13 0 a 63921.13 63921.13 0 1 1 127842.26 0a 63921.13 63921.13 0 1 1 -127842.26 0"/>
<path id="N" d="M 15149999.87 20700000.00 m -63921.13 0 a 63921.13 63921.13 0 1 1 127842.26 0a 63921.13 63921.13 0 1 1 -127842.26 0"/>
<path id="N" d="M 11505444.87 20427390.00 m -63921.13 0 a 63921.13 63921.13 0 1 1 127842.26 0a 63921.13 63921.13 0 1 1 -127842.26 0"/>
<path id="N" d="M 14599999.87 20000000.00 m -63921.13 0 a 63921.13 63921.13 0 1 1 127842.26 0a 63921.13 63921.13 0 1 1 -127842.26 0"/>
<path id="N" d="M 12185832.87 20724251.00 m -63921.13 0 a 63921.13 63921.13 0 1 1 127842.26 0a 63921.13 63921.13 0 1 1 -127842.26 0"/>
<path id="N" d="M 12614166.87 20853321.00 m -63921.13 0 a 63921.13 63921.13 0 1 1 127842.26 0a 63921.13 63921.13 0 1 1 -127842.26 0"/>
<path id="N" d="M 12399999.87 4950000.00 m -63921.13 0 a 63921.13 63921.13 0 1 1 127842.26 0a 63921.13 63921.13 0 1 1 -127842.26 0"/>
<path id="N" d="M 8927164.87 20700000.00 m -63921.13 0 a 63921.13 63921.13 0 1 1 127842.26 0a 63921.13 63921.13 0 1 1 -127842.26 0"/>
<path id="N" d="M 11399999.87 4950000.00 m -63921.13 0 a 63921.13 63921.13 0 1 1 127842.26 0a 63921.13 63921.13 0 1 1 -127842.26 0"/>
<path id="N" d="M 12149999.87 4950000.00 m -63921.13 0 a 63921.13 63921.13 0 1 1 127842.26 0a 63921.13 63921.13 0 1 1 -127842.26 0"/>
<path id="N" d="M 14099999.87 20700000.00 m -63921.13 0 a 63921.13 63921.13 0 1 1 127842.26 0a 63921.13 63921.13 0 1 1 -127842.26 0"/>
<path id="N" d="M 12609031.87 20635272.00 m -63921.13 0 a 63921.13 63921.13 0 1 1 127842.26 0a 63921.13 63921.13 0 1 1 -127842.26 0"/>
<path id="N" d="M 6572834.87 20700000.00 m -63921.13 0 a 63921.13 63921.13 0 1 1 127842.26 0a 63921.13 63921.13 0 1 1 -127842.26 0"/>
<path id="N" d="M 14299999.87 20700000.00 m -63921.13 0 a 63921.13 63921.13 0 1 1 127842.26 0a 63921.13 63921.13 0 1 1 -127842.26 0"/>
<path id="N" d="M 11723554.87 20427390.00 m -63921.13 0 a 63921.13 63921.13 0 1 1 127842.26 0a 63921.13 63921.13 0 1 1 -127842.26 0"/>
<path id="N" d="M 12049999.87 4750000.00 m -63921.13 0 a 63921.13 63921.13 0 1 1 127842.26 0a 63921.13 63921.13 0 1 1 -127842.26 0"/>
<path id="N" d="M 13056206.87 4749443.00 m -63921.13 0 a 63921.13 63921.13 0 1 1 127842.26 0a 63921.13 63921.13 0 1 1 -127842.26 0"/>
<path id="N" d="M 13306206.87 4749443.00 m -63921.13 0 a 63921.13 63921.13 0 1 1 127842.26 0a 63921.13 63921.13 0 1 1 -127842.26 0"/>
<path id="N" d="M 11299999.87 4750000.00 m -63921.13 0 a 63921.13 63921.13 0 1 1 127842.26 0a 63921.13 63921.13 0 1 1 -127842.26 0"/>
<path id="N" d="M 11806206.87 4749443.00 m -63921.13 0 a 63921.13 63921.13 0 1 1 127842.26 0a 63921.13 63921.13 0 1 1 -127842.26 0"/>
<path id="N" d="M 13056206.87 4349443.00 m -63921.13 0 a 63921.13 63921.13 0 1 1 127842.26 0a 63921.13 63921.13 0 1 1 -127842.26 0"/>
<path id="N" d="M 13306206.87 4349443.00 m -63921.13 0 a 63921.13 63921.13 0 1 1 127842.26 0a 63921.13 63921.13 0 1 1 -127842.26 0"/>
<path id="N" d="M 12556206.87 4749443.00 m -63921.13 0 a 63921.13 63921.13 0 1 1 127842.26 0a 63921.13 63921.13 0 1 1 -127842.26 0"/>
<path id="N" d="M 12806206.87 4749443.00 m -63921.13 0 a 63921.13 63921.13 0 1 1 127842.26 0a 63921.13 63921.13 0 1 1 -127842.26 0"/>
<path id="N" d="M 12399999.87 4550000.00 m -63921.13 0 a 63921.13 63921.13 0 1 1 127842.26 0a 63921.13 63921.13 0 1 1 -127842.26 0"/>
<path id="N" d="M 13649999.87 4550000.00 m -63921.13 0 a 63921.13 63921.13 0 1 1 127842.26 0a 63921.13 63921.13 0 1 1 -127842.26 0"/>
<path id="N" d="M 11606206.87 6749443.00 m -63921.13 0 a 63921.13 63921.13 0 1 1 127842.26 0a 63921.13 63921.13 0 1 1 -127842.26 0"/>
<path id="N" d="M 11856206.87 6749443.00 m -63921.13 0 a 63921.13 63921.13 0 1 1 127842.26 0a 63921.13 63921.13 0 1 1 -127842.26 0"/>
<path id="N" d="M 11556206.87 4749443.00 m -63921.13 0 a 63921.13 63921.13 0 1 1 127842.26 0a 63921.13 63921.13 0 1 1 -127842.26 0"/>
<path id="N" d="M 13406206.87 4549443.00 m -63921.13 0 a 63921.13 63921.13 0 1 1 127842.26 0a 63921.13 63921.13 0 1 1 -127842.26 0"/>
<path id="N" d="M 11399999.87 4550000.00 m -63921.13 0 a 63921.13 63921.13 0 1 1 127842.26 0a 63921.13 63921.13 0 1 1 -127842.26 0"/>
<path id="N" d="M 12149999.87 4550000.00 m -63921.13 0 a 63921.13 63921.13 0 1 1 127842.26 0a 63921.13 63921.13 0 1 1 -127842.26 0"/>
<path id="N" d="M 13156206.87 4549443.00 m -63921.13 0 a 63921.13 63921.13 0 1 1 127842.26 0a 63921.13 63921.13 0 1 1 -127842.26 0"/>
<path id="N" d="M 11299999.87 4350000.00 m -63921.13 0 a 63921.13 63921.13 0 1 1 127842.26 0a 63921.13 63921.13 0 1 1 -127842.26 0"/>
<path id="N" d="M 12299999.87 4750000.00 m -63921.13 0 a 63921.13 63921.13 0 1 1 127842.26 0a 63921.13 63921.13 0 1 1 -127842.26 0"/>
<path id="N" d="M 12049999.87 5150000.00 m -63921.13 0 a 63921.13 63921.13 0 1 1 127842.26 0a 63921.13 63921.13 0 1 1 -127842.26 0"/>
<path id="N" d="M 12299999.87 4350000.00 m -63921.13 0 a 63921.13 63921.13 0 1 1 127842.26 0a 63921.13 63921.13 0 1 1 -127842.26 0"/>
<path id="N" d="M 13549999.87 4350000.00 m -63921.13 0 a 63921.13 63921.13 0 1 1 127842.26 0a 63921.13 63921.13 0 1 1 -127842.26 0"/>
<path id="N" d="M 12299999.87 5150000.00 m -63921.13 0 a 63921.13 63921.13 0 1 1 127842.26 0a 63921.13 63921.13 0 1 1 -127842.26 0"/>
<path id="N" d="M 12806206.87 5149443.00 m -63921.13 0 a 63921.13 63921.13 0 1 1 127842.26 0a 63921.13 63921.13 0 1 1 -127842.26 0"/>
<path id="N" d="M 13056206.87 5149443.00 m -63921.13 0 a 63921.13 63921.13 0 1 1 127842.26 0a 63921.13 63921.13 0 1 1 -127842.26 0"/>
<path id="N" d="M 13549999.87 5150000.00 m -63921.13 0 a 63921.13 63921.13 0 1 1 127842.26 0a 63921.13 63921.13 0 1 1 -127842.26 0"/>
<path id="N" d="M 11299999.87 5150000.00 m -63921.13 0 a 63921.13 63921.13 0 1 1 127842.26 0a 63921.13 63921.13 0 1 1 -127842.26 0"/>
<path id="N" d="M 11806206.87 4349443.00 m -63921.13 0 a 63921.13 63921.13 0 1 1 127842.26 0a 63921.13 63921.13 0 1 1 -127842.26 0"/>
<path id="N" d="M 12556206.87 4349443.00 m -63921.13 0 a 63921.13 63921.13 0 1 1 127842.26 0a 63921.13 63921.13 0 1 1 -127842.26 0"/>
<path id="N" d="M 12806206.87 4349443.00 m -63921.13 0 a 63921.13 63921.13 0 1 1 127842.26 0a 63921.13 63921.13 0 1 1 -127842.26 0"/>
<path id="N" d="M 11556206.87 4349443.00 m -63921.13 0 a 63921.13 63921.13 0 1 1 127842.26 0a 63921.13 63921.13 0 1 1 -127842.26 0"/>
<path id="N" d="M 11906206.87 4549443.00 m -63921.13 0 a 63921.13 63921.13 0 1 1 127842.26 0a 63921.13 63921.13 0 1 1 -127842.26 0"/>
<path id="N" d="M 11656206.87 4549443.00 m -63921.13 0 a 63921.13 63921.13 0 1 1 127842.26 0a 63921.13 63921.13 0 1 1 -127842.26 0"/>
<path id="N" d="M 12049999.87 4350000.00 m -63921.13 0 a 63921.13 63921.13 0 1 1 127842.26 0a 63921.13 63921.13 0 1 1 -127842.26 0"/>
<path id="N" d="M 12656206.87 4549443.00 m -63921.13 0 a 63921.13 63921.13 0 1 1 127842.26 0a 63921.13 63921.13 0 1 1 -127842.26 0"/>
<path id="N" d="M 12906206.87 4549443.00 m -63921.13 0 a 63921.13 63921.13 0 1 1 127842.26 0a 63921.13 63921.13 0 1 1 -127842.26 0"/>
<path id="N" d="M 9099999.87 16300000.00 m -63921.13 0 a 63921.13 63921.13 0 1 1 127842.26 0a 63921.13 63921.13 0 1 1 -127842.26 0"/>
<path id="N" d="M 9841392.87 10909055.00 m -63921.13 0 a 63921.13 63921.13 0 1 1 127842.26 0a 63921.13 63921.13 0 1 1 -127842.26 0"/>
<path id="N" d="M 7970079.87 20523228.00 m -63921.13 0 a 63921.13 63921.13 0 1 1 127842.26 0a 63921.13 63921.13 0 1 1 -127842.26 0"/>
<path id="N" d="M 7549999.87 20500000.00 m -63921.13 0 a 63921.13 63921.13 0 1 1 127842.26 0a 63921.13 63921.13 0 1 1 -127842.26 0"/>
<path id="N" d="M 6499999.87 13828740.00 m -63921.13 0 a 63921.13 63921.13 0 1 1 127842.26 0a 63921.13 63921.13 0 1 1 -127842.26 0"/>
<path id="N" d="M 10573631.87 14517892.00 m -63921.13 0 a 63921.13 63921.13 0 1 1 127842.26 0a 63921.13 63921.13 0 1 1 -127842.26 0"/>
<path id="N" d="M 8399999.87 15900000.00 m -63921.13 0 a 63921.13 63921.13 0 1 1 127842.26 0a 63921.13 63921.13 0 1 1 -127842.26 0"/>
<path id="N" d="M 13149999.87 18950000.00 m -63921.13 0 a 63921.13 63921.13 0 1 1 127842.26 0a 63921.13 63921.13 0 1 1 -127842.26 0"/>
<path id="N" d="M 6599999.87 18700000.00 m -63921.13 0 a 63921.13 63921.13 0 1 1 127842.26 0a 63921.13 63921.13 0 1 1 -127842.26 0"/>
<path id="N" d="M 10838976.87 16192127.00 m -63921.13 0 a 63921.13 63921.13 0 1 1 127842.26 0a 63921.13 63921.13 0 1 1 -127842.26 0"/>
<path id="N" d="M 7399999.87 17500000.00 m -63921.13 0 a 63921.13 63921.13 0 1 1 127842.26 0a 63921.13 63921.13 0 1 1 -127842.26 0"/>
<path id="N" d="M 8642329.87 17510445.00 m -63921.13 0 a 63921.13 63921.13 0 1 1 127842.26 0a 63921.13 63921.13 0 1 1 -127842.26 0"/>
<path id="N" d="M 10393700.87 12661648.00 m -63921.13 0 a 63921.13 63921.13 0 1 1 127842.26 0a 63921.13 63921.13 0 1 1 -127842.26 0"/>
<path id="N" d="M 12508464.87 14634055.00 m -63921.13 0 a 63921.13 63921.13 0 1 1 127842.26 0a 63921.13 63921.13 0 1 1 -127842.26 0"/>
<path id="N" d="M 8149999.87 20700000.00 m -63921.13 0 a 63921.13 63921.13 0 1 1 127842.26 0a 63921.13 63921.13 0 1 1 -127842.26 0"/>
<path id="N" d="M 7751968.87 20700000.00 m -63921.13 0 a 63921.13 63921.13 0 1 1 127842.26 0a 63921.13 63921.13 0 1 1 -127842.26 0"/>
<path id="N" d="M 6447298.87 17250075.00 m -63921.13 0 a 63921.13 63921.13 0 1 1 127842.26 0a 63921.13 63921.13 0 1 1 -127842.26 0"/>
<path id="N" d="M 8387887.87 16701388.00 m -63921.13 0 a 63921.13 63921.13 0 1 1 127842.26 0a 63921.13 63921.13 0 1 1 -127842.26 0"/>
<path id="N" d="M 10149999.87 17200000.00 m -63921.13 0 a 63921.13 63921.13 0 1 1 127842.26 0a 63921.13 63921.13 0 1 1 -127842.26 0"/>
<path id="N" d="M 10292124.87 13071147.00 m -63921.13 0 a 63921.13 63921.13 0 1 1 127842.26 0a 63921.13 63921.13 0 1 1 -127842.26 0"/>
<path id="N" d="M 8847034.87 12991740.00 m -63921.13 0 a 63921.13 63921.13 0 1 1 127842.26 0a 63921.13 63921.13 0 1 1 -127842.26 0"/>
<path id="N" d="M 10275021.87 10929057.00 m -63921.13 0 a 63921.13 63921.13 0 1 1 127842.26 0a 63921.13 63921.13 0 1 1 -127842.26 0"/>
<path id="N" d="M 7389743.87 13000000.00 m -63921.13 0 a 63921.13 63921.13 0 1 1 127842.26 0a 63921.13 63921.13 0 1 1 -127842.26 0"/>
<path id="N" d="M 12428850.87 16388977.00 m -63921.13 0 a 63921.13 63921.13 0 1 1 127842.26 0a 63921.13 63921.13 0 1 1 -127842.26 0"/>
<path id="N" d="M 13304226.87 18795772.00 m -63921.13 0 a 63921.13 63921.13 0 1 1 127842.26 0a 63921.13 63921.13 0 1 1 -127842.26 0"/>
<path id="N" d="M 11130867.87 15697633.00 m -63921.13 0 a 63921.13 63921.13 0 1 1 127842.26 0a 63921.13 63921.13 0 1 1 -127842.26 0"/>
<path id="N" d="M 8914172.87 13810740.00 m -63921.13 0 a 63921.13 63921.13 0 1 1 127842.26 0a 63921.13 63921.13 0 1 1 -127842.26 0"/>
<path id="N" d="M 13721072.87 19933279.00 m -63921.13 0 a 63921.13 63921.13 0 1 1 127842.26 0a 63921.13 63921.13 0 1 1 -127842.26 0"/>
<path id="N" d="M 14499999.87 19271260.00 m -63921.13 0 a 63921.13 63921.13 0 1 1 127842.26 0a 63921.13 63921.13 0 1 1 -127842.26 0"/>
<path id="N" d="M 6732104.87 16344546.00 m -63921.13 0 a 63921.13 63921.13 0 1 1 127842.26 0a 63921.13 63921.13 0 1 1 -127842.26 0"/>
<path id="N" d="M 10049999.87 13900000.00 m -63921.13 0 a 63921.13 63921.13 0 1 1 127842.26 0a 63921.13 63921.13 0 1 1 -127842.26 0"/>
<path id="N" d="M 6349999.87 14250000.00 m -63921.13 0 a 63921.13 63921.13 0 1 1 127842.26 0a 63921.13 63921.13 0 1 1 -127842.26 0"/>
<path id="N" d="M 10499999.87 14887795.00 m -63921.13 0 a 63921.13 63921.13 0 1 1 127842.26 0a 63921.13 63921.13 0 1 1 -127842.26 0"/>
<path id="N" d="M 14483100.25 23434747.09 L 14458246.00 23404462.00 A 773020.75 773020.75 0 0 1 15530446.00 22332262.00 L 15560731.09 22357116.25 L 15605931.00 22335738.25 L 15605931.00 16733826.00 L 14549340.00 16733826.00 L 14518614.69 16727713.46 L 14475207.00 16709733.00 L 14449157.99 16692325.99 L 14415936.00 16659105.00 L 14398533.00 16633059.00 L 14380552.00 16589649.00 L 14374441.00 16558926.00 L 14374441.00 16511939.00 L 14380552.00 16481216.00 L 14398533.00 16437806.00 L 14415939.01 16411757.99 L 14449161.00 16378535.00 L 14475207.00 16361132.00 L 14518617.00 16343151.00 L 14549340.00 16337040.00 L 15605931.00 16337040.00 L 15605931.00 5223316.75 L 15560731.09 5201938.75 L 15530446.00 5226793.00 A 773020.75 773020.75 0 0 1 14458246.00 4154593.00 L 14483100.25 4124307.91 L 14461722.25 4079108.00 L 5223316.75 4079108.00 L 5201938.75 4124307.91 L 5226793.00 4154593.00 A 773020.75 773020.75 0 0 1 4154593.00 5226793.00 L 4124307.91 5201938.75 L 4079108.00 5223316.75 L 4079108.00 9861291.17 L 4110048.29 9921879.74 L 4139692.00 9962579.00 L 4172972.00 10012154.00 L 4234005.00 10132627.00 L 4271945.00 10252361.00 L 4289658.00 10363979.00 L 4292814.00 10429911.00 L 4292875.00 10826772.00 L 4290588.00 10886438.00 L 4268993.00 11019752.00 L 4229166.00 11138872.00 L 4177769.00 11239522.00 L 4141501.00 11294674.00 L 4110048.29 11337961.26 L 4079108.00 11398549.83 L 4079108.00 16947905.17 L 4110048.29 17008493.74 L 4139692.00 17049193.00 L 4172972.00 17098768.00 L 4234005.00 17219241.00 L 4271945.00 17338975.00 L 4289658.00 17450593.00 L 4292814.00 17516525.00 L 4292875.00 17913386.00 L 4290588.00 17973052.00 L 4268993.00 18106366.00 L 4229166.00 18225486.00 L 4177769.00 18326136.00 L 4141501.00 18381288.00 L 4110048.38 18424575.13 L 4079108.00 18485164.48 L 4079108.00 22335738.25 L 4124307.91 22357116.25 L 4154593.00 22332262.00 A 773020.75 773020.75 0 0 1 5226793.00 23404462.00 L 5201938.75 23434747.09 L 5223316.75 23479947.00 L 5940377.84 23479947.00 L 5957350.69 23429946.63 L 5952064.00 23425890.00 A 299421.33 299421.33 0 0 1 5864368.00 23214174.00 L 5864368.00 22741732.00 A 299397.55 299397.55 0 1 1 6463192.00 22741732.00 L 6463192.00 23214174.00 A 299397.55 299397.55 0 0 1 6375496.00 23425890.00 L 6370209.31 23429946.63 L 6387182.16 23479947.00 L 9340377.84 23479947.00 L 9357350.69 23429946.63 L 9352064.00 23425890.00 A 299421.33 299421.33 0 0 1 9264368.00 23214174.00 L 9264368.00 22741732.00 A 299397.55 299397.55 0 1 1 9863192.00 22741732.00 L 9863192.00 23214174.00 A 299397.55 299397.55 0 0 1 9775496.00 23425890.00 L 9770209.31 23429946.63 L 9787182.16 23479947.00 L 14461722.25 23479947.00 L 14483100.25 23434747.09  zM 4450000.00 8300003.33 m -162167.81 0 a 162167.81 162167.81 0 1 1 324335.62 0a 162167.81 162167.81 0 1 1 -324335.62 0M 6659903.00 6934840.00 L 6625000.00 6899937.00 L 6590097.00 6934840.00 A 162167.81 162167.81 0 0 1 6409903.00 6934840.00 L 6400000.00 6924937.00 L 6390097.00 6934840.00 A 162167.81 162167.81 0 0 1 6209903.00 6934840.00 L 6200000.00 6924937.00 L 6190097.00 6934840.00 A 162167.81 162167.81 0 0 1 6009903.00 6934840.00 L 6000000.00 6924937.00 L 5990097.00 6934840.00 A 162167.81 162167.81 0 1 1 5990097.00 6665160.00 L 6000000.00 6675063.00 L 6009903.00 6665160.00 A 162167.81 162167.81 0 0 1 6190097.00 6665160.00 L 6200000.00 6675063.00 L 6209903.00 6665160.00 A 162167.81 162167.81 0 0 1 6390097.00 6665160.00 L 6400000.00 6675063.00 L 6409903.00 6665160.00 A 162167.81 162167.81 0 0 1 6590097.00 6665160.00 L 6625000.00 6700063.00 L 6659903.00 6665160.00 A 162167.81 162167.81 0 1 1 6659903.00 6934840.00  zM 9400000.00 7250003.33 m -162167.81 0 a 162167.81 162167.81 0 1 1 324335.62 0a 162167.81 162167.81 0 1 1 -324335.62 0M 5350000.00 9300003.33 m -162167.81 0 a 162167.81 162167.81 0 1 1 324335.62 0a 162167.81 162167.81 0 1 1 -324335.62 0M 6800000.00 11150003.33 m -162167.81 0 a 162167.81 162167.81 0 1 1 324335.62 0a 162167.81 162167.81 0 1 1 -324335.62 0M 9707192.00 12132855.33 m -162167.81 0 a 162167.81 162167.81 0 1 1 324335.62 0a 162167.81 162167.81 0 1 1 -324335.62 0M 5909903.00 12815160.00 L 5941528.28 12802060.12 L 5941528.28 12747939.88 L 5909903.00 12734840.00 A 162173.84 162173.84 0 1 1 6090097.00 12734840.00 L 6058471.72 12747939.88 L 6058471.72 12802060.12 L 6090097.00 12815160.00 A 162173.84 162173.84 0 1 1 5909903.00 12815160.00  zM 7389744.00 13000003.33 m -162167.81 0 a 162167.81 162167.81 0 1 1 324335.62 0a 162167.81 162167.81 0 1 1 -324335.62 0M 8346457.00 12417326.33 m -162167.81 0 a 162167.81 162167.81 0 1 1 324335.62 0a 162167.81 162167.81 0 1 1 -324335.62 0M 8818898.00 12417326.33 m -162167.81 0 a 162167.81 162167.81 0 1 1 324335.62 0a 162167.81 162167.81 0 1 1 -324335.62 0M 9291339.00 12173000.33 m -162167.81 0 a 162167.81 162167.81 0 1 1 324335.62 0a 162167.81 162167.81 0 1 1 -324335.62 0M 9217777.00 13205987.00 L 9186168.50 13174378.50 L 9181535.00 13179012.00 A 162167.81 162167.81 0 0 1 8956598.54 13134269.54 L 8904834.35 13139958.39 L 8878673.00 13150795.00 A 162167.81 162167.81 0 0 1 8712195.60 13081837.60 L 8698583.05 13079129.95 L 8666485.00 13111228.00 A 162167.81 162167.81 0 1 1 8711227.40 12886290.40 L 8724839.95 12888998.05 L 8756938.00 12856900.00 A 162167.81 162167.81 0 0 1 8981874.46 12901642.46 L 9033638.65 12895953.61 L 9059800.00 12885117.00 L 9123076.00 12885117.00 L 9181535.00 12909332.00 L 9213143.50 12940940.50 L 9217777.00 12936307.00 A 162167.81 162167.81 0 1 1 9217777.00 13205987.00  zM 13509903.00 6884840.00 L 13477825.00 6852762.00 L 13446304.00 6884283.00 A 162167.81 162167.81 0 0 1 13266110.00 6884283.00 L 13231207.00 6849380.00 L 13196304.00 6884283.00 A 162167.81 162167.81 0 0 1 13016110.00 6884283.00 L 12981207.00 6849380.00 L 12946304.00 6884283.00 A 162167.81 162167.81 0 0 1 12766110.00 6884283.00 L 12731207.00 6849380.00 L 12696304.00 6884283.00 A 162167.81 162167.81 0 0 1 12516110.00 6884283.00 L 12478382.00 6846555.00 L 12440097.00 6884840.00 A 162167.81 162167.81 0 0 1 12259903.00 6884840.00 L 12225000.00 6849937.00 L 12190097.00 6884840.00 A 162167.81 162167.81 0 0 1 12009903.00 6884840.00 L 11977825.00 6852762.00 L 11946304.00 6884283.00 A 162167.81 162167.81 0 0 1 11766110.00 6884283.00 L 11731207.00 6849380.00 L 11696304.00 6884283.00 A 162167.81 162167.81 0 0 1 11516110.00 6884283.00 L 11478382.00 6846555.00 L 11440097.00 6884840.00 A 162167.81 162167.81 0 0 1 11190944.92 6718362.73 L 11109903.00 6684840.00 A 162173.84 162173.84 0 0 1 11168361.25 6390945.31 L 11194799.95 6340944.49 L 11190945.00 6331638.00 L 11190944.92 6268362.73 L 11109903.00 6234840.00 A 162173.84 162173.84 0 0 1 11168361.22 5940945.32 L 11201237.67 5890944.48 L 11197152.00 5881081.00 L 11197152.00 5817805.00 L 11221366.64 5759346.60 L 11192532.31 5717469.31 L 11165160.00 5690097.00 A 162167.81 162167.81 0 0 1 11264688.15 5442466.79 L 11265159.68 5440096.22 L 11240945.00 5381638.00 L 11240945.00 5318362.00 L 11248250.83 5300724.51 L 11209903.00 5284840.00 A 162173.84 162173.84 0 0 1 11209903.00 5015160.00 L 11248250.83 4999275.49 L 11240945.00 4981638.00 L 11240945.00 4918362.00 L 11248250.83 4900724.51 L 11209903.00 4884840.00 A 162173.84 162173.84 0 0 1 11209903.00 4615160.00 L 11248250.83 4599275.49 L 11240945.00 4581638.00 L 11240945.00 4518362.00 L 11248250.83 4500724.51 L 11209903.00 4484840.00 A 162173.84 162173.84 0 0 1 11390097.00 4215160.00 L 11427825.00 4252888.00 L 11466110.00 4214603.00 A 162167.81 162167.81 0 0 1 11646304.00 4214603.00 L 11681207.00 4249506.00 L 11716110.00 4214603.00 A 162167.81 162167.81 0 0 1 11896304.00 4214603.00 L 11928382.00 4246681.00 L 11959903.00 4215160.00 A 162167.81 162167.81 0 0 1 12140097.00 4215160.00 L 12175000.00 4250063.00 L 12209903.00 4215160.00 A 162167.81 162167.81 0 0 1 12390097.00 4215160.00 L 12427825.00 4252888.00 L 12466110.00 4214603.00 A 162167.81 162167.81 0 0 1 12646304.00 4214603.00 L 12681207.00 4249506.00 L 12716110.00 4214603.00 A 162167.81 162167.81 0 0 1 12896304.00 4214603.00 L 12931207.00 4249506.00 L 12966110.00 4214603.00 A 162167.81 162167.81 0 0 1 13146304.00 4214603.00 L 13181207.00 4249506.00 L 13216110.00 4214603.00 A 162167.81 162167.81 0 0 1 13396304.00 4214603.00 L 13428382.00 4246681.00 L 13459903.00 4215160.00 A 162167.81 162167.81 0 0 1 13709055.00 4381638.00 L 13701749.17 4399275.49 L 13740097.00 4415160.00 A 162173.84 162173.84 0 0 1 13740097.00 4684840.00 L 13701749.17 4700724.51 L 13709055.00 4718362.00 L 13709055.00 4781638.00 L 13701749.17 4799275.49 L 13740097.00 4815160.00 A 162173.84 162173.84 0 0 1 13740097.00 5084840.00 L 13701749.17 5100724.51 L 13709055.00 5118362.00 L 13709055.00 5181638.00 L 13701749.17 5199275.49 L 13740097.00 5215160.00 A 162173.84 162173.84 0 0 1 13685311.85 5507533.21 L 13684840.32 5509903.78 A 162166.72 162166.72 0 0 1 13459903.00 5734840.00 L 13427825.00 5702762.00 L 13396304.00 5734283.00 A 162167.81 162167.81 0 0 1 13216110.00 5734283.00 L 13181207.00 5699380.00 L 13146304.00 5734283.00 A 162167.81 162167.81 0 0 1 12966110.00 5734283.00 L 12931207.00 5699380.00 L 12896304.00 5734283.00 A 162167.81 162167.81 0 0 1 12647152.00 5567805.00 L 12651006.95 5558498.51 L 12624568.25 5508497.69 L 12566110.00 5484283.00 L 12528382.00 5446555.00 L 12490097.00 5484840.00 L 12435311.85 5507533.21 L 12434840.32 5509903.78 A 162166.72 162166.72 0 0 1 12331638.00 5759055.00 L 12288609.06 5759055.00 L 12255774.08 5798509.12 L 12253623.46 5805249.36 L 12259055.00 5818362.00 L 12259055.00 5881638.00 L 12252993.09 5896272.44 L 12279496.52 5960769.05 L 12290097.00 5965160.00 A 162173.84 162173.84 0 0 1 12290097.00 6234840.00 L 12246254.26 6253000.62 L 12252848.00 6268919.00 L 12252848.00 6332195.00 L 12231639.07 6390944.38 L 12290097.00 6415160.00 L 12327825.00 6452888.00 L 12366110.00 6414603.00 A 162167.81 162167.81 0 0 1 12546304.00 6414603.00 L 12581207.00 6449506.00 L 12616110.00 6414603.00 A 162167.81 162167.81 0 0 1 12796304.00 6414603.00 L 12831207.00 6449506.00 L 12866110.00 6414603.00 A 162167.81 162167.81 0 0 1 13046304.00 6414603.00 L 13081207.00 6449506.00 L 13116110.00 6414603.00 A 162167.81 162167.81 0 0 1 13296304.00 6414603.00 L 13328382.00 6446681.00 L 13359903.00 6415160.00 A 162167.81 162167.81 0 0 1 13609055.08 6581637.27 L 13690097.00 6615160.00 A 162173.84 162173.84 0 1 1 13509903.00 6884840.00  zM 14050000.00 6150003.33 m -162167.81 0 a 162167.81 162167.81 0 1 1 324335.62 0a 162167.81 162167.81 0 1 1 -324335.62 0M 15026772.00 6200003.33 m -162167.81 0 a 162167.81 162167.81 0 1 1 324335.62 0a 162167.81 162167.81 0 1 1 -324335.62 0M 11250000.00 9350003.33 m -162167.81 0 a 162167.81 162167.81 0 1 1 324335.62 0a 162167.81 162167.81 0 1 1 -324335.62 0M 12340945.00 9368362.00 L 12347336.44 9352932.01 L 12321019.67 9288714.77 L 12310311.00 9284279.00 A 162173.84 162173.84 0 1 1 12559463.00 9181077.00 L 12553071.56 9196506.99 L 12579388.33 9260724.23 L 12590097.00 9265160.00 A 162173.84 162173.84 0 1 1 12340945.00 9368362.00  zM 14751575.00 7448428.33 m -162167.81 0 a 162167.81 162167.81 0 1 1 324335.62 0a 162167.81 162167.81 0 1 1 -324335.62 0M 9729539.42 12792013.56 L 9680072.67 12803248.48 L 9637937.00 12820702.00 A 162167.81 162167.81 0 1 1 9741138.58 12571549.44 L 9790605.33 12560314.52 L 9832741.00 12542861.00 L 9896017.00 12542861.00 L 9950161.26 12565288.74 L 9988643.00 12526807.00 A 162167.81 162167.81 0 0 1 10168837.00 12526807.00 L 10207330.00 12565300.00 L 10236219.07 12568804.07 L 10265111.58 12565300.42 L 10303604.00 12526808.00 A 162167.81 162167.81 0 1 1 10303604.00 12796488.00 L 10265111.00 12757995.00 L 10236221.93 12754490.93 L 10207329.42 12757994.58 L 10168837.00 12796487.00 L 10110378.00 12820702.00 L 10047102.00 12820702.00 L 9992957.74 12798274.26 L 9954476.00 12836756.00 A 162167.81 162167.81 0 0 1 9729539.42 12792013.56  zM 10267858.00 12013943.00 L 10294176.23 12024844.59 L 10343305.60 12036894.40 A 162172.75 162172.75 0 0 1 10637200.00 12095354.00 L 10637200.00 12141335.15 L 10630023.00 12158662.00 L 10633604.83 12167309.33 L 10612985.00 12217089.00 A 162173.84 162173.84 0 0 1 10446507.00 12286047.00 L 10420188.77 12275145.41 L 10371059.40 12263095.60 A 162172.75 162172.75 0 1 1 10267858.00 12013943.00  zM 10292125.00 13071150.33 m -162167.81 0 a 162167.81 162167.81 0 1 1 324335.62 0a 162167.81 162167.81 0 1 1 -324335.62 0M 15100000.00 12900003.33 m -162167.81 0 a 162167.81 162167.81 0 1 1 324335.62 0a 162167.81 162167.81 0 1 1 -324335.62 0M 7568484.00 13471263.33 m -162167.81 0 a 162167.81 162167.81 0 1 1 324335.62 0a 162167.81 162167.81 0 1 1 -324335.62 0M 7900000.00 13250003.33 m -162167.81 0 a 162167.81 162167.81 0 1 1 324335.62 0a 162167.81 162167.81 0 1 1 -324335.62 0M 11923228.00 13450003.33 m -162167.81 0 a 162167.81 162167.81 0 1 1 324335.62 0a 162167.81 162167.81 0 1 1 -324335.62 0M 12695796.00 22861780.00 L 12714754.00 22842822.00 L 12695796.00 22823864.00 A 162167.81 162167.81 0 0 1 12695796.00 22643670.00 L 12714754.00 22624712.00 L 12695796.00 22605754.00 A 162167.81 162167.81 0 0 1 12695796.00 22425560.00 L 12714754.00 22406602.00 L 12695796.00 22387644.00 A 162167.81 162167.81 0 0 1 12695796.00 22207450.00 L 12714754.00 22188492.00 L 12695796.00 22169534.00 L 12671581.00 22111075.00 L 12671581.00 22047799.00 L 12690062.00 22002088.00 L 12645319.00 21957345.00 L 12621104.00 21898886.00 L 12621104.00 21884816.00 L 12582529.00 21884816.00 A 162173.84 162173.84 0 0 1 12479327.00 21635664.00 L 12498285.00 21616706.00 L 12479327.00 21597748.00 A 162167.81 162167.81 0 0 1 12479327.00 21417554.00 L 12498285.00 21398596.00 L 12479327.00 21379638.00 A 162167.81 162167.81 0 0 1 12479327.00 21199444.00 L 12498285.00 21180486.00 L 12479327.00 21161528.00 A 162167.81 162167.81 0 0 1 12479327.00 20981334.00 L 12498285.00 20962376.00 L 12479327.00 20943418.00 A 162167.81 162167.81 0 0 1 12479327.00 20763224.00 L 12495687.00 20746864.00 L 12474192.00 20725369.00 L 12449977.00 20666910.00 L 12449977.00 20603634.00 L 12471518.73 20551628.73 L 12431390.00 20511500.00 L 12415019.79 20471979.61 L 12360980.63 20455307.37 L 12276599.77 20539688.23 L 12279970.83 20593451.83 L 12320673.00 20634154.00 A 162167.81 162167.81 0 0 1 12320673.00 20814348.00 L 12301715.00 20833306.00 L 12320673.00 20852264.00 A 162167.81 162167.81 0 0 1 12320673.00 21032458.00 L 12301715.00 21051416.00 L 12320673.00 21070374.00 A 162167.81 162167.81 0 0 1 12320673.00 21250568.00 L 12301715.00 21269526.00 L 12320673.00 21288484.00 A 162167.81 162167.81 0 0 1 12320673.00 21468678.00 L 12301715.00 21487636.00 L 12320673.00 21506594.00 A 162167.81 162167.81 0 0 1 12320673.00 21686788.00 L 12283099.15 21724361.85 A 157799.92 157799.92 0 0 1 12237051.00 21946148.00 L 12178592.00 21970363.00 L 12136843.00 21970363.00 L 12136843.00 21980623.00 L 12112628.00 22039082.00 L 12089539.50 22062170.50 L 12104204.00 22076835.00 A 162167.81 162167.81 0 0 1 12104204.00 22257029.00 L 12085246.00 22275987.00 L 12104204.00 22294945.00 A 162167.81 162167.81 0 0 1 12104204.00 22475139.00 L 12085246.00 22494097.00 L 12104204.00 22513055.00 A 162167.81 162167.81 0 0 1 12104204.00 22693249.00 L 12085246.00 22712207.00 L 12104204.00 22731165.00 A 162167.81 162167.81 0 1 1 11834524.00 22731165.00 L 11853482.00 22712207.00 L 11834524.00 22693249.00 A 162167.81 162167.81 0 0 1 11834524.00 22513055.00 L 11853482.00 22494097.00 L 11834524.00 22475139.00 A 162167.81 162167.81 0 0 1 11834524.00 22294945.00 L 11853482.00 22275987.00 L 11834524.00 22257029.00 A 162167.81 162167.81 0 0 1 11834524.00 22076835.00 L 11857612.50 22053746.50 L 11842948.00 22039082.00 A 162167.81 162167.81 0 0 1 11946150.00 21789930.00 L 11987899.00 21789930.00 L 11987899.00 21779670.00 L 12012114.00 21721211.00 L 12049687.85 21683637.15 A 157799.92 157799.92 0 0 1 12050993.00 21506594.00 L 12069951.00 21487636.00 L 12050993.00 21468678.00 A 162167.81 162167.81 0 0 1 12050993.00 21288484.00 L 12069951.00 21269526.00 L 12050993.00 21250568.00 A 162167.81 162167.81 0 0 1 12050993.00 21070374.00 L 12069951.00 21051416.00 L 12050993.00 21032458.00 L 12026778.00 20973999.00 L 12026778.00 20910723.00 L 12042551.40 20872643.41 L 12034249.58 20852749.83 L 11976155.60 20840132.40 L 11858144.00 20958144.00 L 11808527.00 20991297.00 L 11750000.00 21002939.00 L 11296403.03 21002939.00 L 11281638.00 21009055.00 A 162167.81 162167.81 0 1 1 11281638.00 20690945.00 L 11296403.03 20697061.00 L 11686651.00 20697061.00 L 11747266.57 20636445.43 L 11726555.72 20586445.00 L 11691917.00 20586445.00 L 11633458.00 20562230.00 L 11614500.00 20543272.00 L 11595542.00 20562230.00 A 162167.81 162167.81 0 0 1 11415348.00 20562230.00 L 11396390.00 20543272.00 L 11377432.00 20562230.00 A 162167.81 162167.81 0 0 1 11153440.07 20518432.07 L 11106323.00 20537949.00 A 162167.81 162167.81 0 0 1 10915630.00 20410532.00 L 10915630.00 20389294.00 L 10883442.00 20389294.00 A 162173.84 162173.84 0 1 1 11074135.00 20198601.00 L 11074135.00 20219839.00 L 11106323.00 20219839.00 L 11164782.00 20244054.00 L 11208579.93 20287851.93 L 11255697.00 20268335.00 L 11318973.00 20268335.00 L 11377432.00 20292550.00 L 11396390.00 20311508.00 L 11415348.00 20292550.00 A 162167.81 162167.81 0 0 1 11595542.00 20292550.00 L 11614500.00 20311508.00 L 11633458.00 20292550.00 A 162167.81 162167.81 0 0 1 11882610.00 20395752.00 L 11882610.00 20430390.72 L 11932610.43 20451101.57 L 12395266.12 19988445.88 L 12383534.52 19929466.06 L 12374165.00 19925585.00 A 162173.84 162173.84 0 1 1 12599102.00 19700648.00 L 12602983.06 19710017.52 L 12661962.88 19721749.12 L 12697061.00 19686651.00 L 12697061.00 18750000.00 L 12708703.00 18691473.00 L 12741856.00 18641856.00 L 13547061.00 17836650.05 L 13547061.00 11902939.00 L 11302939.00 11902939.00 L 11302939.00 12372889.00 L 11291297.00 12431416.00 L 11258144.00 12481033.00 L 11010561.92 12728615.08 L 11000981.00 12751745.00 A 162173.84 162173.84 0 1 1 10776044.00 12526808.00 L 10782444.03 12524156.97 L 10997061.00 12309540.00 L 10997061.00 11902939.00 L 9719907.00 11902939.00 L 9661380.00 11891297.00 L 9611763.00 11858144.00 L 8751470.98 10997851.98 L 8736706.00 10991736.00 A 162173.84 162173.84 0 0 1 8916900.00 10722056.00 L 8927847.99 10733003.99 L 8932756.00 10744853.00 L 8944605.01 10749761.01 L 8961643.00 10766799.00 L 8967758.98 10781563.98 L 8975227.57 10789032.57 L 9025228.00 10768321.72 L 9025228.00 10739845.91 L 9049443.00 10680273.00 L 9094186.00 10635530.00 L 9108950.98 10629414.02 L 9146509.00 10591856.00 L 9196126.00 10558703.00 L 9254653.00 10547061.00 L 10536651.00 10547061.00 L 11259044.02 9824667.98 L 11265160.00 9809903.00 A 162173.84 162173.84 0 0 1 11534840.00 9809903.00 L 11540955.95 9824667.91 L 12313349.95 10597061.00 L 12765869.04 10597061.00 L 12793647.76 10555486.90 L 12790945.00 10548962.00 A 162167.81 162167.81 0 1 1 13109055.00 10548962.00 L 13106352.24 10555486.90 L 13134130.96 10597061.00 L 13403596.97 10597061.00 L 13418362.00 10590945.00 L 13481638.00 10590945.00 L 13497060.48 10597333.33 L 13547061.00 10563924.30 L 13547061.00 10104901.00 L 13558703.00 10046374.00 L 13591856.00 9996757.00 L 14052656.10 9535956.90 L 14045504.00 9500000.00 L 14064876.00 9402608.00 L 14120044.00 9320044.00 L 14295504.00 9144584.00 L 14295504.00 8230691.00 L 13869309.00 7804496.00 L 11450000.00 7804497.00 L 11352608.00 7785124.00 L 11270044.00 7729956.00 L 10120044.00 6579956.00 L 10064876.00 6497392.00 L 10045504.00 6400000.00 L 10045504.00 4905416.00 L 9820044.00 4679956.00 A 254490.67 254490.67 0 1 1 10179956.00 4320044.00 L 10479956.00 4620044.00 L 10535124.00 4702608.00 L 10554496.00 4800000.00 L 10554496.00 6294584.00 L 11555416.00 7295504.00 L 13974725.00 7295504.00 L 14072117.00 7314876.00 L 14154681.00 7370044.00 L 14729956.00 7945319.00 L 14785124.00 8027883.00 L 14804496.00 8125275.00 L 14804496.00 9250000.00 L 14785124.00 9347391.00 L 14729956.00 9429956.00 L 14479956.00 9679956.00 L 14397392.00 9735124.00 L 14300000.00 9754496.00 L 14272218.87 9748970.13 L 13852939.00 10168250.00 L 13852939.00 10563924.30 L 13902939.52 10597333.33 L 13918362.00 10590945.00 A 162167.81 162167.81 0 0 1 14084840.00 10659903.00 L 14090955.98 10674667.98 L 14208144.00 10791856.00 L 14241297.00 10841473.00 L 14252939.00 10900000.00 L 14252939.00 18236651.00 L 14408144.00 18391856.00 L 14441297.00 18441473.00 L 14452939.00 18500000.00 L 14452939.00 19066010.63 L 14459648.08 19086104.39 L 14497814.77 19112205.00 L 14531638.00 19112205.00 A 162173.84 162173.84 0 1 1 14409903.00 19406100.00 L 14402939.43 19399136.43 L 14352939.00 19419847.28 L 14352939.00 19750000.00 L 14341297.00 19808527.00 L 14308144.00 19858144.00 L 14216288.00 19950000.00 L 14604294.00 20338006.00 L 14640945.00 20338006.00 L 14699472.00 20349648.00 L 14749089.00 20382801.00 L 14982656.27 20616367.81 L 15015160.60 20609902.40 A 162172.75 162172.75 0 0 1 15284840.00 20790097.00 L 15255536.89 20819639.25 L 15243890.89 20847774.51 L 15254249.86 20883097.86 L 15281325.00 20910173.00 A 162167.81 162167.81 0 0 1 15011645.00 21090367.00 L 15002853.19 21069142.12 L 14699167.32 20765455.65 L 14640187.52 20777187.22 L 14634840.00 20790097.00 L 14599937.00 20825000.00 L 14634840.00 20859903.00 A 162167.81 162167.81 0 0 1 14634840.00 21040097.00 L 14624937.00 21050000.00 L 14634840.00 21059903.00 A 162167.81 162167.81 0 0 1 14409903.00 21284840.00 L 14400000.00 21274937.00 L 14390097.00 21284840.00 A 162167.81 162167.81 0 0 1 14209903.00 21284840.00 L 14200000.00 21274937.00 L 14190097.00 21284840.00 A 162167.81 162167.81 0 0 1 13965160.00 21059903.00 L 13975063.00 21050000.00 L 13965160.00 21040097.00 A 162167.81 162167.81 0 0 1 13965160.00 20859903.00 L 14000063.00 20825000.00 L 13965160.00 20790097.00 A 162167.81 162167.81 0 0 1 14190097.00 20565160.00 L 14200000.00 20575063.00 L 14209903.00 20565160.00 L 14268362.00 20540945.00 L 14303945.72 20540945.00 L 14324656.57 20490944.57 L 14000000.00 20166288.00 L 13406403.00 20759885.00 L 13409055.00 20768362.00 L 13409055.00 20831638.00 L 13402939.00 20846403.03 L 13402939.00 20977593.54 L 13454681.00 21029335.00 L 13487833.00 21078952.00 L 13499475.00 21137479.00 L 13499475.00 21245234.30 L 13509055.00 21268362.00 A 162167.81 162167.81 0 0 1 13215160.00 21390097.00 L 13202060.12 21358471.72 L 13147939.88 21358471.72 L 13134840.00 21390097.00 A 162173.84 162173.84 0 1 1 13090097.00 21165160.00 L 13097221.29 21172284.29 L 13136058.93 21140411.06 L 13108703.00 21099470.00 L 13097061.00 21040943.00 L 13097061.00 20846403.03 L 13090945.00 20831638.00 L 13090945.00 20768362.00 L 13100525.00 20745234.30 L 13100525.00 20696536.00 L 13112167.00 20638009.00 L 13145320.00 20588392.00 L 13620098.44 20113613.56 L 13617719.43 20054862.43 L 13586233.00 20023376.00 A 162167.81 162167.81 0 0 1 13855912.58 19843181.44 L 13905777.47 19832553.98 L 13915160.00 19809903.00 L 13959903.00 19765160.00 L 13974667.98 19759044.02 L 14047061.00 19686651.00 L 14047061.00 19334456.00 L 13536418.00 19334456.00 L 13477891.00 19322814.00 L 13439254.91 19296998.20 L 13409903.00 19284840.00 A 162173.84 162173.84 0 0 1 13590097.00 19015160.00 L 13603515.00 19028578.00 L 13688312.10 19028578.00 L 13698406.61 19008128.17 L 13703640.60 18978577.60 L 13665160.00 18940097.00 A 162167.81 162167.81 0 1 1 13934840.00 18940097.00 L 13896359.40 18978577.60 L 13901593.39 19008128.17 L 13911687.90 19028578.00 L 14136651.00 19028578.00 L 14147061.00 19018168.00 L 14147061.00 18563349.00 L 13991856.00 18408144.00 L 13958703.00 18358527.00 L 13947061.00 18300000.00 L 13947061.00 10963349.00 L 13902939.43 10919227.43 L 13852939.00 10939938.28 L 13852939.00 17900000.00 L 13841297.00 17958527.00 L 13808145.00 18008144.00 L 13206185.57 18610102.72 L 13234508.56 18652490.75 L 13272589.00 18636717.00 A 162167.81 162167.81 0 1 1 13335865.00 18954827.00 L 13309055.00 18954827.00 L 13309055.00 18981638.00 L 13284840.00 19040097.00 L 13240097.00 19084840.00 L 13210098.90 19097265.87 L 13218110.00 19116606.00 A 162167.81 162167.81 0 0 1 13027417.85 19307299.00 L 13002939.00 19323655.12 L 13002939.00 19750000.00 L 12991297.00 19808527.00 L 12958144.00 19858144.00 L 12600134.37 20216153.63 L 12616806.61 20270192.79 L 12656327.00 20286563.00 A 162173.84 162173.84 0 0 1 12725285.00 20453041.00 L 12703743.27 20505046.27 L 12743872.00 20545175.00 A 162167.81 162167.81 0 0 1 12743872.00 20725369.00 L 12727512.00 20741729.00 L 12749007.00 20763224.00 A 162167.81 162167.81 0 0 1 12749007.00 20943418.00 L 12730049.00 20962376.00 L 12749007.00 20981334.00 A 162167.81 162167.81 0 0 1 12749007.00 21161528.00 L 12730049.00 21180486.00 L 12749007.00 21199444.00 A 162167.81 162167.81 0 0 1 12749007.00 21379638.00 L 12730049.00 21398596.00 L 12749007.00 21417554.00 A 162167.81 162167.81 0 0 1 12749007.00 21597748.00 L 12730049.00 21616706.00 L 12749007.00 21635664.00 L 12773222.00 21694123.00 L 12773222.00 21708193.00 L 12811797.00 21708193.00 A 162173.84 162173.84 0 0 1 12939214.00 21898886.00 L 12920733.00 21944597.00 A 162173.84 162173.84 0 0 1 12965476.00 22169534.00 L 12946518.00 22188492.00 L 12965476.00 22207450.00 A 162167.81 162167.81 0 0 1 12965476.00 22387644.00 L 12946518.00 22406602.00 L 12965476.00 22425560.00 A 162167.81 162167.81 0 0 1 12965476.00 22605754.00 L 12946518.00 22624712.00 L 12965476.00 22643670.00 A 162167.81 162167.81 0 0 1 12965476.00 22823864.00 L 12946518.00 22842822.00 L 12965476.00 22861780.00 A 162167.81 162167.81 0 1 1 12695796.00 22861780.00  zM 14531638.00 13640945.00 L 14568746.74 13656316.26 L 14609903.00 13615160.00 A 162167.81 162167.81 0 1 1 14668362.00 13909055.00 L 14631253.26 13893683.74 L 14590097.00 13934840.00 A 162167.81 162167.81 0 1 1 14531638.00 13640945.00  zM 8914173.00 13810743.33 m -162167.81 0 a 162167.81 162167.81 0 1 1 324335.62 0a 162167.81 162167.81 0 1 1 -324335.62 0M 6318362.00 14090945.00 L 6344750.59 14090945.00 L 6383198.14 14083198.14 L 6390945.00 14044750.59 L 6390945.00 14018362.00 L 6413090.07 13964900.15 L 6409903.00 13963580.00 A 162173.84 162173.84 0 1 1 6636909.93 13913839.85 L 6640097.00 13915160.00 A 162173.84 162173.84 0 0 1 6581638.00 14209055.00 L 6555249.41 14209055.00 L 6516801.86 14216801.86 L 6509055.00 14255249.41 L 6509055.00 14281638.00 A 162173.84 162173.84 0 1 1 6318362.00 14090945.00  zM 7910741.00 14420475.33 m -162167.81 0 a 162167.81 162167.81 0 1 1 324335.62 0a 162167.81 162167.81 0 1 1 -324335.62 0M 10050000.00 13900003.33 m -162167.81 0 a 162167.81 162167.81 0 1 1 324335.62 0a 162167.81 162167.81 0 1 1 -324335.62 0M 10541994.00 14358837.00 L 10590945.00 14358837.00 L 10590945.00 14318362.00 A 162173.84 162173.84 0 1 1 10781638.00 14509055.00 L 10732687.00 14509055.00 L 10732687.00 14549530.00 A 162173.84 162173.84 0 1 1 10541994.00 14358837.00  zM 11365939.00 13887405.33 m -162167.81 0 a 162167.81 162167.81 0 1 1 324335.62 0a 162167.81 162167.81 0 1 1 -324335.62 0M 14700000.00 14400003.33 m -162167.81 0 a 162167.81 162167.81 0 1 1 324335.62 0a 162167.81 162167.81 0 1 1 -324335.62 0M 5550000.00 14500003.33 m -162167.81 0 a 162167.81 162167.81 0 1 1 324335.62 0a 162167.81 162167.81 0 1 1 -324335.62 0M 6650000.00 14650003.33 m -162167.81 0 a 162167.81 162167.81 0 1 1 324335.62 0a 162167.81 162167.81 0 1 1 -324335.62 0M 6600000.00 15650003.33 m -162167.81 0 a 162167.81 162167.81 0 1 1 324335.62 0a 162167.81 162167.81 0 1 1 -324335.62 0M 6700000.00 15200003.33 m -162167.81 0 a 162167.81 162167.81 0 1 1 324335.62 0a 162167.81 162167.81 0 1 1 -324335.62 0M 7961612.00 15358129.33 m -162167.81 0 a 162167.81 162167.81 0 1 1 324335.62 0a 162167.81 162167.81 0 1 1 -324335.62 0M 8265160.00 15809903.00 L 8293073.76 15781989.24 L 8304491.36 15750000.00 L 8293073.76 15718010.76 L 8265160.00 15690097.00 A 162167.81 162167.81 0 1 1 8534840.00 15690097.00 L 8506926.24 15718010.76 L 8495508.64 15750000.00 L 8506926.24 15781989.24 L 8534840.00 15809903.00 A 162167.81 162167.81 0 1 1 8265160.00 15809903.00  zM 10340945.00 14919433.00 L 10340945.00 14897664.08 L 10290944.48 14864255.05 L 10281638.00 14868110.00 A 162167.81 162167.81 0 1 1 10409055.00 14677417.00 L 10409055.00 14699185.92 L 10459055.52 14732594.95 L 10468362.00 14728740.00 A 162167.81 162167.81 0 1 1 10340945.00 14919433.00  zM 11130868.00 15697636.33 m -162167.81 0 a 162167.81 162167.81 0 1 1 324335.62 0a 162167.81 162167.81 0 1 1 -324335.62 0M 12428851.00 15601577.33 m -162167.81 0 a 162167.81 162167.81 0 1 1 324335.62 0a 162167.81 162167.81 0 1 1 -324335.62 0M 12565160.00 15316081.00 L 12549699.44 15278756.67 L 12522820.15 15235770.00 A 162166.72 162166.72 0 0 1 12356343.00 14986618.00 L 12369843.50 14973117.50 L 12335657.00 14938931.00 A 162167.81 162167.81 0 0 1 12335657.00 14758737.00 L 12372634.13 14721759.87 A 158851.25 158851.25 0 1 1 12643305.00 14724152.00 L 12606327.87 14761129.13 A 158851.25 158851.25 0 0 1 12605337.00 14938931.00 L 12591836.50 14952431.50 L 12626023.00 14986618.00 L 12641483.56 15023942.33 L 12668362.85 15066929.00 A 162166.72 162166.72 0 1 1 12565160.00 15316081.00  zM 14750000.00 14900003.33 m -162167.81 0 a 162167.81 162167.81 0 1 1 324335.62 0a 162167.81 162167.81 0 1 1 -324335.62 0M 4932066.00 16462601.33 m -162167.81 0 a 162167.81 162167.81 0 1 1 324335.62 0a 162167.81 162167.81 0 1 1 -324335.62 0M 6700467.00 16185491.00 L 6730241.65 16185491.00 L 6767850.30 16170541.14 L 6776436.00 16139296.61 L 6776436.00 16103853.00 A 162173.84 162173.84 0 1 1 6967129.00 16294546.00 L 6937354.35 16294546.00 L 6899745.70 16309495.86 L 6891160.00 16340740.39 L 6891160.00 16376184.00 A 162173.84 162173.84 0 1 1 6700467.00 16185491.00  zM 6900000.00 17000003.33 m -162167.81 0 a 162167.81 162167.81 0 1 1 324335.62 0a 162167.81 162167.81 0 1 1 -324335.62 0M 4550000.00 18600003.33 m -162167.81 0 a 162167.81 162167.81 0 1 1 324335.62 0a 162167.81 162167.81 0 1 1 -324335.62 0M 6447299.00 17250078.33 m -162167.81 0 a 162167.81 162167.81 0 1 1 324335.62 0a 162167.81 162167.81 0 1 1 -324335.62 0M 6600000.00 18700003.33 m -162167.81 0 a 162167.81 162167.81 0 1 1 324335.62 0a 162167.81 162167.81 0 1 1 -324335.62 0M 7950000.00 16200003.33 m -162167.81 0 a 162167.81 162167.81 0 1 1 324335.62 0a 162167.81 162167.81 0 1 1 -324335.62 0M 8253048.00 16611291.00 L 8287951.00 16576388.00 L 8251660.00 16540097.00 A 162167.81 162167.81 0 1 1 8521340.00 16540097.00 L 8486437.00 16575000.00 L 8522728.00 16611291.00 A 162167.81 162167.81 0 1 1 8253048.00 16611291.00  zM 7910740.00 16585829.33 m -162167.81 0 a 162167.81 162167.81 0 1 1 324335.62 0a 162167.81 162167.81 0 1 1 -324335.62 0M 7209903.00 17565160.00 L 7248250.83 17549275.49 L 7240945.00 17531638.00 A 162167.81 162167.81 0 1 1 7490097.00 17634840.00 L 7451749.17 17650724.51 L 7459055.00 17668362.00 A 162167.81 162167.81 0 1 1 7209903.00 17565160.00  zM 8400000.00 18850003.33 m -162167.81 0 a 162167.81 162167.81 0 1 1 324335.62 0a 162167.81 162167.81 0 1 1 -324335.62 0M 8673968.00 17351390.00 L 8694459.28 17359877.94 L 8715160.00 17309903.00 A 162173.84 162173.84 0 1 1 8818362.00 17559055.00 L 8797870.72 17550567.06 L 8777170.00 17600542.00 A 162173.84 162173.84 0 1 1 8673968.00 17351390.00  zM 5400000.00 20000003.33 m -162167.81 0 a 162167.81 162167.81 0 1 1 324335.62 0a 162167.81 162167.81 0 1 1 -324335.62 0M 5800000.00 20300003.33 m -162167.81 0 a 162167.81 162167.81 0 1 1 324335.62 0a 162167.81 162167.81 0 1 1 -324335.62 0M 6850000.00 19476775.33 m -162167.81 0 a 162167.81 162167.81 0 1 1 324335.62 0a 162167.81 162167.81 0 1 1 -324335.62 0M 6522835.00 20300003.33 m -162167.81 0 a 162167.81 162167.81 0 1 1 324335.62 0a 162167.81 162167.81 0 1 1 -324335.62 0M 6572835.00 20700003.33 m -162167.81 0 a 162167.81 162167.81 0 1 1 324335.62 0a 162167.81 162167.81 0 1 1 -324335.62 0M 5867724.00 21442984.00 L 5867724.00 21128024.00 A 299397.55 299397.55 0 0 1 6466548.00 21128024.00 L 6466548.00 21442984.00 A 299397.55 299397.55 0 0 1 5867724.00 21442984.00  zM 7250000.00 19328743.33 m -162167.81 0 a 162167.81 162167.81 0 1 1 324335.62 0a 162167.81 162167.81 0 1 1 -324335.62 0M 8400000.00 19250003.33 m -162167.81 0 a 162167.81 162167.81 0 1 1 324335.62 0a 162167.81 162167.81 0 1 1 -324335.62 0M 7990945.00 20731638.00 L 7990945.00 20682283.00 L 7938442.85 20682283.00 L 7911024.00 20700603.55 L 7911024.00 20731638.00 A 162173.84 162173.84 0 0 1 7592914.00 20731638.00 L 7592914.00 20705249.40 L 7583443.57 20666454.58 L 7546719.59 20659055.00 L 7518362.00 20659055.00 A 162173.84 162173.84 0 1 1 7709055.00 20468362.00 L 7709055.00 20494750.60 L 7718525.43 20533545.42 L 7755249.41 20540945.00 L 7783606.15 20540945.00 L 7811025.00 20522624.45 L 7811025.00 20491590.00 A 162173.84 162173.84 0 0 1 8129135.00 20491590.00 L 8129135.00 20540945.00 L 8181638.00 20540945.00 A 162173.84 162173.84 0 1 1 7990945.00 20731638.00  zM 9918362.00 22059055.00 L 9903596.97 22052939.00 L 9441181.00 22052939.00 L 9382653.00 22041297.00 L 9333036.00 22008144.00 L 8924682.90 21599790.00 L 8793254.03 21599790.00 L 8778489.00 21605906.00 L 8715213.00 21605906.00 L 8700447.97 21599790.00 L 7001752.00 21599790.00 L 6943225.00 21588148.00 L 6927339.00 21577533.32 L 6885100.00 21560037.00 A 162173.84 162173.84 0 1 1 7065294.00 21290357.00 L 7068849.00 21293912.00 L 8700447.97 21293912.00 L 8715213.00 21287796.00 L 8778489.00 21287796.00 L 8793254.03 21293912.00 L 8988032.00 21293912.00 L 9046559.00 21305554.00 L 9096176.00 21338707.00 L 9214367.57 21456898.31 L 9264368.00 21436187.43 L 9264368.00 21174803.00 A 299397.55 299397.55 0 0 1 9863192.00 21174803.00 L 9863192.00 21489763.00 L 9852990.00 21567257.00 L 9823078.00 21639469.00 L 9778886.39 21697060.56 L 9785981.00 21732364.98 L 9790969.63 21747061.00 L 9903596.97 21747061.00 L 9918362.00 21740945.00 A 162167.81 162167.81 0 1 1 9918362.00 22059055.00  zM 8927165.00 20700003.33 m -162167.81 0 a 162167.81 162167.81 0 1 1 324335.62 0a 162167.81 162167.81 0 1 1 -324335.62 0M 9131677.94 16140742.89 L 9140945.00 16094750.59 L 9140945.00 16077417.00 A 162173.84 162173.84 0 1 1 9268322.06 16268312.11 L 9259055.00 16314304.41 L 9259055.00 16331638.00 A 162173.84 162173.84 0 1 1 9131677.94 16140742.89  zM 10150000.00 17200003.33 m -162167.81 0 a 162167.81 162167.81 0 1 1 324335.62 0a 162167.81 162167.81 0 1 1 -324335.62 0M 9930097.00 18408468.33 m -162167.81 0 a 162167.81 162167.81 0 1 1 324335.62 0a 162167.81 162167.81 0 1 1 -324335.62 0M 9311531.56 18659378.56 L 9258300.44 18659378.56 A 162172.83 162172.83 0 1 1 9258300.44 18479183.44 L 9311531.56 18479183.44 A 162172.83 162172.83 0 1 1 9311531.56 18659378.56  zM 10298231.00 18894942.00 L 10335325.81 18857847.19 L 10336141.60 18844199.12 L 10332909.32 18824156.00 L 10324945.17 18803546.75 L 10279784.00 18784840.00 A 162173.84 162173.84 0 1 1 10504721.00 18740097.00 L 10467626.19 18777191.81 L 10466810.40 18790839.88 L 10470042.68 18810883.00 L 10478006.83 18831492.25 L 10523168.00 18850199.00 A 162173.84 162173.84 0 1 1 10298231.00 18894942.00  zM 10713995.00 18735884.00 L 10736083.00 18713796.00 L 10710578.00 18688291.00 A 162167.81 162167.81 0 1 1 10980258.00 18688291.00 L 10958170.00 18710379.00 L 10983675.00 18735884.00 A 162167.81 162167.81 0 1 1 10713995.00 18735884.00  zM 10839134.22 16411725.33 L 10844144.74 16404265.58 L 10838813.78 16377326.59 L 10819567.33 16351182.00 L 10807339.00 16351182.00 A 162173.84 162173.84 0 1 1 10998032.00 16160489.00 L 10998032.00 16186790.59 L 11005718.50 16225298.50 L 11044226.41 16232985.00 L 11070528.00 16232985.00 A 162173.84 162173.84 0 0 1 11070528.00 16551095.00 L 11029828.00 16551095.00 L 11029828.00 16602418.00 A 162173.84 162173.84 0 1 1 10839134.22 16411725.33  zM 12428851.00 16388980.33 m -162167.81 0 a 162167.81 162167.81 0 1 1 324335.62 0a 162167.81 162167.81 0 1 1 -324335.62 0M 12650000.00 16900003.33 m -162167.81 0 a 162167.81 162167.81 0 1 1 324335.62 0a 162167.81 162167.81 0 1 1 -324335.62 0M 13050000.00 16900003.33 m -162167.81 0 a 162167.81 162167.81 0 1 1 324335.62 0a 162167.81 162167.81 0 1 1 -324335.62 0M 12167933.00 18037404.33 m -162167.81 0 a 162167.81 162167.81 0 1 1 324335.62 0a 162167.81 162167.81 0 1 1 -324335.62 0M 12015160.00 19236675.00 L 12045579.73 19206255.27 L 12054869.65 19175000.00 L 12045579.73 19143744.73 L 12015160.00 19113325.00 A 162167.81 162167.81 0 0 1 12240097.00 18888388.00 L 12246562.43 18894853.43 L 12305542.25 18883121.83 L 12315160.00 18859903.00 A 162173.84 162173.84 0 1 1 12359903.00 19084840.00 L 12353437.57 19078374.57 L 12294457.75 19090106.17 L 12284840.00 19113325.00 L 12254420.27 19143744.73 L 12245130.35 19175000.00 L 12254420.27 19206255.27 L 12284840.00 19236675.00 A 162167.81 162167.81 0 1 1 12015160.00 19236675.00  zM 8840945.00 19618362.85 L 8807476.94 19568504.00 L 8787260.00 19568504.00 A 162173.84 162173.84 0 0 1 8728801.00 19274609.00 L 8775538.93 19255249.12 L 8775538.93 19204199.88 L 8728801.00 19184840.00 A 162173.84 162173.84 0 1 1 8908995.00 19184840.00 L 8862257.07 19204199.88 L 8862257.07 19255249.12 L 8908995.00 19274609.00 L 8953738.00 19319352.00 L 8964140.26 19344464.78 L 9018260.49 19344464.78 L 9020672.00 19338643.00 A 162173.84 162173.84 0 1 1 9245609.00 19563580.00 L 9198556.65 19583070.12 L 9159055.00 19618362.85 A 162166.72 162166.72 0 1 1 8840945.00 19618362.85  zM 9566929.00 19614964.33 m -162167.81 0 a 162167.81 162167.81 0 1 1 324335.62 0a 162167.81 162167.81 0 1 1 -324335.62 0M 9450000.00 20100003.33 m -162167.81 0 a 162167.81 162167.81 0 1 1 324335.62 0a 162167.81 162167.81 0 1 1 -324335.62 0M 9735297.00 20165947.00 L 9745505.86 20161718.27 L 9749806.68 20140096.22 A 162166.72 162166.72 0 1 1 9974744.00 20184840.00 L 9964535.14 20189068.73 L 9960234.32 20210690.78 A 162166.72 162166.72 0 1 1 9735297.00 20165947.00  zM 10449214.00 20300790.33 m -162167.81 0 a 162167.81 162167.81 0 1 1 324335.62 0a 162167.81 162167.81 0 1 1 -324335.62 0M 10959903.00 19784840.00 L 10923936.01 19748873.01 L 10899355.00 19759055.00 A 162167.81 162167.81 0 1 1 10957814.00 19465160.00 L 10993780.99 19501126.99 L 11018362.00 19490945.00 A 162167.81 162167.81 0 1 1 10959903.00 19784840.00  zM 11250000.00 22000003.33 m -162167.81 0 a 162167.81 162167.81 0 1 1 324335.62 0a 162167.81 162167.81 0 1 1 -324335.62 0M 11250000.00 23200003.33 m -162167.81 0 a 162167.81 162167.81 0 1 1 324335.62 0a 162167.81 162167.81 0 1 1 -324335.62 0M 13500000.00 22000003.33 m -162167.81 0 a 162167.81 162167.81 0 1 1 324335.62 0a 162167.81 162167.81 0 1 1 -324335.62 0M 14600000.00 20000003.33 m -162167.81 0 a 162167.81 162167.81 0 1 1 324335.62 0a 162167.81 162167.81 0 1 1 -324335.62 0M 13500000.00 23150003.33 m -162167.81 0 a 162167.81 162167.81 0 1 1 324335.62 0a 162167.81 162167.81 0 1 1 -324335.62 0"/>
<path id="N" d="M 13547061.00 10936075.70 L 13497060.48 10902666.67 L 13481638.00 10909055.00 L 13418362.00 10909055.00 L 13403596.97 10902939.00 L 12250000.00 10902939.00 L 12191473.00 10891297.00 L 12141856.00 10858145.00 L 11399999.94 10116288.06 L 10708144.00 10808144.00 L 10658527.00 10841297.00 L 10600000.00 10852939.00 L 10460652.03 10852939.00 L 10432873.31 10894513.10 L 10434077.00 10897419.00 A 162167.81 162167.81 0 0 1 10184925.00 11063897.00 L 10171868.50 11050840.50 L 10147312.00 11075397.00 A 162167.81 162167.81 0 0 1 9967118.00 11075397.00 L 9933553.00 11041832.00 L 9931490.00 11043895.00 A 162167.81 162167.81 0 0 1 9751296.00 11043895.00 L 9720696.50 11013295.50 L 9690097.00 11043895.00 A 162167.81 162167.81 0 0 1 9509903.00 11043895.00 L 9490945.00 11024937.00 L 9471987.00 11043895.00 L 9413528.00 11068110.00 L 9350252.00 11068110.00 L 9307170.89 11050264.86 L 9278847.89 11092652.89 L 9783256.00 11597061.00 L 10077190.49 11597061.00 L 10110599.51 11547060.48 L 10104864.00 11533214.00 A 162167.81 162167.81 0 0 1 10354016.00 11366736.00 L 10390006.00 11402726.00 L 10418723.00 11374009.00 A 162167.81 162167.81 0 0 1 10667875.00 11540487.00 L 10661661.71 11555486.90 L 10689440.43 11597061.00 L 13547061.00 11597061.00 L 13547061.00 10936075.70  zM 11091006.00 11339565.00 L 11052513.29 11301072.29 L 11023622.50 11297568.43 L 10994731.71 11301072.29 L 10956239.00 11339565.00 A 162167.81 162167.81 0 1 1 10956239.00 11069885.00 L 10994731.71 11108377.71 L 11023622.50 11111881.57 L 11052513.29 11108377.71 L 11091006.00 11069885.00 A 162167.81 162167.81 0 1 1 11091006.00 11339565.00  z"/>
<path id="N" d="M 9950000.00 21836079.00 L 9926338.24 21845880.00 L 9463598.03 21845880.00 L 9026301.00 21408582.00 L 8988029.59 21392731.00 L 8770512.76 21392731.00 L 8746851.00 21382930.00 L 8723189.24 21392731.00 L 7025670.17 21392731.00 L 7020396.00 21379998.00 A 63921.13 63921.13 0 0 0 6929998.00 21470396.00 L 7001752.00 21500971.00 L 8723189.24 21500971.00 L 8746851.00 21510772.00 L 8770512.76 21500971.00 L 8965614.03 21500971.00 L 9402912.00 21938269.00 L 9441181.00 21954120.00 L 9926338.24 21954120.00 L 9950000.00 21963921.00 A 63921.13 63921.13 0 0 0 9950000.00 21836079.00  z"/>
<path id="N" d="M 11273661.76 20904120.00 L 11750000.00 20904121.00 L 11788269.00 20888269.00 L 12888269.00 19788269.00 L 12904120.00 19749997.59 L 12904120.00 18772417.98 L 13738269.00 17938269.00 L 13754120.00 17899997.59 L 13754120.00 10127319.00 L 14241626.00 9640926.00 A 152542.38 152542.38 0 0 0 14407860.00 9607860.00 L 14657860.00 9357860.00 L 14690926.00 9308373.00 L 14702537.00 9250000.00 L 14702537.00 8125275.00 L 14690926.00 8066901.00 L 14657860.00 8017415.00 L 14082585.00 7442140.00 L 14033099.00 7409074.00 L 13974725.00 7397463.00 L 11513183.00 7397463.00 L 10452537.00 6336817.00 L 10452537.00 4800000.00 L 10440926.00 4741626.00 L 10407860.00 4692140.00 L 10107860.00 4392140.00 A 152532.52 152532.52 0 1 0 9892140.00 4607860.00 L 10147463.00 4863183.00 L 10147463.00 6400000.00 L 10159074.00 6458374.00 L 10192140.00 6507860.00 L 11342140.00 7657860.00 L 11391626.00 7690926.00 L 11450000.00 7702537.00 L 13911542.00 7702537.00 L 14397463.00 8188458.00 L 14397463.00 9186817.00 L 14192140.00 9392140.00 A 152532.52 152532.52 0 0 0 14159074.00 9558374.00 L 14163445.98 9564917.02 L 13661731.00 10066632.00 L 13645880.00 10104903.41 L 13645880.00 11695880.00 L 9742324.02 11695880.00 L 8881802.48 10835357.50 L 8872002.00 10811697.00 A 63921.13 63921.13 0 1 0 8781604.00 10902095.00 L 8805264.50 10911895.48 L 9681638.00 11788269.00 L 9719909.41 11804120.00 L 11095880.00 11804120.00 L 11095880.00 12350471.94 L 10836237.70 12610113.32 L 10820942.00 12616449.00 A 63921.13 63921.13 0 1 0 10911340.00 12706847.00 L 10924605.33 12674821.60 L 11188269.00 12411158.00 L 11204120.00 12372889.00 L 11204120.00 11804120.00 L 13645880.00 11804120.00 L 13645880.00 17877582.98 L 12811731.00 18711731.00 L 12795880.00 18750002.41 L 12795880.00 19727582.00 L 11727582.00 20795880.00 L 11273661.76 20795880.00 L 11250000.00 20786079.00 A 63920.91 63920.91 0 1 0 11250000.00 20913921.00 L 11273661.76 20904120.00  z"/>
<path id="N" d="M 10078739.87 12661647.00 m -63921.13 0 a 63921.13 63921.13 0 1 1 127842.26 0a 63921.13 63921.13 0 1 1 -127842.26 0"/>
<path id="N" d="M 12470496.87 14848834.00 m -63921.13 0 a 63921.13 63921.13 0 1 1 127842.26 0a 63921.13 63921.13 0 1 1 -127842.26 0"/>
<path id="N" d="M 8399999.87 15600000.00 m -63921.13 0 a 63921.13 63921.13 0 1 1 127842.26 0a 63921.13 63921.13 0 1 1 -127842.26 0"/>
<path id="N" d="M 9606298.87 12661647.00 m -63921.13 0 a 63921.13 63921.13 0 1 1 127842.26 0a 63921.13 63921.13 0 1 1 -127842.26 0"/>
<path id="N" d="M 12428850.87 15601574.00 m -63921.13 0 a 63921.13 63921.13 0 1 1 127842.26 0a 63921.13 63921.13 0 1 1 -127842.26 0"/>
<path id="N" d="M 9381889.87 10909055.00 m -63921.13 0 a 63921.13 63921.13 0 1 1 127842.26 0a 63921.13 63921.13 0 1 1 -127842.26 0"/>
<path id="N" d="M 8386499.87 16450000.00 m -63921.13 0 a 63921.13 63921.13 0 1 1 127842.26 0a 63921.13 63921.13 0 1 1 -127842.26 0"/>
<path id="N" d="M 14699999.87 14400000.00 m -63921.13 0 a 63921.13 63921.13 0 1 1 127842.26 0a 63921.13 63921.13 0 1 1 -127842.26 0"/>
<path id="N" d="M 12699999.87 15225984.00 m -63921.13 0 a 63921.13 63921.13 0 1 1 127842.26 0a 63921.13 63921.13 0 1 1 -127842.26 0"/>
<path id="N" d="M 7910739.87 16585826.00 m -63921.13 0 a 63921.13 63921.13 0 1 1 127842.26 0a 63921.13 63921.13 0 1 1 -127842.26 0"/>
<path id="N" d="M 13413921.00 21300000.00 L 13400656.00 21267975.39 L 13400657.00 21137479.00 L 13384803.29 21099209.29 L 13304120.00 21018525.16 L 13304120.00 20823661.76 L 13313921.00 20800000.00 L 13307584.00 20784701.10 L 13307584.00 20718953.98 L 13999999.56 20026537.49 L 14502676.00 20529214.00 L 14540947.41 20545065.00 L 14618527.03 20545065.00 L 15088808.47 21015345.50 L 15101286.00 21045469.00 A 63921.13 63921.13 0 1 0 15191684.00 20955071.00 L 15174483.25 20947946.23 L 14679214.00 20452676.00 L 14640942.59 20436825.00 L 14563362.03 20436825.00 L 14096041.58 19969503.69 L 14104120.00 19950000.00 L 14104120.00 19923661.76 L 14238269.00 19788269.00 L 14254120.00 19749997.59 L 14254120.00 19203934.84 L 14338269.00 19119786.00 L 14354120.00 19081517.00 L 14354121.00 18500000.00 L 14338267.29 18461730.29 L 14154120.00 18277582.08 L 14154121.00 10900000.00 L 14138269.00 10861731.00 L 14004999.47 10728461.47 L 13995199.00 10704801.00 A 63921.13 63921.13 0 1 0 13904801.00 10795199.00 L 13928461.47 10804999.47 L 14045880.00 10922418.00 L 14045879.00 18300000.00 L 14061731.00 18338269.00 L 14245880.00 18522417.08 L 14245880.00 19059099.84 L 14177582.16 19127397.00 L 13558835.50 19127397.00 L 13551534.13 19120095.40 L 13545199.00 19104801.00 A 63921.13 63921.13 0 0 0 13454801.00 19195199.00 L 13486829.08 19208465.44 L 13498149.00 19219786.00 L 13536420.41 19235637.00 L 14145880.00 19235637.00 L 14145880.00 19727582.00 L 14028461.47 19845000.53 L 14004801.00 19854801.00 L 13986079.00 19900000.00 L 13986660.75 19901404.46 L 13961730.29 19911732.71 L 13215195.00 20658267.00 L 13199344.00 20696538.41 L 13199344.00 20767975.39 L 13186079.00 20800000.00 L 13195880.00 20823661.76 L 13195879.00 21040943.00 L 13211731.00 21079212.00 L 13292416.00 21159896.16 L 13292416.00 21284701.10 L 13286079.00 21300000.00 A 63920.91 63920.91 0 0 0 13413921.00 21300000.00  z"/>
<path id="N" d="M 9229482.00 10815569.00 L 9239282.63 10791908.13 L 9277070.23 10754120.00 L 10600000.00 10754121.00 L 10638269.00 10738269.00 L 11400000.02 9976537.98 L 12211731.00 10788269.00 L 12250002.41 10804120.00 L 13426338.24 10804120.00 L 13450000.00 10813921.00 A 63920.91 63920.91 0 0 0 13450000.00 10686079.00 L 13426338.24 10695880.00 L 12272417.02 10695880.00 L 11454999.48 9878461.50 L 11445199.00 9854801.00 L 11400000.00 9836079.00 L 11354801.00 9854801.00 L 11345000.53 9878461.47 L 10577582.00 10645880.00 L 9254653.00 10645880.00 L 9216383.29 10661732.71 L 9162744.87 10715370.37 L 9139084.00 10725171.00 A 63921.13 63921.13 0 1 0 9229482.00 10815569.00  z"/>
<path id="N" d="M 10478144.87 12126992.00 m -63921.13 0 a 63921.13 63921.13 0 1 1 127842.26 0a 63921.13 63921.13 0 1 1 -127842.26 0"/>
</g>
</svg>
