<svg width="29.99999842mm" height="49.99999906mm" viewBox="0 0 11811023 19685039"  version="1.1" xmlns="http://www.w3.org/2000/svg" xmlns:xlink="http://www.w3.org/1999/xlink">
<desc>
Origin 0 0 Bound 3937008 3937008 11811023 19685039
</desc>
<g fill-rule="evenodd" fill="rgb(128, 0, 0)" stroke="black" stroke-width="1" transform="translate(0, 19685039) scale(1, -1) translate(-3937008, -3937008)">
<path id="N" d="M 6028970.70 23421078.84 L 6050600.59 23399448.88 L 6064909.00 23408217.00 L 6095960.10 23421078.82 L 6231599.97 23421078.79 L 6262651.00 23408217.00 L 6276959.41 23399448.88 L 6298589.24 23421078.78 L 9428971.45 23421078.09 L 9450600.59 23399448.88 L 9464909.00 23408217.00 L 9495958.30 23421078.08 L 9631601.77 23421078.05 L 9662651.00 23408217.00 L 9676959.41 23399448.88 L 9698588.49 23421078.03 L 14403388.00 23421077.00 L 14378342.00 23383593.00 L 14359771.00 23348848.00 L 14312515.00 23234763.00 L 14301079.00 23197062.00 L 14276988.00 23075949.00 L 14273126.00 23036742.00 L 14273126.00 22913256.00 L 14276988.00 22874049.00 L 14301079.00 22752935.00 L 14312515.00 22715235.00 L 14359771.00 22601149.00 L 14378342.00 22566404.00 L 14446947.00 22463729.00 L 14471940.00 22433275.00 L 14559258.00 22345957.00 L 14589712.00 22320964.00 L 14692387.00 22252359.00 L 14727132.00 22233788.00 L 14841218.00 22186532.00 L 14878918.00 22175096.00 L 15000032.00 22151004.00 L 15035724.00 22147489.00 L 15162725.00 22147143.00 L 15201932.00 22151005.00 L 15323045.00 22175096.00 L 15360749.00 22186534.00 L 15474831.00 22233788.00 L 15509576.00 22252359.00 L 15547063.00 22277407.00 L 15547062.00 16854511.00 L 14549336.00 16854511.00 L 14510129.00 16850648.00 L 14472429.00 16839212.00 L 14429019.00 16821230.00 L 14394275.00 16802657.00 L 14363824.00 16777667.00 L 14330599.00 16744442.00 L 14305606.00 16713987.00 L 14287035.00 16679243.00 L 14269054.00 16635833.00 L 14257618.00 16598133.00 L 14253756.00 16558926.00 L 14253756.00 16511939.00 L 14257618.00 16472732.00 L 14269054.00 16435032.00 L 14287035.00 16391622.00 L 14305606.00 16356878.00 L 14330599.00 16326423.00 L 14363824.00 16293198.00 L 14394278.00 16268206.00 L 14429023.00 16249634.00 L 14472433.00 16231653.00 L 14510133.00 16220217.00 L 14549340.00 16216355.00 L 15547062.00 16216355.00 L 15547061.00 5281649.00 L 15509577.00 5306695.00 L 15474832.00 5325266.00 L 15360747.00 5372522.00 L 15323046.00 5383958.00 L 15201933.00 5408049.00 L 15162726.00 5411911.00 L 15039240.00 5411911.00 L 15000000.00 5408043.44 L 14878919.00 5383958.00 L 14841219.00 5372522.00 L 14727133.00 5325266.00 L 14692388.00 5306695.00 L 14589713.00 5238090.00 L 14559259.00 5213097.00 L 14471941.00 5125779.00 L 14446948.00 5095325.00 L 14383254.10 5000000.00 L 14359772.00 4957905.00 L 14312516.00 4843819.00 L 14301080.00 4806119.00 L 14276989.00 4685005.00 L 14273127.00 4645798.00 L 14273127.00 4522312.00 L 14276989.00 4483105.00 L 14301080.00 4361992.00 L 14312518.00 4324288.00 L 14359772.00 4210206.00 L 14378343.00 4175461.00 L 14403390.00 4137976.00 L 5281649.00 4137976.00 L 5306695.00 4175460.00 L 5325266.00 4210205.00 L 5372522.00 4324291.00 L 5383958.00 4361991.00 L 5408050.00 4483105.00 L 5411565.00 4518797.00 L 5411911.00 4645798.00 L 5408049.00 4685005.00 L 5383958.00 4806118.00 L 5372522.00 4843818.00 L 5325266.00 4957904.00 L 5306695.00 4992649.00 L 5238090.00 5095324.00 L 5213097.00 5125778.00 L 5125779.00 5213096.00 L 5095325.00 5238089.00 L 5000000.00 5301782.90 L 4957905.00 5325265.00 L 4843820.00 5372521.00 L 4806119.00 5383957.00 L 4685006.00 5408048.00 L 4645799.00 5411910.00 L 4522313.00 5411910.00 L 4483106.00 5408049.00 L 4361992.00 5383957.00 L 4324292.00 5372521.00 L 4210206.00 5325265.00 L 4175461.00 5306694.00 L 4137976.00 5281647.00 L 4137975.00 9627454.00 A 519515.98 519515.98 0 0 0 4213207.00 9858516.00 L 4241776.00 9898004.00 L 4285255.00 9965431.00 L 4336653.00 10066083.00 L 4348766.00 10095263.00 L 4383754.00 10202726.00 L 4391143.00 10233445.00 L 4408856.00 10345064.00 L 4413410.00 10425161.00 L 4413409.00 10834679.00 L 4408856.00 10914777.00 L 4391143.00 11026396.00 L 4383754.00 11057115.00 L 4348766.00 11164578.00 L 4336653.00 11193760.00 L 4285255.00 11294411.00 L 4273247.00 11314851.00 L 4213207.00 11401325.00 A 519476.62 519476.62 0 0 0 4137975.00 11632387.00 L 4137975.00 16714068.00 A 519515.98 519515.98 0 0 0 4213207.00 16945130.00 L 4241776.00 16984618.00 L 4285255.00 17052045.00 L 4336653.00 17152697.00 L 4348766.00 17181877.00 L 4383754.00 17289340.00 L 4391143.00 17320059.00 L 4408856.00 17431678.00 L 4413410.00 17511775.00 L 4413409.00 17921293.00 L 4408856.00 18001391.00 L 4391143.00 18113010.00 L 4383754.00 18143729.00 L 4348766.00 18251192.00 L 4336653.00 18280374.00 L 4285255.00 18381025.00 L 4273247.00 18401465.00 L 4213206.00 18487940.00 A 519584.91 519584.91 0 0 0 4137975.00 18719002.00 L 4137977.00 22277403.00 L 4175460.00 22252358.00 L 4210205.00 22233787.00 L 4324291.00 22186531.00 L 4361991.00 22175095.00 L 4483105.00 22151003.00 L 4518797.00 22147488.00 L 4645798.00 22147142.00 L 4685005.00 22151004.00 L 4806118.00 22175095.00 L 4843822.00 22186533.00 L 4957904.00 22233787.00 L 4992649.00 22252358.00 L 5095324.00 22320963.00 L 5125778.00 22345956.00 L 5213096.00 22433274.00 L 5238089.00 22463728.00 L 5306694.00 22566403.00 L 5325265.00 22601148.00 L 5372521.00 22715234.00 L 5383957.00 22752934.00 L 5408048.00 22874047.00 L 5411910.00 22913254.00 L 5411910.00 23036740.00 L 5408049.00 23075947.00 L 5383957.00 23197061.00 L 5372521.00 23234761.00 L 5325265.00 23348847.00 L 5306694.00 23383592.00 L 5281646.00 23421079.00 L 6028970.70 23421078.84  zM 4450002.37 7799983.06 m -140060.94 0 a 140060.94 140060.94 0 1 1 280121.87 0a 140060.94 140060.94 0 1 1 -280121.87 0M 10159956.00 4800000.00 L 10161043.76 4788956.24 L 10150000.00 4790044.00 A 140060.94 140060.94 0 0 1 10009956.00 4650000.00 L 10011043.76 4638956.24 L 10000000.00 4640044.00 A 140060.94 140060.94 0 1 1 10140044.00 4500000.00 L 10138956.24 4511043.76 L 10150000.00 4509956.00 A 140060.94 140060.94 0 0 1 10290044.00 4650000.00 L 10288956.24 4661043.76 L 10300000.00 4659956.00 A 140060.94 140060.94 0 1 1 10159956.00 4800000.00  zM 5550002.37 8799983.06 m -140060.94 0 a 140060.94 140060.94 0 1 1 280121.87 0a 140060.94 140060.94 0 1 1 -280121.87 0M 9241846.00 10909055.00 L 9243033.66 10896996.97 L 9211604.00 10907723.00 A 140036.89 140036.89 0 0 1 9054899.00 10823963.00 L 9052965.65 10817589.19 L 9031548.00 10829038.00 L 9005276.00 10837007.00 L 8977955.00 10839698.00 L 8965027.66 10838424.71 L 8966847.00 10856896.00 A 140060.94 140060.94 0 1 1 8826803.00 10716852.00 L 8839730.34 10718125.29 L 8837911.00 10699654.00 A 140060.94 140060.94 0 0 1 9107339.00 10646061.00 L 9109272.35 10652434.81 L 9130690.00 10640986.00 L 9156962.00 10633017.00 A 140036.89 140036.89 0 0 1 9324327.00 10770370.00 L 9323139.34 10782428.03 L 9354569.00 10771702.00 A 140036.89 140036.89 0 1 1 9241846.00 10909055.00  zM 5500002.37 11249983.06 m -140060.94 0 a 140060.94 140060.94 0 1 1 280121.87 0a 140060.94 140060.94 0 1 1 -280121.87 0M 9940773.00 11018361.00 L 9936845.47 11011013.65 L 9919197.00 11025497.00 A 140009.76 140009.76 0 1 1 9957835.00 10831251.00 L 9961762.53 10838598.35 L 9979411.00 10824115.00 L 10000000.00 10813109.14 L 10029894.00 10803204.00 A 140036.89 140036.89 0 0 1 10156241.00 10841531.00 L 10161399.72 10847817.08 L 10175996.00 10830031.00 A 140073.58 140073.58 0 1 1 10175996.00 11028083.00 L 10170837.28 11021796.92 L 10156241.00 11039583.00 A 140073.58 140073.58 0 0 1 9940773.00 11018361.00  zM 10392378.00 11586653.00 L 10384425.61 11571776.21 L 10380361.00 11579380.00 A 140026.16 140026.16 0 1 1 10380361.00 11423772.00 L 10388313.39 11438648.79 L 10392378.00 11431045.00 A 140026.16 140026.16 0 1 1 10392378.00 11586653.00  zM 4500002.37 11899983.06 m -140060.94 0 a 140060.94 140060.94 0 1 1 280121.87 0a 140060.94 140060.94 0 1 1 -280121.87 0M 7389746.37 12999983.06 m -140060.94 0 a 140060.94 140060.94 0 1 1 280121.87 0a 140060.94 140060.94 0 1 1 -280121.87 0M 7900002.37 13249983.06 m -140060.94 0 a 140060.94 140060.94 0 1 1 280121.87 0a 140060.94 140060.94 0 1 1 -280121.87 0M 9188999.28 13144400.03 A 135240.51 135240.51 0 0 1 9118759.00 13181525.00 A 140036.89 140036.89 0 0 1 8962054.00 13097765.00 L 8956187.95 13078425.96 L 8946061.00 13090766.00 A 140073.58 140073.58 0 0 1 8709682.00 13019061.00 L 8705772.00 13029981.00 A 140073.58 140073.58 0 1 1 8713741.00 12949067.00 L 8717651.00 12938147.00 A 140073.58 140073.58 0 0 1 8982285.05 12957486.04 L 8992412.00 12945146.00 A 140073.58 140073.58 0 0 1 9210312.72 12970918.97 A 135240.51 135240.51 0 0 1 9280553.00 12933794.00 A 140036.89 140036.89 0 1 1 9188999.28 13144400.03  zM 9727451.33 12730639.23 L 9722741.00 12739451.00 A 140026.16 140026.16 0 1 1 9743226.67 12632923.77 L 9747937.00 12624112.00 A 140026.16 140026.16 0 0 1 9942183.00 12585474.00 L 9955558.53 12596450.73 L 9962298.00 12583843.00 A 140026.16 140026.16 0 1 1 10000000.00 12777320.86 L 9987560.47 12767112.27 L 9980821.00 12779720.00 A 140026.16 140026.16 0 0 1 9727451.33 12730639.23  zM 10292127.37 13071130.06 m -140060.94 0 a 140060.94 140060.94 0 1 1 280121.87 0a 140060.94 140060.94 0 1 1 -280121.87 0M 13851353.00 8703678.15 A 136739.37 136739.37 0 0 1 13651353.00 8703678.15 A 136739.37 136739.37 0 0 1 13451353.00 8703678.15 A 136739.37 136739.37 0 1 1 13277321.00 8487353.00 A 140036.89 140036.89 0 0 1 13150000.00 8447839.15 A 136739.37 136739.37 0 0 1 12950000.00 8447839.15 A 136739.37 136739.37 0 1 1 12950000.00 8252160.85 A 136739.37 136739.37 0 0 1 13150000.00 8252160.85 A 136739.37 136739.37 0 0 1 13350000.00 8252160.85 A 136739.37 136739.37 0 0 1 13550000.00 8252160.85 A 136739.37 136739.37 0 0 1 13750000.00 8252160.85 A 136739.37 136739.37 0 0 1 13950000.00 8252160.85 A 136739.37 136739.37 0 1 1 14050000.00 8490044.00 L 14025932.76 8487673.48 L 14050379.00 8506813.00 L 14067795.00 8528035.00 A 140009.76 140009.76 0 0 1 13851353.00 8703678.15  zM 13801353.00 8103678.15 A 136739.37 136739.37 0 0 1 13601353.00 8103678.15 A 136739.37 136739.37 0 0 1 13401353.00 8103678.15 A 136739.37 136739.37 0 1 1 13401353.00 7907999.85 A 136739.37 136739.37 0 0 1 13601353.00 7907999.85 A 136739.37 136739.37 0 0 1 13801353.00 7907999.85 A 136739.37 136739.37 0 1 1 13801353.00 8103678.15  zM 14050002.37 6723212.06 m -140060.94 0 a 140060.94 140060.94 0 1 1 280121.87 0a 140060.94 140060.94 0 1 1 -280121.87 0M 14802160.85 8050000.00 A 136739.37 136739.37 0 1 1 15000000.00 8047839.15 L 15000000.00 8052160.85 A 136157.25 136157.25 0 0 1 15000000.00 8247839.15 A 136739.37 136739.37 0 1 1 14802160.85 8050000.00  zM 14822196.00 8583558.00 L 14838205.72 8575000.00 L 14822196.00 8566442.00 A 140026.16 140026.16 0 1 1 15000000.00 8547839.15 L 15000000.00 8602160.85 A 136157.25 136157.25 0 0 1 15000000.00 8797839.15 A 136739.37 136739.37 0 1 1 14822196.00 8583558.00  zM 14550002.37 9249983.06 m -140060.94 0 a 140060.94 140060.94 0 1 1 280121.87 0a 140060.94 140060.94 0 1 1 -280121.87 0M 14300002.37 9499983.06 m -140060.94 0 a 140060.94 140060.94 0 1 1 280121.87 0a 140060.94 140060.94 0 1 1 -280121.87 0M 10577502.00 12236466.00 L 10573519.06 12229014.99 L 10555949.00 12243434.00 A 140009.76 140009.76 0 1 1 10594587.00 12049188.00 L 10598569.94 12056639.01 L 10616140.00 12042220.00 A 140009.76 140009.76 0 1 1 10577502.00 12236466.00  zM 10393703.37 12661631.06 m -140060.94 0 a 140060.94 140060.94 0 1 1 280121.87 0a 140060.94 140060.94 0 1 1 -280121.87 0M 10866143.37 12661631.06 m -140060.94 0 a 140060.94 140060.94 0 1 1 280121.87 0a 140060.94 140060.94 0 1 1 -280121.87 0M 11400000.00 10040044.00 A 140060.94 140060.94 0 1 1 11427321.00 10037353.00 L 11400000.00 10040044.00  zM 13450002.37 10749983.06 m -140060.94 0 a 140060.94 140060.94 0 1 1 280121.87 0a 140060.94 140060.94 0 1 1 -280121.87 0M 13950002.37 10749983.06 m -140060.94 0 a 140060.94 140060.94 0 1 1 280121.87 0a 140060.94 140060.94 0 1 1 -280121.87 0M 4500002.37 15619274.06 m -140060.94 0 a 140060.94 140060.94 0 1 1 280121.87 0a 140060.94 140060.94 0 1 1 -280121.87 0M 6350002.37 14249983.06 m -140060.94 0 a 140060.94 140060.94 0 1 1 280121.87 0a 140060.94 140060.94 0 1 1 -280121.87 0M 6500002.37 13828723.06 m -140060.94 0 a 140060.94 140060.94 0 1 1 280121.87 0a 140060.94 140060.94 0 1 1 -280121.87 0M 6900002.37 14399983.06 m -140060.94 0 a 140060.94 140060.94 0 1 1 280121.87 0a 140060.94 140060.94 0 1 1 -280121.87 0M 4526773.37 16199983.06 m -140060.94 0 a 140060.94 140060.94 0 1 1 280121.87 0a 140060.94 140060.94 0 1 1 -280121.87 0M 6732107.37 16344529.06 m -140060.94 0 a 140060.94 140060.94 0 1 1 280121.87 0a 140060.94 140060.94 0 1 1 -280121.87 0M 6935493.37 16135474.06 m -140060.94 0 a 140060.94 140060.94 0 1 1 280121.87 0a 140060.94 140060.94 0 1 1 -280121.87 0M 7568486.37 13471243.06 m -140060.94 0 a 140060.94 140060.94 0 1 1 280121.87 0a 140060.94 140060.94 0 1 1 -280121.87 0M 8914175.37 13810723.06 m -140060.94 0 a 140060.94 140060.94 0 1 1 280121.87 0a 140060.94 140060.94 0 1 1 -280121.87 0M 7961614.37 15358109.06 m -140060.94 0 a 140060.94 140060.94 0 1 1 280121.87 0a 140060.94 140060.94 0 1 1 -280121.87 0M 8400002.37 15599983.06 m -140060.94 0 a 140060.94 140060.94 0 1 1 280121.87 0a 140060.94 140060.94 0 1 1 -280121.87 0M 8400002.37 15899983.06 m -140060.94 0 a 140060.94 140060.94 0 1 1 280121.87 0a 140060.94 140060.94 0 1 1 -280121.87 0M 7950002.37 16199983.06 m -140060.94 0 a 140060.94 140060.94 0 1 1 280121.87 0a 140060.94 140060.94 0 1 1 -280121.87 0M 10050000.00 14040044.00 L 10022679.00 14037353.00 L 10000000.00 14030473.85 L 9972196.00 14016442.00 L 9950974.00 13999026.00 A 140073.58 140073.58 0 1 1 10050000.00 14040044.00  zM 10573634.37 14517875.06 m -140060.94 0 a 140060.94 140060.94 0 1 1 280121.87 0a 140060.94 140060.94 0 1 1 -280121.87 0M 10250002.37 14709038.06 m -140060.94 0 a 140060.94 140060.94 0 1 1 280121.87 0a 140060.94 140060.94 0 1 1 -280121.87 0M 10500002.37 14887778.06 m -140060.94 0 a 140060.94 140060.94 0 1 1 280121.87 0a 140060.94 140060.94 0 1 1 -280121.87 0M 9177804.00 16183558.00 L 9187129.62 16191211.14 L 9170616.00 16162648.00 A 140060.94 140060.94 0 1 1 9222196.00 16225497.00 L 9212870.38 16217843.86 L 9229384.00 16246407.00 A 140060.94 140060.94 0 1 1 9177804.00 16183558.00  zM 10838979.37 16192110.06 m -140060.94 0 a 140060.94 140060.94 0 1 1 280121.87 0a 140060.94 140060.94 0 1 1 -280121.87 0M 10898094.00 16433427.00 L 10906584.81 16436002.49 L 10901537.00 16419361.00 A 140036.89 140036.89 0 1 1 11011569.00 16529393.00 L 11003078.19 16526817.51 L 11008126.00 16543459.00 A 140036.89 140036.89 0 1 1 10898094.00 16433427.00  zM 11572824.37 13449983.06 m -140060.94 0 a 140060.94 140060.94 0 1 1 280121.87 0a 140060.94 140060.94 0 1 1 -280121.87 0M 11130870.37 15697616.06 m -140060.94 0 a 140060.94 140060.94 0 1 1 280121.87 0a 140060.94 140060.94 0 1 1 -280121.87 0M 12428853.37 16388960.06 m -140060.94 0 a 140060.94 140060.94 0 1 1 280121.87 0a 140060.94 140060.94 0 1 1 -280121.87 0M 12563413.39 15196136.37 L 12544776.00 15206099.00 A 140060.94 140060.94 0 0 1 12392157.00 14977689.00 L 12401527.90 14969998.70 L 12392693.00 14965276.00 A 140026.16 140026.16 0 0 1 12392693.00 14732392.00 L 12403939.79 14726380.02 L 12392023.00 14711859.00 A 140009.76 140009.76 0 1 1 12586269.00 14750497.00 L 12575022.21 14756508.98 L 12586939.00 14771030.00 A 140009.76 140009.76 0 0 1 12569523.00 14947860.00 L 12560152.10 14955550.30 L 12568987.00 14960273.00 A 140026.16 140026.16 0 0 1 12627769.61 15106562.63 L 12646407.00 15096600.00 A 140060.94 140060.94 0 1 1 12563413.39 15196136.37  zM 12428853.37 15601557.06 m -140060.94 0 a 140060.94 140060.94 0 1 1 280121.87 0a 140060.94 140060.94 0 1 1 -280121.87 0M 14700002.37 14399983.06 m -140060.94 0 a 140060.94 140060.94 0 1 1 280121.87 0a 140060.94 140060.94 0 1 1 -280121.87 0M 6095882.37 17348081.06 m -140060.94 0 a 140060.94 140060.94 0 1 1 280121.87 0a 140060.94 140060.94 0 1 1 -280121.87 0M 6447301.37 17250058.06 m -140060.94 0 a 140060.94 140060.94 0 1 1 280121.87 0a 140060.94 140060.94 0 1 1 -280121.87 0M 6900002.37 16649983.06 m -140060.94 0 a 140060.94 140060.94 0 1 1 280121.87 0a 140060.94 140060.94 0 1 1 -280121.87 0M 7400002.37 17499983.06 m -140060.94 0 a 140060.94 140060.94 0 1 1 280121.87 0a 140060.94 140060.94 0 1 1 -280121.87 0M 7910742.37 16585809.06 m -140060.94 0 a 140060.94 140060.94 0 1 1 280121.87 0a 140060.94 140060.94 0 1 1 -280121.87 0M 8310084.00 16584946.00 L 8326698.00 16576064.98 L 8308696.00 16566442.00 A 140026.16 140026.16 0 1 1 8464304.00 16566442.00 L 8447690.00 16575323.02 L 8465692.00 16584946.00 A 140026.16 140026.16 0 1 1 8310084.00 16584946.00  zM 8642332.37 17510428.06 m -140060.94 0 a 140060.94 140060.94 0 1 1 280121.87 0a 140060.94 140060.94 0 1 1 -280121.87 0M 6200002.37 18949983.06 m -140060.94 0 a 140060.94 140060.94 0 1 1 280121.87 0a 140060.94 140060.94 0 1 1 -280121.87 0M 6600002.37 18699983.06 m -140060.94 0 a 140060.94 140060.94 0 1 1 280121.87 0a 140060.94 140060.94 0 1 1 -280121.87 0M 6850002.37 19823212.06 m -140060.94 0 a 140060.94 140060.94 0 1 1 280121.87 0a 140060.94 140060.94 0 1 1 -280121.87 0M 7250002.37 19328723.06 m -140060.94 0 a 140060.94 140060.94 0 1 1 280121.87 0a 140060.94 140060.94 0 1 1 -280121.87 0M 6877168.37 20299983.06 m -140060.94 0 a 140060.94 140060.94 0 1 1 280121.87 0a 140060.94 140060.94 0 1 1 -280121.87 0M 8400002.37 19599983.06 m -140060.94 0 a 140060.94 140060.94 0 1 1 280121.87 0a 140060.94 140060.94 0 1 1 -280121.87 0M 6173231.37 20299983.06 m -140060.94 0 a 140060.94 140060.94 0 1 1 280121.87 0a 140060.94 140060.94 0 1 1 -280121.87 0M 6522837.37 20299983.06 m -140060.94 0 a 140060.94 140060.94 0 1 1 280121.87 0a 140060.94 140060.94 0 1 1 -280121.87 0M 6280315.41 20942748.12 L 6266007.00 20933980.00 A 217790.26 217790.26 0 0 0 6068265.00 20933980.00 L 6053956.59 20942748.12 L 5980509.34 20869300.64 A 315554.05 315554.05 0 0 1 6353762.66 20869300.64 L 6280315.41 20942748.12  zM 5908412.64 21629610.66 A 315554.05 315554.05 0 0 1 5848042.00 21442984.00 L 5848042.00 21128024.00 A 319108.89 319108.89 0 0 1 5908412.64 20941397.34 L 5981860.12 21014844.59 L 5973092.00 21029153.00 A 217790.26 217790.26 0 0 0 5949355.00 21128024.00 L 5949355.00 21442984.00 A 217765.36 217765.36 0 0 0 5973092.00 21541855.00 L 5981860.12 21556163.41 L 5908412.64 21629610.66  zM 7550002.37 20499983.06 m -140060.94 0 a 140060.94 140060.94 0 1 1 280121.87 0a 140060.94 140060.94 0 1 1 -280121.87 0M 7751971.37 20699983.06 m -140060.94 0 a 140060.94 140060.94 0 1 1 280121.87 0a 140060.94 140060.94 0 1 1 -280121.87 0M 8018233.37 20654261.98 L 7997401.00 20660581.00 A 140036.89 140036.89 0 1 1 8107433.00 20550549.00 L 8101846.63 20568966.02 L 8122679.00 20562647.00 A 140036.89 140036.89 0 1 1 8018233.37 20654261.98  zM 6425859.36 21629610.66 L 6352411.88 21556163.41 L 6361180.00 21541855.00 A 217790.26 217790.26 0 0 0 6384917.00 21442984.00 L 6384917.00 21128024.00 A 217765.36 217765.36 0 0 0 6361180.00 21029153.00 L 6352411.88 21014844.59 L 6425859.36 20941397.34 A 315554.05 315554.05 0 0 1 6486230.00 21128024.00 L 6486230.00 21442984.00 A 319108.89 319108.89 0 0 1 6425859.36 21629610.66  zM 5980509.34 21701707.36 L 6053956.59 21628259.88 L 6068265.00 21637028.00 A 217790.26 217790.26 0 0 0 6266007.00 21637028.00 L 6280315.41 21628259.88 L 6353762.66 21701707.36 A 315554.05 315554.05 0 0 1 5980509.34 21701707.36  zM 6975199.37 21425180.06 m -140060.94 0 a 140060.94 140060.94 0 1 1 280121.87 0a 140060.94 140060.94 0 1 1 -280121.87 0M 6276959.41 22556457.12 L 6262651.00 22547689.00 A 217790.26 217790.26 0 0 0 6064909.00 22547689.00 L 6050600.59 22556457.12 L 5977153.34 22483009.64 A 315554.05 315554.05 0 0 1 6350406.66 22483009.64 L 6276959.41 22556457.12  zM 6422503.36 23400799.66 L 6349055.88 23327352.41 L 6357824.00 23313044.00 A 217790.26 217790.26 0 0 0 6381561.00 23214173.00 L 6381561.00 22741733.00 A 217765.36 217765.36 0 0 0 6357824.00 22642862.00 L 6349055.88 22628553.59 L 6422503.36 22555106.34 A 315554.05 315554.05 0 0 1 6482874.00 22741733.00 L 6482874.00 23214173.00 A 319108.89 319108.89 0 0 1 6422503.36 23400799.66  zM 5905056.64 23400799.66 A 315554.05 315554.05 0 0 1 5844686.00 23214173.00 L 5844686.00 22741733.00 A 319108.89 319108.89 0 0 1 5905056.64 22555106.34 L 5978504.12 22628553.59 L 5969736.00 22642862.00 A 217790.26 217790.26 0 0 0 5945999.00 22741733.00 L 5945999.00 23214173.00 A 217765.36 217765.36 0 0 0 5969736.00 23313044.00 L 5978504.12 23327352.41 L 5905056.64 23400799.66  zM 10150002.37 17199983.06 m -140060.94 0 a 140060.94 140060.94 0 1 1 280121.87 0a 140060.94 140060.94 0 1 1 -280121.87 0M 11400002.37 16999983.06 m -140060.94 0 a 140060.94 140060.94 0 1 1 280121.87 0a 140060.94 140060.94 0 1 1 -280121.87 0M 10850002.37 17449983.06 m -140060.94 0 a 140060.94 140060.94 0 1 1 280121.87 0a 140060.94 140060.94 0 1 1 -280121.87 0M 11250002.37 20849983.06 m -140060.94 0 a 140060.94 140060.94 0 1 1 280121.87 0a 140060.94 140060.94 0 1 1 -280121.87 0M 9676959.41 20989527.12 L 9662651.00 20980759.00 A 217790.26 217790.26 0 0 0 9464909.00 20980759.00 L 9450600.59 20989527.12 L 9377153.34 20916079.64 A 315554.05 315554.05 0 0 1 9750406.66 20916079.64 L 9676959.41 20989527.12  zM 9822503.36 21676389.66 L 9749055.88 21602942.41 L 9757824.00 21588634.00 A 217790.26 217790.26 0 0 0 9781561.00 21489763.00 L 9781561.00 21174803.00 A 217765.36 217765.36 0 0 0 9757824.00 21075932.00 L 9749055.88 21061623.59 L 9822503.36 20988176.34 A 315554.05 315554.05 0 0 1 9882874.00 21174803.00 L 9882874.00 21489763.00 A 319108.89 319108.89 0 0 1 9822503.36 21676389.66  zM 9305056.64 21676389.66 A 315554.05 315554.05 0 0 1 9244686.00 21489763.00 L 9244686.00 21174803.00 A 319108.89 319108.89 0 0 1 9305056.64 20988176.34 L 9378504.12 21061623.59 L 9369736.00 21075932.00 A 217790.26 217790.26 0 0 0 9345999.00 21174803.00 L 9345999.00 21489763.00 A 217765.36 217765.36 0 0 0 9369736.00 21588634.00 L 9378504.12 21602942.41 L 9305056.64 21676389.66  zM 8746853.37 21446834.06 m -140060.94 0 a 140060.94 140060.94 0 1 1 280121.87 0a 140060.94 140060.94 0 1 1 -280121.87 0M 9377153.34 21748486.36 L 9450600.59 21675038.88 L 9464909.00 21683807.00 A 217790.26 217790.26 0 0 0 9662651.00 21683807.00 L 9676959.41 21675038.88 L 9750406.66 21748486.36 A 315554.05 315554.05 0 0 1 9377153.34 21748486.36  zM 9950000.00 22040044.00 A 140060.94 140060.94 0 1 1 9977321.00 22037353.00 L 9950000.00 22040044.00  zM 9676959.41 22556457.12 L 9662651.00 22547689.00 A 217790.26 217790.26 0 0 0 9464909.00 22547689.00 L 9450600.59 22556457.12 L 9377153.34 22483009.64 A 315554.05 315554.05 0 0 1 9750406.66 22483009.64 L 9676959.41 22556457.12  zM 9822503.36 23400799.66 L 9749055.88 23327352.41 L 9757824.00 23313044.00 A 217790.26 217790.26 0 0 0 9781561.00 23214173.00 L 9781561.00 22741733.00 A 217765.36 217765.36 0 0 0 9757824.00 22642862.00 L 9749055.88 22628553.59 L 9822503.36 22555106.34 A 315554.05 315554.05 0 0 1 9882874.00 22741733.00 L 9882874.00 23214173.00 A 319108.89 319108.89 0 0 1 9822503.36 23400799.66  zM 9305056.64 23400799.66 A 315554.05 315554.05 0 0 1 9244686.00 23214173.00 L 9244686.00 22741733.00 A 319108.89 319108.89 0 0 1 9305056.64 22555106.34 L 9378504.12 22628553.59 L 9369736.00 22642862.00 A 217790.26 217790.26 0 0 0 9345999.00 22741733.00 L 9345999.00 23214173.00 A 217765.36 217765.36 0 0 0 9369736.00 23313044.00 L 9378504.12 23327352.41 L 9305056.64 23400799.66  zM 12750002.37 17378723.06 m -140060.94 0 a 140060.94 140060.94 0 1 1 280121.87 0a 140060.94 140060.94 0 1 1 -280121.87 0M 13050002.37 17378723.06 m -140060.94 0 a 140060.94 140060.94 0 1 1 280121.87 0a 140060.94 140060.94 0 1 1 -280121.87 0M 13025524.05 19012774.64 L 13020616.00 19003593.00 A 140060.94 140060.94 0 0 1 13150000.00 18809956.00 L 13165732.69 18811505.60 L 13164183.00 18795772.00 A 140060.94 140060.94 0 1 1 13304227.00 18935816.00 L 13288494.31 18934266.40 L 13290044.00 18950000.00 A 140060.94 140060.94 0 0 1 13203593.00 19079384.00 L 13183530.95 19085469.36 L 13188439.00 19094651.00 A 140060.94 140060.94 0 1 1 13025524.05 19012774.64  zM 13500002.37 19149983.06 m -140060.94 0 a 140060.94 140060.94 0 1 1 280121.87 0a 140060.94 140060.94 0 1 1 -280121.87 0M 14500002.37 19271243.06 m -140060.94 0 a 140060.94 140060.94 0 1 1 280121.87 0a 140060.94 140060.94 0 1 1 -280121.87 0M 14850002.37 18899983.06 m -140060.94 0 a 140060.94 140060.94 0 1 1 280121.87 0a 140060.94 140060.94 0 1 1 -280121.87 0M 13150002.37 19649983.06 m -140060.94 0 a 140060.94 140060.94 0 1 1 280121.87 0a 140060.94 140060.94 0 1 1 -280121.87 0M 13250002.37 20799983.06 m -140060.94 0 a 140060.94 140060.94 0 1 1 280121.87 0a 140060.94 140060.94 0 1 1 -280121.87 0M 13350002.37 21299983.06 m -140060.94 0 a 140060.94 140060.94 0 1 1 280121.87 0a 140060.94 140060.94 0 1 1 -280121.87 0M 13721075.37 19933262.06 m -140060.94 0 a 140060.94 140060.94 0 1 1 280121.87 0a 140060.94 140060.94 0 1 1 -280121.87 0M 14050000.00 20040044.00 A 140060.94 140060.94 0 1 1 14077321.00 20037353.00 L 14050000.00 20040044.00  zM 15146487.37 21000253.06 m -140060.94 0 a 140060.94 140060.94 0 1 1 280121.87 0a 140060.94 140060.94 0 1 1 -280121.87 0"/>
</g>
</svg>
