<svg width="30.0000035mm" height="49.99999906mm" viewBox="0 0 11811025 19685039"  version="1.1" xmlns="http://www.w3.org/2000/svg" xmlns:xlink="http://www.w3.org/1999/xlink">
<desc>
Origin 0 0 Bound 1968504 1968504 11811025 19685039
</desc>
<g fill-rule="evenodd" fill="rgb(112, 219, 250)" stroke="black" stroke-width="1" transform="translate(0, 19685039) scale(1, -1) translate(-1968504, -1968504)">
<path id="N" d="M 6049999.87 14050000.00 m -63921.13 0 a 63921.13 63921.13 0 1 1 127842.26 0a 63921.13 63921.13 0 1 1 -127842.26 0"/>
<path id="N" d="M 8750000.06 20900001.24 m -516583.01 0 a 516583.01 516583.01 0 1 1 1033166.02 0a 516583.01 516583.01 0 1 1 -1033166.02 0M 8749996.81 20900011.25 m -337879.75 0 a 337879.75 337879.75 0 1 1 675759.50 0a 337879.75 337879.75 0 1 1 -675759.50 0"/>
<path id="N" d="M 8950000.06 5678741.24 m -516583.01 0 a 516583.01 516583.01 0 1 1 1033166.02 0a 516583.01 516583.01 0 1 1 -1033166.02 0M 8949996.81 5678751.25 m -337879.75 0 a 337879.75 337879.75 0 1 1 675759.50 0a 337879.75 337879.75 0 1 1 -675759.50 0"/>
<path id="N" d="M 6750000.06 20900001.24 m -516583.01 0 a 516583.01 516583.01 0 1 1 1033166.02 0a 516583.01 516583.01 0 1 1 -1033166.02 0M 6749996.81 20900011.25 m -337879.75 0 a 337879.75 337879.75 0 1 1 675759.50 0a 337879.75 337879.75 0 1 1 -675759.50 0"/>
<path id="N" d="M 8750000.06 18900001.24 m -516583.01 0 a 516583.01 516583.01 0 1 1 1033166.02 0a 516583.01 516583.01 0 1 1 -1033166.02 0M 8749996.81 18900011.25 m -337879.75 0 a 337879.75 337879.75 0 1 1 675759.50 0a 337879.75 337879.75 0 1 1 -675759.50 0"/>
<path id="N" d="M 6750000.06 18900001.24 m -516583.01 0 a 516583.01 516583.01 0 1 1 1033166.02 0a 516583.01 516583.01 0 1 1 -1033166.02 0M 6749996.81 18900011.25 m -337879.75 0 a 337879.75 337879.75 0 1 1 675759.50 0a 337879.75 337879.75 0 1 1 -675759.50 0"/>
<path id="N" d="M 6950000.06 3678741.24 m -516583.01 0 a 516583.01 516583.01 0 1 1 1033166.02 0a 516583.01 516583.01 0 1 1 -1033166.02 0M 6949996.81 3678751.25 m -337879.75 0 a 337879.75 337879.75 0 1 1 675759.50 0a 337879.75 337879.75 0 1 1 -675759.50 0"/>
<path id="N" d="M 12379529.77 4751181.43 m -426878.81 0 a 426878.81 426878.81 0 1 1 853757.63 0a 426878.81 426878.81 0 1 1 -853757.63 0M 12379527.86 4751182.28 m -327604.72 0 a 327604.72 327604.72 0 1 1 655209.45 0a 327604.72 327604.72 0 1 1 -655209.45 0"/>
<path id="N" d="M 6950000.06 5678741.24 m -516583.01 0 a 516583.01 516583.01 0 1 1 1033166.02 0a 516583.01 516583.01 0 1 1 -1033166.02 0M 6949996.81 5678751.25 m -337879.75 0 a 337879.75 337879.75 0 1 1 675759.50 0a 337879.75 337879.75 0 1 1 -675759.50 0"/>
<path id="N" d="M 8950000.06 3678741.24 m -516583.01 0 a 516583.01 516583.01 0 1 1 1033166.02 0a 516583.01 516583.01 0 1 1 -1033166.02 0M 8949996.81 3678751.25 m -337879.75 0 a 337879.75 337879.75 0 1 1 675759.50 0a 337879.75 337879.75 0 1 1 -675759.50 0"/>
<path id="N" d="M 8207480.00 19442520.00 L 7292520.00 19442520.00 L 7292520.00 20357480.00 L 8207480.00 20357480.00 L 8207480.00 19442520.00  zM 7749996.07 19900015.00 m -302574.00 0 a 302574.00 302574.00 0 1 1 605148.00 0a 302574.00 302574.00 0 1 1 -605148.00 0"/>
<path id="N" d="M 8407480.00 4221260.00 L 7492520.00 4221260.00 L 7492520.00 5136220.00 L 8407480.00 5136220.00 L 8407480.00 4221260.00  zM 7949996.07 4678755.00 m -302574.00 0 a 302574.00 302574.00 0 1 1 605148.00 0a 302574.00 302574.00 0 1 1 -605148.00 0"/>
<path id="N" d="M 11243700.00 4327953.00 L 10397244.00 4327953.00 L 10397244.00 5174409.00 L 11243700.00 5174409.00 L 11243700.00 4327953.00  zM 10820471.86 4751182.28 m -327604.72 0 a 327604.72 327604.72 0 1 1 655209.45 0a 327604.72 327604.72 0 1 1 -655209.45 0"/>
</g>
</svg>
