<svg width="30.0000035mm" height="49.99999906mm" viewBox="0 0 11811025 19685039"  version="1.1" xmlns="http://www.w3.org/2000/svg" xmlns:xlink="http://www.w3.org/1999/xlink">
<desc>
Origin 0 0 Bound 3937008 3937008 11811025 19685039
</desc>
<g fill-rule="evenodd" fill="rgb(128, 128, 0)" stroke="black" stroke-width="1" transform="translate(0, 19685039) scale(1, -1) translate(-3937008, -3937008)">
<path id="N" d="M 15557086.00 16476982.00 L 13918293.00 16476982.00 L 13918293.00 14427889.00 L 13930783.00 14415399.00 L 13930783.00 14484677.00 A 54118.70 54118.70 0 0 0 14039023.00 14484677.00 L 14039023.00 14415399.00 L 14146569.00 14522945.00 A 54118.22 54118.22 0 1 0 14223106.00 14446408.00 L 14115559.54 14338861.00 L 14184838.00 14338861.00 A 54118.70 54118.70 0 1 0 14184838.00 14230621.00 L 14115561.00 14230621.00 L 14223107.00 14123075.00 A 54119.43 54119.43 0 0 0 14146569.00 14046537.00 L 14039023.00 14154083.54 L 14039023.00 14084806.00 A 54118.70 54118.70 0 0 0 13930783.00 14084806.00 L 13930783.00 14154083.54 L 13918293.00 14141593.48 L 13918293.00 13938991.00 L 14284806.00 13938991.00 A 54118.70 54118.70 0 0 0 14284806.00 13830751.00 L 13918293.00 13830751.00 L 13918293.00 13539120.00 L 14284806.00 13539120.00 A 54118.70 54118.70 0 1 0 14284806.00 13430880.00 L 13918293.00 13430880.00 L 13918293.00 12548214.00 L 15557086.00 12548214.00 A 54118.70 54118.70 0 1 0 15557086.00 12439974.00 L 13864173.00 12439974.00 L 13825904.00 12455825.00 L 13810053.00 12494094.00 L 13810053.00 13430880.00 L 13784968.00 13430879.00 L 13746699.00 13446731.00 L 13646731.00 13546699.00 L 13630880.00 13584968.00 L 13630879.00 13784903.00 L 13646731.00 13823172.00 L 13746699.00 13923140.00 L 13784968.00 13938991.00 L 13810053.00 13938991.00 L 13810053.00 14041075.85 L 13784968.00 14030685.00 A 54122.11 54122.11 0 0 0 13746699.00 14123075.00 L 13810053.00 14186429.00 L 13810053.00 14230621.00 L 13784968.00 14230621.00 A 54118.70 54118.70 0 0 0 13784968.00 14338861.00 L 13810053.00 14338861.00 L 13810053.00 14383054.68 L 13746700.00 14446408.00 A 54118.22 54118.22 0 0 0 13784968.00 14538797.00 L 13810053.00 14528406.15 L 13810053.00 16531102.00 L 13825904.00 16569371.00 L 13864173.00 16585222.00 L 15557086.00 16585222.00 A 54121.84 54121.84 0 1 0 15557086.00 16476982.00  zM 13810053.00 13830751.00 L 13807386.00 13830751.00 L 13739120.00 13762485.00 L 13739120.00 13607386.00 L 13807386.00 13539120.00 L 13810053.00 13539120.00 L 13810053.00 13830751.00  z"/>
<path id="N" d="M 11534808.41 19689120.00 L 11934677.00 19689120.00 A 54118.70 54118.70 0 0 0 11934677.00 19580880.00 L 11665464.00 19580880.00 L 11972946.00 19273398.00 L 11988797.00 19235126.59 L 11988798.00 19135162.00 L 11972946.00 19096893.00 L 11872978.00 18996925.00 L 11834709.00 18981074.00 L 11634774.00 18981073.00 L 11596505.00 18996925.00 L 11496537.00 19096893.00 A 54121.84 54121.84 0 1 0 11573075.00 19173431.00 L 11657192.00 19089314.00 L 11812291.00 19089314.00 L 11880557.00 19157580.00 L 11880557.00 19212711.00 L 11496537.00 19596731.00 A 54119.43 54119.43 0 0 0 11534808.41 19689120.00  z"/>
<path id="N" d="M 10975015.00 22408873.00 L 10987496.00 22378740.00 L 10987496.00 20846551.00 L 11217229.00 20846551.00 L 11217229.00 21433858.00 L 11229710.00 21463991.00 L 11259843.00 21476472.00 L 11751969.00 21476472.00 L 11782102.00 21463991.00 L 11794583.00 21433858.00 L 11782102.00 21403725.00 L 11751969.00 21391244.00 L 11302457.00 21391244.00 L 11302457.00 20803937.00 L 11289976.00 20773804.00 L 11259843.00 20761323.00 L 10968489.85 20761323.00 L 10971812.00 20778024.00 L 10971812.00 21092984.00 L 10962645.00 21139068.00 L 10936541.00 21178137.00 L 10902268.00 21201036.55 L 10902268.00 22285922.77 L 10933185.00 22306580.00 L 10959289.00 22345649.00 L 10968456.00 22391733.00 L 10968456.00 22411589.72 L 10975015.00 22408873.00  z"/>
<path id="N" d="M 7749994.00 13949992.29 m -299421.33 0 a 299421.33 299421.33 0 1 1 598842.67 0a 299421.33 299421.33 0 1 1 -598842.67 0"/>
<path id="N" d="M 10989120.00 19635000.00 L 10989120.00 19489185.00 L 11234903.00 19489185.00 L 11273172.00 19473334.00 L 11373140.00 19373366.00 L 11388991.00 19335094.59 L 11388991.00 19135162.00 L 11373140.00 19096893.00 L 11273172.00 18996925.00 L 11234900.59 18981074.00 L 10935000.00 18981074.00 L 10896731.00 18996925.00 L 10880880.00 19035194.00 L 10880880.00 19635000.00 A 54118.70 54118.70 0 0 0 10989120.00 19635000.00  zM 11212485.00 19380945.00 L 10989120.00 19380945.00 L 10989120.00 19089314.00 L 11212485.00 19089314.00 L 11280751.00 19157580.00 L 11280751.00 19312679.00 L 11212485.00 19380945.00  z"/>
<path id="N" d="M 14085251.00 22408873.00 L 14097732.00 22378740.00 L 14097732.00 20803937.00 L 14085251.00 20773804.00 L 14055118.00 20761323.00 L 13740157.00 20761323.00 L 13710024.00 20773804.00 L 13697543.00 20803937.00 L 13697543.00 21391244.00 L 13248031.00 21391244.00 L 13217898.00 21403725.00 L 13205417.00 21433858.00 L 13217898.00 21463991.00 L 13248031.00 21476472.00 L 13740157.00 21476472.00 L 13770290.00 21463991.00 L 13782771.00 21433858.00 L 13782771.00 20846551.00 L 14012504.00 20846551.00 L 14012504.00 22378740.00 L 14024985.00 22408873.00 L 14055118.00 22421354.00 L 14085251.00 22408873.00  z"/>
<path id="N" d="M 12206652.00 20036220.00 L 12203790.98 20021837.00 L 12699606.00 20021837.00 A 54118.70 54118.70 0 0 0 12699606.00 19913597.00 L 6400394.00 19913597.00 A 54118.70 54118.70 0 0 0 6400394.00 20021837.00 L 12008807.02 20021837.00 L 12005946.00 20036220.00 A 100353.26 100353.26 0 1 0 12206652.00 20036220.00  z"/>
<path id="N" d="M 7349996.47 5735037.47 m -100354.75 0 a 100354.75 100354.75 0 1 1 200709.51 0a 100354.75 100354.75 0 1 1 -200709.51 0"/>
<path id="N" d="M 8499996.47 21187006.47 m -100354.75 0 a 100354.75 100354.75 0 1 1 200709.51 0a 100354.75 100354.75 0 1 1 -200709.51 0"/>
<path id="N" d="M 7143911.00 5761235.00 L 7156392.00 5731102.00 L 7143911.00 5700969.00 L 7113778.00 5688488.00 L 5857179.00 5688488.00 L 5857179.00 4215354.00 L 5844698.00 4185221.00 L 5814565.00 4172740.00 L 5784432.00 4185221.00 L 5771951.00 4215354.00 L 5771951.00 5731102.00 L 5784432.00 5761235.00 L 5814565.00 5773716.00 L 7113778.00 5773716.00 L 7143911.00 5761235.00  z"/>
<path id="N" d="M 6994698.00 22736826.00 L 7007179.00 22706693.00 L 7007179.00 21233559.00 L 8263778.00 21233559.00 L 8293911.00 21221078.00 L 8306392.00 21190945.00 L 8293911.00 21160812.00 L 8263778.00 21148331.00 L 6964565.00 21148331.00 L 6934432.00 21160812.00 L 6921951.00 21190945.00 L 6921951.00 22706693.00 L 6934432.00 22736826.00 L 6964565.00 22749307.00 L 6994698.00 22736826.00  z"/>
<path id="N" d="M 10065564.00 22736826.00 L 10078045.00 22706693.00 L 10078045.00 21190945.00 L 10065564.00 21160812.00 L 10035431.00 21148331.00 L 8736218.00 21148331.00 L 8706085.00 21160812.00 L 8693604.00 21190945.00 L 8706085.00 21221078.00 L 8736218.00 21233559.00 L 9992817.00 21233559.00 L 9992817.00 22706693.00 L 10005298.00 22736826.00 L 10035431.00 22749307.00 L 10065564.00 22736826.00  z"/>
<path id="N" d="M 8915564.00 5761235.00 L 8928045.00 5731102.00 L 8928045.00 4215354.00 L 8915564.00 4185221.00 L 8885431.00 4172740.00 L 8855298.00 4185221.00 L 8842817.00 4215354.00 L 8842817.00 5688488.00 L 7586218.00 5688488.00 L 7556085.00 5700969.00 L 7543604.00 5731102.00 L 7556085.00 5761235.00 L 7586218.00 5773716.00 L 8885431.00 5773716.00 L 8915564.00 5761235.00  z"/>
<path id="N" d="M 13396275.00 23826196.00 L 13408756.00 23796063.00 L 13396275.00 23765930.00 L 13366142.00 23753449.00 L 11633858.00 23753449.00 L 11603725.00 23765930.00 L 11591244.00 23796063.00 L 11603725.00 23826196.00 L 11633858.00 23838677.00 L 13366142.00 23838677.00 L 13396275.00 23826196.00  z"/>
<path id="N" d="M 12699606.00 13378163.00 L 6400394.00 13378163.00 A 54118.70 54118.70 0 0 0 6400394.00 13486403.00 L 12699606.00 13486403.00 A 54121.84 54121.84 0 0 0 12699606.00 13378163.00  z"/>
</g>
</svg>
