<svg width="30.0000035mm" height="49.99999906mm" viewBox="0 0 11811025 19685039"  version="1.1" xmlns="http://www.w3.org/2000/svg" xmlns:xlink="http://www.w3.org/1999/xlink">
<desc>
Origin 0 0 Bound 1968504 1968504 11811025 19685039
</desc>
<g fill-rule="evenodd" fill="rgb(255, 0, 255)" stroke="black" stroke-width="1" transform="translate(0, 19685039) scale(1, -1) translate(-1968504, -1968504)">
<path id="N" d="M 12307941.00 21653542.00 A 1578141.91 1578141.91 0 0 0 13779527.00 20181958.00 L 13779528.45 17047244.00 L 12594616.00 17047244.00 A 120429.94 120429.94 0 0 1 12594616.00 16811024.00 L 13779528.41 16811024.00 L 13779526.00 3440087.00 A 1578145.74 1578145.74 0 0 0 12307941.00 1968503.00 L 3440088.00 1968504.00 A 1578197.26 1578197.26 0 0 0 1968504.00 3440088.00 L 1968504.00 20181958.00 A 1578178.47 1578178.47 0 0 0 3440088.00 21653543.00 L 12307941.00 21653542.00  zM 6949998.52 3678744.68 m -516579.32 0 a 516579.32 516579.32 0 1 1 1033158.64 0a 516579.32 516579.32 0 1 1 -1033158.64 0M 8407480.00 5136220.00 L 7492520.00 5136220.00 L 7492520.00 4221260.00 L 8407480.00 4221260.00 L 8407480.00 5136220.00  zM 8949998.52 3678744.68 m -516579.32 0 a 516579.32 516579.32 0 1 1 1033158.64 0a 516579.32 516579.32 0 1 1 -1033158.64 0M 6949998.52 5678744.68 m -516579.32 0 a 516579.32 516579.32 0 1 1 1033158.64 0a 516579.32 516579.32 0 1 1 -1033158.64 0M 4633465.00 11402207.00 L 3767323.00 11402207.00 A 258108.52 258108.52 0 1 1 3767323.00 10885981.00 L 4633465.00 10885981.00 A 258108.52 258108.52 0 0 1 4633465.00 11402207.00  zM 11263385.00 5194094.00 L 10377559.00 5194094.00 L 10377559.00 4308268.00 L 11263385.00 4308268.00 L 11263385.00 5194094.00  zM 12379526.86 4751182.46 m -446733.54 0 a 446733.54 446733.54 0 1 1 893467.07 0a 446733.54 446733.54 0 1 1 -893467.07 0M 8949998.52 5678744.68 m -516579.32 0 a 516579.32 516579.32 0 1 1 1033158.64 0a 516579.32 516579.32 0 1 1 -1033158.64 0M 10932677.00 11402207.00 L 10066535.00 11402207.00 A 258108.52 258108.52 0 0 1 10066535.00 10885981.00 L 10932677.00 10885981.00 A 258108.52 258108.52 0 1 1 10932677.00 11402207.00  zM 4633465.00 12189609.00 L 3767323.00 12189609.00 A 258108.52 258108.52 0 0 1 3767323.00 11673383.00 L 4633465.00 11673383.00 A 258108.52 258108.52 0 0 1 4633465.00 12189609.00  zM 4633465.00 12977011.00 L 3767323.00 12977011.00 A 258108.52 258108.52 0 1 1 3767323.00 12460785.00 L 4633465.00 12460785.00 A 258108.52 258108.52 0 0 1 4633465.00 12977011.00  zM 4633465.00 13764412.00 L 3767323.00 13764412.00 A 258108.52 258108.52 0 1 1 3767323.00 13248186.00 L 4633465.00 13248186.00 A 258108.52 258108.52 0 0 1 4633465.00 13764412.00  zM 4633465.00 14551814.00 L 3767323.00 14551814.00 A 258108.52 258108.52 0 1 1 3767323.00 14035588.00 L 4633465.00 14035588.00 A 258108.52 258108.52 0 1 1 4633465.00 14551814.00  zM 10932677.00 12189609.00 L 10066535.00 12189609.00 A 258108.52 258108.52 0 0 1 10066535.00 11673383.00 L 10932677.00 11673383.00 A 258108.52 258108.52 0 0 1 10932677.00 12189609.00  zM 10932677.00 12977011.00 L 10066535.00 12977011.00 A 258108.52 258108.52 0 0 1 10066535.00 12460785.00 L 10932677.00 12460785.00 A 258108.52 258108.52 0 1 1 10932677.00 12977011.00  zM 10932677.00 13764412.00 L 10066535.00 13764412.00 A 258108.52 258108.52 0 0 1 10066535.00 13248186.00 L 10932677.00 13248186.00 A 258108.52 258108.52 0 1 1 10932677.00 13764412.00  zM 10932677.00 14551814.00 L 10066535.00 14551814.00 A 258108.52 258108.52 0 1 1 10066535.00 14035588.00 L 10932677.00 14035588.00 A 258108.52 258108.52 0 1 1 10932677.00 14551814.00  zM 4633465.00 15339215.00 L 3767323.00 15339215.00 A 258108.52 258108.52 0 0 1 3767323.00 14822989.00 L 4633465.00 14822989.00 A 258108.52 258108.52 0 0 1 4633465.00 15339215.00  zM 4633465.00 16914019.00 L 3767323.00 16914019.00 A 258108.52 258108.52 0 1 1 3767323.00 16397793.00 L 4633465.00 16397793.00 A 258108.52 258108.52 0 1 1 4633465.00 16914019.00  zM 4633465.00 16126617.00 L 3767323.00 16126617.00 A 258108.52 258108.52 0 1 1 3767323.00 15610391.00 L 4633465.00 15610391.00 A 258108.52 258108.52 0 1 1 4633465.00 16126617.00  zM 8749998.52 18900004.68 m -516579.32 0 a 516579.32 516579.32 0 1 1 1033158.64 0a 516579.32 516579.32 0 1 1 -1033158.64 0M 6749998.52 18900004.68 m -516579.32 0 a 516579.32 516579.32 0 1 1 1033158.64 0a 516579.32 516579.32 0 1 1 -1033158.64 0M 6749998.52 20900004.68 m -516579.32 0 a 516579.32 516579.32 0 1 1 1033158.64 0a 516579.32 516579.32 0 1 1 -1033158.64 0M 8207480.00 20357480.00 L 7292520.00 20357480.00 L 7292520.00 19442520.00 L 8207480.00 19442520.00 L 8207480.00 20357480.00  zM 8749998.52 20900004.68 m -516579.32 0 a 516579.32 516579.32 0 1 1 1033158.64 0a 516579.32 516579.32 0 1 1 -1033158.64 0M 10932677.00 16126617.00 L 10066535.00 16126617.00 A 258108.52 258108.52 0 1 1 10066535.00 15610391.00 L 10932677.00 15610391.00 A 258108.52 258108.52 0 1 1 10932677.00 16126617.00  zM 10932677.00 15339215.00 L 10066535.00 15339215.00 A 258108.52 258108.52 0 0 1 10066535.00 14822989.00 L 10932677.00 14822989.00 A 258108.52 258108.52 0 1 1 10932677.00 15339215.00  zM 13602362.00 15964567.00 L 11988190.00 15964567.00 L 11988190.00 15531497.00 L 13602362.00 15531497.00 L 13602362.00 15964567.00  zM 13602362.00 16751968.00 L 11988190.00 16751968.00 L 11988190.00 16318898.00 L 13602362.00 16318898.00 L 13602362.00 16751968.00  zM 10932677.00 16914019.00 L 10066535.00 16914019.00 A 258108.52 258108.52 0 1 1 10066535.00 16397793.00 L 10932677.00 16397793.00 A 258108.52 258108.52 0 1 1 10932677.00 16914019.00  zM 13602362.00 18326772.00 L 11988190.00 18326772.00 L 11988190.00 17893702.00 L 13602362.00 17893702.00 L 13602362.00 18326772.00  zM 13602362.00 17539370.00 L 11988190.00 17539370.00 L 11988190.00 17106300.00 L 13602362.00 17106300.00 L 13602362.00 17539370.00  zM 13602362.00 19114173.00 L 11988190.00 19114173.00 L 11988190.00 18681103.00 L 13602362.00 18681103.00 L 13602362.00 19114173.00  z"/>
</g>
</svg>
