<svg width="30.0000035mm" height="49.99999906mm" viewBox="0 0 11811025 19685039"  version="1.1" xmlns="http://www.w3.org/2000/svg" xmlns:xlink="http://www.w3.org/1999/xlink">
<desc>
Origin 0 0 Bound 1968504 1968504 11811025 19685039
</desc>
<g fill-rule="evenodd" fill="rgb(255, 255, 0)" stroke="black" stroke-width="1" transform="translate(0, 19685039) scale(1, -1) translate(-1968504, -1968504)">
<path id="N" d="M 12685251.00 6238007.00 L 12697732.00 6207874.00 L 12697732.00 5581197.00 L 13147244.00 5581197.00 L 13177377.00 5568716.00 L 13189858.00 5538583.00 L 13189858.00 2861417.00 L 13177377.00 2831284.00 L 13147244.00 2818803.00 L 10052756.00 2818803.00 L 10022623.00 2831284.00 L 10010142.00 2861417.00 L 10010142.00 5538583.00 L 10022623.00 5568716.00 L 10052756.00 5581197.00 L 10502268.00 5581197.00 L 10502268.00 6207874.00 L 10514749.00 6238007.00 L 10544882.00 6250488.00 L 12655118.00 6250488.00 L 12685251.00 6238007.00  zM 12612504.00 6165260.00 L 10587496.00 6165260.00 L 10587496.00 5538583.00 L 10575015.00 5508450.00 L 10544882.00 5495969.00 L 10095370.00 5495969.00 L 10095370.00 2904031.00 L 13104630.00 2904031.00 L 13104630.00 5495969.00 L 12655118.00 5495969.00 L 12624985.00 5508450.00 L 12612504.00 5538583.00 L 12612504.00 6165260.00  z"/>
<path id="N" d="M 12528039.00 12110894.00 L 12528039.00 11810991.00 L 12512188.00 11772722.00 L 12412220.00 11672754.00 L 12373948.59 11656903.00 L 12273984.00 11656903.00 L 12235715.00 11672754.00 L 12174016.00 11734453.00 L 12112317.00 11672754.00 L 12074045.59 11656903.00 L 11974081.00 11656903.00 L 11935812.00 11672754.00 L 11835844.00 11772722.00 L 11819993.00 11810993.41 L 11819993.00 12110894.00 L 11835844.00 12149163.00 L 11874113.00 12165014.00 L 12473919.00 12165014.00 L 12512188.00 12149163.00 L 12528039.00 12110894.00  zM 12119896.00 12056774.00 L 11928233.00 12056774.00 L 11928233.00 11833409.00 L 11996499.00 11765143.00 L 12051630.00 11765143.00 L 12119896.00 11833409.00 L 12119896.00 12056774.00  zM 12419799.00 12056774.00 L 12228136.00 12056774.00 L 12228136.00 11833409.00 L 12296402.00 11765143.00 L 12351533.00 11765143.00 L 12419799.00 11833409.00 L 12419799.00 12056774.00  z"/>
<path id="N" d="M 12288781.00 20059540.00 L 12242933.00 20059540.00 L 12242934.00 19613822.00 L 12227082.00 19575553.00 L 12127114.00 19475585.00 L 12088845.00 19459734.00 L 11988878.00 19459733.00 L 11950609.00 19475585.00 L 11850641.00 19575553.00 A 54121.84 54121.84 0 0 0 11927179.00 19652091.00 L 12011296.00 19567974.00 L 12066427.00 19567974.00 L 12134693.00 19636240.00 L 12134693.00 20059540.00 L 12088845.00 20059540.00 A 54118.70 54118.70 0 0 0 12088845.00 20167780.00 L 12288781.00 20167780.00 A 54121.84 54121.84 0 0 0 12288781.00 20059540.00  z"/>
<path id="N" d="M 12412220.00 11549357.00 L 12512188.00 11449389.00 A 54119.43 54119.43 0 0 0 12473916.59 11357000.00 L 11928233.00 11357000.00 L 11928233.00 11311153.00 A 54118.70 54118.70 0 0 0 11819993.00 11311153.00 L 11819993.00 11511088.00 A 54118.70 54118.70 0 1 0 11928233.00 11511088.00 L 11928233.00 11465240.00 L 12343261.00 11465240.00 L 12335682.00 11472819.00 A 54121.84 54121.84 0 0 0 12412220.00 11549357.00  z"/>
<path id="N" d="M 12642804.00 20113657.59 L 12642804.00 19567974.00 L 12688651.00 19567974.00 A 54118.70 54118.70 0 1 0 12688651.00 19459734.00 L 12488716.00 19459734.00 A 54118.70 54118.70 0 0 0 12488716.00 19567974.00 L 12534564.00 19567974.00 L 12534564.00 19983002.00 L 12526985.00 19975423.00 A 54121.84 54121.84 0 0 0 12450447.00 20051961.00 L 12550415.00 20151929.00 A 54119.43 54119.43 0 0 0 12642804.00 20113657.59  z"/>
<path id="N" d="M 9225633.00 3049070.00 L 9238114.00 3018937.00 L 9238114.00 78740.00 L 9225633.00 48607.00 L 9195500.00 36126.00 L 6704500.00 36126.00 L 6674367.00 48607.00 L 6661886.00 78740.00 L 6661886.00 3018937.00 L 6674367.00 3049070.00 L 6704500.00 3061551.00 L 6734633.00 3049070.00 L 6747114.00 3018937.00 L 6747114.00 121354.00 L 9152886.00 121354.00 L 9152886.00 3018937.00 L 9165367.00 3049070.00 L 9195500.00 3061551.00 L 9225633.00 3049070.00  z"/>
<path id="N" d="M 9025633.00 24530133.00 L 9038114.00 24500000.00 L 9038114.00 21559803.00 L 9025633.00 21529670.00 L 8995500.00 21517189.00 L 8965367.00 21529670.00 L 8952886.00 21559803.00 L 8952886.00 24457386.00 L 6547114.00 24457386.00 L 6547114.00 21559803.00 L 6534633.00 21529670.00 L 6504500.00 21517189.00 L 6474367.00 21529670.00 L 6461886.00 21559803.00 L 6461886.00 24500000.00 L 6474367.00 24530133.00 L 6504500.00 24542614.00 L 8995500.00 24542614.00 L 9025633.00 24530133.00  z"/>
<path id="N" d="M 13602362.00 19287219.00 L 11963569.00 19287219.00 L 11963569.00 15358451.00 L 13602362.00 15358451.00 A 54118.70 54118.70 0 1 0 13602362.00 15250211.00 L 11909449.00 15250211.00 L 11871180.00 15266062.00 L 11855329.00 15304331.00 L 11855329.00 19341339.00 L 11871180.00 19379608.00 L 11909449.00 19395459.00 L 13602362.00 19395459.00 A 54121.84 54121.84 0 0 0 13602362.00 19287219.00  z"/>
<path id="N" d="M 6434250.47 4694880.47 m -100354.75 0 a 100354.75 100354.75 0 1 1 200709.51 0a 100354.75 100354.75 0 1 1 -200709.51 0"/>
<path id="N" d="M 7904149.00 14430170.00 L 10493161.00 11841157.00 L 10505643.00 11811024.00 L 10493161.00 11780891.00 L 7904149.00 9191878.00 L 7874016.00 9179397.00 L 7843882.29 9191879.71 L 5254870.00 11780891.00 L 5242389.00 11811024.00 L 5254870.00 11841157.00 L 7843883.00 14430170.00 L 7874016.00 14442651.00 L 7904149.00 14430170.00  zM 7874015.51 14339771.50 L 5345268.99 11811024.00 L 7874015.51 9282276.50 L 10402763.99 11811024.00 L 7874015.51 14339771.50  z"/>
<path id="N" d="M 7393794.47 14796739.47 m -100354.75 0 a 100354.75 100354.75 0 1 1 200709.51 0a 100354.75 100354.75 0 1 1 -200709.51 0"/>
<path id="N" d="M 9265746.47 19883856.47 m -100354.75 0 a 100354.75 100354.75 0 1 1 200709.51 0a 100354.75 100354.75 0 1 1 -200709.51 0"/>
<path id="N" d="M 9796848.47 4751179.47 m -100354.75 0 a 100354.75 100354.75 0 1 1 200709.51 0a 100354.75 100354.75 0 1 1 -200709.51 0"/>
<path id="N" d="M 6534633.00 20270330.00 L 6547114.00 20240197.00 L 6547114.00 19559803.00 L 6534633.00 19529670.00 L 6504500.00 19517189.00 L 6474367.00 19529670.00 L 6461886.00 19559803.00 L 6461886.00 20240197.00 L 6474367.00 20270330.00 L 6504500.00 20282811.00 L 6534633.00 20270330.00  z"/>
<path id="N" d="M 8320330.00 6108873.00 L 8332811.00 6078740.00 L 8320330.00 6048607.00 L 8290197.00 6036126.00 L 7609803.00 6036126.00 L 7579670.00 6048607.00 L 7567189.00 6078740.00 L 7579670.00 6108873.00 L 7609803.00 6121354.00 L 8290197.00 6121354.00 L 8320330.00 6108873.00  z"/>
<path id="N" d="M 9225633.00 5049070.00 L 9238114.00 5018937.00 L 9238114.00 4338543.00 L 9225633.00 4308410.00 L 9195500.00 4295929.00 L 9165367.00 4308410.00 L 9152886.00 4338543.00 L 9152886.00 5018937.00 L 9165367.00 5049070.00 L 9195500.00 5061551.00 L 9225633.00 5049070.00  z"/>
<path id="N" d="M 6734633.00 5049070.00 L 6747114.00 5018937.00 L 6747114.00 4338543.00 L 6734633.00 4308410.00 L 6704500.00 4295929.00 L 6674367.00 4308410.00 L 6661886.00 4338543.00 L 6661886.00 5018937.00 L 6674367.00 5049070.00 L 6704500.00 5061551.00 L 6734633.00 5049070.00  z"/>
<path id="N" d="M 8120330.00 18530133.00 L 8132811.00 18500000.00 L 8120330.00 18469867.00 L 8090197.00 18457386.00 L 7409803.00 18457386.00 L 7379670.00 18469867.00 L 7367189.00 18500000.00 L 7379670.00 18530133.00 L 7409803.00 18542614.00 L 8090197.00 18542614.00 L 8120330.00 18530133.00  z"/>
<path id="N" d="M 9025633.00 20270330.00 L 9038114.00 20240197.00 L 9038114.00 19559803.00 L 9025633.00 19529670.00 L 8995500.00 19517189.00 L 8965367.00 19529670.00 L 8952886.00 19559803.00 L 8952886.00 20240197.00 L 8965367.00 20270330.00 L 8995500.00 20282811.00 L 9025633.00 20270330.00  z"/>
<path id="N" d="M 12248424.87 8910236.00 m -63921.13 0 a 63921.13 63921.13 0 1 1 127842.26 0a 63921.13 63921.13 0 1 1 -127842.26 0"/>
</g>
</svg>
