<svg width="30.0000035mm" height="49.99999906mm" viewBox="0 0 11811025 19685039"  version="1.1" xmlns="http://www.w3.org/2000/svg" xmlns:xlink="http://www.w3.org/1999/xlink">
<desc>
Origin 0 0 Bound 3937008 3937008 11811025 19685039
</desc>
<g fill-rule="evenodd" fill="rgb(0, 204, 102)" stroke="black" stroke-width="1" transform="translate(0, 19685039) scale(1, -1) translate(-3937008, -3937008)">
<path id="N" d="M 14566933.73 5118121.76 m -791198.52 0 a 791198.52 791198.52 0 1 1 1582397.04 0a 791198.52 791198.52 0 1 1 -1582397.04 0M 14566926.04 5118124.86 m -632954.14 0 a 632954.14 632954.14 0 1 1 1265908.28 0a 632954.14 632954.14 0 1 1 -1265908.28 0"/>
<path id="N" d="M 5118114.73 22440956.76 m -791198.52 0 a 791198.52 791198.52 0 1 1 1582397.04 0a 791198.52 791198.52 0 1 1 -1582397.04 0M 5118107.04 22440959.86 m -632954.14 0 a 632954.14 632954.14 0 1 1 1265908.28 0a 632954.14 632954.14 0 1 1 -1265908.28 0"/>
<path id="N" d="M 11048739.00 22864174.00 L 11048739.00 22391732.00 A 200706.53 200706.53 0 0 0 10647325.00 22391732.00 L 10647325.00 22864174.00 A 200706.53 200706.53 0 0 0 11048739.00 22864174.00  zM 10727608.00 22864173.00 L 10727608.00 22391733.00 A 120431.73 120431.73 0 0 1 10968456.00 22391733.00 L 10968456.00 22864173.00 A 120431.73 120431.73 0 0 1 10727608.00 22864173.00  z"/>
<path id="N" d="M 11052095.00 21092984.00 L 11052095.00 20778024.00 A 200706.53 200706.53 0 0 0 10650681.00 20778024.00 L 10650681.00 21092984.00 A 200706.53 200706.53 0 0 0 11052095.00 21092984.00  zM 10730964.00 21092984.00 L 10730964.00 20778024.00 A 120431.73 120431.73 0 0 1 10971812.00 20778024.00 L 10971812.00 21092984.00 A 120431.73 120431.73 0 0 1 10730964.00 21092984.00  z"/>
<path id="N" d="M 14448739.00 21139763.00 L 14448739.00 20824803.00 A 200706.53 200706.53 0 0 0 14047325.00 20824803.00 L 14047325.00 21139763.00 A 200706.53 200706.53 0 0 0 14448739.00 21139763.00  zM 14127608.00 21139763.00 L 14127608.00 20824803.00 A 120431.73 120431.73 0 1 1 14368456.00 20824803.00 L 14368456.00 21139763.00 A 120431.73 120431.73 0 1 1 14127608.00 21139763.00  z"/>
<path id="N" d="M 14448739.00 22864174.00 L 14448739.00 22391732.00 A 200706.53 200706.53 0 0 0 14047325.00 22391732.00 L 14047325.00 22864174.00 A 200706.53 200706.53 0 0 0 14448739.00 22864174.00  zM 14127608.00 22864173.00 L 14127608.00 22391733.00 A 120431.73 120431.73 0 1 1 14368456.00 22391733.00 L 14368456.00 22864173.00 A 120431.73 120431.73 0 1 1 14127608.00 22864173.00  z"/>
</g>
</svg>
