<svg width="30.0000035mm" height="49.99999906mm" viewBox="0 0 11811025 19685039"  version="1.1" xmlns="http://www.w3.org/2000/svg" xmlns:xlink="http://www.w3.org/1999/xlink">
<desc>
Origin 0 0 Bound 1968504 1968504 11811025 19685039
</desc>
<g fill-rule="evenodd" fill="rgb(0, 128, 0)" stroke="black" stroke-width="1" transform="translate(0, 19685039) scale(1, -1) translate(-1968504, -1968504)">
<path id="N" d="M 12294768.00 21452574.00 A 1376793.66 1376793.66 0 0 0 13578559.00 20168782.00 L 13578560.00 17248212.00 L 12594612.00 17248212.00 L 12555405.00 17244349.00 L 12517705.00 17232913.00 L 12474295.00 17214931.00 L 12439551.00 17196358.00 L 12409100.00 17171368.00 L 12375875.00 17138143.00 L 12350882.00 17107688.00 L 12332311.00 17072944.00 L 12314330.00 17029534.00 L 12302894.00 16991834.00 L 12299032.00 16952627.00 L 12299032.00 16905640.00 L 12302894.00 16866433.00 L 12314330.00 16828733.00 L 12332311.00 16785323.00 L 12350882.00 16750579.00 L 12375875.00 16720124.00 L 12409100.00 16686899.00 L 12439554.00 16661907.00 L 12474299.00 16643335.00 L 12517709.00 16625354.00 L 12555409.00 16613918.00 L 12594616.00 16610056.00 L 13578560.00 16610056.00 L 13578558.00 3453261.00 A 1376771.05 1376771.05 0 0 0 12294767.00 2169471.00 L 3453262.00 2169472.00 A 1376762.39 1376762.39 0 0 0 2169472.00 3453262.00 L 2169472.00 20168784.00 A 1376762.39 1376762.39 0 0 0 3453263.00 21452575.00 L 12294768.00 21452574.00  zM 6949992.73 3678791.81 m -435881.19 0 a 435881.19 435881.19 0 1 1 871762.38 0a 435881.19 435881.19 0 1 1 -871762.38 0M 6949992.73 5678791.81 m -435881.19 0 a 435881.19 435881.19 0 1 1 871762.38 0a 435881.19 435881.19 0 1 1 -871762.38 0M 7749571.00 5025893.00 L 7710819.05 5000000.00 L 7666551.00 4962189.00 A 400808.64 400808.64 0 1 1 7749571.00 5025893.00  zM 8949992.73 3678791.81 m -435881.19 0 a 435881.19 435881.19 0 1 1 871762.38 0a 435881.19 435881.19 0 1 1 -871762.38 0M 8949992.73 5678791.81 m -435881.19 0 a 435881.19 435881.19 0 1 1 871762.38 0a 435881.19 435881.19 0 1 1 -871762.38 0M 10820470.58 4751195.13 m -425699.87 0 a 425699.87 425699.87 0 1 1 851399.74 0a 425699.87 425699.87 0 1 1 -851399.74 0M 12379526.58 4751195.13 m -425699.87 0 a 425699.87 425699.87 0 1 1 851399.74 0a 425699.87 425699.87 0 1 1 -851399.74 0M 6050002.37 14049983.06 m -140060.94 0 a 140060.94 140060.94 0 1 1 280121.87 0a 140060.94 140060.94 0 1 1 -280121.87 0M 6749992.73 18900051.81 m -435881.19 0 a 435881.19 435881.19 0 1 1 871762.38 0a 435881.19 435881.19 0 1 1 -871762.38 0M 8749992.73 18900051.81 m -435881.19 0 a 435881.19 435881.19 0 1 1 871762.38 0a 435881.19 435881.19 0 1 1 -871762.38 0M 6749992.73 20900051.81 m -435881.19 0 a 435881.19 435881.19 0 1 1 871762.38 0a 435881.19 435881.19 0 1 1 -871762.38 0M 7750000.00 20300858.00 A 400819.03 400819.03 0 1 1 7802322.00 20297429.00 L 7750000.00 20300858.00  zM 8749992.73 20900051.81 m -435881.19 0 a 435881.19 435881.19 0 1 1 871762.38 0a 435881.19 435881.19 0 1 1 -871762.38 0"/>
</g>
</svg>
