<svg width="30.0000035mm" height="49.99999906mm" viewBox="0 0 11811025 19685039"  version="1.1" xmlns="http://www.w3.org/2000/svg" xmlns:xlink="http://www.w3.org/1999/xlink">
<desc>
Origin 0 0 Bound 3937008 3937008 11811025 19685039
</desc>
<g fill-rule="evenodd" fill="rgb(255, 0, 255)" stroke="black" stroke-width="1" transform="translate(0, 19685039) scale(1, -1) translate(-3937008, -3937008)">
<path id="N" d="M 10866142.00 23622045.76 L 10866142.00 23081348.63 L 10848032.00 23084951.00 A 220780.35 220780.35 0 0 1 10627255.00 22864174.00 L 10627255.00 22391732.00 A 220780.35 220780.35 0 0 1 11068809.00 22391732.00 L 11068809.00 22516536.00 L 11496062.00 22516536.00 L 11496062.00 23622045.62 L 13503938.00 23622045.15 L 13503938.00 22516536.00 L 14027255.00 22516536.00 L 14027255.00 22391732.00 A 220780.35 220780.35 0 0 1 14468809.00 22391732.00 L 14468809.00 22864174.00 A 220780.35 220780.35 0 0 1 14163544.00 23068145.00 L 14133858.00 23048309.57 L 14133858.00 23622045.01 L 14276445.00 23622046.00 A 1578141.91 1578141.91 0 0 0 15748031.00 22150462.00 L 15748031.58 14237007.00 L 14549340.00 14237007.00 A 120429.94 120429.94 0 0 1 14549340.00 14000787.00 L 15748031.54 14000787.00 L 15748030.00 5408591.00 A 1578145.74 1578145.74 0 0 0 14276445.00 3937007.00 L 8727951.00 3937008.00 L 8727951.00 5577558.00 L 8196455.00 5577558.00 L 8196455.00 3937008.00 L 6503541.00 3937008.00 L 6503541.00 5577558.00 L 5972045.00 5577558.00 L 5972045.00 3937008.00 L 5408592.00 3937008.00 A 1578197.26 1578197.26 0 0 0 3937008.00 5408592.00 L 3937008.00 22150462.00 A 1578178.47 1578178.47 0 0 0 5408592.00 23622047.00 L 5511811.00 23622047.00 L 10866142.00 23622045.76  zM 7599998.00 5380708.00 L 7099998.00 5380708.00 L 7099998.00 3963386.00 L 7599998.00 3963386.00 L 7599998.00 5380708.00  zM 14566930.54 5118101.16 m -810999.84 0 a 810999.84 810999.84 0 1 1 1621999.67 0a 810999.84 810999.84 0 1 1 -1621999.67 0M 15557086.00 13154330.00 L 13942914.00 13154330.00 L 13942914.00 12721260.00 L 15557086.00 12721260.00 L 15557086.00 13154330.00  zM 15557086.00 13941731.00 L 13942914.00 13941731.00 L 13942914.00 13508661.00 L 15557086.00 13508661.00 L 15557086.00 13941731.00  zM 6833465.00 14202207.00 L 5967323.00 14202207.00 A 258108.52 258108.52 0 0 1 5967323.00 13685981.00 L 6833465.00 13685981.00 A 258108.52 258108.52 0 0 1 6833465.00 14202207.00  zM 13132677.00 14202207.00 L 12266535.00 14202207.00 A 258108.52 258108.52 0 0 1 12266535.00 13685981.00 L 13132677.00 13685981.00 A 258108.52 258108.52 0 0 1 13132677.00 14202207.00  zM 13132677.00 14989609.00 L 12266535.00 14989609.00 A 258108.52 258108.52 0 0 1 12266535.00 14473383.00 L 13132677.00 14473383.00 A 258108.52 258108.52 0 0 1 13132677.00 14989609.00  zM 15557086.00 14729133.00 L 13942914.00 14729133.00 L 13942914.00 14296063.00 L 15557086.00 14296063.00 L 15557086.00 14729133.00  zM 6833465.00 14989609.00 L 5967323.00 14989609.00 A 258108.52 258108.52 0 0 1 5967323.00 14473383.00 L 6833465.00 14473383.00 A 258108.52 258108.52 0 0 1 6833465.00 14989609.00  zM 6833465.00 15777011.00 L 5967323.00 15777011.00 A 258108.52 258108.52 0 0 1 5967323.00 15260785.00 L 6833465.00 15260785.00 A 258108.52 258108.52 0 0 1 6833465.00 15777011.00  zM 6833465.00 16564412.00 L 5967323.00 16564412.00 A 258108.52 258108.52 0 0 1 5967323.00 16048186.00 L 6833465.00 16048186.00 A 258108.52 258108.52 0 0 1 6833465.00 16564412.00  zM 6833465.00 17351814.00 L 5967323.00 17351814.00 A 258108.52 258108.52 0 0 1 5967323.00 16835588.00 L 6833465.00 16835588.00 A 258108.52 258108.52 0 0 1 6833465.00 17351814.00  zM 13132677.00 16564412.00 L 12266535.00 16564412.00 A 258108.52 258108.52 0 0 1 12266535.00 16048186.00 L 13132677.00 16048186.00 A 258108.52 258108.52 0 0 1 13132677.00 16564412.00  zM 13132677.00 15777011.00 L 12266535.00 15777011.00 A 258108.52 258108.52 0 0 1 12266535.00 15260785.00 L 13132677.00 15260785.00 A 258108.52 258108.52 0 0 1 13132677.00 15777011.00  zM 15557086.00 15516535.00 L 13942914.00 15516535.00 L 13942914.00 15083465.00 L 15557086.00 15083465.00 L 15557086.00 15516535.00  zM 15557086.00 16303936.00 L 13942914.00 16303936.00 L 13942914.00 15870866.00 L 15557086.00 15870866.00 L 15557086.00 16303936.00  zM 6833465.00 18139215.00 L 5967323.00 18139215.00 A 258108.52 258108.52 0 0 1 5967323.00 17622989.00 L 6833465.00 17622989.00 A 258108.52 258108.52 0 0 1 6833465.00 18139215.00  zM 6833465.00 18926617.00 L 5967323.00 18926617.00 A 258108.52 258108.52 0 0 1 5967323.00 18410391.00 L 6833465.00 18410391.00 A 258108.52 258108.52 0 0 1 6833465.00 18926617.00  zM 6833465.00 19714019.00 L 5967323.00 19714019.00 A 258108.52 258108.52 0 0 1 5967323.00 19197793.00 L 6833465.00 19197793.00 A 258108.52 258108.52 0 0 1 6833465.00 19714019.00  zM 5118111.54 22440936.16 m -810999.84 0 a 810999.84 810999.84 0 1 1 1621999.67 0a 810999.84 810999.84 0 1 1 -1621999.67 0M 7653541.00 22998031.00 L 7122045.00 22998031.00 L 7122045.00 21344489.00 L 7653541.00 21344489.00 L 7653541.00 22998031.00  zM 8749998.00 22958661.00 L 8249998.00 22958661.00 L 8249998.00 21541339.00 L 8749998.00 21541339.00 L 8749998.00 22958661.00  zM 10630611.00 21092984.00 L 10630611.00 20778024.00 A 220780.35 220780.35 0 0 1 11072165.00 20778024.00 L 11072165.00 21092984.00 A 220780.35 220780.35 0 0 1 10630611.00 21092984.00  zM 9877951.00 22998031.00 L 9346455.00 22998031.00 L 9346455.00 21344489.00 L 9877951.00 21344489.00 L 9877951.00 22998031.00  zM 13132677.00 17351814.00 L 12266535.00 17351814.00 A 258108.52 258108.52 0 1 1 12266535.00 16835588.00 L 13132677.00 16835588.00 A 258108.52 258108.52 0 1 1 13132677.00 17351814.00  zM 13132677.00 18139215.00 L 12266535.00 18139215.00 A 258108.52 258108.52 0 0 1 12266535.00 17622989.00 L 13132677.00 17622989.00 A 258108.52 258108.52 0 0 1 13132677.00 18139215.00  zM 13132677.00 18926617.00 L 12266535.00 18926617.00 A 258108.52 258108.52 0 0 1 12266535.00 18410391.00 L 13132677.00 18410391.00 A 258108.52 258108.52 0 0 1 13132677.00 18926617.00  zM 13132677.00 19714019.00 L 12266535.00 19714019.00 A 258108.52 258108.52 0 1 1 12266535.00 19197793.00 L 13132677.00 19197793.00 A 258108.52 258108.52 0 1 1 13132677.00 19714019.00  zM 12322834.00 21650393.00 L 11889764.00 21650393.00 L 11889764.00 20233071.00 L 12322834.00 20233071.00 L 12322834.00 21650393.00  zM 13110236.00 21650393.00 L 12677166.00 21650393.00 L 12677166.00 20233071.00 L 13110236.00 20233071.00 L 13110236.00 21650393.00  zM 14027255.00 21139763.00 L 14027255.00 20824803.00 A 220780.35 220780.35 0 0 1 14468809.00 20824803.00 L 14468809.00 21139763.00 A 220780.35 220780.35 0 0 1 14027255.00 21139763.00  z"/>
</g>
</svg>
