<svg width="30.0000035mm" height="49.99999906mm" viewBox="0 0 11811025 19685039"  version="1.1" xmlns="http://www.w3.org/2000/svg" xmlns:xlink="http://www.w3.org/1999/xlink">
<desc>
Origin 0 0 Bound 3937008 3937008 11811025 19685039
</desc>
<g fill-rule="evenodd" fill="rgb(255, 0, 0)" stroke="black" stroke-width="1" transform="translate(0, 19685039) scale(1, -1) translate(-3937008, -3937008)">
<path id="N" d="M 14523664.00 11297595.00 L 14206144.00 11297595.00 L 14206144.00 11639413.00 L 14523664.00 11639413.00 L 14523664.00 11297595.00  z"/>
<path id="N" d="M 14673664.00 9047595.00 L 14356144.00 9047595.00 L 14356144.00 9389413.00 L 14673664.00 9389413.00 L 14673664.00 9047595.00  z"/>
<path id="N" d="M 14472637.00 10215355.00 L 14360433.00 10215355.00 L 14360433.00 10321653.00 L 14472637.00 10321653.00 L 14472637.00 10215355.00  z"/>
<path id="N" d="M 14472637.00 10018505.00 L 14360433.00 10018505.00 L 14360433.00 10124803.00 L 14472637.00 10124803.00 L 14472637.00 10018505.00  z"/>
<path id="N" d="M 13876575.00 10412205.00 L 13764371.00 10412205.00 L 13764371.00 10518503.00 L 13876575.00 10518503.00 L 13876575.00 10412205.00  z"/>
<path id="N" d="M 5118114.73 22440956.76 m -791198.52 0 a 791198.52 791198.52 0 1 1 1582397.04 0a 791198.52 791198.52 0 1 1 -1582397.04 0M 5118107.04 22440959.86 m -632954.14 0 a 632954.14 632954.14 0 1 1 1265908.28 0a 632954.14 632954.14 0 1 1 -1265908.28 0"/>
<path id="N" d="M 14566933.73 5118121.76 m -791198.52 0 a 791198.52 791198.52 0 1 1 1582397.04 0a 791198.52 791198.52 0 1 1 -1582397.04 0M 14566926.04 5118124.86 m -632954.14 0 a 632954.14 632954.14 0 1 1 1265908.28 0a 632954.14 632954.14 0 1 1 -1265908.28 0"/>
<path id="N" d="M 11048739.00 22864174.00 L 11048739.00 22391732.00 A 200706.53 200706.53 0 0 0 10647325.00 22391732.00 L 10647325.00 22864174.00 A 200706.53 200706.53 0 0 0 11048739.00 22864174.00  zM 10727608.00 22864173.00 L 10727608.00 22391733.00 A 120431.73 120431.73 0 0 1 10968456.00 22391733.00 L 10968456.00 22864173.00 A 120431.73 120431.73 0 0 1 10727608.00 22864173.00  z"/>
<path id="N" d="M 11052095.00 21092984.00 L 11052095.00 20778024.00 A 200706.53 200706.53 0 0 0 10650681.00 20778024.00 L 10650681.00 21092984.00 A 200706.53 200706.53 0 0 0 11052095.00 21092984.00  zM 10730964.00 21092984.00 L 10730964.00 20778024.00 A 120431.73 120431.73 0 0 1 10971812.00 20778024.00 L 10971812.00 21092984.00 A 120431.73 120431.73 0 0 1 10730964.00 21092984.00  z"/>
<path id="N" d="M 14448739.00 21139763.00 L 14448739.00 20824803.00 A 200706.53 200706.53 0 0 0 14047325.00 20824803.00 L 14047325.00 21139763.00 A 200706.53 200706.53 0 0 0 14448739.00 21139763.00  zM 14127608.00 21139763.00 L 14127608.00 20824803.00 A 120431.73 120431.73 0 1 1 14368456.00 20824803.00 L 14368456.00 21139763.00 A 120431.73 120431.73 0 1 1 14127608.00 21139763.00  z"/>
<path id="N" d="M 14448739.00 22864174.00 L 14448739.00 22391732.00 A 200706.53 200706.53 0 0 0 14047325.00 22391732.00 L 14047325.00 22864174.00 A 200706.53 200706.53 0 0 0 14448739.00 22864174.00  zM 14127608.00 22864173.00 L 14127608.00 22391733.00 A 120431.73 120431.73 0 1 1 14368456.00 22391733.00 L 14368456.00 22864173.00 A 120431.73 120431.73 0 1 1 14127608.00 22864173.00  z"/>
<path id="N" d="M 7865822.00 14586994.00 L 7782306.00 14503478.00 L 7371684.00 14914100.00 L 7455200.00 14997616.00 L 7865822.00 14586994.00  z"/>
<path id="N" d="M 8283404.00 15004576.00 L 8199888.00 14921060.00 L 7789266.00 15331682.00 L 7872782.00 15415198.00 L 8283404.00 15004576.00  z"/>
<path id="N" d="M 8422599.00 15143771.00 L 8339083.00 15060255.00 L 7928461.00 15470877.00 L 8011977.00 15554393.00 L 8422599.00 15143771.00  z"/>
<path id="N" d="M 12591745.00 14635711.00 L 12181123.00 14225089.00 L 12097607.00 14308605.00 L 12508229.00 14719227.00 L 12591745.00 14635711.00  z"/>
<path id="N" d="M 7726628.00 14447800.00 L 7643112.00 14364284.00 L 7232490.00 14774906.00 L 7316006.00 14858422.00 L 7726628.00 14447800.00  z"/>
<path id="N" d="M 12452550.00 14774906.00 L 12041928.00 14364284.00 L 11958412.00 14447800.00 L 12369034.00 14858422.00 L 12452550.00 14774906.00  z"/>
<path id="N" d="M 12034968.00 15192488.00 L 11624346.00 14781866.00 L 11540830.00 14865382.00 L 11951452.00 15276004.00 L 12034968.00 15192488.00  z"/>
<path id="N" d="M 13608268.00 20525591.00 L 13372048.00 20525591.00 L 13372048.00 20974409.00 L 13608268.00 20974409.00 L 13608268.00 20525591.00  z"/>
<path id="N" d="M 11718504.00 20525591.00 L 11482284.00 20525591.00 L 11482284.00 20974409.00 L 11718504.00 20974409.00 L 11718504.00 20525591.00  z"/>
<path id="N" d="M 11756579.00 15470877.00 L 11345957.00 15060255.00 L 11262441.00 15143771.00 L 11673063.00 15554393.00 L 11756579.00 15470877.00  z"/>
<path id="N" d="M 12174162.00 15053295.00 L 11763540.00 14642673.00 L 11680024.00 14726189.00 L 12090646.00 15136811.00 L 12174162.00 15053295.00  z"/>
<path id="N" d="M 8144210.00 14865382.00 L 8060694.00 14781866.00 L 7650072.00 15192488.00 L 7733588.00 15276004.00 L 8144210.00 14865382.00  z"/>
<path id="N" d="M 8005016.00 14726189.00 L 7921500.00 14642673.00 L 7510878.00 15053295.00 L 7594394.00 15136811.00 L 8005016.00 14726189.00  z"/>
<path id="N" d="M 10782219.00 16445237.00 L 10371597.00 16034615.00 L 10288081.00 16118131.00 L 10698703.00 16528753.00 L 10782219.00 16445237.00  z"/>
<path id="N" d="M 9536153.00 16257325.00 L 9452637.00 16173809.00 L 9042015.00 16584431.00 L 9125531.00 16667947.00 L 9536153.00 16257325.00  z"/>
<path id="N" d="M 10643025.00 16584431.00 L 10232403.00 16173809.00 L 10148887.00 16257325.00 L 10559509.00 16667947.00 L 10643025.00 16584431.00  z"/>
<path id="N" d="M 11617385.00 15610071.00 L 11206763.00 15199449.00 L 11123247.00 15282965.00 L 11533869.00 15693587.00 L 11617385.00 15610071.00  z"/>
<path id="N" d="M 11478190.00 15749266.00 L 11067568.00 15338644.00 L 10984052.00 15422160.00 L 11394674.00 15832782.00 L 11478190.00 15749266.00  z"/>
<path id="N" d="M 8840182.00 15561354.00 L 8756666.00 15477838.00 L 8346044.00 15888460.00 L 8429560.00 15971976.00 L 8840182.00 15561354.00  z"/>
<path id="N" d="M 10921414.00 16306042.00 L 10510792.00 15895420.00 L 10427276.00 15978936.00 L 10837898.00 16389558.00 L 10921414.00 16306042.00  z"/>
<path id="N" d="M 8561793.00 15282965.00 L 8478277.00 15199449.00 L 8067655.00 15610071.00 L 8151171.00 15693587.00 L 8561793.00 15282965.00  z"/>
<path id="N" d="M 12313356.00 14914100.00 L 11902734.00 14503478.00 L 11819218.00 14586994.00 L 12229840.00 14997616.00 L 12313356.00 14914100.00  z"/>
<path id="N" d="M 9396959.00 16118131.00 L 9313443.00 16034615.00 L 8902821.00 16445237.00 L 8986337.00 16528753.00 L 9396959.00 16118131.00  z"/>
<path id="N" d="M 11060608.00 16166848.00 L 10649986.00 15756226.00 L 10566470.00 15839742.00 L 10977092.00 16250364.00 L 11060608.00 16166848.00  z"/>
<path id="N" d="M 9257764.00 15978936.00 L 9174248.00 15895420.00 L 8763626.00 16306042.00 L 8847142.00 16389558.00 L 9257764.00 15978936.00  z"/>
<path id="N" d="M 7653541.00 21344489.00 L 7122045.00 21344489.00 L 7122045.00 22998031.00 L 7653541.00 22998031.00 L 7653541.00 21344489.00  z"/>
<path id="N" d="M 9877951.00 21344489.00 L 9346455.00 21344489.00 L 9346455.00 22998031.00 L 9877951.00 22998031.00 L 9877951.00 21344489.00  z"/>
<path id="N" d="M 12140551.00 6219292.00 L 11746851.00 6219292.00 L 11746851.00 7597244.00 L 12140551.00 7597244.00 L 12140551.00 6219292.00  z"/>
<path id="N" d="M 11353149.00 6219292.00 L 10959449.00 6219292.00 L 10959449.00 7597244.00 L 11353149.00 7597244.00 L 11353149.00 6219292.00  z"/>
<path id="N" d="M 13164173.00 3975197.00 L 12573623.00 3975197.00 L 12573623.00 5313779.00 L 13164173.00 5313779.00 L 13164173.00 3975197.00  z"/>
<path id="N" d="M 6503541.00 3924016.00 L 5972045.00 3924016.00 L 5972045.00 5577558.00 L 6503541.00 5577558.00 L 6503541.00 3924016.00  z"/>
<path id="N" d="M 8727951.00 3924016.00 L 8196455.00 3924016.00 L 8196455.00 5577558.00 L 8727951.00 5577558.00 L 8727951.00 3924016.00  z"/>
<path id="N" d="M 15530905.00 13531866.00 L 13956103.00 13531866.00 L 13956103.00 13925566.00 L 15530905.00 13925566.00 L 15530905.00 13531866.00  z"/>
<path id="N" d="M 15530905.00 12744465.00 L 13956103.00 12744465.00 L 13956103.00 13138165.00 L 15530905.00 13138165.00 L 15530905.00 12744465.00  z"/>
<path id="N" d="M 10526377.00 3975197.00 L 9935827.00 3975197.00 L 9935827.00 5313779.00 L 10526377.00 5313779.00 L 10526377.00 3975197.00  z"/>
<path id="N" d="M 11338996.00 15888460.00 L 10928374.00 15477838.00 L 10844858.00 15561354.00 L 11255480.00 15971976.00 L 11338996.00 15888460.00  z"/>
<path id="N" d="M 13923229.00 20525591.00 L 13805119.00 20525591.00 L 13805119.00 20974409.00 L 13923229.00 20974409.00 L 13923229.00 20525591.00  z"/>
<path id="N" d="M 13293307.00 20525591.00 L 13175197.00 20525591.00 L 13175197.00 20974409.00 L 13293307.00 20974409.00 L 13293307.00 20525591.00  z"/>
<path id="N" d="M 8005016.00 12832867.00 L 7594394.00 12422245.00 L 7510878.00 12505761.00 L 7921500.00 12916383.00 L 8005016.00 12832867.00  z"/>
<path id="N" d="M 13805118.00 20525591.00 L 13687008.00 20525591.00 L 13687008.00 20974409.00 L 13805118.00 20974409.00 L 13805118.00 20525591.00  z"/>
<path id="N" d="M 12112205.00 20525591.00 L 11994095.00 20525591.00 L 11994095.00 20974409.00 L 12112205.00 20974409.00 L 12112205.00 20525591.00  z"/>
<path id="N" d="M 11915355.00 20525591.00 L 11797245.00 20525591.00 L 11797245.00 20974409.00 L 11915355.00 20974409.00 L 11915355.00 20525591.00  z"/>
<path id="N" d="M 13096457.00 20525591.00 L 12978347.00 20525591.00 L 12978347.00 20974409.00 L 13096457.00 20974409.00 L 13096457.00 20525591.00  z"/>
<path id="N" d="M 11756579.00 12088179.00 L 11673063.00 12004663.00 L 11262441.00 12415285.00 L 11345957.00 12498801.00 L 11756579.00 12088179.00  z"/>
<path id="N" d="M 8144210.00 12693674.00 L 7733588.00 12283052.00 L 7650072.00 12366568.00 L 8060694.00 12777190.00 L 8144210.00 12693674.00  z"/>
<path id="N" d="M 11895774.00 12227374.00 L 11812258.00 12143858.00 L 11401636.00 12554480.00 L 11485152.00 12637996.00 L 11895774.00 12227374.00  z"/>
<path id="N" d="M 8283404.00 12554480.00 L 7872782.00 12143858.00 L 7789266.00 12227374.00 L 8199888.00 12637996.00 L 8283404.00 12554480.00  z"/>
<path id="N" d="M 12034968.00 12366568.00 L 11951452.00 12283052.00 L 11540830.00 12693674.00 L 11624346.00 12777190.00 L 12034968.00 12366568.00  z"/>
<path id="N" d="M 7865822.00 12972062.00 L 7455200.00 12561440.00 L 7371684.00 12644956.00 L 7782306.00 13055578.00 L 7865822.00 12972062.00  z"/>
<path id="N" d="M 12174162.00 12505761.00 L 12090646.00 12422245.00 L 11680024.00 12832867.00 L 11763540.00 12916383.00 L 12174162.00 12505761.00  z"/>
<path id="N" d="M 13876575.00 10215355.00 L 13764371.00 10215355.00 L 13764371.00 10321653.00 L 13876575.00 10321653.00 L 13876575.00 10215355.00  z"/>
<path id="N" d="M 13876575.00 10018505.00 L 13764371.00 10018505.00 L 13764371.00 10124803.00 L 13876575.00 10124803.00 L 13876575.00 10018505.00  z"/>
<path id="N" d="M 12702756.00 20525591.00 L 12584646.00 20525591.00 L 12584646.00 20974409.00 L 12702756.00 20974409.00 L 12702756.00 20525591.00  z"/>
<path id="N" d="M 11403544.00 20525591.00 L 11285434.00 20525591.00 L 11285434.00 20974409.00 L 11403544.00 20974409.00 L 11403544.00 20525591.00  z"/>
<path id="N" d="M 11285433.00 20525591.00 L 11167323.00 20525591.00 L 11167323.00 20974409.00 L 11285433.00 20974409.00 L 11285433.00 20525591.00  z"/>
<path id="N" d="M 12899607.00 20525591.00 L 12781497.00 20525591.00 L 12781497.00 20974409.00 L 12899607.00 20974409.00 L 12899607.00 20525591.00  z"/>
<path id="N" d="M 14270078.00 9913977.00 L 14163780.00 9913977.00 L 14163780.00 10026181.00 L 14270078.00 10026181.00 L 14270078.00 9913977.00  z"/>
<path id="N" d="M 12505906.00 20525591.00 L 12387796.00 20525591.00 L 12387796.00 20974409.00 L 12505906.00 20974409.00 L 12505906.00 20525591.00  z"/>
<path id="N" d="M 12309055.00 20525591.00 L 12190945.00 20525591.00 L 12190945.00 20974409.00 L 12309055.00 20974409.00 L 12309055.00 20525591.00  z"/>
<path id="N" d="M 8700988.00 12136896.00 L 8290366.00 11726274.00 L 8206850.00 11809790.00 L 8617472.00 12220412.00 L 8700988.00 12136896.00  z"/>
<path id="N" d="M 11617385.00 11948985.00 L 11533869.00 11865469.00 L 11123247.00 12276091.00 L 11206763.00 12359607.00 L 11617385.00 11948985.00  z"/>
<path id="N" d="M 8561793.00 12276091.00 L 8151171.00 11865469.00 L 8067655.00 11948985.00 L 8478277.00 12359607.00 L 8561793.00 12276091.00  z"/>
<path id="N" d="M 11478190.00 11809790.00 L 11394674.00 11726274.00 L 10984052.00 12136896.00 L 11067568.00 12220412.00 L 11478190.00 11809790.00  z"/>
<path id="N" d="M 9536153.00 11301731.00 L 9125531.00 10891109.00 L 9042015.00 10974625.00 L 9452637.00 11385247.00 L 9536153.00 11301731.00  z"/>
<path id="N" d="M 10782219.00 11113819.00 L 10698703.00 11030303.00 L 10288081.00 11440925.00 L 10371597.00 11524441.00 L 10782219.00 11113819.00  z"/>
<path id="N" d="M 9396959.00 11440925.00 L 8986337.00 11030303.00 L 8902821.00 11113819.00 L 9313443.00 11524441.00 L 9396959.00 11440925.00  z"/>
<path id="N" d="M 8979375.00 15700548.00 L 8895859.00 15617032.00 L 8485237.00 16027654.00 L 8568753.00 16111170.00 L 8979375.00 15700548.00  z"/>
<path id="N" d="M 11199803.00 16027654.00 L 10789181.00 15617032.00 L 10705665.00 15700548.00 L 11116287.00 16111170.00 L 11199803.00 16027654.00  z"/>
<path id="N" d="M 9118570.00 15839742.00 L 9035054.00 15756226.00 L 8624432.00 16166848.00 L 8707948.00 16250364.00 L 9118570.00 15839742.00  z"/>
<path id="N" d="M 8840182.00 11997702.00 L 8429560.00 11587080.00 L 8346044.00 11670596.00 L 8756666.00 12081218.00 L 8840182.00 11997702.00  z"/>
<path id="N" d="M 11199803.00 11531402.00 L 11116287.00 11447886.00 L 10705665.00 11858508.00 L 10789181.00 11942024.00 L 11199803.00 11531402.00  z"/>
<path id="N" d="M 8979375.00 11858508.00 L 8568753.00 11447886.00 L 8485237.00 11531402.00 L 8895859.00 11942024.00 L 8979375.00 11858508.00  z"/>
<path id="N" d="M 11338996.00 11670596.00 L 11255480.00 11587080.00 L 10844858.00 11997702.00 L 10928374.00 12081218.00 L 11338996.00 11670596.00  z"/>
<path id="N" d="M 7726628.00 13111256.00 L 7316006.00 12700634.00 L 7232490.00 12784150.00 L 7643112.00 13194772.00 L 7726628.00 13111256.00  z"/>
<path id="N" d="M 12313356.00 12644956.00 L 12229840.00 12561440.00 L 11819218.00 12972062.00 L 11902734.00 13055578.00 L 12313356.00 12644956.00  z"/>
<path id="N" d="M 7448239.00 14169411.00 L 7364723.00 14085895.00 L 6954101.00 14496517.00 L 7037617.00 14580033.00 L 7448239.00 14169411.00  z"/>
<path id="N" d="M 7448239.00 13389645.00 L 7037617.00 12979023.00 L 6954101.00 13062539.00 L 7364723.00 13473161.00 L 7448239.00 13389645.00  z"/>
<path id="N" d="M 12730939.00 13062539.00 L 12647423.00 12979023.00 L 12236801.00 13389645.00 L 12320317.00 13473161.00 L 12730939.00 13062539.00  z"/>
<path id="N" d="M 7587433.00 13250451.00 L 7176811.00 12839829.00 L 7093295.00 12923345.00 L 7503917.00 13333967.00 L 7587433.00 13250451.00  z"/>
<path id="N" d="M 12591745.00 12923345.00 L 12508229.00 12839829.00 L 12097607.00 13250451.00 L 12181123.00 13333967.00 L 12591745.00 12923345.00  z"/>
<path id="N" d="M 11060608.00 11392208.00 L 10977092.00 11308692.00 L 10566470.00 11719314.00 L 10649986.00 11802830.00 L 11060608.00 11392208.00  z"/>
<path id="N" d="M 9118570.00 11719314.00 L 8707948.00 11308692.00 L 8624432.00 11392208.00 L 9035054.00 11802830.00 L 9118570.00 11719314.00  z"/>
<path id="N" d="M 10643025.00 10974625.00 L 10559509.00 10891109.00 L 10148887.00 11301731.00 L 10232403.00 11385247.00 L 10643025.00 10974625.00  z"/>
<path id="N" d="M 9257764.00 11580120.00 L 8847142.00 11169498.00 L 8763626.00 11253014.00 L 9174248.00 11663636.00 L 9257764.00 11580120.00  z"/>
<path id="N" d="M 7587433.00 14308605.00 L 7503917.00 14225089.00 L 7093295.00 14635711.00 L 7176811.00 14719227.00 L 7587433.00 14308605.00  z"/>
<path id="N" d="M 8422599.00 12415285.00 L 8011977.00 12004663.00 L 7928461.00 12088179.00 L 8339083.00 12498801.00 L 8422599.00 12415285.00  z"/>
<path id="N" d="M 10921414.00 11253014.00 L 10837898.00 11169498.00 L 10427276.00 11580120.00 L 10510792.00 11663636.00 L 10921414.00 11253014.00  z"/>
<path id="N" d="M 11895774.00 15331682.00 L 11485152.00 14921060.00 L 11401636.00 15004576.00 L 11812258.00 15415198.00 L 11895774.00 15331682.00  z"/>
<path id="N" d="M 15530905.00 15894071.00 L 13956103.00 15894071.00 L 13956103.00 16287771.00 L 15530905.00 16287771.00 L 15530905.00 15894071.00  z"/>
<path id="N" d="M 12730939.00 14496517.00 L 12320317.00 14085895.00 L 12236801.00 14169411.00 L 12647423.00 14580033.00 L 12730939.00 14496517.00  z"/>
<path id="N" d="M 15530905.00 15106670.00 L 13956103.00 15106670.00 L 13956103.00 15500370.00 L 15530905.00 15500370.00 L 15530905.00 15106670.00  z"/>
<path id="N" d="M 14073228.00 10510827.00 L 13966930.00 10510827.00 L 13966930.00 10623031.00 L 14073228.00 10623031.00 L 14073228.00 10510827.00  z"/>
<path id="N" d="M 13075197.00 9990158.00 L 12661811.00 9990158.00 L 12661811.00 10344488.00 L 13075197.00 10344488.00 L 13075197.00 9990158.00  z"/>
<path id="N" d="M 14030864.00 11297595.00 L 13713344.00 11297595.00 L 13713344.00 11639413.00 L 14030864.00 11639413.00 L 14030864.00 11297595.00  z"/>
<path id="N" d="M 14180864.00 9047595.00 L 13863344.00 9047595.00 L 13863344.00 9389413.00 L 14180864.00 9389413.00 L 14180864.00 9047595.00  z"/>
<path id="N" d="M 14472637.00 10412205.00 L 14360433.00 10412205.00 L 14360433.00 10518503.00 L 14472637.00 10518503.00 L 14472637.00 10412205.00  z"/>
<path id="N" d="M 14073228.00 9913977.00 L 13966930.00 9913977.00 L 13966930.00 10026181.00 L 14073228.00 10026181.00 L 14073228.00 9913977.00  z"/>
<path id="N" d="M 14270078.00 10510827.00 L 14163780.00 10510827.00 L 14163780.00 10623031.00 L 14270078.00 10623031.00 L 14270078.00 10510827.00  z"/>
<path id="N" d="M 13075197.00 10541339.00 L 12661811.00 10541339.00 L 12661811.00 10895669.00 L 13075197.00 10895669.00 L 13075197.00 10541339.00  z"/>
<path id="N" d="M 8700988.00 15422160.00 L 8617472.00 15338644.00 L 8206850.00 15749266.00 L 8290366.00 15832782.00 L 8700988.00 15422160.00  z"/>
<path id="N" d="M 15530905.00 14319268.00 L 13956103.00 14319268.00 L 13956103.00 14712968.00 L 15530905.00 14712968.00 L 15530905.00 14319268.00  z"/>
<path id="N" d="M 12452550.00 12784150.00 L 12369034.00 12700634.00 L 11958412.00 13111256.00 L 12041928.00 13194772.00 L 12452550.00 12784150.00  z"/>
</g>
</svg>
