<svg width="30.0000035mm" height="49.99999906mm" viewBox="0 0 11811025 19685039"  version="1.1" xmlns="http://www.w3.org/2000/svg" xmlns:xlink="http://www.w3.org/1999/xlink">
<desc>
Origin 0 0 Bound 1968504 1968504 11811025 19685039
</desc>
<g fill-rule="evenodd" fill="rgb(255, 0, 0)" stroke="black" stroke-width="1" transform="translate(0, 19685039) scale(1, -1) translate(-1968504, -1968504)">
<path id="N" d="M 12705160.00 7079091.00 L 12387640.00 7079091.00 L 12387640.00 7420909.00 L 12705160.00 7420909.00 L 12705160.00 7079091.00  z"/>
<path id="N" d="M 12555160.00 9329091.00 L 12237640.00 9329091.00 L 12237640.00 9670909.00 L 12555160.00 9670909.00 L 12555160.00 9329091.00  z"/>
<path id="N" d="M 11908071.00 8443701.00 L 11795867.00 8443701.00 L 11795867.00 8549999.00 L 11908071.00 8549999.00 L 11908071.00 8443701.00  z"/>
<path id="N" d="M 12504133.00 8246851.00 L 12391929.00 8246851.00 L 12391929.00 8353149.00 L 12504133.00 8353149.00 L 12504133.00 8246851.00  z"/>
<path id="N" d="M 12504133.00 8050001.00 L 12391929.00 8050001.00 L 12391929.00 8156299.00 L 12504133.00 8156299.00 L 12504133.00 8050001.00  z"/>
<path id="N" d="M 13576181.00 18704308.00 L 12001379.00 18704308.00 L 12001379.00 18847038.00 L 11923576.00 18847038.00 L 11054120.00 17977582.00 L 11054121.00 14519424.00 L 11038267.29 14481154.29 L 9923780.92 13366667.08 L 9927270.00 13363178.00 L 9516648.00 12952556.00 L 9433132.00 13036072.00 L 9843754.00 13446694.00 L 9847243.08 13443204.92 L 10945880.00 14541841.01 L 10945879.00 18000000.00 L 10961731.00 18038269.00 L 11862889.00 18939427.00 L 11901160.41 18955278.00 L 12001379.00 18955278.00 L 12001379.00 19098008.00 L 13576181.00 19098008.00 L 13576181.00 18704308.00  z"/>
<path id="N" d="M 8750000.06 18900001.24 m -516583.01 0 a 516583.01 516583.01 0 1 1 1033166.02 0a 516583.01 516583.01 0 1 1 -1033166.02 0M 8749996.81 18900011.25 m -337879.75 0 a 337879.75 337879.75 0 1 1 675759.50 0a 337879.75 337879.75 0 1 1 -675759.50 0"/>
<path id="N" d="M 6750000.06 18900001.24 m -516583.01 0 a 516583.01 516583.01 0 1 1 1033166.02 0a 516583.01 516583.01 0 1 1 -1033166.02 0M 6749996.81 18900011.25 m -337879.75 0 a 337879.75 337879.75 0 1 1 675759.50 0a 337879.75 337879.75 0 1 1 -675759.50 0"/>
<path id="N" d="M 6750000.06 20900001.24 m -516583.01 0 a 516583.01 516583.01 0 1 1 1033166.02 0a 516583.01 516583.01 0 1 1 -1033166.02 0M 6749996.81 20900011.25 m -337879.75 0 a 337879.75 337879.75 0 1 1 675759.50 0a 337879.75 337879.75 0 1 1 -675759.50 0"/>
<path id="N" d="M 8750000.06 20900001.24 m -516583.01 0 a 516583.01 516583.01 0 1 1 1033166.02 0a 516583.01 516583.01 0 1 1 -1033166.02 0M 8749996.81 20900011.25 m -337879.75 0 a 337879.75 337879.75 0 1 1 675759.50 0a 337879.75 337879.75 0 1 1 -675759.50 0"/>
<path id="N" d="M 8950000.06 5678741.24 m -516583.01 0 a 516583.01 516583.01 0 1 1 1033166.02 0a 516583.01 516583.01 0 1 1 -1033166.02 0M 8949996.81 5678751.25 m -337879.75 0 a 337879.75 337879.75 0 1 1 675759.50 0a 337879.75 337879.75 0 1 1 -675759.50 0"/>
<path id="N" d="M 6950000.06 5678741.24 m -516583.01 0 a 516583.01 516583.01 0 1 1 1033166.02 0a 516583.01 516583.01 0 1 1 -1033166.02 0M 6949996.81 5678751.25 m -337879.75 0 a 337879.75 337879.75 0 1 1 675759.50 0a 337879.75 337879.75 0 1 1 -675759.50 0"/>
<path id="N" d="M 12379529.77 4751181.43 m -426878.81 0 a 426878.81 426878.81 0 1 1 853757.63 0a 426878.81 426878.81 0 1 1 -853757.63 0M 12379527.86 4751182.28 m -327604.72 0 a 327604.72 327604.72 0 1 1 655209.45 0a 327604.72 327604.72 0 1 1 -655209.45 0"/>
<path id="N" d="M 6950000.06 3678741.24 m -516583.01 0 a 516583.01 516583.01 0 1 1 1033166.02 0a 516583.01 516583.01 0 1 1 -1033166.02 0M 6949996.81 3678751.25 m -337879.75 0 a 337879.75 337879.75 0 1 1 675759.50 0a 337879.75 337879.75 0 1 1 -675759.50 0"/>
<path id="N" d="M 8950000.06 3678741.24 m -516583.01 0 a 516583.01 516583.01 0 1 1 1033166.02 0a 516583.01 516583.01 0 1 1 -1033166.02 0M 8949996.81 3678751.25 m -337879.75 0 a 337879.75 337879.75 0 1 1 675759.50 0a 337879.75 337879.75 0 1 1 -675759.50 0"/>
<path id="N" d="M 8407480.00 4221260.00 L 7492520.00 4221260.00 L 7492520.00 5136220.00 L 8407480.00 5136220.00 L 8407480.00 4221260.00  zM 7949996.07 4678755.00 m -302574.00 0 a 302574.00 302574.00 0 1 1 605148.00 0a 302574.00 302574.00 0 1 1 -605148.00 0"/>
<path id="N" d="M 8207480.00 19442520.00 L 7292520.00 19442520.00 L 7292520.00 20357480.00 L 8207480.00 20357480.00 L 8207480.00 19442520.00  zM 7749996.07 19900015.00 m -302574.00 0 a 302574.00 302574.00 0 1 1 605148.00 0a 302574.00 302574.00 0 1 1 -605148.00 0"/>
<path id="N" d="M 11243700.00 4327953.00 L 10397244.00 4327953.00 L 10397244.00 5174409.00 L 11243700.00 5174409.00 L 11243700.00 4327953.00  zM 10820471.86 4751182.28 m -327604.72 0 a 327604.72 327604.72 0 1 1 655209.45 0a 327604.72 327604.72 0 1 1 -655209.45 0"/>
<path id="N" d="M 6036512.00 12757685.00 L 5952996.00 12674169.00 L 5542374.00 13084791.00 L 5625890.00 13168307.00 L 6036512.00 12757685.00  z"/>
<path id="N" d="M 10344852.00 12945596.00 L 9934230.00 12534974.00 L 9850714.00 12618490.00 L 10261336.00 13029112.00 L 10344852.00 12945596.00  z"/>
<path id="N" d="M 5758124.00 12479296.00 L 5674608.00 12395780.00 L 5263986.00 12806402.00 L 5347502.00 12889918.00 L 5758124.00 12479296.00  z"/>
<path id="N" d="M 6454095.00 13175267.00 L 6370579.00 13091751.00 L 5959957.00 13502373.00 L 6043473.00 13585889.00 L 6454095.00 13175267.00  z"/>
<path id="N" d="M 10623241.00 12667207.00 L 10212619.00 12256585.00 L 10129103.00 12340101.00 L 10539725.00 12750723.00 L 10623241.00 12667207.00  z"/>
<path id="N" d="M 10484046.00 12806402.00 L 10073424.00 12395780.00 L 9989908.00 12479296.00 L 10400530.00 12889918.00 L 10484046.00 12806402.00  z"/>
<path id="N" d="M 5618929.00 12340101.00 L 5535413.00 12256585.00 L 5124791.00 12667207.00 L 5208307.00 12750723.00 L 5618929.00 12340101.00  z"/>
<path id="N" d="M 7289260.00 14010432.00 L 7205744.00 13926916.00 L 6795122.00 14337538.00 L 6878638.00 14421054.00 L 7289260.00 14010432.00  z"/>
<path id="N" d="M 9092104.00 14198344.00 L 8681482.00 13787722.00 L 8597966.00 13871238.00 L 9008588.00 14281860.00 L 9092104.00 14198344.00  z"/>
<path id="N" d="M 5897318.00 12618490.00 L 5813802.00 12534974.00 L 5403180.00 12945596.00 L 5486696.00 13029112.00 L 5897318.00 12618490.00  z"/>
<path id="N" d="M 8952910.00 14337538.00 L 8542288.00 13926916.00 L 8458772.00 14010432.00 L 8869394.00 14421054.00 L 8952910.00 14337538.00  z"/>
<path id="N" d="M 7567649.00 14288821.00 L 7484133.00 14205305.00 L 7073511.00 14615927.00 L 7157027.00 14699443.00 L 7567649.00 14288821.00  z"/>
<path id="N" d="M 8813715.00 14476733.00 L 8403093.00 14066111.00 L 8319577.00 14149627.00 L 8730199.00 14560249.00 L 8813715.00 14476733.00  z"/>
<path id="N" d="M 7428455.00 14149627.00 L 7344939.00 14066111.00 L 6934317.00 14476733.00 L 7017833.00 14560249.00 L 7428455.00 14149627.00  z"/>
<path id="N" d="M 8674521.00 14615927.00 L 8263899.00 14205305.00 L 8180383.00 14288821.00 L 8591005.00 14699443.00 L 8674521.00 14615927.00  z"/>
<path id="N" d="M 9788075.00 13502373.00 L 9377453.00 13091751.00 L 9293937.00 13175267.00 L 9704559.00 13585889.00 L 9788075.00 13502373.00  z"/>
<path id="N" d="M 10205658.00 13084791.00 L 9795036.00 12674169.00 L 9711520.00 12757685.00 L 10122142.00 13168307.00 L 10205658.00 13084791.00  z"/>
<path id="N" d="M 6314900.00 13036072.00 L 6231384.00 12952556.00 L 5820762.00 13363178.00 L 5904278.00 13446694.00 L 6314900.00 13036072.00  z"/>
<path id="N" d="M 6593289.00 13314461.00 L 6509773.00 13230945.00 L 6099151.00 13641567.00 L 6182667.00 13725083.00 L 6593289.00 13314461.00  z"/>
<path id="N" d="M 6175706.00 12896878.00 L 6092190.00 12813362.00 L 5681568.00 13223984.00 L 5765084.00 13307500.00 L 6175706.00 12896878.00  z"/>
<path id="N" d="M 13576181.00 15554702.00 L 12001379.00 15554702.00 L 12001379.00 15948402.00 L 13576181.00 15948402.00 L 13576181.00 15554702.00  z"/>
<path id="N" d="M 13576181.00 16342103.00 L 12001379.00 16342103.00 L 12001379.00 16735803.00 L 13576181.00 16735803.00 L 13576181.00 16342103.00  z"/>
<path id="N" d="M 10066464.00 13223984.00 L 9655842.00 12813362.00 L 9572326.00 12896878.00 L 9982948.00 13307500.00 L 10066464.00 13223984.00  z"/>
<path id="N" d="M 6314900.00 10585976.00 L 5904278.00 10175354.00 L 5820762.00 10258870.00 L 6231384.00 10669492.00 L 6314900.00 10585976.00  z"/>
<path id="N" d="M 5479735.00 11421141.00 L 5069113.00 11010519.00 L 4985597.00 11094035.00 L 5396219.00 11504657.00 L 5479735.00 11421141.00  z"/>
<path id="N" d="M 9927270.00 10258870.00 L 9843754.00 10175354.00 L 9433132.00 10585976.00 L 9516648.00 10669492.00 L 9927270.00 10258870.00  z"/>
<path id="N" d="M 9788075.00 10119675.00 L 9704559.00 10036159.00 L 9293937.00 10446781.00 L 9377453.00 10530297.00 L 9788075.00 10119675.00  z"/>
<path id="N" d="M 6454095.00 10446781.00 L 6043473.00 10036159.00 L 5959957.00 10119675.00 L 6370579.00 10530297.00 L 6454095.00 10446781.00  z"/>
<path id="N" d="M 10623241.00 10954841.00 L 10539725.00 10871325.00 L 10129103.00 11281947.00 L 10212619.00 11365463.00 L 10623241.00 10954841.00  z"/>
<path id="N" d="M 5897318.00 11003558.00 L 5486696.00 10592936.00 L 5403180.00 10676452.00 L 5813802.00 11087074.00 L 5897318.00 11003558.00  z"/>
<path id="N" d="M 5618929.00 11281947.00 L 5208307.00 10871325.00 L 5124791.00 10954841.00 L 5535413.00 11365463.00 L 5618929.00 11281947.00  z"/>
<path id="N" d="M 10344852.00 10676452.00 L 10261336.00 10592936.00 L 9850714.00 11003558.00 L 9934230.00 11087074.00 L 10344852.00 10676452.00  z"/>
<path id="N" d="M 5479735.00 12200907.00 L 5396219.00 12117391.00 L 4985597.00 12528013.00 L 5069113.00 12611529.00 L 5479735.00 12200907.00  z"/>
<path id="N" d="M 10762435.00 11094035.00 L 10678919.00 11010519.00 L 10268297.00 11421141.00 L 10351813.00 11504657.00 L 10762435.00 11094035.00  z"/>
<path id="N" d="M 6036512.00 10864363.00 L 5625890.00 10453741.00 L 5542374.00 10537257.00 L 5952996.00 10947879.00 L 6036512.00 10864363.00  z"/>
<path id="N" d="M 11908071.00 8246851.00 L 11795867.00 8246851.00 L 11795867.00 8353149.00 L 11908071.00 8353149.00 L 11908071.00 8246851.00  z"/>
<path id="N" d="M 6175706.00 10725170.00 L 5765084.00 10314548.00 L 5681568.00 10398064.00 L 6092190.00 10808686.00 L 6175706.00 10725170.00  z"/>
<path id="N" d="M 10205658.00 10537257.00 L 10122142.00 10453741.00 L 9711520.00 10864363.00 L 9795036.00 10947879.00 L 10205658.00 10537257.00  z"/>
<path id="N" d="M 10066464.00 10398064.00 L 9982948.00 10314548.00 L 9572326.00 10725170.00 L 9655842.00 10808686.00 L 10066464.00 10398064.00  z"/>
<path id="N" d="M 11908071.00 8050001.00 L 11795867.00 8050001.00 L 11795867.00 8156299.00 L 11908071.00 8156299.00 L 11908071.00 8050001.00  z"/>
<path id="N" d="M 12301574.00 7945473.00 L 12195276.00 7945473.00 L 12195276.00 8057677.00 L 12301574.00 8057677.00 L 12301574.00 7945473.00  z"/>
<path id="N" d="M 5758124.00 11142752.00 L 5347502.00 10732130.00 L 5263986.00 10815646.00 L 5674608.00 11226268.00 L 5758124.00 11142752.00  z"/>
<path id="N" d="M 6871678.00 10029198.00 L 6461056.00 9618576.00 L 6377540.00 9702092.00 L 6788162.00 10112714.00 L 6871678.00 10029198.00  z"/>
<path id="N" d="M 7010871.00 13732044.00 L 6927355.00 13648528.00 L 6516733.00 14059150.00 L 6600249.00 14142666.00 L 7010871.00 13732044.00  z"/>
<path id="N" d="M 9370492.00 9702092.00 L 9286976.00 9618576.00 L 8876354.00 10029198.00 L 8959870.00 10112714.00 L 9370492.00 9702092.00  z"/>
<path id="N" d="M 9231299.00 9562898.00 L 9147783.00 9479382.00 L 8737161.00 9890004.00 L 8820677.00 9973520.00 L 9231299.00 9562898.00  z"/>
<path id="N" d="M 7010871.00 9890004.00 L 6600249.00 9479382.00 L 6516733.00 9562898.00 L 6927355.00 9973520.00 L 7010871.00 9890004.00  z"/>
<path id="N" d="M 9231299.00 14059150.00 L 8820677.00 13648528.00 L 8737161.00 13732044.00 L 9147783.00 14142666.00 L 9231299.00 14059150.00  z"/>
<path id="N" d="M 9509686.00 13780762.00 L 9099064.00 13370140.00 L 9015548.00 13453656.00 L 9426170.00 13864278.00 L 9509686.00 13780762.00  z"/>
<path id="N" d="M 6871678.00 13592850.00 L 6788162.00 13509334.00 L 6377540.00 13919956.00 L 6461056.00 14003472.00 L 6871678.00 13592850.00  z"/>
<path id="N" d="M 9648881.00 13641567.00 L 9238259.00 13230945.00 L 9154743.00 13314461.00 L 9565365.00 13725083.00 L 9648881.00 13641567.00  z"/>
<path id="N" d="M 7150066.00 13871238.00 L 7066550.00 13787722.00 L 6655928.00 14198344.00 L 6739444.00 14281860.00 L 7150066.00 13871238.00  z"/>
<path id="N" d="M 9370492.00 13919956.00 L 8959870.00 13509334.00 L 8876354.00 13592850.00 L 9286976.00 14003472.00 L 9370492.00 13919956.00  z"/>
<path id="N" d="M 6593289.00 10307587.00 L 6182667.00 9896965.00 L 6099151.00 9980481.00 L 6509773.00 10391103.00 L 6593289.00 10307587.00  z"/>
<path id="N" d="M 7150066.00 9750810.00 L 6739444.00 9340188.00 L 6655928.00 9423704.00 L 7066550.00 9834326.00 L 7150066.00 9750810.00  z"/>
<path id="N" d="M 8674521.00 9006121.00 L 8591005.00 8922605.00 L 8180383.00 9333227.00 L 8263899.00 9416743.00 L 8674521.00 9006121.00  z"/>
<path id="N" d="M 9092104.00 9423704.00 L 9008588.00 9340188.00 L 8597966.00 9750810.00 L 8681482.00 9834326.00 L 9092104.00 9423704.00  z"/>
<path id="N" d="M 8952910.00 9284510.00 L 8869394.00 9200994.00 L 8458772.00 9611616.00 L 8542288.00 9695132.00 L 8952910.00 9284510.00  z"/>
<path id="N" d="M 7289260.00 9611616.00 L 6878638.00 9200994.00 L 6795122.00 9284510.00 L 7205744.00 9695132.00 L 7289260.00 9611616.00  z"/>
<path id="N" d="M 7567649.00 9333227.00 L 7157027.00 8922605.00 L 7073511.00 9006121.00 L 7484133.00 9416743.00 L 7567649.00 9333227.00  z"/>
<path id="N" d="M 6732484.00 10168392.00 L 6321862.00 9757770.00 L 6238346.00 9841286.00 L 6648968.00 10251908.00 L 6732484.00 10168392.00  z"/>
<path id="N" d="M 9648881.00 9980481.00 L 9565365.00 9896965.00 L 9154743.00 10307587.00 L 9238259.00 10391103.00 L 9648881.00 9980481.00  z"/>
<path id="N" d="M 9509686.00 9841286.00 L 9426170.00 9757770.00 L 9015548.00 10168392.00 L 9099064.00 10251908.00 L 9509686.00 9841286.00  z"/>
<path id="N" d="M 8813715.00 9145315.00 L 8730199.00 9061799.00 L 8319577.00 9472421.00 L 8403093.00 9555937.00 L 8813715.00 9145315.00  z"/>
<path id="N" d="M 7428455.00 9472421.00 L 7017833.00 9061799.00 L 6934317.00 9145315.00 L 7344939.00 9555937.00 L 7428455.00 9472421.00  z"/>
<path id="N" d="M 13576181.00 17916907.00 L 12001379.00 17916907.00 L 12001379.00 18055837.00 L 11932374.03 18055837.00 L 11404120.00 17527582.03 L 11404121.00 13199094.00 L 11388267.29 13160824.29 L 10758945.88 12531502.12 L 10762435.00 12528013.00 L 10351813.00 12117391.00 L 10268297.00 12200907.00 L 10678919.00 12611529.00 L 10682408.12 12608039.88 L 11295880.00 13221511.02 L 11295879.00 17550000.00 L 11311731.00 17588269.00 L 11871688.00 18148226.00 L 11909959.41 18164077.00 L 12001379.00 18164077.00 L 12001379.00 18310607.00 L 13576181.00 18310607.00 L 13576181.00 17916907.00  z"/>
<path id="N" d="M 11106693.00 8021654.00 L 10693307.00 8021654.00 L 10693307.00 8375984.00 L 11106693.00 8375984.00 L 11106693.00 8021654.00  z"/>
<path id="N" d="M 12104724.00 8542323.00 L 11998426.00 8542323.00 L 11998426.00 8654527.00 L 12104724.00 8654527.00 L 12104724.00 8542323.00  z"/>
<path id="N" d="M 12104724.00 7945473.00 L 11998426.00 7945473.00 L 11998426.00 8057677.00 L 12104724.00 8057677.00 L 12104724.00 7945473.00  z"/>
<path id="N" d="M 12504133.00 8443701.00 L 12391929.00 8443701.00 L 12391929.00 8549999.00 L 12504133.00 8549999.00 L 12504133.00 8443701.00  z"/>
<path id="N" d="M 12301574.00 8542323.00 L 12195276.00 8542323.00 L 12195276.00 8654527.00 L 12301574.00 8654527.00 L 12301574.00 8542323.00  z"/>
<path id="N" d="M 11106693.00 8572835.00 L 10693307.00 8572835.00 L 10693307.00 8927165.00 L 11106693.00 8927165.00 L 11106693.00 8572835.00  z"/>
<path id="N" d="M 12062360.00 9329091.00 L 11744840.00 9329091.00 L 11744840.00 9670909.00 L 12062360.00 9670909.00 L 12062360.00 9329091.00  z"/>
<path id="N" d="M 12212360.00 7079091.00 L 11894840.00 7079091.00 L 11894840.00 7420909.00 L 12212360.00 7420909.00 L 12212360.00 7079091.00  z"/>
<path id="N" d="M 6095199.00 14095199.00 L 6104071.74 14073778.26 L 6317717.00 13860133.00 L 6321862.00 13864278.00 L 6732484.00 13453656.00 L 6648968.00 13370140.00 L 6238346.00 13780762.00 L 6241179.00 13783595.00 L 6030701.19 13994072.81 L 6004801.00 14004801.00 A 63921.13 63921.13 0 0 0 6095199.00 14095199.00  z"/>
<path id="N" d="M 13576181.00 17129505.00 L 12001379.00 17129505.00 L 12001379.00 17255837.00 L 11932375.00 17255837.00 L 11754120.00 17077582.00 L 11754120.00 10850000.00 L 11738269.00 10811731.00 L 11438269.00 10511731.00 L 11399997.59 10495880.00 L 10678982.00 10495879.00 L 10640713.00 10511731.00 L 10410422.00 10742022.00 L 10400530.00 10732130.00 L 9989908.00 11142752.00 L 10073424.00 11226268.00 L 10278102.78 11021589.22 L 10288052.00 11017468.00 L 10701400.00 10604120.00 L 11377582.00 10604120.00 L 11645880.00 10872418.00 L 11645879.00 17100000.00 L 11661731.00 17138269.00 L 11871688.00 17348226.00 L 11909959.41 17364077.00 L 12001379.00 17364077.00 L 12001379.00 17523205.00 L 13576181.00 17523205.00 L 13576181.00 17129505.00  z"/>
</g>
</svg>
