<svg width="30.0000035mm" height="49.99999906mm" viewBox="0 0 11811025 19685039"  version="1.1" xmlns="http://www.w3.org/2000/svg" xmlns:xlink="http://www.w3.org/1999/xlink">
<desc>
Origin 0 0 Bound 1968504 1968504 11811025 19685039
</desc>
<g fill-rule="evenodd" fill="rgb(0, 0, 255)" stroke="black" stroke-width="1" transform="translate(0, 19685039) scale(1, -1) translate(-1968504, -1968504)">
<path id="N" d="M 8950000.06 3678741.24 m -516583.01 0 a 516583.01 516583.01 0 1 1 1033166.02 0a 516583.01 516583.01 0 1 1 -1033166.02 0M 8949996.81 3678751.25 m -337879.75 0 a 337879.75 337879.75 0 1 1 675759.50 0a 337879.75 337879.75 0 1 1 -675759.50 0"/>
<path id="N" d="M 6750000.06 18900001.24 m -516583.01 0 a 516583.01 516583.01 0 1 1 1033166.02 0a 516583.01 516583.01 0 1 1 -1033166.02 0M 6749996.81 18900011.25 m -337879.75 0 a 337879.75 337879.75 0 1 1 675759.50 0a 337879.75 337879.75 0 1 1 -675759.50 0"/>
<path id="N" d="M 6950000.06 3678741.24 m -516583.01 0 a 516583.01 516583.01 0 1 1 1033166.02 0a 516583.01 516583.01 0 1 1 -1033166.02 0M 6949996.81 3678751.25 m -337879.75 0 a 337879.75 337879.75 0 1 1 675759.50 0a 337879.75 337879.75 0 1 1 -675759.50 0"/>
<path id="N" d="M 6950000.06 5678741.24 m -516583.01 0 a 516583.01 516583.01 0 1 1 1033166.02 0a 516583.01 516583.01 0 1 1 -1033166.02 0M 6949996.81 5678751.25 m -337879.75 0 a 337879.75 337879.75 0 1 1 675759.50 0a 337879.75 337879.75 0 1 1 -675759.50 0"/>
<path id="N" d="M 8750000.06 20900001.24 m -516583.01 0 a 516583.01 516583.01 0 1 1 1033166.02 0a 516583.01 516583.01 0 1 1 -1033166.02 0M 8749996.81 20900011.25 m -337879.75 0 a 337879.75 337879.75 0 1 1 675759.50 0a 337879.75 337879.75 0 1 1 -675759.50 0"/>
<path id="N" d="M 8750000.06 18900001.24 m -516583.01 0 a 516583.01 516583.01 0 1 1 1033166.02 0a 516583.01 516583.01 0 1 1 -1033166.02 0M 8749996.81 18900011.25 m -337879.75 0 a 337879.75 337879.75 0 1 1 675759.50 0a 337879.75 337879.75 0 1 1 -675759.50 0"/>
<path id="N" d="M 12379529.77 4751181.43 m -426878.81 0 a 426878.81 426878.81 0 1 1 853757.63 0a 426878.81 426878.81 0 1 1 -853757.63 0M 12379527.86 4751182.28 m -327604.72 0 a 327604.72 327604.72 0 1 1 655209.45 0a 327604.72 327604.72 0 1 1 -655209.45 0"/>
<path id="N" d="M 6750000.06 20900001.24 m -516583.01 0 a 516583.01 516583.01 0 1 1 1033166.02 0a 516583.01 516583.01 0 1 1 -1033166.02 0M 6749996.81 20900011.25 m -337879.75 0 a 337879.75 337879.75 0 1 1 675759.50 0a 337879.75 337879.75 0 1 1 -675759.50 0"/>
<path id="N" d="M 8950000.06 5678741.24 m -516583.01 0 a 516583.01 516583.01 0 1 1 1033166.02 0a 516583.01 516583.01 0 1 1 -1033166.02 0M 8949996.81 5678751.25 m -337879.75 0 a 337879.75 337879.75 0 1 1 675759.50 0a 337879.75 337879.75 0 1 1 -675759.50 0"/>
<path id="N" d="M 11243700.00 4327953.00 L 10397244.00 4327953.00 L 10397244.00 5174409.00 L 11243700.00 5174409.00 L 11243700.00 4327953.00  zM 10820471.86 4751182.28 m -327604.72 0 a 327604.72 327604.72 0 1 1 655209.45 0a 327604.72 327604.72 0 1 1 -655209.45 0"/>
<path id="N" d="M 8207480.00 19442520.00 L 7292520.00 19442520.00 L 7292520.00 20357480.00 L 8207480.00 20357480.00 L 8207480.00 19442520.00  zM 7749996.07 19900015.00 m -302574.00 0 a 302574.00 302574.00 0 1 1 605148.00 0a 302574.00 302574.00 0 1 1 -605148.00 0"/>
<path id="N" d="M 8407480.00 4221260.00 L 7492520.00 4221260.00 L 7492520.00 5136220.00 L 8407480.00 5136220.00 L 8407480.00 4221260.00  zM 7949996.07 4678755.00 m -302574.00 0 a 302574.00 302574.00 0 1 1 605148.00 0a 302574.00 302574.00 0 1 1 -605148.00 0"/>
<path id="N" d="M 10932677.00 14840254.00 L 10066535.00 14840254.00 A 240838.32 240838.32 0 1 0 10066535.00 15321950.00 L 10932677.00 15321950.00 A 240860.29 240860.29 0 0 0 10932677.00 14840254.00  z"/>
<path id="N" d="M 4633465.00 15627656.00 L 3767323.00 15627656.00 A 240838.32 240838.32 0 1 0 3767323.00 16109352.00 L 4633465.00 16109352.00 A 240860.29 240860.29 0 1 0 4633465.00 15627656.00  z"/>
<path id="N" d="M 10932677.00 15627656.00 L 10066535.00 15627656.00 A 240838.32 240838.32 0 1 0 10066535.00 16109352.00 L 10932677.00 16109352.00 A 240860.29 240860.29 0 0 0 10932677.00 15627656.00  z"/>
<path id="N" d="M 10932677.00 14052853.00 L 10066535.00 14052853.00 A 240838.32 240838.32 0 0 0 10066535.00 14534549.00 L 10932677.00 14534549.00 A 240860.29 240860.29 0 0 0 10932677.00 14052853.00  z"/>
<path id="N" d="M 10932677.00 12478050.00 L 10066535.00 12478050.00 A 240838.32 240838.32 0 1 0 10066535.00 12959746.00 L 10932677.00 12959746.00 A 240860.29 240860.29 0 0 0 10932677.00 12478050.00  z"/>
<path id="N" d="M 10932677.00 10903246.00 L 10066535.00 10903246.00 A 240838.32 240838.32 0 1 0 10066535.00 11384942.00 L 10932677.00 11384942.00 A 240860.29 240860.29 0 0 0 10932677.00 10903246.00  z"/>
<path id="N" d="M 4633465.00 14840254.00 L 3767323.00 14840254.00 A 240838.32 240838.32 0 1 0 3767323.00 15321950.00 L 4633465.00 15321950.00 A 240860.29 240860.29 0 0 0 4633465.00 14840254.00  z"/>
<path id="N" d="M 10932677.00 13265451.00 L 10066535.00 13265451.00 A 240838.32 240838.32 0 0 0 10066535.00 13747147.00 L 10932677.00 13747147.00 A 240860.29 240860.29 0 0 0 10932677.00 13265451.00  z"/>
<path id="N" d="M 4633465.00 13265451.00 L 3767323.00 13265451.00 A 240838.32 240838.32 0 0 0 3767323.00 13747147.00 L 4633465.00 13747147.00 A 240860.29 240860.29 0 0 0 4633465.00 13265451.00  z"/>
<path id="N" d="M 4633465.00 14052853.00 L 3767323.00 14052853.00 A 240838.32 240838.32 0 0 0 3767323.00 14534549.00 L 4633465.00 14534549.00 A 240860.29 240860.29 0 0 0 4633465.00 14052853.00  z"/>
<path id="N" d="M 4633465.00 10903246.00 L 3767323.00 10903246.00 A 240838.32 240838.32 0 0 0 3767323.00 11384942.00 L 4633465.00 11384942.00 A 240860.29 240860.29 0 0 0 4633465.00 10903246.00  z"/>
<path id="N" d="M 10932677.00 16415058.00 L 10066535.00 16415058.00 A 240838.32 240838.32 0 1 0 10066535.00 16896754.00 L 10932677.00 16896754.00 A 240860.29 240860.29 0 0 0 10932677.00 16415058.00  z"/>
<path id="N" d="M 4633465.00 16415058.00 L 3767323.00 16415058.00 A 240838.32 240838.32 0 1 0 3767323.00 16896754.00 L 4633465.00 16896754.00 A 240860.29 240860.29 0 1 0 4633465.00 16415058.00  z"/>
<path id="N" d="M 10932677.00 11690648.00 L 10066535.00 11690648.00 A 240838.32 240838.32 0 1 0 10066535.00 12172344.00 L 10932677.00 12172344.00 A 240860.29 240860.29 0 0 0 10932677.00 11690648.00  z"/>
<path id="N" d="M 4633465.00 11690648.00 L 3767323.00 11690648.00 A 240838.32 240838.32 0 1 0 3767323.00 12172344.00 L 4633465.00 12172344.00 A 240860.29 240860.29 0 0 0 4633465.00 11690648.00  z"/>
<path id="N" d="M 4633465.00 12478050.00 L 3767323.00 12478050.00 A 240838.32 240838.32 0 1 0 3767323.00 12959746.00 L 4633465.00 12959746.00 A 240860.29 240860.29 0 1 0 4633465.00 12478050.00  z"/>
<path id="N" d="M 13582677.00 16338583.00 L 12007875.00 16338583.00 L 12007875.00 16732283.00 L 13582677.00 16732283.00 L 13582677.00 16338583.00  z"/>
<path id="N" d="M 13582677.00 17125985.00 L 12007875.00 17125985.00 L 12007875.00 17519685.00 L 13582677.00 17519685.00 L 13582677.00 17125985.00  z"/>
<path id="N" d="M 13582677.00 18700788.00 L 12007875.00 18700788.00 L 12007875.00 19094488.00 L 13582677.00 19094488.00 L 13582677.00 18700788.00  z"/>
<path id="N" d="M 13582677.00 17913387.00 L 12007875.00 17913387.00 L 12007875.00 18056117.00 L 10132654.00 18056117.00 L 6104999.47 14028461.47 L 6095199.00 14004801.00 A 63921.13 63921.13 0 0 0 6004801.00 14095199.00 L 6028461.47 14104999.47 L 10071968.00 18148506.00 L 10110237.00 18164357.00 L 12007875.00 18164357.00 L 12007875.00 18307087.00 L 13582677.00 18307087.00 L 13582677.00 17913387.00  z"/>
<path id="N" d="M 13582677.00 15551182.00 L 12007875.00 15551182.00 L 12007875.00 15944882.00 L 13582677.00 15944882.00 L 13582677.00 15551182.00  z"/>
</g>
</svg>
