<svg width="30.0000035mm" height="49.99999906mm" viewBox="0 0 11811025 19685039"  version="1.1" xmlns="http://www.w3.org/2000/svg" xmlns:xlink="http://www.w3.org/1999/xlink">
<desc>
Origin 0 0 Bound 3937008 3937008 11811025 19685039
</desc>
<g fill-rule="evenodd" fill="rgb(128, 0, 128)" stroke="black" stroke-width="1" transform="translate(0, 19685039) scale(1, -1) translate(-3937008, -3937008)">
<path id="N" d="M 14276445.00 23622046.00 A 1578141.91 1578141.91 0 0 0 15748031.00 22150462.00 L 15748031.58 14237007.00 L 14549340.00 14237007.00 A 120429.94 120429.94 0 0 1 14549340.00 14000787.00 L 15748031.54 14000787.00 L 15748030.00 5408591.00 A 1578145.74 1578145.74 0 0 0 14276445.00 3937007.00 L 8727951.00 3937008.00 L 8727951.00 5577558.00 L 8196455.00 5577558.00 L 8196455.00 3937008.00 L 6503541.00 3937008.00 L 6503541.00 5577558.00 L 5972045.00 5577558.00 L 5972045.00 3937008.00 L 5408592.00 3937008.00 A 1578197.26 1578197.26 0 0 0 3937008.00 5408592.00 L 3937008.00 22150462.00 A 1578178.47 1578178.47 0 0 0 5408592.00 23622047.00 L 14276445.00 23622046.00  zM 10546062.00 5333464.00 L 9916142.00 5333464.00 L 9916142.00 3955512.00 L 10546062.00 3955512.00 L 10546062.00 5333464.00  zM 13183858.00 5333464.00 L 12553938.00 5333464.00 L 12553938.00 3955512.00 L 13183858.00 3955512.00 L 13183858.00 5333464.00  zM 12160236.00 7616929.00 L 11727166.00 7616929.00 L 11727166.00 6199607.00 L 12160236.00 6199607.00 L 12160236.00 7616929.00  zM 11372834.00 7616929.00 L 10939764.00 7616929.00 L 10939764.00 6199607.00 L 11372834.00 6199607.00 L 11372834.00 7616929.00  zM 14566930.54 5118101.16 m -810999.84 0 a 810999.84 810999.84 0 1 1 1621999.67 0a 810999.84 810999.84 0 1 1 -1621999.67 0M 14673664.00 9389413.00 L 14356144.00 9389413.00 L 14356144.00 9047595.00 L 14673664.00 9047595.00 L 14673664.00 9389413.00  zM 14180864.00 9389413.00 L 13863344.00 9389413.00 L 13863344.00 9047595.00 L 14180864.00 9047595.00 L 14180864.00 9389413.00  zM 13094882.00 10364173.00 L 12642126.00 10364173.00 L 12642126.00 9970473.00 L 13094882.00 9970473.00 L 13094882.00 10364173.00  zM 13896260.00 10341338.00 L 13744686.00 10341338.00 L 13744686.00 10195670.00 L 13896260.00 10195670.00 L 13896260.00 10341338.00  zM 13896260.00 10144488.00 L 13744686.00 10144488.00 L 13744686.00 9998820.00 L 13896260.00 9998820.00 L 13896260.00 10144488.00  zM 14092913.00 10045866.00 L 13947245.00 10045866.00 L 13947245.00 9894292.00 L 14092913.00 9894292.00 L 14092913.00 10045866.00  zM 14289763.00 10045866.00 L 14144095.00 10045866.00 L 14144095.00 9894292.00 L 14289763.00 9894292.00 L 14289763.00 10045866.00  zM 14492322.00 10144488.00 L 14340748.00 10144488.00 L 14340748.00 9998820.00 L 14492322.00 9998820.00 L 14492322.00 10144488.00  zM 14492322.00 10341338.00 L 14340748.00 10341338.00 L 14340748.00 10195670.00 L 14492322.00 10195670.00 L 14492322.00 10341338.00  zM 9174248.00 11691475.00 L 8735787.00 11253014.00 L 8847142.00 11141659.00 L 9285603.00 11580120.00 L 9174248.00 11691475.00  zM 9313443.00 11552280.00 L 8874982.00 11113819.00 L 8986337.00 11002464.00 L 9424798.00 11440925.00 L 9313443.00 11552280.00  zM 9452637.00 11413086.00 L 9014176.00 10974625.00 L 9125531.00 10863270.00 L 9563992.00 11301731.00 L 9452637.00 11413086.00  zM 10232403.00 11413086.00 L 10121048.00 11301731.00 L 10559509.00 10863270.00 L 10670864.00 10974625.00 L 10232403.00 11413086.00  zM 10371597.00 11552280.00 L 10260242.00 11440925.00 L 10698703.00 11002464.00 L 10810058.00 11113819.00 L 10371597.00 11552280.00  zM 10510792.00 11691475.00 L 10399437.00 11580120.00 L 10837898.00 11141659.00 L 10949253.00 11253014.00 L 10510792.00 11691475.00  zM 10649986.00 11830669.00 L 10538631.00 11719314.00 L 10977092.00 11280853.00 L 11088447.00 11392208.00 L 10649986.00 11830669.00  zM 13094882.00 10915354.00 L 12642126.00 10915354.00 L 12642126.00 10521654.00 L 13094882.00 10521654.00 L 13094882.00 10915354.00  zM 13896260.00 10538188.00 L 13744686.00 10538188.00 L 13744686.00 10392520.00 L 13896260.00 10392520.00 L 13896260.00 10538188.00  zM 14092913.00 10642716.00 L 13947245.00 10642716.00 L 13947245.00 10491142.00 L 14092913.00 10491142.00 L 14092913.00 10642716.00  zM 14030864.00 11639413.00 L 13713344.00 11639413.00 L 13713344.00 11297595.00 L 14030864.00 11297595.00 L 14030864.00 11639413.00  zM 14289763.00 10642716.00 L 14144095.00 10642716.00 L 14144095.00 10491142.00 L 14289763.00 10491142.00 L 14289763.00 10642716.00  zM 14492322.00 10538188.00 L 14340748.00 10538188.00 L 14340748.00 10392520.00 L 14492322.00 10392520.00 L 14492322.00 10538188.00  zM 14523664.00 11639413.00 L 14206144.00 11639413.00 L 14206144.00 11297595.00 L 14523664.00 11297595.00 L 14523664.00 11639413.00  zM 7364723.00 13501000.00 L 6926262.00 13062539.00 L 7037617.00 12951184.00 L 7476078.00 13389645.00 L 7364723.00 13501000.00  zM 7503917.00 13361806.00 L 7065456.00 12923345.00 L 7176811.00 12811990.00 L 7615272.00 13250451.00 L 7503917.00 13361806.00  zM 7643112.00 13222611.00 L 7204651.00 12784150.00 L 7316006.00 12672795.00 L 7754467.00 13111256.00 L 7643112.00 13222611.00  zM 7782306.00 13083417.00 L 7343845.00 12644956.00 L 7455200.00 12533601.00 L 7893661.00 12972062.00 L 7782306.00 13083417.00  zM 7921500.00 12944222.00 L 7483039.00 12505761.00 L 7594394.00 12394406.00 L 8032855.00 12832867.00 L 7921500.00 12944222.00  zM 8060694.00 12805029.00 L 7622233.00 12366568.00 L 7733588.00 12255213.00 L 8172049.00 12693674.00 L 8060694.00 12805029.00  zM 8199888.00 12665835.00 L 7761427.00 12227374.00 L 7872782.00 12116019.00 L 8311243.00 12554480.00 L 8199888.00 12665835.00  zM 8339083.00 12526640.00 L 7900622.00 12088179.00 L 8011977.00 11976824.00 L 8450438.00 12415285.00 L 8339083.00 12526640.00  zM 8478277.00 12387446.00 L 8039816.00 11948985.00 L 8151171.00 11837630.00 L 8589632.00 12276091.00 L 8478277.00 12387446.00  zM 8617472.00 12248251.00 L 8179011.00 11809790.00 L 8290366.00 11698435.00 L 8728827.00 12136896.00 L 8617472.00 12248251.00  zM 8756666.00 12109057.00 L 8318205.00 11670596.00 L 8429560.00 11559241.00 L 8868021.00 11997702.00 L 8756666.00 12109057.00  zM 8895859.00 11969863.00 L 8457398.00 11531402.00 L 8568753.00 11420047.00 L 9007214.00 11858508.00 L 8895859.00 11969863.00  zM 9035054.00 11830669.00 L 8596593.00 11392208.00 L 8707948.00 11280853.00 L 9146409.00 11719314.00 L 9035054.00 11830669.00  zM 10789181.00 11969863.00 L 10677826.00 11858508.00 L 11116287.00 11420047.00 L 11227642.00 11531402.00 L 10789181.00 11969863.00  zM 10928374.00 12109057.00 L 10817019.00 11997702.00 L 11255480.00 11559241.00 L 11366835.00 11670596.00 L 10928374.00 12109057.00  zM 11067568.00 12248251.00 L 10956213.00 12136896.00 L 11394674.00 11698435.00 L 11506029.00 11809790.00 L 11067568.00 12248251.00  zM 11206763.00 12387446.00 L 11095408.00 12276091.00 L 11533869.00 11837630.00 L 11645224.00 11948985.00 L 11206763.00 12387446.00  zM 11345957.00 12526640.00 L 11234602.00 12415285.00 L 11673063.00 11976824.00 L 11784418.00 12088179.00 L 11345957.00 12526640.00  zM 11485152.00 12665835.00 L 11373797.00 12554480.00 L 11812258.00 12116019.00 L 11923613.00 12227374.00 L 11485152.00 12665835.00  zM 11624346.00 12805029.00 L 11512991.00 12693674.00 L 11951452.00 12255213.00 L 12062807.00 12366568.00 L 11624346.00 12805029.00  zM 11763540.00 12944222.00 L 11652185.00 12832867.00 L 12090646.00 12394406.00 L 12202001.00 12505761.00 L 11763540.00 12944222.00  zM 11902734.00 13083417.00 L 11791379.00 12972062.00 L 12229840.00 12533601.00 L 12341195.00 12644956.00 L 11902734.00 13083417.00  zM 12041928.00 13222611.00 L 11930573.00 13111256.00 L 12369034.00 12672795.00 L 12480389.00 12784150.00 L 12041928.00 13222611.00  zM 12181123.00 13361806.00 L 12069768.00 13250451.00 L 12508229.00 12811990.00 L 12619584.00 12923345.00 L 12181123.00 13361806.00  zM 12320317.00 13501000.00 L 12208962.00 13389645.00 L 12647423.00 12951184.00 L 12758778.00 13062539.00 L 12320317.00 13501000.00  zM 15550590.00 13157850.00 L 13936418.00 13157850.00 L 13936418.00 12724780.00 L 15550590.00 12724780.00 L 15550590.00 13157850.00  zM 15550590.00 13945251.00 L 13936418.00 13945251.00 L 13936418.00 13512181.00 L 15550590.00 13512181.00 L 15550590.00 13945251.00  zM 7037617.00 14607872.00 L 6926262.00 14496517.00 L 7364723.00 14058056.00 L 7476078.00 14169411.00 L 7037617.00 14607872.00  zM 7176811.00 14747066.00 L 7065456.00 14635711.00 L 7503917.00 14197250.00 L 7615272.00 14308605.00 L 7176811.00 14747066.00  zM 7316006.00 14886261.00 L 7204651.00 14774906.00 L 7643112.00 14336445.00 L 7754467.00 14447800.00 L 7316006.00 14886261.00  zM 7455200.00 15025455.00 L 7343845.00 14914100.00 L 7782306.00 14475639.00 L 7893661.00 14586994.00 L 7455200.00 15025455.00  zM 7594394.00 15164650.00 L 7483039.00 15053295.00 L 7921500.00 14614834.00 L 8032855.00 14726189.00 L 7594394.00 15164650.00  zM 7733588.00 15303843.00 L 7622233.00 15192488.00 L 8060694.00 14754027.00 L 8172049.00 14865382.00 L 7733588.00 15303843.00  zM 7872782.00 15443037.00 L 7761427.00 15331682.00 L 8199888.00 14893221.00 L 8311243.00 15004576.00 L 7872782.00 15443037.00  zM 8011977.00 15582232.00 L 7900622.00 15470877.00 L 8339083.00 15032416.00 L 8450438.00 15143771.00 L 8011977.00 15582232.00  zM 8151171.00 15721426.00 L 8039816.00 15610071.00 L 8478277.00 15171610.00 L 8589632.00 15282965.00 L 8151171.00 15721426.00  zM 8290366.00 15860621.00 L 8179011.00 15749266.00 L 8617472.00 15310805.00 L 8728827.00 15422160.00 L 8290366.00 15860621.00  zM 8429560.00 15999815.00 L 8318205.00 15888460.00 L 8756666.00 15449999.00 L 8868021.00 15561354.00 L 8429560.00 15999815.00  zM 8568753.00 16139009.00 L 8457398.00 16027654.00 L 8895859.00 15589193.00 L 9007214.00 15700548.00 L 8568753.00 16139009.00  zM 8707948.00 16278203.00 L 8596593.00 16166848.00 L 9035054.00 15728387.00 L 9146409.00 15839742.00 L 8707948.00 16278203.00  zM 11116287.00 16139009.00 L 10677826.00 15700548.00 L 10789181.00 15589193.00 L 11227642.00 16027654.00 L 11116287.00 16139009.00  zM 11255480.00 15999815.00 L 10817019.00 15561354.00 L 10928374.00 15449999.00 L 11366835.00 15888460.00 L 11255480.00 15999815.00  zM 11394674.00 15860621.00 L 10956213.00 15422160.00 L 11067568.00 15310805.00 L 11506029.00 15749266.00 L 11394674.00 15860621.00  zM 11533869.00 15721426.00 L 11095408.00 15282965.00 L 11206763.00 15171610.00 L 11645224.00 15610071.00 L 11533869.00 15721426.00  zM 11673063.00 15582232.00 L 11234602.00 15143771.00 L 11345957.00 15032416.00 L 11784418.00 15470877.00 L 11673063.00 15582232.00  zM 11812258.00 15443037.00 L 11373797.00 15004576.00 L 11485152.00 14893221.00 L 11923613.00 15331682.00 L 11812258.00 15443037.00  zM 11951452.00 15303843.00 L 11512991.00 14865382.00 L 11624346.00 14754027.00 L 12062807.00 15192488.00 L 11951452.00 15303843.00  zM 12090646.00 15164650.00 L 11652185.00 14726189.00 L 11763540.00 14614834.00 L 12202001.00 15053295.00 L 12090646.00 15164650.00  zM 12229840.00 15025455.00 L 11791379.00 14586994.00 L 11902734.00 14475639.00 L 12341195.00 14914100.00 L 12229840.00 15025455.00  zM 12369034.00 14886261.00 L 11930573.00 14447800.00 L 12041928.00 14336445.00 L 12480389.00 14774906.00 L 12369034.00 14886261.00  zM 12508229.00 14747066.00 L 12069768.00 14308605.00 L 12181123.00 14197250.00 L 12619584.00 14635711.00 L 12508229.00 14747066.00  zM 12647423.00 14607872.00 L 12208962.00 14169411.00 L 12320317.00 14058056.00 L 12758778.00 14496517.00 L 12647423.00 14607872.00  zM 15550590.00 15520055.00 L 13936418.00 15520055.00 L 13936418.00 15086985.00 L 15550590.00 15086985.00 L 15550590.00 15520055.00  zM 15550590.00 14732653.00 L 13936418.00 14732653.00 L 13936418.00 14299583.00 L 15550590.00 14299583.00 L 15550590.00 14732653.00  zM 8847142.00 16417397.00 L 8735787.00 16306042.00 L 9174248.00 15867581.00 L 9285603.00 15978936.00 L 8847142.00 16417397.00  zM 8986337.00 16556592.00 L 8874982.00 16445237.00 L 9313443.00 16006776.00 L 9424798.00 16118131.00 L 8986337.00 16556592.00  zM 9125531.00 16695786.00 L 9014176.00 16584431.00 L 9452637.00 16145970.00 L 9563992.00 16257325.00 L 9125531.00 16695786.00  zM 10559509.00 16695786.00 L 10121048.00 16257325.00 L 10232403.00 16145970.00 L 10670864.00 16584431.00 L 10559509.00 16695786.00  zM 10698703.00 16556592.00 L 10260242.00 16118131.00 L 10371597.00 16006776.00 L 10810058.00 16445237.00 L 10698703.00 16556592.00  zM 10837898.00 16417397.00 L 10399437.00 15978936.00 L 10510792.00 15867581.00 L 10949253.00 16306042.00 L 10837898.00 16417397.00  zM 10977092.00 16278203.00 L 10538631.00 15839742.00 L 10649986.00 15728387.00 L 11088447.00 16166848.00 L 10977092.00 16278203.00  zM 5118111.54 22440936.16 m -810999.84 0 a 810999.84 810999.84 0 1 1 1621999.67 0a 810999.84 810999.84 0 1 1 -1621999.67 0M 7653541.00 22998031.00 L 7122045.00 22998031.00 L 7122045.00 21344489.00 L 7653541.00 21344489.00 L 7653541.00 22998031.00  zM 9877951.00 22998031.00 L 9346455.00 22998031.00 L 9346455.00 21344489.00 L 9877951.00 21344489.00 L 9877951.00 22998031.00  zM 10627255.00 22864174.00 L 10627255.00 22391732.00 A 220780.35 220780.35 0 0 1 11068809.00 22391732.00 L 11068809.00 22864174.00 A 220780.35 220780.35 0 0 1 10627255.00 22864174.00  zM 11423229.00 20994094.00 L 11147638.00 20994094.00 L 11147638.00 20505906.00 L 11423229.00 20505906.00 L 11423229.00 20994094.00  zM 10630611.00 21092984.00 L 10630611.00 20778024.00 A 220780.35 220780.35 0 0 1 11072165.00 20778024.00 L 11072165.00 21092984.00 A 220780.35 220780.35 0 0 1 10630611.00 21092984.00  zM 11738189.00 20994094.00 L 11462599.00 20994094.00 L 11462599.00 20505906.00 L 11738189.00 20505906.00 L 11738189.00 20994094.00  zM 15550590.00 16307456.00 L 13936418.00 16307456.00 L 13936418.00 15874386.00 L 15550590.00 15874386.00 L 15550590.00 16307456.00  zM 13312992.00 20994094.00 L 13155512.00 20994094.00 L 13155512.00 20505906.00 L 13312992.00 20505906.00 L 13312992.00 20994094.00  zM 12328740.00 20994094.00 L 12171260.00 20994094.00 L 12171260.00 20505906.00 L 12328740.00 20505906.00 L 12328740.00 20994094.00  zM 12131890.00 20994094.00 L 11974410.00 20994094.00 L 11974410.00 20505906.00 L 12131890.00 20505906.00 L 12131890.00 20994094.00  zM 12525591.00 20994094.00 L 12368111.00 20994094.00 L 12368111.00 20505906.00 L 12525591.00 20505906.00 L 12525591.00 20994094.00  zM 12722441.00 20994094.00 L 12564961.00 20994094.00 L 12564961.00 20505906.00 L 12722441.00 20505906.00 L 12722441.00 20994094.00  zM 12919292.00 20994094.00 L 12761812.00 20994094.00 L 12761812.00 20505906.00 L 12919292.00 20505906.00 L 12919292.00 20994094.00  zM 11935040.00 20994094.00 L 11777560.00 20994094.00 L 11777560.00 20505906.00 L 11935040.00 20505906.00 L 11935040.00 20994094.00  zM 13116142.00 20994094.00 L 12958662.00 20994094.00 L 12958662.00 20505906.00 L 13116142.00 20505906.00 L 13116142.00 20994094.00  zM 13627953.00 20994094.00 L 13352363.00 20994094.00 L 13352363.00 20505906.00 L 13627953.00 20505906.00 L 13627953.00 20994094.00  zM 13942914.00 20994094.00 L 13667323.00 20994094.00 L 13667323.00 20505906.00 L 13942914.00 20505906.00 L 13942914.00 20994094.00  zM 14027255.00 21139763.00 L 14027255.00 20824803.00 A 220780.35 220780.35 0 0 1 14468809.00 20824803.00 L 14468809.00 21139763.00 A 220780.35 220780.35 0 0 1 14027255.00 21139763.00  zM 14027255.00 22864174.00 L 14027255.00 22391732.00 A 220780.35 220780.35 0 0 1 14468809.00 22391732.00 L 14468809.00 22864174.00 A 220780.35 220780.35 0 0 1 14027255.00 22864174.00  z"/>
</g>
</svg>
