<svg width="30.0000035mm" height="49.99999906mm" viewBox="0 0 11811025 19685039"  version="1.1" xmlns="http://www.w3.org/2000/svg" xmlns:xlink="http://www.w3.org/1999/xlink">
<desc>
Origin 0 0 Bound 1968504 1968504 11811025 19685039
</desc>
<g fill-rule="evenodd" fill="rgb(255, 255, 0)" stroke="black" stroke-width="1" transform="translate(0, 19685039) scale(1, -1) translate(-1968504, -1968504)">
<path id="N" d="M 7912318.00 16449196.00 L 8012286.00 16349228.00 L 8028137.00 16310956.59 L 8028137.00 16210992.00 L 8012286.00 16172723.00 L 7950587.00 16111024.00 L 8012286.00 16049325.00 L 8028137.00 16011053.59 L 8028137.00 15911089.00 L 8012286.00 15872820.00 L 7912318.00 15772852.00 L 7874046.59 15757001.00 L 7574146.00 15757001.00 L 7535877.00 15772852.00 L 7520026.00 15811121.00 L 7520026.00 16410927.00 L 7535877.00 16449196.00 L 7574146.00 16465047.00 L 7874049.00 16465047.00 L 7912318.00 16449196.00  zM 7851631.00 16056904.00 L 7628266.00 16056904.00 L 7628266.00 15865241.00 L 7851631.00 15865241.00 L 7919897.00 15933507.00 L 7919897.00 15988638.00 L 7851631.00 16056904.00  zM 7851631.00 16356807.00 L 7628266.00 16356807.00 L 7628266.00 16165144.00 L 7851631.00 16165144.00 L 7919897.00 16233410.00 L 7919897.00 16288541.00 L 7851631.00 16356807.00  z"/>
<path id="N" d="M 8328040.00 16410924.59 L 8328040.00 15865241.00 L 8373887.00 15865241.00 A 54118.70 54118.70 0 0 0 8373887.00 15757001.00 L 8173952.00 15757001.00 A 54118.70 54118.70 0 0 0 8173952.00 15865241.00 L 8219800.00 15865241.00 L 8219800.00 16280269.00 L 8212221.00 16272690.00 A 54121.84 54121.84 0 0 0 8135683.00 16349228.00 L 8235651.00 16449196.00 A 54119.43 54119.43 0 0 0 8328040.00 16410924.59  z"/>
<path id="N" d="M 7904149.00 14430170.00 L 10493161.00 11841157.00 L 10505643.00 11811024.00 L 10493161.00 11780891.00 L 7904149.00 9191878.00 L 7874016.00 9179397.00 L 7843882.29 9191879.71 L 5254870.00 11780891.00 L 5242389.00 11811024.00 L 5254870.00 11841157.00 L 7843883.00 14430170.00 L 7874016.00 14442651.00 L 7904149.00 14430170.00  zM 7874015.51 14339771.50 L 5345268.99 11811024.00 L 7874015.51 9282276.50 L 10402763.99 11811024.00 L 7874015.51 14339771.50  z"/>
<path id="N" d="M 4888297.47 11330802.47 m -100354.75 0 a 100354.75 100354.75 0 1 1 200709.51 0a 100354.75 100354.75 0 1 1 -200709.51 0"/>
</g>
</svg>
