<svg width="30.0000035mm" height="49.99999906mm" viewBox="0 0 11811025 19685039"  version="1.1" xmlns="http://www.w3.org/2000/svg" xmlns:xlink="http://www.w3.org/1999/xlink">
<desc>
Origin 0 0 Bound 3937008 3937008 11811025 19685039
</desc>
<g fill-rule="evenodd" fill="rgb(0, 0, 255)" stroke="black" stroke-width="1" transform="translate(0, 19685039) scale(1, -1) translate(-3937008, -3937008)">
<path id="N" d="M 14566933.73 5118121.76 m -791198.52 0 a 791198.52 791198.52 0 1 1 1582397.04 0a 791198.52 791198.52 0 1 1 -1582397.04 0M 14566926.04 5118124.86 m -632954.14 0 a 632954.14 632954.14 0 1 1 1265908.28 0a 632954.14 632954.14 0 1 1 -1265908.28 0"/>
<path id="N" d="M 5118114.73 22440956.76 m -791198.52 0 a 791198.52 791198.52 0 1 1 1582397.04 0a 791198.52 791198.52 0 1 1 -1582397.04 0M 5118107.04 22440959.86 m -632954.14 0 a 632954.14 632954.14 0 1 1 1265908.28 0a 632954.14 632954.14 0 1 1 -1265908.28 0"/>
<path id="N" d="M 14114173.00 23011481.88 L 14171225.00 23049603.00 A 200704.69 200704.69 0 0 0 14448739.00 22864174.00 L 14448739.00 22391732.00 A 200706.53 200706.53 0 0 0 14047325.00 22391732.00 L 14047325.00 22536221.00 L 13523623.00 22536221.00 L 13523623.00 23874803.00 L 14114173.00 23874803.00 L 14114173.00 23011481.88  zM 14127608.00 22864173.00 L 14127608.00 22391733.00 A 120431.73 120431.73 0 1 1 14368456.00 22391733.00 L 14368456.00 22864173.00 A 120431.73 120431.73 0 1 1 14127608.00 22864173.00  z"/>
<path id="N" d="M 11476377.00 22536221.00 L 11048739.00 22536221.00 L 11048739.00 22391732.00 A 200706.53 200706.53 0 0 0 10647325.00 22391732.00 L 10647325.00 22864174.00 A 200706.53 200706.53 0 0 0 10848032.00 23064881.00 L 10885827.00 23057363.04 L 10885827.00 23874803.00 L 11476377.00 23874803.00 L 11476377.00 22536221.00  zM 10727608.00 22864173.00 L 10727608.00 22391733.00 A 120431.73 120431.73 0 0 1 10968456.00 22391733.00 L 10968456.00 22864173.00 A 120431.73 120431.73 0 0 1 10727608.00 22864173.00  z"/>
<path id="N" d="M 11052095.00 21092984.00 L 11052095.00 20778024.00 A 200706.53 200706.53 0 0 0 10650681.00 20778024.00 L 10650681.00 21092984.00 A 200706.53 200706.53 0 0 0 11052095.00 21092984.00  zM 10730964.00 21092984.00 L 10730964.00 20778024.00 A 120431.73 120431.73 0 0 1 10971812.00 20778024.00 L 10971812.00 21092984.00 A 120431.73 120431.73 0 0 1 10730964.00 21092984.00  z"/>
<path id="N" d="M 14448739.00 21139763.00 L 14448739.00 20824803.00 A 200706.53 200706.53 0 0 0 14047325.00 20824803.00 L 14047325.00 21139763.00 A 200706.53 200706.53 0 0 0 14448739.00 21139763.00  zM 14127608.00 21139763.00 L 14127608.00 20824803.00 A 120431.73 120431.73 0 1 1 14368456.00 20824803.00 L 14368456.00 21139763.00 A 120431.73 120431.73 0 1 1 14127608.00 21139763.00  z"/>
<path id="N" d="M 6833465.00 19215058.00 L 5967323.00 19215058.00 A 240838.32 240838.32 0 1 0 5967323.00 19696754.00 L 6833465.00 19696754.00 A 240860.29 240860.29 0 0 0 6833465.00 19215058.00  z"/>
<path id="N" d="M 6833465.00 13703246.00 L 5967323.00 13703246.00 A 240838.32 240838.32 0 0 0 5967323.00 14184942.00 L 6833465.00 14184942.00 A 240860.29 240860.29 0 0 0 6833465.00 13703246.00  z"/>
<path id="N" d="M 13132677.00 14490648.00 L 12266535.00 14490648.00 A 240838.32 240838.32 0 1 0 12266535.00 14972344.00 L 13132677.00 14972344.00 A 240860.29 240860.29 0 0 0 13132677.00 14490648.00  z"/>
<path id="N" d="M 13132677.00 19215058.00 L 12266535.00 19215058.00 A 240838.32 240838.32 0 1 0 12266535.00 19696754.00 L 13132677.00 19696754.00 A 240860.29 240860.29 0 0 0 13132677.00 19215058.00  z"/>
<path id="N" d="M 6833465.00 18427656.00 L 5967323.00 18427656.00 A 240838.32 240838.32 0 0 0 5967323.00 18909352.00 L 6833465.00 18909352.00 A 240860.29 240860.29 0 0 0 6833465.00 18427656.00  z"/>
<path id="N" d="M 13132677.00 17640254.00 L 12266535.00 17640254.00 A 240838.32 240838.32 0 1 0 12266535.00 18121950.00 L 13132677.00 18121950.00 A 240860.29 240860.29 0 0 0 13132677.00 17640254.00  z"/>
<path id="N" d="M 13132677.00 18427656.00 L 12266535.00 18427656.00 A 240838.32 240838.32 0 1 0 12266535.00 18909352.00 L 13132677.00 18909352.00 A 240860.29 240860.29 0 0 0 13132677.00 18427656.00  z"/>
<path id="N" d="M 6833465.00 16852853.00 L 5967323.00 16852853.00 A 240838.32 240838.32 0 0 0 5967323.00 17334549.00 L 6833465.00 17334549.00 A 240860.29 240860.29 0 0 0 6833465.00 16852853.00  z"/>
<path id="N" d="M 6833465.00 17640254.00 L 5967323.00 17640254.00 A 240838.32 240838.32 0 0 0 5967323.00 18121950.00 L 6833465.00 18121950.00 A 240860.29 240860.29 0 0 0 6833465.00 17640254.00  z"/>
<path id="N" d="M 6833465.00 16065451.00 L 5967323.00 16065451.00 A 240838.32 240838.32 0 1 0 5967323.00 16547147.00 L 6833465.00 16547147.00 A 240860.29 240860.29 0 0 0 6833465.00 16065451.00  z"/>
<path id="N" d="M 13132677.00 16065451.00 L 12266535.00 16065451.00 A 240838.32 240838.32 0 1 0 12266535.00 16547147.00 L 13132677.00 16547147.00 A 240860.29 240860.29 0 0 0 13132677.00 16065451.00  z"/>
<path id="N" d="M 13132677.00 16852853.00 L 12266535.00 16852853.00 A 240838.32 240838.32 0 0 0 12266535.00 17334549.00 L 13132677.00 17334549.00 A 240860.29 240860.29 0 0 0 13132677.00 16852853.00  z"/>
<path id="N" d="M 13132677.00 13703246.00 L 12266535.00 13703246.00 A 240838.32 240838.32 0 1 0 12266535.00 14184942.00 L 13132677.00 14184942.00 A 240860.29 240860.29 0 0 0 13132677.00 13703246.00  z"/>
<path id="N" d="M 6833465.00 15278050.00 L 5967323.00 15278050.00 A 240838.32 240838.32 0 1 0 5967323.00 15759746.00 L 6833465.00 15759746.00 A 240860.29 240860.29 0 0 0 6833465.00 15278050.00  z"/>
<path id="N" d="M 6833465.00 14490648.00 L 5967323.00 14490648.00 A 240838.32 240838.32 0 0 0 5967323.00 14972344.00 L 6833465.00 14972344.00 A 240860.29 240860.29 0 0 0 6833465.00 14490648.00  z"/>
<path id="N" d="M 13132677.00 15278050.00 L 12266535.00 15278050.00 A 240838.32 240838.32 0 1 0 12266535.00 15759746.00 L 13132677.00 15759746.00 A 240860.29 240860.29 0 0 0 13132677.00 15278050.00  z"/>
<path id="N" d="M 12303149.00 20252756.00 L 11909449.00 20252756.00 L 11909449.00 21630708.00 L 12303149.00 21630708.00 L 12303149.00 20252756.00  z"/>
<path id="N" d="M 13090551.00 20252756.00 L 12696851.00 20252756.00 L 12696851.00 21630708.00 L 13090551.00 21630708.00 L 13090551.00 20252756.00  z"/>
<path id="N" d="M 7653541.00 21344489.00 L 7122045.00 21344489.00 L 7122045.00 22998031.00 L 7653541.00 22998031.00 L 7653541.00 21344489.00  z"/>
<path id="N" d="M 7599998.00 3963386.00 L 7099998.00 3963386.00 L 7099998.00 5380708.00 L 7599998.00 5380708.00 L 7599998.00 3963386.00  z"/>
<path id="N" d="M 15537401.00 14315748.00 L 13962599.00 14315748.00 L 13962599.00 14709448.00 L 15537401.00 14709448.00 L 15537401.00 14315748.00  z"/>
<path id="N" d="M 15537401.00 13528346.00 L 13962599.00 13528346.00 L 13962599.00 13922046.00 L 15537401.00 13922046.00 L 15537401.00 13528346.00  z"/>
<path id="N" d="M 8749998.00 21541339.00 L 8249998.00 21541339.00 L 8249998.00 22958661.00 L 8749998.00 22958661.00 L 8749998.00 21541339.00  z"/>
<path id="N" d="M 6503541.00 3924016.00 L 5972045.00 3924016.00 L 5972045.00 5577558.00 L 6503541.00 5577558.00 L 6503541.00 3924016.00  z"/>
<path id="N" d="M 9877951.00 21344489.00 L 9346455.00 21344489.00 L 9346455.00 22998031.00 L 9877951.00 22998031.00 L 9877951.00 21344489.00  z"/>
<path id="N" d="M 8727951.00 3924016.00 L 8196455.00 3924016.00 L 8196455.00 5577558.00 L 8727951.00 5577558.00 L 8727951.00 3924016.00  z"/>
<path id="N" d="M 15537401.00 15890551.00 L 13962599.00 15890551.00 L 13962599.00 16284251.00 L 15537401.00 16284251.00 L 15537401.00 15890551.00  z"/>
<path id="N" d="M 15537401.00 15103150.00 L 13962599.00 15103150.00 L 13962599.00 15496850.00 L 15537401.00 15496850.00 L 15537401.00 15103150.00  z"/>
<path id="N" d="M 15537401.00 12740945.00 L 13962599.00 12740945.00 L 13962599.00 13134645.00 L 15537401.00 13134645.00 L 15537401.00 12740945.00  z"/>
</g>
</svg>
