<svg width="30.0000035mm" height="49.99999906mm" viewBox="0 0 11811025 19685039"  version="1.1" xmlns="http://www.w3.org/2000/svg" xmlns:xlink="http://www.w3.org/1999/xlink">
<desc>
Origin 0 0 Bound 1968504 1968504 11811025 19685039
</desc>
<g fill-rule="evenodd" fill="rgb(128, 128, 0)" stroke="black" stroke-width="1" transform="translate(0, 19685039) scale(1, -1) translate(-1968504, -1968504)">
<path id="N" d="M 3153301.00 16476925.00 L 3045755.00 16369379.00 L 3115032.00 16369379.00 A 54118.70 54118.70 0 0 0 3115032.00 16261139.00 L 3045753.54 16261139.00 L 3153300.00 16153592.00 A 54118.22 54118.22 0 0 0 3076763.00 16077055.00 L 2969217.00 16184601.00 L 2969217.00 16115323.00 A 54118.70 54118.70 0 0 0 2860977.00 16115323.00 L 2860977.00 16184601.00 L 2753431.00 16077055.00 A 54118.22 54118.22 0 0 0 2676894.00 16153592.00 L 2784440.46 16261139.00 L 2715162.00 16261139.00 A 54118.70 54118.70 0 0 0 2715162.00 16369379.00 L 2784439.00 16369379.00 L 2676893.00 16476925.00 A 54119.43 54119.43 0 0 0 2753431.00 16553463.00 L 2860977.00 16445916.46 L 2860977.00 16515194.00 A 54118.70 54118.70 0 0 0 2969217.00 16515194.00 L 2969217.00 16445916.46 L 3076763.00 16553463.00 A 54119.43 54119.43 0 0 0 3153301.00 16476925.00  z"/>
<path id="N" d="M 9149994.00 16649992.29 m -299421.33 0 a 299421.33 299421.33 0 1 1 598842.67 0a 299421.33 299421.33 0 1 1 -598842.67 0"/>
<path id="N" d="M 3153301.00 17153269.00 L 3253269.00 17053301.00 L 3269120.00 17015032.00 L 3269121.00 16815097.00 L 3253269.00 16776828.00 L 3153301.00 16676860.00 L 3115032.00 16661009.00 L 2615194.00 16661009.00 A 54118.70 54118.70 0 1 0 2615194.00 16769249.00 L 3092614.00 16769249.00 L 3160880.00 16837515.00 L 3160880.00 16992614.00 L 3092614.00 17060880.00 L 2615194.00 17060880.00 A 54118.70 54118.70 0 0 0 2615194.00 17169120.00 L 3115032.00 17169121.00 L 3153301.00 17153269.00  z"/>
<path id="N" d="M 13602362.00 19287219.00 L 11963569.00 19287219.00 L 11963569.00 15358451.00 L 13602362.00 15358451.00 A 54118.70 54118.70 0 1 0 13602362.00 15250211.00 L 11909449.00 15250211.00 L 11871180.00 15266062.00 L 11855329.00 15304331.00 L 11855329.00 19341339.00 L 11871180.00 19379608.00 L 11909449.00 19395459.00 L 13602362.00 19395459.00 A 54121.84 54121.84 0 0 0 13602362.00 19287219.00  z"/>
<path id="N" d="M 10499606.00 17113597.00 L 4200394.00 17113597.00 A 54118.70 54118.70 0 1 0 4200394.00 17221837.00 L 10499606.00 17221837.00 A 54121.84 54121.84 0 1 0 10499606.00 17113597.00  z"/>
<path id="N" d="M 10499606.00 10578163.00 L 4200394.00 10578163.00 A 54118.70 54118.70 0 0 0 4200394.00 10686403.00 L 10499606.00 10686403.00 A 54121.84 54121.84 0 0 0 10499606.00 10578163.00  z"/>
</g>
</svg>
