<svg width="29.99999842mm" height="49.99999906mm" viewBox="0 0 11811023 19685039"  version="1.1" xmlns="http://www.w3.org/2000/svg" xmlns:xlink="http://www.w3.org/1999/xlink">
<desc>
Origin 0 0 Bound 3937008 3937008 11811023 19685039
</desc>
<g fill-rule="evenodd" fill="rgb(112, 219, 250)" stroke="black" stroke-width="1" transform="translate(0, 19685039) scale(1, -1) translate(-3937008, -3937008)">
<path id="N" d="M 8621587.00 12931189.00 L 8597695.00 12921292.63 L 8597695.00 12415882.00 L 9336126.29 11677452.17 L 9391069.00 11677448.00 L 9406135.00 11671207.00 L 10057215.00 11020127.00 L 10063456.00 11005061.00 L 10063456.00 11001892.90 L 10102414.00 10985756.00 A 63921.13 63921.13 0 1 0 10012016.00 10985756.00 L 10020842.00 10989411.84 L 10020842.00 10996236.00 L 9382244.17 11634833.83 L 9327299.00 11634839.00 L 9312236.00 11641078.00 L 8561322.00 12391991.00 L 8555081.00 12407057.00 L 8555081.00 12921292.63 L 8531189.00 12931189.00 A 63921.13 63921.13 0 1 0 8621587.00 12931189.00  z"/>
<path id="N" d="M 12445984.00 15031516.00 L 12436087.63 15055408.00 L 12053743.00 15055408.00 L 10070074.00 13071740.00 L 10070074.00 12886304.00 L 10063833.00 12871238.00 L 9918403.45 12725808.45 L 9928300.00 12701916.00 A 63920.91 63920.91 0 1 0 9864379.00 12765837.00 L 9888271.45 12755940.45 L 10027460.00 12895129.00 L 10027460.00 13080565.00 L 10033701.00 13095631.00 L 12029850.00 15091781.00 L 12044917.00 15098022.00 L 12436087.63 15098022.00 L 12445984.00 15121914.00 A 63921.13 63921.13 0 1 0 12445984.00 15031516.00  z"/>
<path id="N" d="M 10204801.00 14663856.00 L 10194904.63 14687748.00 L 9367881.00 14687748.00 L 7954024.45 13273892.43 L 7963921.00 13250000.00 A 63920.91 63920.91 0 1 0 7900000.00 13313921.00 L 7923892.43 13304024.45 L 9343988.00 14724121.00 L 9359055.00 14730362.00 L 10194904.63 14730362.00 L 10204801.00 14754254.00 A 63921.13 63921.13 0 1 0 10204801.00 14663856.00  z"/>
<path id="N" d="M 6568034.00 20254801.00 L 6544142.00 20244904.63 L 6544142.00 19385990.00 L 6758825.00 19171307.00 L 7377769.00 19171307.00 L 7392835.00 19165066.00 L 10144555.00 16413347.00 L 10983794.63 16413347.00 L 10993691.00 16437239.00 L 11038890.00 16455961.00 L 11084089.00 16437239.00 L 11093985.37 16413347.00 L 11282841.00 16413347.00 L 12325366.00 17455872.00 L 12325366.00 18435862.00 L 12331607.00 18450928.00 L 13005030.28 19124352.22 L 12995134.00 19148244.00 A 63920.91 63920.91 0 1 0 13059055.00 19084323.00 L 13035163.22 19094219.28 L 12367980.00 18427036.99 L 12367980.00 17447047.00 L 12361739.00 17431981.00 L 11306732.00 16376974.00 L 11291666.00 16370733.00 L 11093985.37 16370733.00 L 11084089.00 16346841.00 L 11038890.00 16328119.00 L 10993691.00 16346841.00 L 10983794.63 16370733.00 L 10135729.00 16370733.00 L 10120662.00 16376974.00 L 7368944.00 19128693.00 L 6750000.00 19128693.00 L 6734934.00 19134934.00 L 6507769.00 19362099.00 L 6501528.00 19377165.00 L 6501528.00 20244904.63 L 6477636.00 20254801.00 A 63921.13 63921.13 0 1 0 6568034.00 20254801.00  z"/>
<path id="N" d="M 9136637.00 12998973.00 L 9112745.00 12989076.63 L 9112745.00 12634499.02 L 9515332.00 12231913.00 L 9521572.00 12216847.00 L 9521572.00 12095828.00 L 10094517.00 11522883.00 L 10208823.63 11522883.00 L 10218720.00 11546775.00 A 63921.13 63921.13 0 1 0 10218720.00 11456377.00 L 10208823.63 11480269.00 L 10085692.00 11480269.00 L 10070626.00 11486510.00 L 9485199.00 12071937.00 L 9478958.00 12087003.00 L 9478958.00 12208021.02 L 9076372.00 12610608.00 L 9070131.00 12625674.00 L 9070131.00 12989076.63 L 9046239.00 12998973.00 A 63921.13 63921.13 0 1 0 9136637.00 12998973.00  z"/>
<path id="N" d="M 9353073.00 13025948.00 L 9329181.00 13016051.63 L 9329181.00 12716121.00 L 9623995.00 12421307.00 L 9756442.00 12421307.00 L 9771508.00 12415066.00 L 10523886.00 11662688.00 L 10530127.00 11647622.00 L 10530127.00 11563944.37 L 10554019.00 11554048.00 A 63921.13 63921.13 0 1 0 10463621.00 11554048.00 L 10487513.00 11563944.37 L 10487513.00 11638797.00 L 9747617.00 12378693.00 L 9615170.00 12378693.00 L 9600104.00 12384934.00 L 9292808.00 12692230.00 L 9286567.00 12707296.00 L 9286567.00 13016051.63 L 9262675.00 13025948.00 A 63921.13 63921.13 0 1 0 9353073.00 13025948.00  z"/>
<path id="N" d="M 7961611.87 15358126.00 m -63921.13 0 a 63921.13 63921.13 0 1 1 127842.26 0a 63921.13 63921.13 0 1 1 -127842.26 0"/>
<path id="N" d="M 7949999.87 16200000.00 m -63921.13 0 a 63921.13 63921.13 0 1 1 127842.26 0a 63921.13 63921.13 0 1 1 -127842.26 0"/>
<path id="N" d="M 9345199.00 16063856.00 L 9321307.00 16053959.63 L 9321307.00 15202776.00 L 9315066.00 15187709.00 L 7622508.45 13495152.43 L 7632405.00 13471260.00 A 63920.91 63920.91 0 1 0 7568484.00 13535181.00 L 7592376.43 13525284.45 L 9278693.00 15211602.00 L 9278693.00 16053959.63 L 9254801.00 16063856.00 A 63921.13 63921.13 0 1 0 9345199.00 16063856.00  z"/>
<path id="N" d="M 6935490.87 16135491.00 m -63921.13 0 a 63921.13 63921.13 0 1 1 127842.26 0a 63921.13 63921.13 0 1 1 -127842.26 0"/>
<path id="N" d="M 7295199.00 19373939.00 L 7305212.18 19349765.00 L 7521543.00 19349765.00 L 7536609.00 19343524.00 L 10288047.00 16592087.00 L 10815677.63 16592087.00 L 10825574.00 16615979.00 A 63921.13 63921.13 0 1 0 10825574.00 16525581.00 L 10815677.63 16549473.00 L 10279221.00 16549473.00 L 10264155.00 16555713.00 L 7512718.00 19307151.00 L 7304978.56 19307151.00 L 7295199.00 19283541.00 A 63921.13 63921.13 0 1 0 7295199.00 19373939.00  z"/>
<path id="N" d="M 6364487.00 23214174.00 L 6364487.00 22741732.00 A 200706.53 200706.53 0 0 0 5963073.00 22741732.00 L 5963073.00 23214174.00 A 200706.53 200706.53 0 0 0 6364487.00 23214174.00  zM 6043356.00 23214173.00 L 6043356.00 22741733.00 A 120431.73 120431.73 0 0 1 6284204.00 22741733.00 L 6284204.00 23214173.00 A 120431.73 120431.73 0 0 1 6043356.00 23214173.00  z"/>
<path id="N" d="M 6367843.00 21442984.00 L 6367843.00 21128024.00 A 200706.53 200706.53 0 0 0 5966429.00 21128024.00 L 5966429.00 21442984.00 A 200706.53 200706.53 0 0 0 6367843.00 21442984.00  zM 6046712.00 21442984.00 L 6046712.00 21128024.00 A 120431.73 120431.73 0 0 1 6287560.00 21128024.00 L 6287560.00 21442984.00 A 120431.73 120431.73 0 0 1 6046712.00 21442984.00  z"/>
<path id="N" d="M 9764487.00 23214174.00 L 9764487.00 22741732.00 A 200706.53 200706.53 0 0 0 9363073.00 22741732.00 L 9363073.00 23214174.00 A 200706.53 200706.53 0 0 0 9764487.00 23214174.00  zM 9443356.00 23214173.00 L 9443356.00 22741733.00 A 120431.73 120431.73 0 0 1 9684204.00 22741733.00 L 9684204.00 23214173.00 A 120431.73 120431.73 0 0 1 9443356.00 23214173.00  z"/>
<path id="N" d="M 9764487.00 21489763.00 L 9764487.00 21174803.00 A 200706.53 200706.53 0 0 0 9363073.00 21174803.00 L 9363073.00 21489763.00 A 200706.53 200706.53 0 0 0 9764487.00 21489763.00  zM 9443356.00 21489763.00 L 9443356.00 21174803.00 A 120431.73 120431.73 0 0 1 9684204.00 21174803.00 L 9684204.00 21489763.00 A 120431.73 120431.73 0 1 1 9443356.00 21489763.00  z"/>
<path id="N" d="M 9155511.87 19428740.00 m -63921.13 0 a 63921.13 63921.13 0 1 1 127842.26 0a 63921.13 63921.13 0 1 1 -127842.26 0"/>
<path id="N" d="M 8818897.87 19409449.00 m -63921.13 0 a 63921.13 63921.13 0 1 1 127842.26 0a 63921.13 63921.13 0 1 1 -127842.26 0"/>
<path id="N" d="M 8999999.87 19650000.00 m -63921.13 0 a 63921.13 63921.13 0 1 1 127842.26 0a 63921.13 63921.13 0 1 1 -127842.26 0"/>
<path id="N" d="M 6849999.87 19476772.00 m -63921.13 0 a 63921.13 63921.13 0 1 1 127842.26 0a 63921.13 63921.13 0 1 1 -127842.26 0"/>
<path id="N" d="M 8849999.87 17400000.00 m -63921.13 0 a 63921.13 63921.13 0 1 1 127842.26 0a 63921.13 63921.13 0 1 1 -127842.26 0"/>
<path id="N" d="M 7299999.87 17700000.00 m -63921.13 0 a 63921.13 63921.13 0 1 1 127842.26 0a 63921.13 63921.13 0 1 1 -127842.26 0"/>
<path id="N" d="M 8399999.87 18850000.00 m -63921.13 0 a 63921.13 63921.13 0 1 1 127842.26 0a 63921.13 63921.13 0 1 1 -127842.26 0"/>
<path id="N" d="M 8399999.87 19250000.00 m -63921.13 0 a 63921.13 63921.13 0 1 1 127842.26 0a 63921.13 63921.13 0 1 1 -127842.26 0"/>
<path id="N" d="M 13799999.87 18850000.00 m -63921.13 0 a 63921.13 63921.13 0 1 1 127842.26 0a 63921.13 63921.13 0 1 1 -127842.26 0"/>
<path id="N" d="M 12449999.87 18950000.00 m -63921.13 0 a 63921.13 63921.13 0 1 1 127842.26 0a 63921.13 63921.13 0 1 1 -127842.26 0"/>
<path id="N" d="M 10433070.87 18985039.00 m -63921.13 0 a 63921.13 63921.13 0 1 1 127842.26 0a 63921.13 63921.13 0 1 1 -127842.26 0"/>
<path id="N" d="M 9566928.87 19614961.00 m -63921.13 0 a 63921.13 63921.13 0 1 1 127842.26 0a 63921.13 63921.13 0 1 1 -127842.26 0"/>
<path id="N" d="M 10867716.87 19600000.00 m -63921.13 0 a 63921.13 63921.13 0 1 1 127842.26 0a 63921.13 63921.13 0 1 1 -127842.26 0"/>
<path id="N" d="M 12149999.87 19326772.00 m -63921.13 0 a 63921.13 63921.13 0 1 1 127842.26 0a 63921.13 63921.13 0 1 1 -127842.26 0"/>
<path id="N" d="M 9446370.87 18569281.00 m -63921.13 0 a 63921.13 63921.13 0 1 1 127842.26 0a 63921.13 63921.13 0 1 1 -127842.26 0"/>
<path id="N" d="M 9123460.87 18569281.00 m -63921.13 0 a 63921.13 63921.13 0 1 1 127842.26 0a 63921.13 63921.13 0 1 1 -127842.26 0"/>
<path id="N" d="M 10848834.87 18825981.00 m -63921.13 0 a 63921.13 63921.13 0 1 1 127842.26 0a 63921.13 63921.13 0 1 1 -127842.26 0"/>
<path id="N" d="M 10845417.87 18598194.00 m -63921.13 0 a 63921.13 63921.13 0 1 1 127842.26 0a 63921.13 63921.13 0 1 1 -127842.26 0"/>
<path id="N" d="M 13049999.87 16900000.00 m -63921.13 0 a 63921.13 63921.13 0 1 1 127842.26 0a 63921.13 63921.13 0 1 1 -127842.26 0"/>
<path id="N" d="M 12649999.87 16900000.00 m -63921.13 0 a 63921.13 63921.13 0 1 1 127842.26 0a 63921.13 63921.13 0 1 1 -127842.26 0"/>
<path id="N" d="M 12167932.87 18037401.00 m -63921.13 0 a 63921.13 63921.13 0 1 1 127842.26 0a 63921.13 63921.13 0 1 1 -127842.26 0"/>
<path id="N" d="M 6899999.87 17000000.00 m -63921.13 0 a 63921.13 63921.13 0 1 1 127842.26 0a 63921.13 63921.13 0 1 1 -127842.26 0"/>
<path id="N" d="M 10369880.87 18650000.00 m -63921.13 0 a 63921.13 63921.13 0 1 1 127842.26 0a 63921.13 63921.13 0 1 1 -127842.26 0"/>
<path id="N" d="M 4549999.87 18600000.00 m -63921.13 0 a 63921.13 63921.13 0 1 1 127842.26 0a 63921.13 63921.13 0 1 1 -127842.26 0"/>
<path id="N" d="M 9930096.87 18408465.00 m -63921.13 0 a 63921.13 63921.13 0 1 1 127842.26 0a 63921.13 63921.13 0 1 1 -127842.26 0"/>
<path id="N" d="M 14699999.87 13750000.00 m -63921.13 0 a 63921.13 63921.13 0 1 1 127842.26 0a 63921.13 63921.13 0 1 1 -127842.26 0"/>
<path id="N" d="M 14499999.87 13800000.00 m -63921.13 0 a 63921.13 63921.13 0 1 1 127842.26 0a 63921.13 63921.13 0 1 1 -127842.26 0"/>
<path id="N" d="M 7910740.87 14420472.00 m -63921.13 0 a 63921.13 63921.13 0 1 1 127842.26 0a 63921.13 63921.13 0 1 1 -127842.26 0"/>
<path id="N" d="M 6549999.87 14050000.00 m -63921.13 0 a 63921.13 63921.13 0 1 1 127842.26 0a 63921.13 63921.13 0 1 1 -127842.26 0"/>
<path id="N" d="M 10749999.87 14350000.00 m -63921.13 0 a 63921.13 63921.13 0 1 1 127842.26 0a 63921.13 63921.13 0 1 1 -127842.26 0"/>
<path id="N" d="M 12499999.87 9400000.00 m -63921.13 0 a 63921.13 63921.13 0 1 1 127842.26 0a 63921.13 63921.13 0 1 1 -127842.26 0"/>
<path id="N" d="M 11249999.87 9350000.00 m -63921.13 0 a 63921.13 63921.13 0 1 1 127842.26 0a 63921.13 63921.13 0 1 1 -127842.26 0"/>
<path id="N" d="M 6599999.87 15650000.00 m -63921.13 0 a 63921.13 63921.13 0 1 1 127842.26 0a 63921.13 63921.13 0 1 1 -127842.26 0"/>
<path id="N" d="M 11365938.87 13887402.00 m -63921.13 0 a 63921.13 63921.13 0 1 1 127842.26 0a 63921.13 63921.13 0 1 1 -127842.26 0"/>
<path id="N" d="M 5549999.87 14500000.00 m -63921.13 0 a 63921.13 63921.13 0 1 1 127842.26 0a 63921.13 63921.13 0 1 1 -127842.26 0"/>
<path id="N" d="M 12999999.87 21300000.00 m -63921.13 0 a 63921.13 63921.13 0 1 1 127842.26 0a 63921.13 63921.13 0 1 1 -127842.26 0"/>
<path id="N" d="M 12614166.87 21725761.00 m -63921.13 0 a 63921.13 63921.13 0 1 1 127842.26 0a 63921.13 63921.13 0 1 1 -127842.26 0"/>
<path id="N" d="M 14299999.87 21150000.00 m -63921.13 0 a 63921.13 63921.13 0 1 1 127842.26 0a 63921.13 63921.13 0 1 1 -127842.26 0"/>
<path id="N" d="M 12614166.87 21071431.00 m -63921.13 0 a 63921.13 63921.13 0 1 1 127842.26 0a 63921.13 63921.13 0 1 1 -127842.26 0"/>
<path id="N" d="M 14099999.87 21150000.00 m -63921.13 0 a 63921.13 63921.13 0 1 1 127842.26 0a 63921.13 63921.13 0 1 1 -127842.26 0"/>
<path id="N" d="M 12614166.87 21507651.00 m -63921.13 0 a 63921.13 63921.13 0 1 1 127842.26 0a 63921.13 63921.13 0 1 1 -127842.26 0"/>
<path id="N" d="M 12185832.87 21596691.00 m -63921.13 0 a 63921.13 63921.13 0 1 1 127842.26 0a 63921.13 63921.13 0 1 1 -127842.26 0"/>
<path id="N" d="M 12185832.87 21378581.00 m -63921.13 0 a 63921.13 63921.13 0 1 1 127842.26 0a 63921.13 63921.13 0 1 1 -127842.26 0"/>
<path id="N" d="M 12146953.87 21811308.00 m -63921.13 0 a 63921.13 63921.13 0 1 1 127842.26 0a 63921.13 63921.13 0 1 1 -127842.26 0"/>
<path id="N" d="M 12780158.87 21867248.00 m -63921.13 0 a 63921.13 63921.13 0 1 1 127842.26 0a 63921.13 63921.13 0 1 1 -127842.26 0"/>
<path id="N" d="M 5999999.87 12950000.00 m -63921.13 0 a 63921.13 63921.13 0 1 1 127842.26 0a 63921.13 63921.13 0 1 1 -127842.26 0"/>
<path id="N" d="M 10236219.87 12172998.00 m -63921.13 0 a 63921.13 63921.13 0 1 1 127842.26 0a 63921.13 63921.13 0 1 1 -127842.26 0"/>
<path id="N" d="M 15099999.87 12900000.00 m -63921.13 0 a 63921.13 63921.13 0 1 1 127842.26 0a 63921.13 63921.13 0 1 1 -127842.26 0"/>
<path id="N" d="M 9291338.87 12172997.00 m -63921.13 0 a 63921.13 63921.13 0 1 1 127842.26 0a 63921.13 63921.13 0 1 1 -127842.26 0"/>
<path id="N" d="M 5999999.87 12600000.00 m -63921.13 0 a 63921.13 63921.13 0 1 1 127842.26 0a 63921.13 63921.13 0 1 1 -127842.26 0"/>
<path id="N" d="M 12149999.87 19023228.00 m -63921.13 0 a 63921.13 63921.13 0 1 1 127842.26 0a 63921.13 63921.13 0 1 1 -127842.26 0"/>
<path id="N" d="M 8818897.87 19050000.00 m -63921.13 0 a 63921.13 63921.13 0 1 1 127842.26 0a 63921.13 63921.13 0 1 1 -127842.26 0"/>
<path id="N" d="M 4932065.87 16462598.00 m -63921.13 0 a 63921.13 63921.13 0 1 1 127842.26 0a 63921.13 63921.13 0 1 1 -127842.26 0"/>
<path id="N" d="M 8346456.87 12417323.00 m -63921.13 0 a 63921.13 63921.13 0 1 1 127842.26 0a 63921.13 63921.13 0 1 1 -127842.26 0"/>
<path id="N" d="M 8818897.87 12417323.00 m -63921.13 0 a 63921.13 63921.13 0 1 1 127842.26 0a 63921.13 63921.13 0 1 1 -127842.26 0"/>
<path id="N" d="M 11923227.87 13450000.00 m -63921.13 0 a 63921.13 63921.13 0 1 1 127842.26 0a 63921.13 63921.13 0 1 1 -127842.26 0"/>
<path id="N" d="M 10866141.87 11204725.00 m -63921.13 0 a 63921.13 63921.13 0 1 1 127842.26 0a 63921.13 63921.13 0 1 1 -127842.26 0"/>
<path id="N" d="M 6699999.87 15200000.00 m -63921.13 0 a 63921.13 63921.13 0 1 1 127842.26 0a 63921.13 63921.13 0 1 1 -127842.26 0"/>
<path id="N" d="M 6649999.87 14650000.00 m -63921.13 0 a 63921.13 63921.13 0 1 1 127842.26 0a 63921.13 63921.13 0 1 1 -127842.26 0"/>
<path id="N" d="M 14749999.87 14900000.00 m -63921.13 0 a 63921.13 63921.13 0 1 1 127842.26 0a 63921.13 63921.13 0 1 1 -127842.26 0"/>
<path id="N" d="M 9599999.87 10909055.00 m -63921.13 0 a 63921.13 63921.13 0 1 1 127842.26 0a 63921.13 63921.13 0 1 1 -127842.26 0"/>
<path id="N" d="M 12949999.87 10517324.00 m -63921.13 0 a 63921.13 63921.13 0 1 1 127842.26 0a 63921.13 63921.13 0 1 1 -127842.26 0"/>
<path id="N" d="M 6799999.87 11150000.00 m -63921.13 0 a 63921.13 63921.13 0 1 1 127842.26 0a 63921.13 63921.13 0 1 1 -127842.26 0"/>
<path id="N" d="M 11181102.87 11204725.00 m -63921.13 0 a 63921.13 63921.13 0 1 1 127842.26 0a 63921.13 63921.13 0 1 1 -127842.26 0"/>
<path id="N" d="M 9707191.87 12132852.00 m -63921.13 0 a 63921.13 63921.13 0 1 1 127842.26 0a 63921.13 63921.13 0 1 1 -127842.26 0"/>
<path id="N" d="M 12614166.87 21289541.00 m -63921.13 0 a 63921.13 63921.13 0 1 1 127842.26 0a 63921.13 63921.13 0 1 1 -127842.26 0"/>
<path id="N" d="M 12856206.87 6749443.00 m -63921.13 0 a 63921.13 63921.13 0 1 1 127842.26 0a 63921.13 63921.13 0 1 1 -127842.26 0"/>
<path id="N" d="M 13106206.87 6749443.00 m -63921.13 0 a 63921.13 63921.13 0 1 1 127842.26 0a 63921.13 63921.13 0 1 1 -127842.26 0"/>
<path id="N" d="M 12956206.87 6549443.00 m -63921.13 0 a 63921.13 63921.13 0 1 1 127842.26 0a 63921.13 63921.13 0 1 1 -127842.26 0"/>
<path id="N" d="M 12456206.87 6549443.00 m -63921.13 0 a 63921.13 63921.13 0 1 1 127842.26 0a 63921.13 63921.13 0 1 1 -127842.26 0"/>
<path id="N" d="M 12706206.87 6549443.00 m -63921.13 0 a 63921.13 63921.13 0 1 1 127842.26 0a 63921.13 63921.13 0 1 1 -127842.26 0"/>
<path id="N" d="M 11606206.87 6749443.00 m -63921.13 0 a 63921.13 63921.13 0 1 1 127842.26 0a 63921.13 63921.13 0 1 1 -127842.26 0"/>
<path id="N" d="M 11856206.87 6749443.00 m -63921.13 0 a 63921.13 63921.13 0 1 1 127842.26 0a 63921.13 63921.13 0 1 1 -127842.26 0"/>
<path id="N" d="M 13449999.87 6550000.00 m -63921.13 0 a 63921.13 63921.13 0 1 1 127842.26 0a 63921.13 63921.13 0 1 1 -127842.26 0"/>
<path id="N" d="M 13356206.87 6749443.00 m -63921.13 0 a 63921.13 63921.13 0 1 1 127842.26 0a 63921.13 63921.13 0 1 1 -127842.26 0"/>
<path id="N" d="M 12606206.87 6749443.00 m -63921.13 0 a 63921.13 63921.13 0 1 1 127842.26 0a 63921.13 63921.13 0 1 1 -127842.26 0"/>
<path id="N" d="M 6499999.87 6800000.00 m -63921.13 0 a 63921.13 63921.13 0 1 1 127842.26 0a 63921.13 63921.13 0 1 1 -127842.26 0"/>
<path id="N" d="M 6749999.87 6800000.00 m -63921.13 0 a 63921.13 63921.13 0 1 1 127842.26 0a 63921.13 63921.13 0 1 1 -127842.26 0"/>
<path id="N" d="M 14751574.87 7448425.00 m -63921.13 0 a 63921.13 63921.13 0 1 1 127842.26 0a 63921.13 63921.13 0 1 1 -127842.26 0"/>
<path id="N" d="M 12400407.87 9149439.00 m -63921.13 0 a 63921.13 63921.13 0 1 1 127842.26 0a 63921.13 63921.13 0 1 1 -127842.26 0"/>
<path id="N" d="M 5349999.87 9300000.00 m -63921.13 0 a 63921.13 63921.13 0 1 1 127842.26 0a 63921.13 63921.13 0 1 1 -127842.26 0"/>
<path id="N" d="M 12199999.87 6550000.00 m -63921.13 0 a 63921.13 63921.13 0 1 1 127842.26 0a 63921.13 63921.13 0 1 1 -127842.26 0"/>
<path id="N" d="M 13206206.87 6549443.00 m -63921.13 0 a 63921.13 63921.13 0 1 1 127842.26 0a 63921.13 63921.13 0 1 1 -127842.26 0"/>
<path id="N" d="M 11949999.87 6550000.00 m -63921.13 0 a 63921.13 63921.13 0 1 1 127842.26 0a 63921.13 63921.13 0 1 1 -127842.26 0"/>
<path id="N" d="M 9399999.87 7250000.00 m -63921.13 0 a 63921.13 63921.13 0 1 1 127842.26 0a 63921.13 63921.13 0 1 1 -127842.26 0"/>
<path id="N" d="M 11199999.87 6550000.00 m -63921.13 0 a 63921.13 63921.13 0 1 1 127842.26 0a 63921.13 63921.13 0 1 1 -127842.26 0"/>
<path id="N" d="M 12806206.87 4749443.00 m -63921.13 0 a 63921.13 63921.13 0 1 1 127842.26 0a 63921.13 63921.13 0 1 1 -127842.26 0"/>
<path id="N" d="M 13056206.87 4349443.00 m -63921.13 0 a 63921.13 63921.13 0 1 1 127842.26 0a 63921.13 63921.13 0 1 1 -127842.26 0"/>
<path id="N" d="M 12556206.87 4749443.00 m -63921.13 0 a 63921.13 63921.13 0 1 1 127842.26 0a 63921.13 63921.13 0 1 1 -127842.26 0"/>
<path id="N" d="M 13056206.87 4749443.00 m -63921.13 0 a 63921.13 63921.13 0 1 1 127842.26 0a 63921.13 63921.13 0 1 1 -127842.26 0"/>
<path id="N" d="M 11806206.87 4749443.00 m -63921.13 0 a 63921.13 63921.13 0 1 1 127842.26 0a 63921.13 63921.13 0 1 1 -127842.26 0"/>
<path id="N" d="M 11556206.87 4349443.00 m -63921.13 0 a 63921.13 63921.13 0 1 1 127842.26 0a 63921.13 63921.13 0 1 1 -127842.26 0"/>
<path id="N" d="M 11806206.87 4349443.00 m -63921.13 0 a 63921.13 63921.13 0 1 1 127842.26 0a 63921.13 63921.13 0 1 1 -127842.26 0"/>
<path id="N" d="M 12806206.87 4349443.00 m -63921.13 0 a 63921.13 63921.13 0 1 1 127842.26 0a 63921.13 63921.13 0 1 1 -127842.26 0"/>
<path id="N" d="M 13306206.87 4349443.00 m -63921.13 0 a 63921.13 63921.13 0 1 1 127842.26 0a 63921.13 63921.13 0 1 1 -127842.26 0"/>
<path id="N" d="M 11299999.87 4350000.00 m -63921.13 0 a 63921.13 63921.13 0 1 1 127842.26 0a 63921.13 63921.13 0 1 1 -127842.26 0"/>
<path id="N" d="M 12149999.87 4550000.00 m -63921.13 0 a 63921.13 63921.13 0 1 1 127842.26 0a 63921.13 63921.13 0 1 1 -127842.26 0"/>
<path id="N" d="M 13156206.87 4549443.00 m -63921.13 0 a 63921.13 63921.13 0 1 1 127842.26 0a 63921.13 63921.13 0 1 1 -127842.26 0"/>
<path id="N" d="M 11556206.87 4749443.00 m -63921.13 0 a 63921.13 63921.13 0 1 1 127842.26 0a 63921.13 63921.13 0 1 1 -127842.26 0"/>
<path id="N" d="M 12399999.87 4550000.00 m -63921.13 0 a 63921.13 63921.13 0 1 1 127842.26 0a 63921.13 63921.13 0 1 1 -127842.26 0"/>
<path id="N" d="M 13649999.87 4550000.00 m -63921.13 0 a 63921.13 63921.13 0 1 1 127842.26 0a 63921.13 63921.13 0 1 1 -127842.26 0"/>
<path id="N" d="M 11299999.87 4750000.00 m -63921.13 0 a 63921.13 63921.13 0 1 1 127842.26 0a 63921.13 63921.13 0 1 1 -127842.26 0"/>
<path id="N" d="M 12049999.87 4750000.00 m -63921.13 0 a 63921.13 63921.13 0 1 1 127842.26 0a 63921.13 63921.13 0 1 1 -127842.26 0"/>
<path id="N" d="M 13306206.87 4749443.00 m -63921.13 0 a 63921.13 63921.13 0 1 1 127842.26 0a 63921.13 63921.13 0 1 1 -127842.26 0"/>
<path id="N" d="M 13406206.87 4549443.00 m -63921.13 0 a 63921.13 63921.13 0 1 1 127842.26 0a 63921.13 63921.13 0 1 1 -127842.26 0"/>
<path id="N" d="M 11399999.87 4550000.00 m -63921.13 0 a 63921.13 63921.13 0 1 1 127842.26 0a 63921.13 63921.13 0 1 1 -127842.26 0"/>
<path id="N" d="M 11599999.87 6300000.00 m -63921.13 0 a 63921.13 63921.13 0 1 1 127842.26 0a 63921.13 63921.13 0 1 1 -127842.26 0"/>
<path id="N" d="M 14049999.87 6150000.00 m -63921.13 0 a 63921.13 63921.13 0 1 1 127842.26 0a 63921.13 63921.13 0 1 1 -127842.26 0"/>
<path id="N" d="M 11456206.87 6549443.00 m -63921.13 0 a 63921.13 63921.13 0 1 1 127842.26 0a 63921.13 63921.13 0 1 1 -127842.26 0"/>
<path id="N" d="M 11843792.87 6300557.00 m -63921.13 0 a 63921.13 63921.13 0 1 1 127842.26 0a 63921.13 63921.13 0 1 1 -127842.26 0"/>
<path id="N" d="M 12093792.87 6300557.00 m -63921.13 0 a 63921.13 63921.13 0 1 1 127842.26 0a 63921.13 63921.13 0 1 1 -127842.26 0"/>
<path id="N" d="M 12806206.87 5599443.00 m -63921.13 0 a 63921.13 63921.13 0 1 1 127842.26 0a 63921.13 63921.13 0 1 1 -127842.26 0"/>
<path id="N" d="M 13056206.87 5599443.00 m -63921.13 0 a 63921.13 63921.13 0 1 1 127842.26 0a 63921.13 63921.13 0 1 1 -127842.26 0"/>
<path id="N" d="M 11806206.87 5599443.00 m -63921.13 0 a 63921.13 63921.13 0 1 1 127842.26 0a 63921.13 63921.13 0 1 1 -127842.26 0"/>
<path id="N" d="M 15026771.87 6200000.00 m -63921.13 0 a 63921.13 63921.13 0 1 1 127842.26 0a 63921.13 63921.13 0 1 1 -127842.26 0"/>
<path id="N" d="M 11349999.87 6300000.00 m -63921.13 0 a 63921.13 63921.13 0 1 1 127842.26 0a 63921.13 63921.13 0 1 1 -127842.26 0"/>
<path id="N" d="M 12199999.87 6100000.00 m -63921.13 0 a 63921.13 63921.13 0 1 1 127842.26 0a 63921.13 63921.13 0 1 1 -127842.26 0"/>
<path id="N" d="M 11693792.87 6100557.00 m -63921.13 0 a 63921.13 63921.13 0 1 1 127842.26 0a 63921.13 63921.13 0 1 1 -127842.26 0"/>
<path id="N" d="M 12099999.87 5850000.00 m -63921.13 0 a 63921.13 63921.13 0 1 1 127842.26 0a 63921.13 63921.13 0 1 1 -127842.26 0"/>
<path id="N" d="M 11199999.87 6100000.00 m -63921.13 0 a 63921.13 63921.13 0 1 1 127842.26 0a 63921.13 63921.13 0 1 1 -127842.26 0"/>
<path id="N" d="M 11849999.87 5850000.00 m -63921.13 0 a 63921.13 63921.13 0 1 1 127842.26 0a 63921.13 63921.13 0 1 1 -127842.26 0"/>
<path id="N" d="M 11943792.87 6100557.00 m -63921.13 0 a 63921.13 63921.13 0 1 1 127842.26 0a 63921.13 63921.13 0 1 1 -127842.26 0"/>
<path id="N" d="M 11449999.87 6100000.00 m -63921.13 0 a 63921.13 63921.13 0 1 1 127842.26 0a 63921.13 63921.13 0 1 1 -127842.26 0"/>
<path id="N" d="M 6099999.87 6800000.00 m -63921.13 0 a 63921.13 63921.13 0 1 1 127842.26 0a 63921.13 63921.13 0 1 1 -127842.26 0"/>
<path id="N" d="M 6299999.87 6800000.00 m -63921.13 0 a 63921.13 63921.13 0 1 1 127842.26 0a 63921.13 63921.13 0 1 1 -127842.26 0"/>
<path id="N" d="M 5899999.87 6800000.00 m -63921.13 0 a 63921.13 63921.13 0 1 1 127842.26 0a 63921.13 63921.13 0 1 1 -127842.26 0"/>
<path id="N" d="M 12049999.87 5600000.00 m -63921.13 0 a 63921.13 63921.13 0 1 1 127842.26 0a 63921.13 63921.13 0 1 1 -127842.26 0"/>
<path id="N" d="M 11706206.87 6549443.00 m -63921.13 0 a 63921.13 63921.13 0 1 1 127842.26 0a 63921.13 63921.13 0 1 1 -127842.26 0"/>
<path id="N" d="M 12349999.87 6750000.00 m -63921.13 0 a 63921.13 63921.13 0 1 1 127842.26 0a 63921.13 63921.13 0 1 1 -127842.26 0"/>
<path id="N" d="M 4449999.87 8300000.00 m -63921.13 0 a 63921.13 63921.13 0 1 1 127842.26 0a 63921.13 63921.13 0 1 1 -127842.26 0"/>
<path id="N" d="M 12099999.87 6750000.00 m -63921.13 0 a 63921.13 63921.13 0 1 1 127842.26 0a 63921.13 63921.13 0 1 1 -127842.26 0"/>
<path id="N" d="M 13599999.87 6750000.00 m -63921.13 0 a 63921.13 63921.13 0 1 1 127842.26 0a 63921.13 63921.13 0 1 1 -127842.26 0"/>
<path id="N" d="M 11349999.87 6750000.00 m -63921.13 0 a 63921.13 63921.13 0 1 1 127842.26 0a 63921.13 63921.13 0 1 1 -127842.26 0"/>
<path id="N" d="M 13649999.87 5350000.00 m -63921.13 0 a 63921.13 63921.13 0 1 1 127842.26 0a 63921.13 63921.13 0 1 1 -127842.26 0"/>
<path id="N" d="M 13549999.87 5600000.00 m -63921.13 0 a 63921.13 63921.13 0 1 1 127842.26 0a 63921.13 63921.13 0 1 1 -127842.26 0"/>
<path id="N" d="M 12399999.87 5350000.00 m -63921.13 0 a 63921.13 63921.13 0 1 1 127842.26 0a 63921.13 63921.13 0 1 1 -127842.26 0"/>
<path id="N" d="M 11556206.87 5599443.00 m -63921.13 0 a 63921.13 63921.13 0 1 1 127842.26 0a 63921.13 63921.13 0 1 1 -127842.26 0"/>
<path id="N" d="M 12149999.87 5350000.00 m -63921.13 0 a 63921.13 63921.13 0 1 1 127842.26 0a 63921.13 63921.13 0 1 1 -127842.26 0"/>
<path id="N" d="M 13306206.87 5599443.00 m -63921.13 0 a 63921.13 63921.13 0 1 1 127842.26 0a 63921.13 63921.13 0 1 1 -127842.26 0"/>
<path id="N" d="M 11299999.87 5600000.00 m -63921.13 0 a 63921.13 63921.13 0 1 1 127842.26 0a 63921.13 63921.13 0 1 1 -127842.26 0"/>
<path id="N" d="M 12299999.87 5600000.00 m -63921.13 0 a 63921.13 63921.13 0 1 1 127842.26 0a 63921.13 63921.13 0 1 1 -127842.26 0"/>
<path id="N" d="M 11356206.87 5849443.00 m -63921.13 0 a 63921.13 63921.13 0 1 1 127842.26 0a 63921.13 63921.13 0 1 1 -127842.26 0"/>
<path id="N" d="M 11606206.87 5849443.00 m -63921.13 0 a 63921.13 63921.13 0 1 1 127842.26 0a 63921.13 63921.13 0 1 1 -127842.26 0"/>
<path id="N" d="M 12556206.87 4349443.00 m -63921.13 0 a 63921.13 63921.13 0 1 1 127842.26 0a 63921.13 63921.13 0 1 1 -127842.26 0"/>
<path id="N" d="M 11049999.87 19650000.00 m -63921.13 0 a 63921.13 63921.13 0 1 1 127842.26 0a 63921.13 63921.13 0 1 1 -127842.26 0"/>
<path id="N" d="M 12464261.87 19790745.00 m -63921.13 0 a 63921.13 63921.13 0 1 1 127842.26 0a 63921.13 63921.13 0 1 1 -127842.26 0"/>
<path id="N" d="M 9449999.87 20100000.00 m -63921.13 0 a 63921.13 63921.13 0 1 1 127842.26 0a 63921.13 63921.13 0 1 1 -127842.26 0"/>
<path id="N" d="M 14599999.87 20000000.00 m -63921.13 0 a 63921.13 63921.13 0 1 1 127842.26 0a 63921.13 63921.13 0 1 1 -127842.26 0"/>
<path id="N" d="M 9884646.87 20050000.00 m -63921.13 0 a 63921.13 63921.13 0 1 1 127842.26 0a 63921.13 63921.13 0 1 1 -127842.26 0"/>
<path id="N" d="M 12566229.87 20421403.00 m -63921.13 0 a 63921.13 63921.13 0 1 1 127842.26 0a 63921.13 63921.13 0 1 1 -127842.26 0"/>
<path id="N" d="M 11287334.87 20427390.00 m -63921.13 0 a 63921.13 63921.13 0 1 1 127842.26 0a 63921.13 63921.13 0 1 1 -127842.26 0"/>
<path id="N" d="M 11074684.87 20378894.00 m -63921.13 0 a 63921.13 63921.13 0 1 1 127842.26 0a 63921.13 63921.13 0 1 1 -127842.26 0"/>
<path id="N" d="M 5399999.87 20000000.00 m -63921.13 0 a 63921.13 63921.13 0 1 1 127842.26 0a 63921.13 63921.13 0 1 1 -127842.26 0"/>
<path id="N" d="M 10915079.87 20230239.00 m -63921.13 0 a 63921.13 63921.13 0 1 1 127842.26 0a 63921.13 63921.13 0 1 1 -127842.26 0"/>
<path id="N" d="M 12185832.87 20942361.00 m -63921.13 0 a 63921.13 63921.13 0 1 1 127842.26 0a 63921.13 63921.13 0 1 1 -127842.26 0"/>
<path id="N" d="M 14099999.87 20950000.00 m -63921.13 0 a 63921.13 63921.13 0 1 1 127842.26 0a 63921.13 63921.13 0 1 1 -127842.26 0"/>
<path id="N" d="M 14499999.87 20700000.00 m -63921.13 0 a 63921.13 63921.13 0 1 1 127842.26 0a 63921.13 63921.13 0 1 1 -127842.26 0"/>
<path id="N" d="M 12609031.87 20635272.00 m -63921.13 0 a 63921.13 63921.13 0 1 1 127842.26 0a 63921.13 63921.13 0 1 1 -127842.26 0"/>
<path id="N" d="M 6572834.87 20700000.00 m -63921.13 0 a 63921.13 63921.13 0 1 1 127842.26 0a 63921.13 63921.13 0 1 1 -127842.26 0"/>
<path id="N" d="M 12614166.87 20853321.00 m -63921.13 0 a 63921.13 63921.13 0 1 1 127842.26 0a 63921.13 63921.13 0 1 1 -127842.26 0"/>
<path id="N" d="M 11505444.87 20427390.00 m -63921.13 0 a 63921.13 63921.13 0 1 1 127842.26 0a 63921.13 63921.13 0 1 1 -127842.26 0"/>
<path id="N" d="M 12185832.87 20724251.00 m -63921.13 0 a 63921.13 63921.13 0 1 1 127842.26 0a 63921.13 63921.13 0 1 1 -127842.26 0"/>
<path id="N" d="M 14299999.87 20950000.00 m -63921.13 0 a 63921.13 63921.13 0 1 1 127842.26 0a 63921.13 63921.13 0 1 1 -127842.26 0"/>
<path id="N" d="M 15149999.87 20700000.00 m -63921.13 0 a 63921.13 63921.13 0 1 1 127842.26 0a 63921.13 63921.13 0 1 1 -127842.26 0"/>
<path id="N" d="M 11249999.87 23200000.00 m -63921.13 0 a 63921.13 63921.13 0 1 1 127842.26 0a 63921.13 63921.13 0 1 1 -127842.26 0"/>
<path id="N" d="M 11969363.87 22603152.00 m -63921.13 0 a 63921.13 63921.13 0 1 1 127842.26 0a 63921.13 63921.13 0 1 1 -127842.26 0"/>
<path id="N" d="M 13499999.87 23150000.00 m -63921.13 0 a 63921.13 63921.13 0 1 1 127842.26 0a 63921.13 63921.13 0 1 1 -127842.26 0"/>
<path id="N" d="M 12830635.87 22515657.00 m -63921.13 0 a 63921.13 63921.13 0 1 1 127842.26 0a 63921.13 63921.13 0 1 1 -127842.26 0"/>
<path id="N" d="M 12830635.87 22951877.00 m -63921.13 0 a 63921.13 63921.13 0 1 1 127842.26 0a 63921.13 63921.13 0 1 1 -127842.26 0"/>
<path id="N" d="M 14499999.87 21150000.00 m -63921.13 0 a 63921.13 63921.13 0 1 1 127842.26 0a 63921.13 63921.13 0 1 1 -127842.26 0"/>
<path id="N" d="M 12185832.87 21160471.00 m -63921.13 0 a 63921.13 63921.13 0 1 1 127842.26 0a 63921.13 63921.13 0 1 1 -127842.26 0"/>
<path id="N" d="M 11977787.87 21948985.00 m -63921.13 0 a 63921.13 63921.13 0 1 1 127842.26 0a 63921.13 63921.13 0 1 1 -127842.26 0"/>
<path id="N" d="M 12830635.87 22733767.00 m -63921.13 0 a 63921.13 63921.13 0 1 1 127842.26 0a 63921.13 63921.13 0 1 1 -127842.26 0"/>
<path id="N" d="M 11969363.87 22821262.00 m -63921.13 0 a 63921.13 63921.13 0 1 1 127842.26 0a 63921.13 63921.13 0 1 1 -127842.26 0"/>
<path id="N" d="M 14499999.87 20950000.00 m -63921.13 0 a 63921.13 63921.13 0 1 1 127842.26 0a 63921.13 63921.13 0 1 1 -127842.26 0"/>
<path id="N" d="M 11969363.87 22166932.00 m -63921.13 0 a 63921.13 63921.13 0 1 1 127842.26 0a 63921.13 63921.13 0 1 1 -127842.26 0"/>
<path id="N" d="M 10449213.87 20300787.00 m -63921.13 0 a 63921.13 63921.13 0 1 1 127842.26 0a 63921.13 63921.13 0 1 1 -127842.26 0"/>
<path id="N" d="M 5799999.87 20300000.00 m -63921.13 0 a 63921.13 63921.13 0 1 1 127842.26 0a 63921.13 63921.13 0 1 1 -127842.26 0"/>
<path id="N" d="M 9825393.87 20300787.00 m -63921.13 0 a 63921.13 63921.13 0 1 1 127842.26 0a 63921.13 63921.13 0 1 1 -127842.26 0"/>
<path id="N" d="M 13499999.87 22000000.00 m -63921.13 0 a 63921.13 63921.13 0 1 1 127842.26 0a 63921.13 63921.13 0 1 1 -127842.26 0"/>
<path id="N" d="M 12830635.87 22079437.00 m -63921.13 0 a 63921.13 63921.13 0 1 1 127842.26 0a 63921.13 63921.13 0 1 1 -127842.26 0"/>
<path id="N" d="M 11249999.87 22000000.00 m -63921.13 0 a 63921.13 63921.13 0 1 1 127842.26 0a 63921.13 63921.13 0 1 1 -127842.26 0"/>
<path id="N" d="M 12830635.87 22297547.00 m -63921.13 0 a 63921.13 63921.13 0 1 1 127842.26 0a 63921.13 63921.13 0 1 1 -127842.26 0"/>
<path id="N" d="M 11969363.87 22385042.00 m -63921.13 0 a 63921.13 63921.13 0 1 1 127842.26 0a 63921.13 63921.13 0 1 1 -127842.26 0"/>
<path id="N" d="M 13056206.87 5149443.00 m -63921.13 0 a 63921.13 63921.13 0 1 1 127842.26 0a 63921.13 63921.13 0 1 1 -127842.26 0"/>
<path id="N" d="M 13306206.87 5149443.00 m -63921.13 0 a 63921.13 63921.13 0 1 1 127842.26 0a 63921.13 63921.13 0 1 1 -127842.26 0"/>
<path id="N" d="M 12806206.87 5149443.00 m -63921.13 0 a 63921.13 63921.13 0 1 1 127842.26 0a 63921.13 63921.13 0 1 1 -127842.26 0"/>
<path id="N" d="M 13549999.87 5150000.00 m -63921.13 0 a 63921.13 63921.13 0 1 1 127842.26 0a 63921.13 63921.13 0 1 1 -127842.26 0"/>
<path id="N" d="M 11299999.87 5150000.00 m -63921.13 0 a 63921.13 63921.13 0 1 1 127842.26 0a 63921.13 63921.13 0 1 1 -127842.26 0"/>
<path id="N" d="M 12906206.87 5349443.00 m -63921.13 0 a 63921.13 63921.13 0 1 1 127842.26 0a 63921.13 63921.13 0 1 1 -127842.26 0"/>
<path id="N" d="M 11656206.87 5349443.00 m -63921.13 0 a 63921.13 63921.13 0 1 1 127842.26 0a 63921.13 63921.13 0 1 1 -127842.26 0"/>
<path id="N" d="M 11399999.87 5350000.00 m -63921.13 0 a 63921.13 63921.13 0 1 1 127842.26 0a 63921.13 63921.13 0 1 1 -127842.26 0"/>
<path id="N" d="M 13156206.87 5349443.00 m -63921.13 0 a 63921.13 63921.13 0 1 1 127842.26 0a 63921.13 63921.13 0 1 1 -127842.26 0"/>
<path id="N" d="M 13406206.87 5349443.00 m -63921.13 0 a 63921.13 63921.13 0 1 1 127842.26 0a 63921.13 63921.13 0 1 1 -127842.26 0"/>
<path id="N" d="M 11656206.87 4549443.00 m -63921.13 0 a 63921.13 63921.13 0 1 1 127842.26 0a 63921.13 63921.13 0 1 1 -127842.26 0"/>
<path id="N" d="M 12049999.87 4350000.00 m -63921.13 0 a 63921.13 63921.13 0 1 1 127842.26 0a 63921.13 63921.13 0 1 1 -127842.26 0"/>
<path id="N" d="M 12906206.87 4549443.00 m -63921.13 0 a 63921.13 63921.13 0 1 1 127842.26 0a 63921.13 63921.13 0 1 1 -127842.26 0"/>
<path id="N" d="M 11906206.87 4549443.00 m -63921.13 0 a 63921.13 63921.13 0 1 1 127842.26 0a 63921.13 63921.13 0 1 1 -127842.26 0"/>
<path id="N" d="M 12656206.87 4549443.00 m -63921.13 0 a 63921.13 63921.13 0 1 1 127842.26 0a 63921.13 63921.13 0 1 1 -127842.26 0"/>
<path id="N" d="M 12049999.87 5150000.00 m -63921.13 0 a 63921.13 63921.13 0 1 1 127842.26 0a 63921.13 63921.13 0 1 1 -127842.26 0"/>
<path id="N" d="M 12299999.87 5150000.00 m -63921.13 0 a 63921.13 63921.13 0 1 1 127842.26 0a 63921.13 63921.13 0 1 1 -127842.26 0"/>
<path id="N" d="M 12299999.87 4750000.00 m -63921.13 0 a 63921.13 63921.13 0 1 1 127842.26 0a 63921.13 63921.13 0 1 1 -127842.26 0"/>
<path id="N" d="M 12299999.87 4350000.00 m -63921.13 0 a 63921.13 63921.13 0 1 1 127842.26 0a 63921.13 63921.13 0 1 1 -127842.26 0"/>
<path id="N" d="M 13549999.87 4350000.00 m -63921.13 0 a 63921.13 63921.13 0 1 1 127842.26 0a 63921.13 63921.13 0 1 1 -127842.26 0"/>
<path id="N" d="M 11399999.87 4950000.00 m -63921.13 0 a 63921.13 63921.13 0 1 1 127842.26 0a 63921.13 63921.13 0 1 1 -127842.26 0"/>
<path id="N" d="M 12149999.87 4950000.00 m -63921.13 0 a 63921.13 63921.13 0 1 1 127842.26 0a 63921.13 63921.13 0 1 1 -127842.26 0"/>
<path id="N" d="M 13649999.87 4950000.00 m -63921.13 0 a 63921.13 63921.13 0 1 1 127842.26 0a 63921.13 63921.13 0 1 1 -127842.26 0"/>
<path id="N" d="M 11806206.87 5149443.00 m -63921.13 0 a 63921.13 63921.13 0 1 1 127842.26 0a 63921.13 63921.13 0 1 1 -127842.26 0"/>
<path id="N" d="M 12556206.87 5149443.00 m -63921.13 0 a 63921.13 63921.13 0 1 1 127842.26 0a 63921.13 63921.13 0 1 1 -127842.26 0"/>
<path id="N" d="M 14299999.87 20700000.00 m -63921.13 0 a 63921.13 63921.13 0 1 1 127842.26 0a 63921.13 63921.13 0 1 1 -127842.26 0"/>
<path id="N" d="M 11723554.87 20427390.00 m -63921.13 0 a 63921.13 63921.13 0 1 1 127842.26 0a 63921.13 63921.13 0 1 1 -127842.26 0"/>
<path id="N" d="M 14099999.87 20700000.00 m -63921.13 0 a 63921.13 63921.13 0 1 1 127842.26 0a 63921.13 63921.13 0 1 1 -127842.26 0"/>
<path id="N" d="M 12399999.87 4950000.00 m -63921.13 0 a 63921.13 63921.13 0 1 1 127842.26 0a 63921.13 63921.13 0 1 1 -127842.26 0"/>
<path id="N" d="M 8927164.87 20700000.00 m -63921.13 0 a 63921.13 63921.13 0 1 1 127842.26 0a 63921.13 63921.13 0 1 1 -127842.26 0"/>
<path id="N" d="M 13156206.87 4949443.00 m -63921.13 0 a 63921.13 63921.13 0 1 1 127842.26 0a 63921.13 63921.13 0 1 1 -127842.26 0"/>
<path id="N" d="M 13406206.87 4949443.00 m -63921.13 0 a 63921.13 63921.13 0 1 1 127842.26 0a 63921.13 63921.13 0 1 1 -127842.26 0"/>
<path id="N" d="M 12906206.87 4949443.00 m -63921.13 0 a 63921.13 63921.13 0 1 1 127842.26 0a 63921.13 63921.13 0 1 1 -127842.26 0"/>
<path id="N" d="M 11906206.87 5349443.00 m -63921.13 0 a 63921.13 63921.13 0 1 1 127842.26 0a 63921.13 63921.13 0 1 1 -127842.26 0"/>
<path id="N" d="M 12656206.87 5349443.00 m -63921.13 0 a 63921.13 63921.13 0 1 1 127842.26 0a 63921.13 63921.13 0 1 1 -127842.26 0"/>
<path id="N" d="M 11906206.87 4949443.00 m -63921.13 0 a 63921.13 63921.13 0 1 1 127842.26 0a 63921.13 63921.13 0 1 1 -127842.26 0"/>
<path id="N" d="M 11556206.87 5149443.00 m -63921.13 0 a 63921.13 63921.13 0 1 1 127842.26 0a 63921.13 63921.13 0 1 1 -127842.26 0"/>
<path id="N" d="M 11656206.87 4949443.00 m -63921.13 0 a 63921.13 63921.13 0 1 1 127842.26 0a 63921.13 63921.13 0 1 1 -127842.26 0"/>
<path id="N" d="M 12656206.87 4949443.00 m -63921.13 0 a 63921.13 63921.13 0 1 1 127842.26 0a 63921.13 63921.13 0 1 1 -127842.26 0"/>
<path id="N" d="M 13549999.87 4750000.00 m -63921.13 0 a 63921.13 63921.13 0 1 1 127842.26 0a 63921.13 63921.13 0 1 1 -127842.26 0"/>
<path id="N" d="M 9145199.00 16254801.00 L 9121307.00 16244904.63 L 9121307.00 15300000.00 L 9115066.00 15284934.00 L 7221307.00 13391175.00 L 7221307.00 12945793.01 L 8212577.99 11954523.00 L 8828615.00 11954523.00 L 8843681.00 11948282.00 L 9825550.24 10966413.73 L 9841393.00 10972976.00 A 63920.91 63920.91 0 1 0 9777472.00 10909055.00 L 9790702.27 10940995.76 L 8819789.99 11911909.00 L 8203752.00 11911909.00 L 8188686.00 11918149.00 L 7184934.00 12921902.00 L 7178693.00 12936968.00 L 7178693.00 13400000.00 L 7184934.00 13415066.00 L 9078693.00 15308825.00 L 9078693.00 16244904.63 L 9054801.00 16254801.00 A 63921.13 63921.13 0 1 0 9145199.00 16254801.00  z"/>
<path id="N" d="M 7924881.00 20478029.00 L 7923723.28 20480824.00 L 7605978.06 20480824.00 L 7595199.00 20454801.00 A 63921.13 63921.13 0 1 0 7595199.00 20545199.00 L 7605978.06 20519176.00 L 7907837.39 20519176.00 L 7906159.00 20523228.00 A 63920.91 63920.91 0 1 0 7924881.00 20478029.00  z"/>
<path id="N" d="M 8642329.87 17510445.00 m -63921.13 0 a 63921.13 63921.13 0 1 1 127842.26 0a 63921.13 63921.13 0 1 1 -127842.26 0"/>
<path id="N" d="M 7399999.87 17500000.00 m -63921.13 0 a 63921.13 63921.13 0 1 1 127842.26 0a 63921.13 63921.13 0 1 1 -127842.26 0"/>
<path id="N" d="M 8104801.00 20654801.00 L 8094021.94 20680824.00 L 7807947.06 20680824.00 L 7797168.00 20654801.00 A 63921.13 63921.13 0 1 0 7797168.00 20745199.00 L 7807947.06 20719176.00 L 8094021.94 20719176.00 L 8104801.00 20745199.00 A 63921.13 63921.13 0 1 0 8104801.00 20654801.00  z"/>
<path id="N" d="M 13150000.00 18886079.00 L 13126107.55 18895975.55 L 12571307.00 18341175.00 L 12571307.00 17300000.00 L 12565066.00 17284934.00 L 11457193.00 16177061.00 L 11442127.00 16170820.00 L 10894072.37 16170820.00 L 10884176.00 16146928.00 L 10838977.00 16128206.00 L 10793778.00 16146928.00 L 10783881.63 16170820.00 L 9707873.00 16170820.00 L 9692807.00 16177061.00 L 7191175.00 18678693.00 L 6655095.37 18678693.00 L 6645199.00 18654801.00 A 63921.13 63921.13 0 1 0 6645199.00 18745199.00 L 6655095.37 18721307.00 L 7200000.00 18721307.00 L 7215066.00 18715066.00 L 9716698.00 16213434.00 L 10783881.63 16213434.00 L 10793778.00 16237326.00 L 10838977.00 16256048.00 L 10884176.00 16237326.00 L 10894072.37 16213434.00 L 11433302.00 16213434.00 L 12528693.00 17308825.00 L 12528693.00 18350000.00 L 12534934.00 18365066.00 L 13095975.55 18926107.55 L 13086079.00 18950000.00 A 63920.91 63920.91 0 1 0 13150000.00 18886079.00  z"/>
<path id="N" d="M 10573631.87 14517892.00 m -63921.13 0 a 63921.13 63921.13 0 1 1 127842.26 0a 63921.13 63921.13 0 1 1 -127842.26 0"/>
<path id="N" d="M 6499999.87 13828740.00 m -63921.13 0 a 63921.13 63921.13 0 1 1 127842.26 0a 63921.13 63921.13 0 1 1 -127842.26 0"/>
<path id="N" d="M 12463266.00 14588856.00 L 12453369.63 14612748.00 L 12374934.00 14612748.00 L 10447725.45 12685540.43 L 10457622.00 12661648.00 A 63920.91 63920.91 0 1 0 10393701.00 12725569.00 L 10417593.43 12715672.45 L 12351042.00 14649122.00 L 12366108.00 14655362.00 L 12453369.63 14655362.00 L 12463266.00 14679254.00 A 63921.13 63921.13 0 1 0 12463266.00 14588856.00  z"/>
<path id="N" d="M 8399999.87 15900000.00 m -63921.13 0 a 63921.13 63921.13 0 1 1 127842.26 0a 63921.13 63921.13 0 1 1 -127842.26 0"/>
<path id="N" d="M 6492498.00 17295274.00 L 6502394.37 17271382.00 L 7839201.00 17271382.00 L 7854267.00 17265141.00 L 8363996.21 16755412.72 L 8387888.00 16765309.00 A 63920.91 63920.91 0 1 0 8323967.00 16701388.00 L 8333863.28 16725279.79 L 7830375.99 17228768.00 L 6502394.37 17228768.00 L 6492498.00 17204876.00 A 63921.13 63921.13 0 1 0 6492498.00 17295274.00  z"/>
<path id="N" d="M 10149999.87 17200000.00 m -63921.13 0 a 63921.13 63921.13 0 1 1 127842.26 0a 63921.13 63921.13 0 1 1 -127842.26 0"/>
<path id="N" d="M 10292124.87 13071147.00 m -63921.13 0 a 63921.13 63921.13 0 1 1 127842.26 0a 63921.13 63921.13 0 1 1 -127842.26 0"/>
<path id="N" d="M 8892234.00 12946541.00 L 8868342.00 12936644.63 L 8868342.00 12650787.03 L 9054770.00 12464360.00 L 9061010.00 12449294.00 L 9061010.00 12180682.02 L 9370385.98 11871307.00 L 9424475.00 11871307.00 L 9439541.00 11865066.00 L 10281141.00 11023467.00 L 10287381.00 11008401.00 L 10287381.00 10987858.75 L 10320221.00 10974256.00 A 63921.13 63921.13 0 1 0 10229823.00 10974256.00 L 10244767.00 10980445.99 L 10244767.00 10999575.01 L 9415649.99 11828693.00 L 9361560.00 11828693.00 L 9346494.00 11834933.00 L 9024637.00 12156791.00 L 9018396.00 12171857.00 L 9018396.00 12440468.03 L 8831969.00 12626896.00 L 8825728.00 12641962.00 L 8825728.00 12936644.63 L 8801836.00 12946541.00 A 63921.13 63921.13 0 1 0 8892234.00 12946541.00  z"/>
<path id="N" d="M 13304227.00 18731851.00 L 13291689.73 18737044.10 L 13250047.00 18695401.92 L 13250047.00 17304709.00 L 13243806.00 17289642.00 L 13017837.00 17063674.00 L 13002771.00 17057433.00 L 12520801.00 17057433.00 L 11184892.45 15721525.43 L 11194789.00 15697633.00 A 63920.91 63920.91 0 1 0 11130868.00 15761554.00 L 11154760.43 15751657.45 L 12496908.00 17093806.00 L 12511975.00 17100047.00 L 12993945.97 17100047.00 L 13207433.00 17313534.97 L 13207433.00 18704227.00 L 13213674.00 18719293.00 L 13254905.67 18760525.21 L 13240306.00 18795772.00 A 63920.91 63920.91 0 1 0 13304227.00 18731851.00  z"/>
<path id="N" d="M 12383652.00 16343778.00 L 12373755.63 16367670.00 L 12097802.00 16367670.00 L 10815066.00 15084934.00 L 10800000.00 15078693.00 L 9498570.00 15078693.00 L 7443768.45 13023892.43 L 7453665.00 13000000.00 A 63920.91 63920.91 0 1 0 7389744.00 13063921.00 L 7413636.43 13054024.45 L 9474677.00 15115066.00 L 9489744.00 15121307.00 L 10791175.00 15121307.00 L 12073911.00 16404043.00 L 12088977.00 16410284.00 L 12373755.63 16410284.00 L 12383652.00 16434176.00 A 63921.13 63921.13 0 1 0 12383652.00 16343778.00  z"/>
<path id="N" d="M 8914172.87 13810740.00 m -63921.13 0 a 63921.13 63921.13 0 1 1 127842.26 0a 63921.13 63921.13 0 1 1 -127842.26 0"/>
<path id="N" d="M 13784994.00 19933279.00 L 13776917.04 19913779.44 L 14471554.95 19323398.70 L 14500000.00 19335181.00 A 63920.91 63920.91 0 1 0 14436079.00 19271260.00 L 14444155.92 19290759.45 L 13749518.04 19881140.30 L 13721073.00 19869358.00 A 63920.91 63920.91 0 1 0 13784994.00 19933279.00  z"/>
<path id="N" d="M 6732104.87 16344546.00 m -63921.13 0 a 63921.13 63921.13 0 1 1 127842.26 0a 63921.13 63921.13 0 1 1 -127842.26 0"/>
<path id="N" d="M 10049999.87 13900000.00 m -63921.13 0 a 63921.13 63921.13 0 1 1 127842.26 0a 63921.13 63921.13 0 1 1 -127842.26 0"/>
<path id="N" d="M 6349999.87 14250000.00 m -63921.13 0 a 63921.13 63921.13 0 1 1 127842.26 0a 63921.13 63921.13 0 1 1 -127842.26 0"/>
<path id="N" d="M 10499999.87 14887795.00 m -63921.13 0 a 63921.13 63921.13 0 1 1 127842.26 0a 63921.13 63921.13 0 1 1 -127842.26 0"/>
<path id="N" d="M 6899999.87 16650000.00 m -63921.13 0 a 63921.13 63921.13 0 1 1 127842.26 0a 63921.13 63921.13 0 1 1 -127842.26 0"/>
<path id="N" d="M 11399999.87 17000000.00 m -63921.13 0 a 63921.13 63921.13 0 1 1 127842.26 0a 63921.13 63921.13 0 1 1 -127842.26 0"/>
<path id="N" d="M 8977954.87 10699654.00 m -63921.13 0 a 63921.13 63921.13 0 1 1 127842.26 0a 63921.13 63921.13 0 1 1 -127842.26 0"/>
<path id="N" d="M 5499999.87 11250000.00 m -63921.13 0 a 63921.13 63921.13 0 1 1 127842.26 0a 63921.13 63921.13 0 1 1 -127842.26 0"/>
<path id="N" d="M 4526770.87 16200000.00 m -63921.13 0 a 63921.13 63921.13 0 1 1 127842.26 0a 63921.13 63921.13 0 1 1 -127842.26 0"/>
<path id="N" d="M 6899999.87 14400000.00 m -63921.13 0 a 63921.13 63921.13 0 1 1 127842.26 0a 63921.13 63921.13 0 1 1 -127842.26 0"/>
<path id="N" d="M 4499999.87 15619291.00 m -63921.13 0 a 63921.13 63921.13 0 1 1 127842.26 0a 63921.13 63921.13 0 1 1 -127842.26 0"/>
<path id="N" d="M 6849999.87 19823229.00 m -63921.13 0 a 63921.13 63921.13 0 1 1 127842.26 0a 63921.13 63921.13 0 1 1 -127842.26 0"/>
<path id="N" d="M 8399999.87 19600000.00 m -63921.13 0 a 63921.13 63921.13 0 1 1 127842.26 0a 63921.13 63921.13 0 1 1 -127842.26 0"/>
<path id="N" d="M 6173228.87 20300000.00 m -63921.13 0 a 63921.13 63921.13 0 1 1 127842.26 0a 63921.13 63921.13 0 1 1 -127842.26 0"/>
<path id="N" d="M 6877165.87 20300000.00 m -63921.13 0 a 63921.13 63921.13 0 1 1 127842.26 0a 63921.13 63921.13 0 1 1 -127842.26 0"/>
<path id="N" d="M 13149999.87 19650000.00 m -63921.13 0 a 63921.13 63921.13 0 1 1 127842.26 0a 63921.13 63921.13 0 1 1 -127842.26 0"/>
<path id="N" d="M 11572821.87 13450000.00 m -63921.13 0 a 63921.13 63921.13 0 1 1 127842.26 0a 63921.13 63921.13 0 1 1 -127842.26 0"/>
<path id="N" d="M 4499999.87 11900000.00 m -63921.13 0 a 63921.13 63921.13 0 1 1 127842.26 0a 63921.13 63921.13 0 1 1 -127842.26 0"/>
<path id="N" d="M 6095879.87 17348098.00 m -63921.13 0 a 63921.13 63921.13 0 1 1 127842.26 0a 63921.13 63921.13 0 1 1 -127842.26 0"/>
<path id="N" d="M 10693943.87 12158662.00 m -63921.13 0 a 63921.13 63921.13 0 1 1 127842.26 0a 63921.13 63921.13 0 1 1 -127842.26 0"/>
<path id="N" d="M 13049999.87 17378740.00 m -63921.13 0 a 63921.13 63921.13 0 1 1 127842.26 0a 63921.13 63921.13 0 1 1 -127842.26 0"/>
<path id="N" d="M 14049999.87 8350000.00 m -63921.13 0 a 63921.13 63921.13 0 1 1 127842.26 0a 63921.13 63921.13 0 1 1 -127842.26 0"/>
<path id="N" d="M 14899999.87 8450000.00 m -63921.13 0 a 63921.13 63921.13 0 1 1 127842.26 0a 63921.13 63921.13 0 1 1 -127842.26 0"/>
<path id="N" d="M 13849999.87 8350000.00 m -63921.13 0 a 63921.13 63921.13 0 1 1 127842.26 0a 63921.13 63921.13 0 1 1 -127842.26 0"/>
<path id="N" d="M 13951352.87 8605839.00 m -63921.13 0 a 63921.13 63921.13 0 1 1 127842.26 0a 63921.13 63921.13 0 1 1 -127842.26 0"/>
<path id="N" d="M 14899999.87 8700000.00 m -63921.13 0 a 63921.13 63921.13 0 1 1 127842.26 0a 63921.13 63921.13 0 1 1 -127842.26 0"/>
<path id="N" d="M 13449999.87 8350000.00 m -63921.13 0 a 63921.13 63921.13 0 1 1 127842.26 0a 63921.13 63921.13 0 1 1 -127842.26 0"/>
<path id="N" d="M 13649999.87 8350000.00 m -63921.13 0 a 63921.13 63921.13 0 1 1 127842.26 0a 63921.13 63921.13 0 1 1 -127842.26 0"/>
<path id="N" d="M 13751352.87 8605839.00 m -63921.13 0 a 63921.13 63921.13 0 1 1 127842.26 0a 63921.13 63921.13 0 1 1 -127842.26 0"/>
<path id="N" d="M 13701352.87 8005839.00 m -63921.13 0 a 63921.13 63921.13 0 1 1 127842.26 0a 63921.13 63921.13 0 1 1 -127842.26 0"/>
<path id="N" d="M 13901352.87 8005839.00 m -63921.13 0 a 63921.13 63921.13 0 1 1 127842.26 0a 63921.13 63921.13 0 1 1 -127842.26 0"/>
<path id="N" d="M 13049999.87 8350000.00 m -63921.13 0 a 63921.13 63921.13 0 1 1 127842.26 0a 63921.13 63921.13 0 1 1 -127842.26 0"/>
<path id="N" d="M 14899999.87 8150000.00 m -63921.13 0 a 63921.13 63921.13 0 1 1 127842.26 0a 63921.13 63921.13 0 1 1 -127842.26 0"/>
<path id="N" d="M 5549999.87 8800000.00 m -63921.13 0 a 63921.13 63921.13 0 1 1 127842.26 0a 63921.13 63921.13 0 1 1 -127842.26 0"/>
<path id="N" d="M 10849999.87 17450000.00 m -63921.13 0 a 63921.13 63921.13 0 1 1 127842.26 0a 63921.13 63921.13 0 1 1 -127842.26 0"/>
<path id="N" d="M 12749999.87 17378740.00 m -63921.13 0 a 63921.13 63921.13 0 1 1 127842.26 0a 63921.13 63921.13 0 1 1 -127842.26 0"/>
<path id="N" d="M 14849999.87 18900000.00 m -63921.13 0 a 63921.13 63921.13 0 1 1 127842.26 0a 63921.13 63921.13 0 1 1 -127842.26 0"/>
<path id="N" d="M 6199999.87 18950000.00 m -63921.13 0 a 63921.13 63921.13 0 1 1 127842.26 0a 63921.13 63921.13 0 1 1 -127842.26 0"/>
<path id="N" d="M 13249999.87 8350000.00 m -63921.13 0 a 63921.13 63921.13 0 1 1 127842.26 0a 63921.13 63921.13 0 1 1 -127842.26 0"/>
<path id="N" d="M 13301352.87 8005839.00 m -63921.13 0 a 63921.13 63921.13 0 1 1 127842.26 0a 63921.13 63921.13 0 1 1 -127842.26 0"/>
<path id="N" d="M 13351352.87 8605839.00 m -63921.13 0 a 63921.13 63921.13 0 1 1 127842.26 0a 63921.13 63921.13 0 1 1 -127842.26 0"/>
<path id="N" d="M 13551352.87 8605839.00 m -63921.13 0 a 63921.13 63921.13 0 1 1 127842.26 0a 63921.13 63921.13 0 1 1 -127842.26 0"/>
<path id="N" d="M 13501352.87 8005839.00 m -63921.13 0 a 63921.13 63921.13 0 1 1 127842.26 0a 63921.13 63921.13 0 1 1 -127842.26 0"/>
<path id="N" d="M 4449999.87 7800000.00 m -63921.13 0 a 63921.13 63921.13 0 1 1 127842.26 0a 63921.13 63921.13 0 1 1 -127842.26 0"/>
<path id="N" d="M 12849999.87 8350000.00 m -63921.13 0 a 63921.13 63921.13 0 1 1 127842.26 0a 63921.13 63921.13 0 1 1 -127842.26 0"/>
<path id="N" d="M 14899999.87 7950000.00 m -63921.13 0 a 63921.13 63921.13 0 1 1 127842.26 0a 63921.13 63921.13 0 1 1 -127842.26 0"/>
<path id="N" d="M 14049999.87 6723229.00 m -63921.13 0 a 63921.13 63921.13 0 1 1 127842.26 0a 63921.13 63921.13 0 1 1 -127842.26 0"/>
<path id="N" d="M 6975196.87 21425197.00 m -63921.13 0 a 63921.13 63921.13 0 1 1 127842.26 0a 63921.13 63921.13 0 1 1 -127842.26 0"/>
<path id="N" d="M 8746850.87 21446851.00 m -63921.13 0 a 63921.13 63921.13 0 1 1 127842.26 0a 63921.13 63921.13 0 1 1 -127842.26 0"/>
<path id="N" d="M 9949999.87 21900000.00 m -63921.13 0 a 63921.13 63921.13 0 1 1 127842.26 0a 63921.13 63921.13 0 1 1 -127842.26 0"/>
<path id="N" d="M 9999999.87 4500000.00 m -63921.13 0 a 63921.13 63921.13 0 1 1 127842.26 0a 63921.13 63921.13 0 1 1 -127842.26 0"/>
<path id="N" d="M 10149999.87 4650000.00 m -63921.13 0 a 63921.13 63921.13 0 1 1 127842.26 0a 63921.13 63921.13 0 1 1 -127842.26 0"/>
<path id="N" d="M 10299999.87 4800000.00 m -63921.13 0 a 63921.13 63921.13 0 1 1 127842.26 0a 63921.13 63921.13 0 1 1 -127842.26 0"/>
<path id="N" d="M 14549999.87 9250000.00 m -63921.13 0 a 63921.13 63921.13 0 1 1 127842.26 0a 63921.13 63921.13 0 1 1 -127842.26 0"/>
<path id="N" d="M 10866140.87 12661648.00 m -63921.13 0 a 63921.13 63921.13 0 1 1 127842.26 0a 63921.13 63921.13 0 1 1 -127842.26 0"/>
<path id="N" d="M 8826802.87 10856896.00 m -63921.13 0 a 63921.13 63921.13 0 1 1 127842.26 0a 63921.13 63921.13 0 1 1 -127842.26 0"/>
<path id="N" d="M 11249999.87 20850000.00 m -63921.13 0 a 63921.13 63921.13 0 1 1 127842.26 0a 63921.13 63921.13 0 1 1 -127842.26 0"/>
<path id="N" d="M 14299999.87 9500000.00 m -63921.13 0 a 63921.13 63921.13 0 1 1 127842.26 0a 63921.13 63921.13 0 1 1 -127842.26 0"/>
<path id="N" d="M 12425298.00 14803635.00 L 12415401.63 14827527.00 L 12057659.00 14827527.00 L 11171307.00 13941175.00 L 11171307.00 13676246.00 L 11165066.00 13661180.00 L 10165533.00 12661647.00 L 10150467.00 12655406.00 L 10140075.90 12655406.00 L 10123939.00 12616448.00 A 63921.13 63921.13 0 1 0 10123939.00 12706846.00 L 10127594.84 12698020.00 L 10141642.00 12698020.00 L 11128693.00 13685071.00 L 11128693.00 13950000.00 L 11134934.00 13965066.00 L 12033768.00 14863900.00 L 12048834.00 14870141.00 L 12415401.63 14870141.00 L 12425298.00 14894033.00 A 63921.13 63921.13 0 1 0 12425298.00 14803635.00  z"/>
<path id="N" d="M 8399999.87 15600000.00 m -63921.13 0 a 63921.13 63921.13 0 1 1 127842.26 0a 63921.13 63921.13 0 1 1 -127842.26 0"/>
<path id="N" d="M 12383652.00 15556375.00 L 12374407.60 15578693.00 L 12308826.00 15578693.00 L 9627606.00 12897474.00 L 9627606.00 12716742.37 L 9651498.00 12706846.00 A 63921.13 63921.13 0 1 0 9561100.00 12706846.00 L 9584992.00 12716742.37 L 9584992.00 12906299.00 L 9591233.00 12921365.00 L 12284933.00 15615066.00 L 12300000.00 15621307.00 L 12373103.66 15621307.00 L 12383652.00 15646773.00 A 63921.13 63921.13 0 1 0 12383652.00 15556375.00  z"/>
<path id="N" d="M 8386500.00 16386079.00 L 8358177.77 16397810.43 L 8339133.00 16378766.00 L 8324067.00 16372525.00 L 7474795.98 16372525.00 L 7121307.00 16019036.98 L 7121307.00 12358826.01 L 7858826.99 11621307.00 L 8690945.00 11621307.00 L 8706011.00 11615066.00 L 9357997.55 10963079.45 L 9381890.00 10972976.00 A 63920.91 63920.91 0 1 0 9317969.00 10909055.00 L 9327865.55 10932947.45 L 8682120.00 11578693.00 L 7850001.00 11578693.00 L 7834935.00 11584933.00 L 7084934.00 12334935.00 L 7078693.00 12350001.00 L 7078693.00 16027862.00 L 7084934.00 16042928.00 L 7450904.00 16408899.00 L 7465970.00 16415139.00 L 8315241.89 16415139.00 L 8330640.47 16430537.85 L 8322579.00 16450000.00 A 63920.91 63920.91 0 1 0 8386500.00 16386079.00  z"/>
<path id="N" d="M 12763921.00 15225984.00 L 12754024.45 15202091.55 L 13534810.00 14421306.00 L 14644904.63 14421307.00 L 14654801.00 14445199.00 A 63921.13 63921.13 0 1 0 14654801.00 14354801.00 L 14644904.63 14378693.00 L 13525985.00 14378692.00 L 13510919.00 14384933.00 L 12723892.45 15171959.55 L 12700000.00 15162063.00 A 63920.91 63920.91 0 1 0 12763921.00 15225984.00  z"/>
<path id="N" d="M 7910739.87 16585826.00 m -63921.13 0 a 63921.13 63921.13 0 1 1 127842.26 0a 63921.13 63921.13 0 1 1 -127842.26 0"/>
<path id="N" d="M 14049999.87 19900000.00 m -63921.13 0 a 63921.13 63921.13 0 1 1 127842.26 0a 63921.13 63921.13 0 1 1 -127842.26 0"/>
<path id="N" d="M 9184282.87 10770370.00 m -63921.13 0 a 63921.13 63921.13 0 1 1 127842.26 0a 63921.13 63921.13 0 1 1 -127842.26 0"/>
<path id="N" d="M 10478144.87 12126992.00 m -63921.13 0 a 63921.13 63921.13 0 1 1 127842.26 0a 63921.13 63921.13 0 1 1 -127842.26 0"/>
<path id="N" d="M 13949999.87 10750000.00 m -63921.13 0 a 63921.13 63921.13 0 1 1 127842.26 0a 63921.13 63921.13 0 1 1 -127842.26 0"/>
<path id="N" d="M 15146484.87 21000270.00 m -63921.13 0 a 63921.13 63921.13 0 1 1 127842.26 0a 63921.13 63921.13 0 1 1 -127842.26 0"/>
<path id="N" d="M 13349999.87 21300000.00 m -63921.13 0 a 63921.13 63921.13 0 1 1 127842.26 0a 63921.13 63921.13 0 1 1 -127842.26 0"/>
<path id="N" d="M 11399999.87 9900000.00 m -63921.13 0 a 63921.13 63921.13 0 1 1 127842.26 0a 63921.13 63921.13 0 1 1 -127842.26 0"/>
<path id="N" d="M 13449999.87 10750000.00 m -63921.13 0 a 63921.13 63921.13 0 1 1 127842.26 0a 63921.13 63921.13 0 1 1 -127842.26 0"/>
<path id="N" d="M 13249999.87 20800000.00 m -63921.13 0 a 63921.13 63921.13 0 1 1 127842.26 0a 63921.13 63921.13 0 1 1 -127842.26 0"/>
<path id="N" d="M 13499999.87 19150000.00 m -63921.13 0 a 63921.13 63921.13 0 1 1 127842.26 0a 63921.13 63921.13 0 1 1 -127842.26 0"/>
</g>
</svg>
