<svg width="30.0000035mm" height="49.99999906mm" viewBox="0 0 11811025 19685039"  version="1.1" xmlns="http://www.w3.org/2000/svg" xmlns:xlink="http://www.w3.org/1999/xlink">
<desc>
Origin 0 0 Bound 3937008 3937008 11811025 19685039
</desc>
<g fill-rule="evenodd" fill="rgb(0, 128, 0)" stroke="black" stroke-width="1" transform="translate(0, 19685039) scale(1, -1) translate(-3937008, -3937008)">
<path id="N" d="M 14263272.00 23421078.00 A 1376793.66 1376793.66 0 0 0 15547063.00 22137286.00 L 15547064.00 14437975.00 L 14549336.00 14437975.00 L 14510129.00 14434112.00 L 14472429.00 14422676.00 L 14429019.00 14404694.00 L 14394275.00 14386121.00 L 14363824.00 14361131.00 L 14330599.00 14327906.00 L 14305606.00 14297451.00 L 14287035.00 14262707.00 L 14269054.00 14219297.00 L 14257618.00 14181597.00 L 14253756.00 14142390.00 L 14253756.00 14095403.00 L 14257618.00 14056196.00 L 14269054.00 14018496.00 L 14287035.00 13975086.00 L 14305606.00 13940342.00 L 14330599.00 13909887.00 L 14363824.00 13876662.00 L 14394278.00 13851670.00 L 14429023.00 13833098.00 L 14472433.00 13815117.00 L 14510133.00 13803681.00 L 14549340.00 13799819.00 L 15547064.00 13799819.00 L 15547062.00 5421765.00 A 1376771.05 1376771.05 0 0 0 14263271.00 4137975.00 L 5421766.00 4137976.00 A 1376762.39 1376762.39 0 0 0 4137976.00 5421766.00 L 4137976.00 22137288.00 A 1376762.39 1376762.39 0 0 0 5421767.00 23421079.00 L 14263272.00 23421078.00  zM 14566929.40 5118101.08 m -730809.92 0 a 730809.92 730809.92 0 1 1 1461619.84 0a 730809.92 730809.92 0 1 1 -1461619.84 0M 10632604.00 21092984.00 L 10632604.00 20778024.00 A 218822.96 218822.96 0 0 1 11070172.00 20778024.00 L 11070172.00 21092984.00 A 218822.96 218822.96 0 0 1 10632604.00 21092984.00  zM 14029248.00 21139763.00 L 14029248.00 20824803.00 A 218822.96 218822.96 0 0 1 14466816.00 20824803.00 L 14466816.00 21139763.00 A 218822.96 218822.96 0 1 1 14029248.00 21139763.00  zM 5118110.40 22440936.08 m -730809.92 0 a 730809.92 730809.92 0 1 1 1461619.84 0a 730809.92 730809.92 0 1 1 -1461619.84 0M 10629248.00 22864173.00 L 10629248.00 22391733.00 A 218822.96 218822.96 0 0 1 11066816.00 22391733.00 L 11066816.00 22864173.00 A 218822.96 218822.96 0 0 1 10629248.00 22864173.00  zM 14029248.00 22864173.00 L 14029248.00 22391733.00 A 218822.96 218822.96 0 0 1 14466816.00 22391733.00 L 14466816.00 22864173.00 A 218822.96 218822.96 0 1 1 14029248.00 22864173.00  z"/>
</g>
</svg>
