<svg width="30.0000035mm" height="49.99999906mm" viewBox="0 0 11811025 19685039"  version="1.1" xmlns="http://www.w3.org/2000/svg" xmlns:xlink="http://www.w3.org/1999/xlink">
<desc>
Origin 0 0 Bound 3937008 3937008 11811025 19685039
</desc>
<g fill-rule="evenodd" fill="rgb(255, 255, 0)" stroke="black" stroke-width="1" transform="translate(0, 19685039) scale(1, -1) translate(-3937008, -3937008)">
<path id="N" d="M 15557086.00 16476982.00 L 13918293.00 16476982.00 L 13918293.00 14133518.00 L 14442423.00 14133518.00 L 14480692.00 14117667.00 L 14496543.00 14079398.00 L 14496543.00 13779495.00 L 14480692.00 13741226.00 L 14380724.00 13641258.00 L 14342452.59 13625407.00 L 14242488.00 13625407.00 L 14204219.00 13641258.00 L 14142520.00 13702957.00 L 14080821.00 13641258.00 L 14042549.59 13625407.00 L 13942585.00 13625407.00 L 13918293.00 13635468.73 L 13918293.00 13433744.00 L 14311765.00 13433744.00 L 14304186.00 13441323.00 A 54121.84 54121.84 0 0 0 14380724.00 13517861.00 L 14480692.00 13417893.00 A 54119.43 54119.43 0 0 0 14442420.59 13325504.00 L 13918293.00 13325504.00 L 13918293.00 12548214.00 L 15557086.00 12548214.00 A 54118.70 54118.70 0 1 0 15557086.00 12439974.00 L 13864173.00 12439974.00 L 13825904.00 12455825.00 L 13810053.00 12494094.00 L 13810053.00 13239024.99 L 13804348.00 13241388.00 L 13788497.00 13279657.00 L 13788497.00 13479592.00 L 13804348.00 13517861.00 L 13810053.00 13520224.01 L 13810053.00 13735521.00 L 13804348.00 13741226.00 L 13788497.00 13779497.41 L 13788497.00 14079398.00 L 13804348.00 14117667.00 L 13810053.00 14120030.01 L 13810053.00 16531102.00 L 13825904.00 16569371.00 L 13864173.00 16585222.00 L 15557086.00 16585222.00 A 54121.84 54121.84 0 1 0 15557086.00 16476982.00  zM 14088400.00 14025278.00 L 13918293.00 14025278.00 L 13918293.00 13780357.00 L 13965003.00 13733647.00 L 14020134.00 13733647.00 L 14088400.00 13801913.00 L 14088400.00 14025278.00  zM 14388303.00 14025278.00 L 14196640.00 14025278.00 L 14196640.00 13801913.00 L 14264906.00 13733647.00 L 14320037.00 13733647.00 L 14388303.00 13801913.00 L 14388303.00 14025278.00  z"/>
<path id="N" d="M 14243505.00 17249303.00 L 14197657.00 17249303.00 L 14197658.00 16803585.00 L 14181806.00 16765316.00 L 14081838.00 16665348.00 L 14043569.00 16649497.00 L 13943602.00 16649496.00 L 13905333.00 16665348.00 L 13805365.00 16765316.00 A 54121.84 54121.84 0 0 0 13881903.00 16841854.00 L 13966020.00 16757737.00 L 14021151.00 16757737.00 L 14089417.00 16826003.00 L 14089417.00 17249303.00 L 14043569.00 17249303.00 A 54118.70 54118.70 0 1 0 14043569.00 17357543.00 L 14243505.00 17357543.00 A 54121.84 54121.84 0 0 0 14243505.00 17249303.00  z"/>
<path id="N" d="M 9524592.00 20914873.00 L 9524592.00 20869025.00 L 9970310.00 20869026.00 L 10008579.00 20853174.00 L 10108547.00 20753206.00 L 10124398.00 20714937.00 L 10124399.00 20614970.00 L 10108547.00 20576701.00 L 10008579.00 20476733.00 A 54121.84 54121.84 0 0 0 9932041.00 20553271.00 L 10016158.00 20637388.00 L 10016158.00 20692519.00 L 9947892.00 20760785.00 L 9524592.00 20760785.00 L 9524592.00 20714937.00 A 54118.70 54118.70 0 0 0 9416352.00 20714937.00 L 9416352.00 20914873.00 A 54118.70 54118.70 0 0 0 9524592.00 20914873.00  z"/>
<path id="N" d="M 9824495.00 21514679.00 L 9824495.00 21468831.00 L 10070278.00 21468831.00 A 54118.70 54118.70 0 0 0 10070278.00 21360591.00 L 9824495.00 21360591.00 L 9824496.00 21114808.00 A 54122.11 54122.11 0 0 0 9732106.00 21076539.00 L 9432203.00 21376442.00 A 54119.43 54119.43 0 0 0 9470474.41 21468831.00 L 9716255.00 21468831.00 L 9716255.00 21514679.00 A 54118.70 54118.70 0 1 0 9824495.00 21514679.00  zM 9716255.00 21360591.00 L 9601130.00 21360591.00 L 9716255.00 21245466.00 L 9716255.00 21360591.00  z"/>
<path id="N" d="M 10423140.00 8853075.00 L 10523108.00 8753107.00 L 10538959.00 8714838.00 L 10538960.00 8514903.00 L 10523108.00 8476634.00 L 10423140.00 8376666.00 L 10384871.00 8360815.00 L 10139088.00 8360815.00 L 10139088.00 8215000.00 A 54118.70 54118.70 0 0 0 10030848.00 8215000.00 L 10030848.00 8814806.00 L 10046699.00 8853075.00 L 10084968.00 8868926.00 L 10384871.00 8868927.00 L 10423140.00 8853075.00  zM 10362453.00 8760686.00 L 10139088.00 8760686.00 L 10139088.00 8469055.00 L 10362453.00 8469055.00 L 10430719.00 8537321.00 L 10430719.00 8692420.00 L 10362453.00 8760686.00  z"/>
<path id="N" d="M 10339976.00 7076196.00 L 10352457.00 7046063.00 L 10352457.00 6458756.00 L 10801969.00 6458756.00 L 10832102.00 6446275.00 L 10844583.00 6416142.00 L 10832102.00 6386009.00 L 10801969.00 6373528.00 L 10309843.00 6373528.00 L 10279710.00 6386009.00 L 10267229.00 6416142.00 L 10267229.00 7003449.00 L 10037496.00 7003449.00 L 10037496.00 5471260.00 L 10025015.00 5441127.00 L 9994882.00 5428646.00 L 9964749.00 5441127.00 L 9952268.00 5471260.00 L 9952268.00 7046063.00 L 9964749.00 7076196.00 L 9994882.00 7088677.00 L 10309843.00 7088677.00 L 10339976.00 7076196.00  z"/>
<path id="N" d="M 13135251.00 7076196.00 L 13147732.00 7046063.00 L 13147732.00 5471260.00 L 13135251.00 5441127.00 L 13105118.00 5428646.00 L 13074985.00 5441127.00 L 13062504.00 5471260.00 L 13062504.00 7003449.00 L 12832771.00 7003449.00 L 12832771.00 6416142.00 L 12820290.00 6386009.00 L 12790157.00 6373528.00 L 12298031.00 6373528.00 L 12267898.00 6386009.00 L 12255417.00 6416142.00 L 12267898.00 6446275.00 L 12298031.00 6458756.00 L 12747543.00 6458756.00 L 12747543.00 7046063.00 L 12760024.00 7076196.00 L 12790157.00 7088677.00 L 13105118.00 7088677.00 L 13135251.00 7076196.00  z"/>
<path id="N" d="M 10838862.00 8814803.59 L 10838862.00 8269120.00 L 10884709.00 8269120.00 A 54118.70 54118.70 0 0 0 10884709.00 8160880.00 L 10684774.00 8160880.00 A 54118.70 54118.70 0 1 0 10684774.00 8269120.00 L 10730622.00 8269120.00 L 10730622.00 8684148.00 L 10723043.00 8676569.00 A 54121.84 54121.84 0 0 0 10646505.00 8753107.00 L 10746473.00 8853075.00 A 54119.43 54119.43 0 0 0 10838862.00 8814803.59  z"/>
<path id="N" d="M 14597528.00 17303420.59 L 14597528.00 16757737.00 L 14643375.00 16757737.00 A 54118.70 54118.70 0 0 0 14643375.00 16649497.00 L 14443440.00 16649497.00 A 54118.70 54118.70 0 1 0 14443440.00 16757737.00 L 14489288.00 16757737.00 L 14489288.00 17172765.00 L 14481709.00 17165186.00 A 54121.84 54121.84 0 0 0 14405171.00 17241724.00 L 14505139.00 17341692.00 A 54119.43 54119.43 0 0 0 14597528.00 17303420.59  z"/>
<path id="N" d="M 9872653.00 16398674.00 L 12461665.00 13809661.00 L 12474147.00 13779528.00 L 12461665.00 13749395.00 L 9872653.00 11160382.00 L 9842520.00 11147901.00 L 9812386.29 11160383.71 L 7223374.00 13749395.00 L 7210893.00 13779528.00 L 7223374.00 13809661.00 L 9812387.00 16398674.00 L 9842520.00 16411155.00 L 9872653.00 16398674.00  zM 9842519.51 16308275.50 L 7313772.99 13779528.00 L 9842519.51 11250780.50 L 12371267.99 13779528.00 L 9842519.51 16308275.50  z"/>
<path id="N" d="M 11156297.47 7813778.47 m -100354.75 0 a 100354.75 100354.75 0 1 1 200709.51 0a 100354.75 100354.75 0 1 1 -200709.51 0"/>
<path id="N" d="M 14740160.92 20750002.92 m -80279.37 0 a 80279.37 80279.37 0 1 1 160558.73 0a 80279.37 80279.37 0 1 1 -160558.73 0"/>
<path id="N" d="M 9362298.47 16765243.47 m -100354.75 0 a 100354.75 100354.75 0 1 1 200709.51 0a 100354.75 100354.75 0 1 1 -200709.51 0"/>
<path id="N" d="M 12446275.00 4084070.00 L 12458756.00 4053937.00 L 12446275.00 4023804.00 L 12416142.00 4011323.00 L 10683858.00 4011323.00 L 10653725.00 4023804.00 L 10641244.00 4053937.00 L 10653725.00 4084070.00 L 10683858.00 4096551.00 L 12416142.00 4096551.00 L 12446275.00 4084070.00  z"/>
<path id="N" d="M 14216928.87 10878740.00 m -63921.13 0 a 63921.13 63921.13 0 1 1 127842.26 0a 63921.13 63921.13 0 1 1 -127842.26 0"/>
</g>
</svg>
