<svg width="30.0000035mm" height="49.99999906mm" viewBox="0 0 11811025 19685039"  version="1.1" xmlns="http://www.w3.org/2000/svg" xmlns:xlink="http://www.w3.org/1999/xlink">
<desc>
Origin 0 0 Bound 1968504 1968504 11811025 19685039
</desc>
<g fill-rule="evenodd" fill="rgb(128, 0, 128)" stroke="black" stroke-width="1" transform="translate(0, 19685039) scale(1, -1) translate(-1968504, -1968504)">
<path id="N" d="M 12307941.00 21653542.00 A 1578141.91 1578141.91 0 0 0 13779527.00 20181958.00 L 13779526.00 3440087.00 A 1578145.74 1578145.74 0 0 0 12307941.00 1968503.00 L 3440088.00 1968504.00 A 1578197.26 1578197.26 0 0 0 1968504.00 3440088.00 L 1968504.00 20181958.00 A 1578178.47 1578178.47 0 0 0 3440088.00 21653543.00 L 12307941.00 21653542.00  zM 5396219.00 11532496.00 L 4957758.00 11094035.00 L 5069113.00 10982680.00 L 5507574.00 11421141.00 L 5396219.00 11532496.00  zM 5535413.00 11393302.00 L 5096952.00 10954841.00 L 5208307.00 10843486.00 L 5646768.00 11281947.00 L 5535413.00 11393302.00  zM 5674608.00 11254107.00 L 5236147.00 10815646.00 L 5347502.00 10704291.00 L 5785963.00 11142752.00 L 5674608.00 11254107.00  zM 5813802.00 11114913.00 L 5375341.00 10676452.00 L 5486696.00 10565097.00 L 5925157.00 11003558.00 L 5813802.00 11114913.00  zM 5952996.00 10975718.00 L 5514535.00 10537257.00 L 5625890.00 10425902.00 L 6064351.00 10864363.00 L 5952996.00 10975718.00  zM 6092190.00 10836525.00 L 5653729.00 10398064.00 L 5765084.00 10286709.00 L 6203545.00 10725170.00 L 6092190.00 10836525.00  zM 6231384.00 10697331.00 L 5792923.00 10258870.00 L 5904278.00 10147515.00 L 6342739.00 10585976.00 L 6231384.00 10697331.00  zM 6370579.00 10558136.00 L 5932118.00 10119675.00 L 6043473.00 10008320.00 L 6481934.00 10446781.00 L 6370579.00 10558136.00  zM 6927355.00 10001359.00 L 6488894.00 9562898.00 L 6600249.00 9451543.00 L 7038710.00 9890004.00 L 6927355.00 10001359.00  zM 6788162.00 10140553.00 L 6349701.00 9702092.00 L 6461056.00 9590737.00 L 6899517.00 10029198.00 L 6788162.00 10140553.00  zM 6509773.00 10418942.00 L 6071312.00 9980481.00 L 6182667.00 9869126.00 L 6621128.00 10307587.00 L 6509773.00 10418942.00  zM 6648968.00 10279747.00 L 6210507.00 9841286.00 L 6321862.00 9729931.00 L 6760323.00 10168392.00 L 6648968.00 10279747.00  zM 7066550.00 9862165.00 L 6628089.00 9423704.00 L 6739444.00 9312349.00 L 7177905.00 9750810.00 L 7066550.00 9862165.00  zM 7205744.00 9722971.00 L 6767283.00 9284510.00 L 6878638.00 9173155.00 L 7317099.00 9611616.00 L 7205744.00 9722971.00  zM 7344939.00 9583776.00 L 6906478.00 9145315.00 L 7017833.00 9033960.00 L 7456294.00 9472421.00 L 7344939.00 9583776.00  zM 7484133.00 9444582.00 L 7045672.00 9006121.00 L 7157027.00 8894766.00 L 7595488.00 9333227.00 L 7484133.00 9444582.00  zM 5069113.00 12639368.00 L 4957758.00 12528013.00 L 5396219.00 12089552.00 L 5507574.00 12200907.00 L 5069113.00 12639368.00  zM 5208307.00 12778562.00 L 5096952.00 12667207.00 L 5535413.00 12228746.00 L 5646768.00 12340101.00 L 5208307.00 12778562.00  zM 5347502.00 12917757.00 L 5236147.00 12806402.00 L 5674608.00 12367941.00 L 5785963.00 12479296.00 L 5347502.00 12917757.00  zM 5486696.00 13056951.00 L 5375341.00 12945596.00 L 5813802.00 12507135.00 L 5925157.00 12618490.00 L 5486696.00 13056951.00  zM 5625890.00 13196146.00 L 5514535.00 13084791.00 L 5952996.00 12646330.00 L 6064351.00 12757685.00 L 5625890.00 13196146.00  zM 5765084.00 13335339.00 L 5653729.00 13223984.00 L 6092190.00 12785523.00 L 6203545.00 12896878.00 L 5765084.00 13335339.00  zM 5904278.00 13474533.00 L 5792923.00 13363178.00 L 6231384.00 12924717.00 L 6342739.00 13036072.00 L 5904278.00 13474533.00  zM 6043473.00 13613728.00 L 5932118.00 13502373.00 L 6370579.00 13063912.00 L 6481934.00 13175267.00 L 6043473.00 13613728.00  zM 6182667.00 13752922.00 L 6071312.00 13641567.00 L 6509773.00 13203106.00 L 6621128.00 13314461.00 L 6182667.00 13752922.00  zM 6321862.00 13892117.00 L 6210507.00 13780762.00 L 6648968.00 13342301.00 L 6760323.00 13453656.00 L 6321862.00 13892117.00  zM 6461056.00 14031311.00 L 6349701.00 13919956.00 L 6788162.00 13481495.00 L 6899517.00 13592850.00 L 6461056.00 14031311.00  zM 6600249.00 14170505.00 L 6488894.00 14059150.00 L 6927355.00 13620689.00 L 7038710.00 13732044.00 L 6600249.00 14170505.00  zM 6739444.00 14309699.00 L 6628089.00 14198344.00 L 7066550.00 13759883.00 L 7177905.00 13871238.00 L 6739444.00 14309699.00  zM 6878638.00 14448893.00 L 6767283.00 14337538.00 L 7205744.00 13899077.00 L 7317099.00 14010432.00 L 6878638.00 14448893.00  zM 7017833.00 14588088.00 L 6906478.00 14476733.00 L 7344939.00 14038272.00 L 7456294.00 14149627.00 L 7017833.00 14588088.00  zM 7157027.00 14727282.00 L 7045672.00 14615927.00 L 7484133.00 14177466.00 L 7595488.00 14288821.00 L 7157027.00 14727282.00  zM 8263899.00 9444582.00 L 8152544.00 9333227.00 L 8591005.00 8894766.00 L 8702360.00 9006121.00 L 8263899.00 9444582.00  zM 8403093.00 9583776.00 L 8291738.00 9472421.00 L 8730199.00 9033960.00 L 8841554.00 9145315.00 L 8403093.00 9583776.00  zM 8542288.00 9722971.00 L 8430933.00 9611616.00 L 8869394.00 9173155.00 L 8980749.00 9284510.00 L 8542288.00 9722971.00  zM 8681482.00 9862165.00 L 8570127.00 9750810.00 L 9008588.00 9312349.00 L 9119943.00 9423704.00 L 8681482.00 9862165.00  zM 8820677.00 10001359.00 L 8709322.00 9890004.00 L 9147783.00 9451543.00 L 9259138.00 9562898.00 L 8820677.00 10001359.00  zM 8959870.00 10140553.00 L 8848515.00 10029198.00 L 9286976.00 9590737.00 L 9398331.00 9702092.00 L 8959870.00 10140553.00  zM 9099064.00 10279747.00 L 8987709.00 10168392.00 L 9426170.00 9729931.00 L 9537525.00 9841286.00 L 9099064.00 10279747.00  zM 9238259.00 10418942.00 L 9126904.00 10307587.00 L 9565365.00 9869126.00 L 9676720.00 9980481.00 L 9238259.00 10418942.00  zM 9377453.00 10558136.00 L 9266098.00 10446781.00 L 9704559.00 10008320.00 L 9815914.00 10119675.00 L 9377453.00 10558136.00  zM 9516648.00 10697331.00 L 9405293.00 10585976.00 L 9843754.00 10147515.00 L 9955109.00 10258870.00 L 9516648.00 10697331.00  zM 9655842.00 10836525.00 L 9544487.00 10725170.00 L 9982948.00 10286709.00 L 10094303.00 10398064.00 L 9655842.00 10836525.00  zM 9795036.00 10975718.00 L 9683681.00 10864363.00 L 10122142.00 10425902.00 L 10233497.00 10537257.00 L 9795036.00 10975718.00  zM 9934230.00 11114913.00 L 9822875.00 11003558.00 L 10261336.00 10565097.00 L 10372691.00 10676452.00 L 9934230.00 11114913.00  zM 10073424.00 11254107.00 L 9962069.00 11142752.00 L 10400530.00 10704291.00 L 10511885.00 10815646.00 L 10073424.00 11254107.00  zM 10212619.00 11393302.00 L 10101264.00 11281947.00 L 10539725.00 10843486.00 L 10651080.00 10954841.00 L 10212619.00 11393302.00  zM 10351813.00 11532496.00 L 10240458.00 11421141.00 L 10678919.00 10982680.00 L 10790274.00 11094035.00 L 10351813.00 11532496.00  zM 8591005.00 14727282.00 L 8152544.00 14288821.00 L 8263899.00 14177466.00 L 8702360.00 14615927.00 L 8591005.00 14727282.00  zM 8730199.00 14588088.00 L 8291738.00 14149627.00 L 8403093.00 14038272.00 L 8841554.00 14476733.00 L 8730199.00 14588088.00  zM 8869394.00 14448893.00 L 8430933.00 14010432.00 L 8542288.00 13899077.00 L 8980749.00 14337538.00 L 8869394.00 14448893.00  zM 9008588.00 14309699.00 L 8570127.00 13871238.00 L 8681482.00 13759883.00 L 9119943.00 14198344.00 L 9008588.00 14309699.00  zM 9426170.00 13892117.00 L 8987709.00 13453656.00 L 9099064.00 13342301.00 L 9537525.00 13780762.00 L 9426170.00 13892117.00  zM 9565365.00 13752922.00 L 9126904.00 13314461.00 L 9238259.00 13203106.00 L 9676720.00 13641567.00 L 9565365.00 13752922.00  zM 9286976.00 14031311.00 L 8848515.00 13592850.00 L 8959870.00 13481495.00 L 9398331.00 13919956.00 L 9286976.00 14031311.00  zM 9147783.00 14170505.00 L 8709322.00 13732044.00 L 8820677.00 13620689.00 L 9259138.00 14059150.00 L 9147783.00 14170505.00  zM 9704559.00 13613728.00 L 9266098.00 13175267.00 L 9377453.00 13063912.00 L 9815914.00 13502373.00 L 9704559.00 13613728.00  zM 9843754.00 13474533.00 L 9405293.00 13036072.00 L 9516648.00 12924717.00 L 9955109.00 13363178.00 L 9843754.00 13474533.00  zM 9982948.00 13335339.00 L 9544487.00 12896878.00 L 9655842.00 12785523.00 L 10094303.00 13223984.00 L 9982948.00 13335339.00  zM 10122142.00 13196146.00 L 9683681.00 12757685.00 L 9795036.00 12646330.00 L 10233497.00 13084791.00 L 10122142.00 13196146.00  zM 10261336.00 13056951.00 L 9822875.00 12618490.00 L 9934230.00 12507135.00 L 10372691.00 12945596.00 L 10261336.00 13056951.00  zM 10400530.00 12917757.00 L 9962069.00 12479296.00 L 10073424.00 12367941.00 L 10511885.00 12806402.00 L 10400530.00 12917757.00  zM 10539725.00 12778562.00 L 10101264.00 12340101.00 L 10212619.00 12228746.00 L 10651080.00 12667207.00 L 10539725.00 12778562.00  zM 10678919.00 12639368.00 L 10240458.00 12200907.00 L 10351813.00 12089552.00 L 10790274.00 12528013.00 L 10678919.00 12639368.00  z"/>
</g>
</svg>
