**ABCDEFGHIJKLMNOPQRSTUVWXYZabcdefghijklmnopqrstuvwxyz**************************
**PARASOLID !"#$%&'()*+,-./:;<=>?@[\]^_`{|}~0123456789**************************
**PART1;
MC=AMD64;
MC_MODEL=Intel64 Family 6 Model 142 Stepping 10, GenuineIntel;
MC_ID=unknown;
OS=Windows_NT;
OS_RELEASE=unknown;
FRU=CAD Exchanger 3.13.0 (cadexchanger.com);
APPL=unknown;
SITE=unknown;
USER=unknown;
FORMAT=text;
GUISE=transmit;
KEY=JST-B2P-VH(LF)(SN)_V_CMP-002-00025-2;
FILE=JST-B2P-VH(LF)(SN)_V_CMP-002-00025-2.x_t;
DATE=Wed Nov 29 16:27:00 2023;
**PART2;
SCH=SCH_1200000_12103;
USFLD_SIZE=0;
**PART3;
**END_OF_HEADER*****************************************************************
T51 : TRANSMIT FILE created by modeller version 120000017 SCH_1200000_121030 74
 3 1 3 0 2 475 696 12 2 316 0 3 0 0 0 0 1000.0 1.0e-08 0 0 0 1 0 1 1 12 14 20 18
 9 19 17 70 3 0 2 0 0 4 1 20 0 4 4 1 T74 20 4 1 0 5 0 0 0 0 0 0 0 0 0 0 0 0 0 0
 0 0 0 0 0 81 1 5 7 6 13 0 0 116 0 8 80 1 6 0 7 8001 0 0 0 0 3 5 0 0 0 FFFFTFTFF
FFFFF2 79 15 7 SDL/TYSA_COLOUR83 3 8 1.0 1.0 1.0 19 9 1 0 2 11 0 10 V13 10 2 0 2
 0 0 0 0 9 13 19 11 3 0 2 0 9 12 S13 12 4 0 2 0 13 0 0 11 0 14 13 5 5 1.0e-08 11
4 0 15 12 14 +0 0 114 0 10 50 14 6 0 13 115 0 0 +-4.0640000000000001e-08 0.00104
999028 0.0 0.0 0.0 -1.0 -1.0 0.0 0.0 15 15 8 0 16 13 64 17 16 0 15 24 60 17 21 1
9 0 29 +18 17 9 0 16 0 22 18 ?2 29 18 10 0 17 23 0 -0.00263004064 0.00339999028
 0.0 16 19 11 0 ?16 0 27 20 0 0 2 30 20 12 0 19 28 0 0 +-0.00393004064 0.0033999
9028 0.0 1.0 0.0 0.0 17 21 0 287 122 288 22 16 19 0 119 -18 22 13 0 21 17 25 23
 ?2 29 23 14 0 22 26 18 -0.00393004064 0.00339999028 0.0 17 24 0 15 30 16 25 29
 27 0 35 +18 25 15 0 24 22 31 26 ?2 29 26 16 0 25 32 23 -0.00263004064 0.0047999
9028 0.0 16 27 17 0 ?24 19 33 28 0 0 2 30 28 18 0 27 34 20 0 +-0.00263004064 0.0
0529999028 0.0 0.0 1.0 0.0 17 29 0 305 291 175 17 24 27 0 288 -17 30 0 15 36 24
 31 35 33 0 41 +18 31 19 0 30 25 37 32 ?2 29 32 20 0 31 38 26 0.00262995936 0.00
479999028 0.0 16 33 21 0 ?30 27 39 34 0 0 2 30 34 22 0 33 40 28 0 +-4.0640000000
000001e-08 0.00479999028 0.0 1.0 0.0 0.0 17 35 0 169 170 182 25 30 33 0 175 -17
 36 0 15 42 30 37 41 39 0 47 +18 37 23 0 36 31 43 38 ?2 29 38 24 0 37 44 32 0.00
262995936 0.00339999028 0.0 16 39 25 0 ?36 33 45 40 0 0 2 30 40 26 0 39 46 34 0
 +0.00262995936 0.00529999028 0.0 0.0 -1.0 0.0 17 41 0 359 185 300 31 36 39 0 18
2 -17 42 0 15 48 36 43 47 45 0 160 +18 43 27 0 42 37 49 44 ?2 29 44 28 0 43 50 3
8 0.00392995936 0.00339999028 0.0 16 45 29 0 ?42 39 51 46 0 0 2 30 46 30 0 45 52
 40 0 +0.00392995936 0.00339999028 0.0 1.0 0.0 0.0 17 47 0 296 297 160 37 42 45
 0 300 -17 48 0 15 54 42 49 53 51 0 59 +18 49 31 0 149 43 55 50 ?2 29 50 32 0 49
 56 44 0.00392995936 -0.00320000972 0.0 16 51 33 0 ?48 45 57 52 0 0 2 30 52 34 0
 51 58 46 0 +0.00392995936 0.00104999028 0.0 0.0 -1.0 0.0 17 53 0 154 155 149 43
 48 51 0 0 -17 54 0 15 60 48 55 59 57 0 63 +18 55 35 0 130 49 66 56 ?2 29 56 36
 0 55 67 50 -0.00393004064 -0.00320000972 0.0 16 57 37 0 ?54 51 61 58 0 0 2 30 5
8 38 0 57 62 52 0 +-4.0640000000000001e-08 -0.00320000972 0.0 -1.0 0.0 0.0 17 59
 0 139 146 130 49 54 57 0 0 -17 60 0 15 16 54 22 63 61 0 0 +16 61 39 0 ?60 57 68
 62 0 0 2 30 62 40 0 61 69 58 0 +-0.00393004064 0.00104999028 0.0 0.0 1.0 0.0 17
 63 0 118 125 119 55 60 61 0 0 -15 64 41 0 65 13 89 17 65 0 64 73 85 66 70 68 0
 78 +18 66 42 0 65 55 71 67 ?2 29 67 43 0 66 72 56 -0.00255004064 8.299902800000
0053e-04 0.0 16 68 44 0 ?65 61 76 69 0 0 2 30 69 45 0 68 77 62 0 +-0.00255004064
 8.2999028000000053e-04 0.0 0.0 -1.0 0.0 17 70 0 401 402 202 71 65 68 0 85 -18 7
1 46 0 405 66 74 72 ?2 29 72 47 0 71 75 67 -0.00255004064 0.00196999028 0.0 17 7
3 0 64 79 65 74 78 76 0 191 +18 74 48 0 73 71 80 75 ?2 29 75 49 0 74 81 72 -0.00
141004064 8.2999028000000053e-04 0.0 16 76 50 0 ?73 68 82 77 0 0 2 30 77 51 0 76
 83 69 0 +-4.0640000000000001e-08 8.2999028000000053e-04 0.0 1.0 0.0 0.0 17 78 0
 190 197 191 66 73 76 0 202 -17 79 0 64 85 73 80 84 82 0 88 +18 80 52 0 393 74 9
1 81 ?2 29 81 53 0 80 92 75 -0.00141004064 0.00196999028 0.0 16 82 54 0 ?79 76 8
6 83 0 0 2 30 83 55 0 82 87 77 0 +-0.00141004064 8.2999028000000053e-04 0.0 0.0
 1.0 0.0 17 84 0 392 194 393 74 79 82 0 0 -17 85 0 64 65 79 71 88 86 0 0 +16 86
 56 0 ?85 82 93 87 0 0 2 30 87 57 0 86 94 83 0 +-0.00255004064 0.00196999028 0.0
 -1.0 0.0 0.0 17 88 0 464 396 405 80 85 86 0 0 -15 89 58 0 90 13 0 17 90 0 89 98
 110 91 95 93 0 103 +18 91 59 0 90 80 96 92 ?2 29 92 60 0 91 97 81 0.00140995936
 8.2999028000000053e-04 0.0 16 93 61 0 ?90 86 101 94 0 0 2 30 94 62 0 93 102 87
 0 +0.00140995936 8.2999028000000053e-04 0.0 0.0 -1.0 0.0 17 95 0 419 420 223 96
 90 93 0 110 -18 96 63 0 423 91 99 97 ?2 29 97 64 0 96 100 92 0.00140995936 0.00
196999028 0.0 17 98 0 89 104 90 99 103 101 0 212 +18 99 65 0 109 96 105 100 ?2 2
9 100 66 0 99 106 97 0.00254995936 8.2999028000000053e-04 0.0 16 101 67 0 ?98 93
 107 102 0 0 2 30 102 68 0 101 108 94 0 +-4.0640000000000001e-08 8.2999028000000
053e-04 0.0 1.0 0.0 0.0 17 103 0 211 218 212 91 98 101 0 223 -17 104 0 89 110 98
 105 109 107 0 113 +18 105 69 0 411 99 123 106 ?2 29 106 70 0 105 124 100 0.0025
4995936 0.00196999028 0.0 16 107 71 0 ?104 101 111 108 0 0 2 30 108 72 0 107 112
 102 0 +0.00254995936 8.2999028000000053e-04 0.0 0.0 1.0 0.0 17 109 0 410 215 41
1 99 104 107 0 98 -17 110 0 89 90 104 96 113 111 0 0 +16 111 73 0 ?110 107 120 1
12 0 0 2 30 112 74 0 111 121 108 0 +0.00140995936 0.00196999028 0.0 -1.0 0.0 0.0
 17 113 0 469 414 423 105 110 111 0 0 -14 114 75 116 1.0e-08 135 13 118 12 115 -
0 0 135 13 10 50 115 76 0 114 136 14 0 +-0.00393004064 -0.00320000972 0.0094 1.0
 0.0 0.0 0.0 0.0 -1.0 81 1 116 77 6 114 0 0 137 5 117 83 3 117 1.0 1.0 1.0 15 11
8 78 0 119 114 0 17 119 0 118 63 131 22 122 120 0 60 -16 120 79 0 ?122 111 128 1
21 0 0 2 30 121 80 0 120 129 112 0 +-0.00393004064 0.00339999028 0.0094 0.0 0.0
 1.0 17 122 0 287 248 21 123 119 120 0 131 +18 123 81 0 122 105 126 124 ?2 29 12
4 82 0 123 127 106 -0.00393004064 0.00339999028 0.0032 17 125 0 118 131 63 126 1
30 128 0 134 -18 126 83 0 125 123 144 127 ?2 29 127 84 0 126 145 124 -0.00393004
064 -0.00320000972 0.0032 16 128 85 0 ?130 120 132 129 0 0 2 30 129 86 0 128 133
 121 0 +-0.00393004064 -0.00320000972 0.0094 0.0 0.0 -1.0 17 130 0 139 59 140 55
 125 128 0 54 +17 131 0 118 119 125 123 134 132 0 245 -16 132 87 0 ?134 128 141
 133 0 0 2 30 133 88 0 132 142 129 0 +-0.00393004064 -0.00320000972 0.0032 0.0 -
1.0 0.0 17 134 0 232 143 245 126 131 132 0 140 +14 135 89 137 1.0e-08 150 114 13
9 12 136 -0 0 150 114 10 50 136 90 0 135 151 115 0 +-0.00393004064 -0.0032000097
2 0.0094 0.0 1.0 0.0 0.0 0.0 1.0 81 1 137 91 6 135 0 0 152 116 138 83 3 138 1.0
 1.0 1.0 15 139 92 0 140 135 0 17 140 0 139 130 146 126 143 141 0 0 -16 141 93 0
 ?143 132 147 142 0 0 2 30 142 94 0 141 148 133 0 +-0.00393004064 -0.00320000972
 0.0032 1.0 0.0 0.0 17 143 0 232 164 134 144 140 141 0 146 +18 144 95 0 143 126
 156 145 ?2 29 145 96 0 144 157 127 0.00392995936 -0.00320000972 0.0032 17 146 0
 139 140 59 144 149 147 0 161 -16 147 97 0 ?149 141 158 148 0 0 2 30 148 98 0 14
7 159 142 0 +0.00392995936 -0.00320000972 0.0094 0.0 0.0 -1.0 17 149 0 154 53 16
1 49 146 147 0 48 +14 150 99 152 1.0e-08 165 135 154 12 151 -0 0 165 135 10 50 1
51 100 0 150 166 136 0 +0.00392995936 -0.00320000972 0.0094 -1.0 0.0 0.0 0.0 0.0
 1.0 81 1 152 101 6 150 0 0 167 137 153 83 3 153 1.0 1.0 1.0 15 154 102 0 155 15
0 0 17 155 0 154 161 53 156 160 158 0 164 -18 156 103 0 238 144 171 157 ?2 29 15
7 104 0 156 172 145 0.00392995936 0.00339999028 0.0032 16 158 105 0 ?160 147 162
 159 0 0 2 30 159 106 0 158 163 148 0 +0.00392995936 0.00339999028 0.0094 0.0 0.
0 -1.0 17 160 0 296 47 238 43 155 158 0 53 +17 161 0 154 149 155 144 164 162 0 0
 -16 162 107 0 ?164 158 173 163 0 0 2 30 163 108 0 162 174 159 0 +0.00392995936
 -0.00320000972 0.0032 0.0 1.0 0.0 17 164 0 232 233 143 156 161 162 0 0 +14 165
 109 167 1.0e-08 186 150 169 12 166 -0 0 186 150 10 50 166 110 0 165 187 151 0 +
0.00262995936 0.00479999028 0.007 0.0 -1.0 0.0 0.0 0.0 -1.0 81 1 167 111 6 165 0
 0 188 152 168 83 3 168 1.0 1.0 1.0 15 169 112 0 170 165 0 17 170 0 169 176 35 1
71 175 173 0 181 -18 171 113 0 170 156 177 172 ?2 29 172 114 0 171 178 157 -0.00
263004064 0.00479999028 0.007 16 173 115 0 ?175 162 179 174 0 0 2 30 174 116 0 1
73 180 163 0 +-0.00263004064 0.00479999028 0.007 0.0 0.0 -1.0 17 175 0 305 29 33
2 25 170 173 0 0 +17 176 0 169 182 170 177 181 179 0 185 -18 177 117 0 351 171 1
95 178 ?2 29 178 118 0 177 196 172 0.00262995936 0.00479999028 0.007 16 179 119
 0 ?181 173 183 180 0 0 2 30 180 120 0 179 184 174 0 +0.00262995936 0.0047999902
8 0.007 -1.0 0.0 0.0 17 181 0 344 335 351 171 176 179 0 332 +17 182 0 169 35 176
 31 185 183 0 0 -16 183 121 0 ?185 179 192 184 0 0 2 30 184 122 0 183 193 180 0
 +0.00262995936 0.00479999028 0.007 0.0 0.0 1.0 17 185 0 359 354 41 177 182 183
 0 0 +14 186 123 188 1.0e-08 207 165 190 12 187 -0 0 207 165 10 50 187 124 0 186
 208 166 0 +-0.00255004064 8.2999028000000053e-04 0.0 0.0 -1.0 0.0 0.0 0.0 -1.0
 81 1 188 125 6 186 0 0 209 167 189 83 3 189 1.0 1.0 1.0 15 190 126 0 191 186 0
 17 191 0 190 78 203 74 194 192 0 84 -16 192 127 0 ?194 183 200 193 0 0 2 30 193
 128 0 192 201 184 0 +-0.00141004064 8.2999028000000053e-04 0.0 0.0 0.0 1.0 17 1
94 0 392 253 84 195 191 192 0 203 +18 195 129 0 250 177 198 196 ?2 29 196 130 0
 195 199 178 -0.00141004064 8.2999028000000053e-04 0.0032 17 197 0 190 203 78 19
8 202 200 0 206 -18 198 131 0 261 195 216 199 ?2 29 199 132 0 198 217 196 -0.002
55004064 8.2999028000000053e-04 0.0032 16 200 133 0 ?202 192 204 201 0 0 2 30 20
1 134 0 200 205 193 0 +-0.00255004064 8.2999028000000053e-04 0.0 0.0 0.0 -1.0 17
 202 0 401 70 261 66 197 200 0 0 +17 203 0 190 191 197 195 206 204 0 0 -16 204 1
35 0 ?206 200 213 205 0 0 2 30 205 136 0 204 214 201 0 +-0.00255004064 8.2999028
000000053e-04 0.0032 -1.0 0.0 0.0 17 206 0 249 256 250 198 203 204 0 0 +14 207 1
37 209 1.0e-08 228 186 211 12 208 -0 0 228 186 10 50 208 138 0 207 229 187 0 +0.
00140995936 8.2999028000000053e-04 0.0 0.0 -1.0 0.0 0.0 0.0 -1.0 81 1 209 139 6
 207 0 0 230 188 210 83 3 210 1.0 1.0 1.0 15 211 140 0 212 207 0 17 212 0 211 10
3 224 99 215 213 0 0 -16 213 141 0 ?215 204 221 214 0 0 2 30 214 142 0 213 222 2
05 0 +0.00254995936 8.2999028000000053e-04 0.0 0.0 0.0 1.0 17 215 0 410 270 109
 216 212 213 0 0 +18 216 143 0 267 198 219 217 ?2 29 217 144 0 216 220 199 0.002
54995936 8.2999028000000053e-04 0.0032 17 218 0 211 224 103 219 223 221 0 227 -1
8 219 145 0 278 216 234 220 ?2 29 220 146 0 219 235 217 0.00140995936 8.29990280
00000053e-04 0.0032 16 221 147 0 ?223 213 225 222 0 0 2 30 222 148 0 221 226 214
 0 +0.00140995936 8.2999028000000053e-04 0.0 0.0 0.0 -1.0 17 223 0 419 95 278 91
 218 221 0 0 +17 224 0 211 212 218 216 227 225 0 215 -16 225 149 0 ?227 221 236
 226 0 0 2 30 226 150 0 225 237 222 0 +0.00140995936 8.2999028000000053e-04 0.00
32 -1.0 0.0 0.0 17 227 0 266 273 267 219 224 225 0 0 +14 228 151 230 1.0e-08 283
 207 232 12 229 -0 0 283 207 10 50 229 152 0 228 284 208 0 +-4.0640000000000001e
-08 0.00104999028 0.0032 0.0 0.0 -1.0 -1.0 0.0 0.0 81 1 230 153 6 228 0 0 285 20
9 231 83 3 231 1.0 1.0 1.0 15 232 154 0 143 228 249 17 233 0 232 239 164 234 238
 236 0 244 -18 234 155 0 233 219 240 235 ?2 29 235 156 0 234 241 220 0.002629959
36 0.00339999028 0.0032 16 236 157 0 ?238 225 242 237 0 0 2 30 237 158 0 236 243
 226 0 +-4.0640000000000001e-08 0.00339999028 0.0032 1.0 0.0 0.0 17 238 0 296 16
0 297 156 233 236 0 155 +17 239 0 232 245 233 240 244 242 0 248 -18 240 159 0 33
9 234 254 241 ?2 29 241 160 0 240 255 235 -0.00263004064 0.00339999028 0.0032 16
 242 161 0 ?244 236 246 243 0 0 2 30 243 162 0 242 247 237 0 +-4.064000000000000
1e-08 0.00339999028 0.0032 1.0 0.0 0.0 17 244 0 428 371 339 234 239 242 0 368 +1
7 245 0 232 134 239 123 248 246 0 0 -16 246 163 0 ?248 242 251 247 0 0 2 30 247
 164 0 246 252 243 0 +-4.0640000000000001e-08 0.00339999028 0.0032 1.0 0.0 0.0 1
7 248 0 287 288 122 240 245 246 0 291 +15 249 165 0 250 228 266 17 250 0 249 206
 262 195 253 251 0 194 -16 251 166 0 ?253 246 259 252 0 0 2 30 252 167 0 251 260
 247 0 +-0.00141004064 0.00104999028 0.0032 0.0 1.0 0.0 17 253 0 392 393 194 254
 250 251 0 262 +18 254 168 0 396 240 257 255 ?2 29 255 169 0 254 258 241 -0.0014
1004064 0.00196999028 0.0032 17 256 0 249 262 206 257 261 259 0 402 -18 257 170
 0 256 254 271 258 ?2 29 258 171 0 257 272 255 -0.00255004064 0.00196999028 0.00
32 16 259 172 0 ?261 251 263 260 0 0 2 30 260 173 0 259 264 252 0 +-0.0025500406
4 0.00104999028 0.0032 0.0 -1.0 0.0 17 261 0 401 202 402 198 256 259 0 197 +17 2
62 0 249 250 256 254 265 263 0 0 +16 263 174 0 ?262 259 268 264 0 0 2 30 264 175
 0 263 269 260 0 +-0.00255004064 0.00196999028 0.0032 1.0 0.0 0.0 17 265 0 464 4
05 396 257 262 263 0 0 -15 266 176 0 267 228 0 17 267 0 266 227 279 216 270 268
 0 224 -16 268 177 0 ?270 263 276 269 0 0 2 30 269 178 0 268 277 264 0 +0.002549
95936 0.00104999028 0.0032 0.0 1.0 0.0 17 270 0 410 411 215 271 267 268 0 0 +18
 271 179 0 279 257 274 272 ?2 29 272 180 0 271 275 258 0.00254995936 0.001969990
28 0.0032 17 273 0 266 279 227 274 278 276 0 0 -18 274 181 0 282 271 307 275 ?2
 29 275 182 0 274 308 272 0.00140995936 0.00196999028 0.0032 16 276 183 0 ?278 2
68 280 277 0 0 2 30 277 184 0 276 281 269 0 +0.00140995936 0.00104999028 0.0032
 0.0 -1.0 0.0 17 278 0 419 223 420 219 273 276 0 218 +17 279 0 266 267 273 271 2
82 280 0 414 +16 280 185 0 ?279 276 289 281 0 0 2 30 281 186 0 280 290 277 0 +0.
00140995936 0.00196999028 0.0032 1.0 0.0 0.0 17 282 0 469 423 414 274 279 280 0
 420 -14 283 187 285 1.0e-08 292 228 287 12 284 -0 0 292 228 10 50 284 188 0 283
 293 229 0 +-0.00393004064 0.00339999028 0.0 0.0 -1.0 0.0 0.0 0.0 -1.0 81 1 285
 189 6 283 0 0 294 230 286 83 3 286 1.0 1.0 1.0 15 287 190 0 21 283 0 17 288 0 2
87 21 248 17 291 289 0 0 -16 289 191 0 ?291 280 298 290 0 0 2 30 290 192 0 289 2
99 281 0 +-0.00263004064 0.00339999028 0.0 0.0 0.0 1.0 17 291 0 305 336 29 240 2
88 289 0 0 +14 292 193 294 1.0e-08 301 283 296 12 293 -0 0 301 283 10 50 293 194
 0 292 302 284 0 +0.00392995936 0.00339999028 0.0 0.0 -1.0 0.0 0.0 0.0 -1.0 81 1
 294 195 6 292 0 0 303 285 295 83 3 295 1.0 1.0 1.0 15 296 196 0 47 292 0 17 297
 0 296 238 47 234 300 298 0 0 -16 298 197 0 ?300 289 309 299 0 0 2 30 299 198 0
 298 310 290 0 +0.00262995936 0.00339999028 0.0 0.0 0.0 -1.0 17 300 0 359 41 368
 37 297 298 0 0 +14 301 199 303 1.0e-08 340 292 305 12 302 -0 0 340 292 10 50 30
2 200 0 301 341 293 0 +-0.00263004064 0.00529999028 0.0 1.0 0.0 0.0 0.0 0.0 -1.0
 81 1 303 201 6 301 0 0 342 294 304 83 3 304 1.0 1.0 1.0 15 305 202 0 306 301 0
 17 306 0 305 314 336 307 311 309 0 319 -18 307 203 0 306 274 312 308 ?2 29 308
 204 0 307 313 275 -0.00263004064 0.0039894785033485 0.0094 16 309 205 0 ?311 29
8 317 310 0 0 2 30 310 206 0 309 318 299 0 +-0.00263004064 0.0039894785033485 0.
0094 0.0 -0.258819045102517 -0.9659258262890694 17 311 0 437 432 438 312 306 309
 0 0 +18 312 207 0 336 307 315 313 ?2 29 313 208 0 312 316 308 -0.00263004064 0.
00339999028 0.0072 17 314 0 305 320 306 315 319 317 0 325 +18 315 209 0 314 312
 321 316 ?2 29 316 210 0 315 322 313 -0.00263004064 0.00469999028 0.0094 16 317
 211 0 ?314 309 323 318 0 0 2 30 318 212 0 317 324 310 0 +-0.00263004064 0.00104
999028 0.0094 0.0 1.0 0.0 17 319 0 474 441 454 307 314 317 0 438 -17 320 0 305 3
26 314 321 325 323 0 447 -18 321 213 0 320 315 327 322 ?2 29 322 214 0 321 328 3
16 -0.00263004064 0.00529999028 0.0072 16 323 215 0 ?325 317 329 324 0 0 2 30 32
4 216 0 323 330 318 0 +-0.00263004064 0.00529999028 0.0072 0.0 -0.26311740579210
59 0.964763821237733 17 325 0 446 451 447 315 320 323 0 454 +17 326 0 305 332 32
0 327 331 329 0 335 +18 327 217 0 350 321 346 328 ?2 29 328 218 0 327 347 322 -0
.00263004064 0.00529999028 0.007 16 329 219 0 ?326 323 333 330 0 0 2 30 330 220
 0 329 334 324 0 +-0.00263004064 0.00529999028 0.0094 0.0 0.0 -1.0 17 331 0 459
 450 350 321 326 329 0 0 -17 332 0 305 175 326 171 335 333 0 0 -16 333 221 0 ?33
5 329 337 334 0 0 2 30 334 222 0 333 338 330 0 +-0.00263004064 0.00529999028 0.0
07 0.0 1.0 0.0 17 335 0 344 345 181 327 332 333 0 0 +17 336 0 305 306 291 312 33
9 337 0 429 -16 337 223 0 ?339 333 348 338 0 0 2 30 338 224 0 337 349 334 0 +-0.
00263004064 0.00339999028 0.0 0.0 0.0 -1.0 17 339 0 428 244 429 240 336 337 0 23
9 +14 340 225 342 1.0e-08 355 301 344 12 341 +0 0 355 301 10 50 341 226 0 340 35
6 302 0 +-4.0640000000000001e-08 0.00104999028 0.007 0.0 0.0 -1.0 -1.0 0.0 0.0 8
1 1 342 227 6 340 0 0 357 303 343 83 3 343 1.0 1.0 1.0 15 344 228 0 335 340 0 17
 345 0 344 351 335 346 350 348 0 354 +18 346 229 0 345 327 361 347 ?2 29 347 230
 0 346 362 328 0.00262995936 0.00529999028 0.007 16 348 231 0 ?345 337 352 349 0
 0 2 30 349 232 0 348 353 338 0 +-4.0640000000000001e-08 0.00529999028 0.007 1.0
 0.0 0.0 17 350 0 459 331 377 327 345 348 0 326 -17 351 0 344 181 345 177 354 35
2 0 176 +16 352 233 0 ?351 348 363 353 0 0 2 30 353 234 0 352 364 349 0 +0.00262
995936 0.00104999028 0.007 0.0 -1.0 0.0 17 354 0 359 372 185 346 351 352 0 377 -
14 355 235 357 1.0e-08 388 340 359 12 356 -0 0 388 340 10 50 356 236 0 355 389 3
41 0 +0.00262995936 0.00529999028 0.0 -1.0 0.0 0.0 0.0 0.0 1.0 81 1 357 237 6 35
5 0 0 390 342 358 83 3 358 1.0 1.0 1.0 15 359 238 0 360 355 0 17 360 0 359 368 3
84 361 365 363 0 371 -18 361 239 0 360 346 366 362 ?2 29 362 240 0 361 367 347 0
.00262995936 0.00339999028 0.0072 16 363 241 0 ?365 352 369 364 0 0 2 30 364 242
 0 363 370 353 0 +0.00262995936 0.00339999028 0.0072 0.0 0.258819045102517 0.965
9258262890694 17 365 0 437 438 432 366 360 363 0 384 +18 366 243 0 365 361 373 3
67 ?2 29 367 244 0 366 374 362 0.00262995936 0.0039894785033485 0.0094 17 368 0
 359 300 360 234 371 369 0 297 -16 369 245 0 ?371 363 375 370 0 0 2 30 370 246 0
 369 376 364 0 +0.00262995936 0.00339999028 0.0 0.0 0.0 1.0 17 371 0 428 429 244
 361 368 369 0 432 +17 372 0 359 378 354 373 377 375 0 450 -18 373 247 0 383 366
 379 374 ?2 29 374 248 0 373 380 367 0.00262995936 0.00529999028 0.0072 16 375 2
49 0 ?377 369 381 376 0 0 2 30 376 250 0 375 382 370 0 +0.00262995936 0.00529999
028 0.0 0.0 0.0 -1.0 17 377 0 459 350 450 346 372 375 0 0 +17 378 0 359 384 372
 379 383 381 0 387 -18 379 251 0 378 373 0 380 ?2 29 380 252 0 379 0 374 0.00262
995936 0.00469999028 0.0094 16 381 253 0 ?383 375 385 382 0 0 2 30 382 254 0 381
 386 376 0 +0.00262995936 0.00469999028 0.0094 0.0 0.2631174057921045 -0.9647638
212377332 17 383 0 446 447 451 373 378 381 0 372 +17 384 0 359 360 378 366 387 3
85 0 441 +16 385 255 0 ?384 381 394 386 0 0 2 30 386 256 0 385 395 382 0 +0.0026
2995936 0.00104999028 0.0094 0.0 -1.0 0.0 17 387 0 474 454 441 379 384 385 0 451
 -14 388 257 390 1.0e-08 397 355 392 12 389 -0 0 397 355 10 50 389 258 0 388 398
 356 0 +-0.00141004064 8.2999028000000053e-04 0.0 1.0 0.0 0.0 0.0 0.0 -1.0 81 1
 390 259 6 388 0 0 399 357 391 83 3 391 1.0 1.0 1.0 15 392 260 0 393 388 0 17 39
3 0 392 84 253 80 396 394 0 79 -16 394 261 0 ?396 385 403 395 0 0 2 30 395 262 0
 394 404 386 0 +-0.00141004064 0.00196999028 0.0 0.0 0.0 1.0 17 396 0 464 265 88
 254 393 394 0 253 +14 397 263 399 1.0e-08 406 388 401 12 398 -0 0 406 388 10 50
 398 264 0 397 407 389 0 +-0.00255004064 8.2999028000000053e-04 0.0 -1.0 0.0 0.0
 0.0 0.0 1.0 81 1 399 265 6 397 0 0 408 390 400 83 3 400 1.0 1.0 1.0 15 401 266
 0 202 397 0 17 402 0 401 261 70 257 405 403 0 265 -16 403 267 0 ?405 394 412 40
4 0 0 2 30 404 268 0 403 413 395 0 +-0.00255004064 0.00196999028 0.0 0.0 0.0 -1.
0 17 405 0 464 88 265 71 402 403 0 70 +14 406 269 408 1.0e-08 415 397 410 12 407
 -0 0 415 397 10 50 407 270 0 406 416 398 0 +0.00254995936 8.2999028000000053e-0
4 0.0 1.0 0.0 0.0 0.0 0.0 -1.0 81 1 408 271 6 406 0 0 417 399 409 83 3 409 1.0 1
.0 1.0 15 410 272 0 411 406 0 17 411 0 410 109 270 105 414 412 0 104 -16 412 273
 0 ?414 403 421 413 0 0 2 30 413 274 0 412 422 404 0 +0.00254995936 0.0019699902
8 0.0 0.0 0.0 1.0 17 414 0 469 282 113 271 411 412 0 270 +14 415 275 417 1.0e-08
 424 406 419 12 416 -0 0 424 406 10 50 416 276 0 415 425 407 0 +0.00140995936 8.
2999028000000053e-04 0.0 -1.0 0.0 0.0 0.0 0.0 1.0 81 1 417 277 6 415 0 0 426 408
 418 83 3 418 1.0 1.0 1.0 15 419 278 0 223 415 0 17 420 0 419 278 95 274 423 421
 0 273 -16 421 279 0 ?423 412 430 422 0 0 2 30 422 280 0 421 431 413 0 +0.001409
95936 0.00196999028 0.0 0.0 0.0 -1.0 17 423 0 469 113 282 96 420 421 0 95 +14 42
4 281 426 1.0e-08 433 415 428 12 425 -0 0 433 415 10 50 425 282 0 424 434 416 0
 +-0.00393004064 0.00339999028 0.0032 0.0 1.0 0.0 0.0 0.0 1.0 81 1 426 283 6 424
 0 0 435 417 427 83 3 427 1.0 1.0 1.0 15 428 284 0 429 424 0 17 429 0 428 339 37
1 312 432 430 0 311 -16 430 285 0 ?432 421 439 431 0 0 2 30 431 286 0 430 440 42
2 0 +-0.00393004064 0.00339999028 0.0072 1.0 0.0 0.0 17 432 0 437 365 311 361 42
9 430 0 0 +14 433 287 435 1.0e-08 442 424 437 12 434 -0 0 442 424 10 50 434 288
 0 433 443 425 0 +-0.00393004064 0.00339999028 0.0072 0.0 0.965925826289069 -0.2
58819045102518 0.0 0.258819045102518 0.965925826289069 81 1 435 289 6 433 0 0 44
4 426 436 83 3 436 1.0 1.0 1.0 15 437 290 0 438 433 0 17 438 0 437 311 365 307 4
41 439 0 0 -16 439 291 0 ?441 430 448 440 0 0 2 30 440 292 0 439 449 431 0 +-0.0
0393004064 0.0039894785033485 0.0094 1.0 0.0 0.0 17 441 0 474 387 319 366 438 43
9 0 0 +14 442 293 444 1.0e-08 455 433 446 12 443 -0 0 455 433 10 50 443 294 0 44
2 456 434 0 +-4.0640000000000001e-08 0.00469999028 0.0094 0.0 -0.964763821237733
 -0.2631174057921059 0.0 0.2631174057921059 -0.964763821237733 81 1 444 295 6 44
2 0 0 457 435 445 83 3 445 1.0 1.0 1.0 15 446 296 0 447 442 0 17 447 0 446 325 3
83 321 450 448 0 331 -16 448 297 0 ?450 439 452 449 0 0 2 30 449 298 0 448 453 4
40 0 +-4.0640000000000001e-08 0.00529999028 0.0072 1.0 0.0 0.0 17 450 0 459 377
 331 373 447 448 0 0 +17 451 0 446 383 325 379 454 452 0 0 -16 452 299 0 ?454 44
8 0 453 0 0 2 30 453 300 0 452 0 449 0 +-4.0640000000000001e-08 0.00469999028 0.
0094 -1.0 0.0 0.0 17 454 0 474 319 387 315 451 452 0 0 +14 455 301 457 1.0e-08 4
60 442 459 12 456 -0 0 460 442 10 50 456 302 0 455 461 443 0 +-0.00393004064 0.0
0529999028 0.0094 0.0 -1.0 0.0 0.0 0.0 -1.0 81 1 457 303 6 455 0 0 462 444 458 8
3 3 458 1.0 1.0 1.0 15 459 304 0 450 455 0 14 460 305 462 1.0e-08 465 455 464 12
 461 -0 0 465 455 10 50 461 306 0 460 466 456 0 +-0.00255004064 0.00196999028 0.
0 0.0 1.0 0.0 0.0 0.0 1.0 81 1 462 307 6 460 0 0 467 457 463 83 3 463 1.0 1.0 1.
0 15 464 308 0 405 460 0 14 465 309 467 1.0e-08 470 460 469 12 466 -0 0 470 460
 10 50 466 310 0 465 471 461 0 +0.00140995936 0.00196999028 0.0 0.0 1.0 0.0 0.0
 0.0 1.0 81 1 467 311 6 465 0 0 472 462 468 83 3 468 1.0 1.0 1.0 15 469 312 0 42
3 465 0 14 470 313 472 1.0e-08 0 465 474 12 471 -0 0 0 465 10 50 471 314 0 470 0
 466 0 +-4.0640000000000001e-08 0.00104999028 0.0094 0.0 0.0 -1.0 -1.0 0.0 0.0 8
1 1 472 315 6 470 0 0 0 467 473 83 3 473 1.0 1.0 1.0 15 474 316 0 441 470 0 12 4
75 148 0 476 0 0 0 0 1000.0 1.0e-08 0 0 0 1 0 1 1 483 485 491 489 480 490 488 70
 476 0 475 0 0 4 1 20 0 477 477 1 T74 20 477 1 0 478 0 0 0 0 0 0 0 0 0 0 0 0 0 0
 0 0 0 0 0 81 1 478 7 6 484 0 0 513 0 479 83 3 479 0.8980392217636108 0.89803922
17636108 0.8980392217636108 19 480 1 0 475 482 0 481 V13 481 2 0 475 0 0 0 0 480
 484 19 482 3 0 475 0 480 483 S13 483 4 0 475 0 484 0 0 482 0 14 484 5 478 1.0e-
08 511 0 486 483 485 -0 0 511 0 481 50 485 6 0 484 512 0 0 +-0.00141004064 8.299
9028000000017e-04 0.0109 -1.0 0.0 0.0 0.0 0.0 1.0 15 486 8 0 487 484 0 17 487 0
 486 495 507 488 492 490 0 500 -18 488 9 0 487 0 493 489 ?475 29 489 10 0 488 49
4 0 -0.00141004064 0.00196999028 -0.0027 16 490 11 0 ?492 0 498 491 0 0 475 30 4
91 12 0 490 499 0 0 +-0.00141004064 8.2999028000000017e-04 -0.0027 0.0 -1.0 0.0
 17 492 0 536 537 549 493 487 490 0 507 +18 493 13 0 492 488 496 494 ?475 29 494
 14 0 493 497 489 -0.00141004064 8.2999027999999999e-04 -0.0027 17 495 0 486 501
 487 496 500 498 0 506 -18 496 15 0 495 493 502 497 ?475 29 497 16 0 496 503 494
 -0.00141004064 0.00196999028 0.0099 16 498 17 0 ?500 490 504 499 0 0 475 30 499
 18 0 498 505 491 0 +-0.00141004064 0.00196999028 0.0109 0.0 0.0 -1.0 17 500 0 5
57 558 570 488 495 498 0 549 +17 501 0 486 507 495 502 506 504 0 510 -18 502 19
 0 501 496 520 503 ?475 29 503 20 0 502 521 497 -0.00141004064 8.299902800000005
3e-04 0.0099 16 504 21 0 ?506 498 508 505 0 0 475 30 505 22 0 504 509 499 0 +-0.
00141004064 8.2999028000000017e-04 0.0099 0.0 1.0 0.0 17 506 0 578 579 591 496 5
01 504 0 570 +17 507 0 486 487 501 493 510 508 0 516 -16 508 23 0 ?510 504 517 5
09 0 0 475 30 509 24 0 508 518 505 0 +-0.00141004064 8.2999028000000017e-04 0.01
09 0.0 0.0 1.0 17 510 0 515 522 516 502 507 508 0 591 +14 511 25 513 1.0e-08 532
 484 515 483 512 -0 0 532 484 481 50 512 26 0 511 533 485 0 +-0.00141004064 8.29
99028000000017e-04 0.0109 0.0 1.0 0.0 0.0 0.0 1.0 81 1 513 27 6 511 0 0 534 478
 514 83 3 514 0.8980392217636108 0.8980392217636108 0.8980392217636108 15 515 28
 0 516 511 0 17 516 0 515 510 528 493 519 517 0 542 -16 517 29 0 ?519 508 525 51
8 0 0 475 30 518 30 0 517 526 509 0 +-0.00141004064 8.2999028000000017e-04 -0.00
27 -1.0 0.0 0.0 17 519 0 612 613 542 520 516 517 0 600 +18 520 31 0 519 502 523
 521 ?475 29 521 32 0 520 524 503 -0.00255004064 8.2999028000000017e-04 -0.0027
 17 522 0 515 528 510 523 527 525 0 531 -18 523 33 0 634 520 538 524 ?475 29 524
 34 0 523 539 521 -0.00255004064 8.2999028000000017e-04 0.0099 16 525 35 0 ?527
 517 529 526 0 0 475 30 526 36 0 525 530 518 0 +-0.00141004064 8.299902800000001
7e-04 0.0099 1.0 0.0 0.0 17 527 0 627 594 634 502 522 525 0 0 +17 528 0 515 516
 522 520 531 529 0 618 -16 529 37 0 ?531 525 540 530 0 0 475 30 530 38 0 529 541
 526 0 +-0.00255004064 8.2999028000000017e-04 0.0109 0.0 0.0 1.0 17 531 0 599 60
4 600 523 528 529 0 607 +14 532 39 534 1.0e-08 553 511 536 483 533 -0 0 553 511
 481 50 533 40 0 532 554 512 0 +-0.0016779898324311 0.00139999028 -0.0037 -0.965
9258262890692 0.0 0.2588190451025175 0.2588190451025175 0.0 0.9659258262890692 8
1 1 534 41 6 532 0 0 555 513 535 83 3 535 0.8980392217636108 0.8980392217636108
 0.8980392217636108 15 536 42 0 492 532 0 17 537 0 536 543 492 538 542 540 0 548
 -18 538 43 0 537 523 544 539 ?475 29 539 44 0 538 545 524 -0.0016779898324311 0
.0010979394724311 -0.0037 16 540 45 0 ?542 529 546 541 0 0 475 30 541 46 0 540 5
47 530 0 +-0.0016779898324311 0.0010979394724311 -0.0037 0.2505628070857286 -0.2
505628070857286 0.935113126531031 17 542 0 612 519 619 493 537 540 0 0 +17 543 0
 536 549 537 544 548 546 0 552 -18 544 47 0 648 538 559 545 ?475 29 545 48 0 544
 560 539 -0.0016779898324311 0.0017020410875689 -0.0037 16 546 49 0 ?548 540 550
 547 0 0 475 30 547 50 0 546 551 541 0 +-0.0016779898324311 0.00139999028 -0.003
7 0.0 -1.0 0.0 17 548 0 657 622 648 538 543 546 0 619 +17 549 0 536 492 543 488
 552 550 0 563 -16 550 51 0 ?552 546 561 551 0 0 475 30 551 52 0 550 562 547 0 +
-0.00141004064 0.00196999028 -0.0027 -0.2505628070857286 -0.2505628070857286 -0.
935113126531031 17 552 0 642 643 563 544 549 550 0 0 +14 553 53 555 1.0e-08 574
 532 557 483 554 -0 0 574 532 481 50 554 54 0 553 575 533 0 +-0.00141004064 0.00
196999028 0.0109 0.0 -1.0 0.0 0.0 0.0 -1.0 81 1 555 55 6 553 0 0 576 534 556 83
 3 556 0.8980392217636108 0.8980392217636108 0.8980392217636108 15 557 56 0 558
 553 0 17 558 0 557 564 500 559 563 561 0 569 -18 559 57 0 603 544 565 560 ?475
 29 560 58 0 559 566 545 -0.00255004064 0.00196999028 -0.0027 16 561 59 0 ?563 5
50 567 562 0 0 475 30 562 60 0 561 568 551 0 +-0.00141004064 0.00196999028 -0.00
27 1.0 0.0 0.0 17 563 0 642 552 649 488 558 561 0 0 +17 564 0 557 570 558 565 56
9 567 0 573 -18 565 61 0 604 559 580 566 ?475 29 566 62 0 565 581 560 -0.0025500
4064 0.00196999028 0.0099 16 567 63 0 ?569 561 571 568 0 0 475 30 568 64 0 567 5
72 562 0 +-0.00255004064 0.00196999028 0.0109 0.0 0.0 -1.0 17 569 0 599 600 604
 559 564 567 0 0 +17 570 0 557 500 564 496 573 571 0 584 -16 571 65 0 ?573 567 5
82 572 0 0 475 30 572 66 0 571 583 568 0 +-0.00141004064 0.00196999028 0.0099 -1
.0 0.0 0.0 17 573 0 666 667 584 565 570 571 0 0 +14 574 67 576 1.0e-08 595 553 5
78 483 575 +0 0 595 553 481 50 575 68 0 574 596 554 0 +-0.0016779898324311 0.001
39999028 0.0109 0.9659258262890692 0.0 0.2588190451025175 0.2588190451025175 0.0
 -0.9659258262890692 81 1 576 69 6 574 0 0 597 555 577 83 3 577 0.89803922176361
08 0.8980392217636108 0.8980392217636108 15 578 70 0 579 574 0 17 579 0 578 585
 506 580 584 582 0 0 +18 580 71 0 590 565 586 581 ?475 29 581 72 0 580 587 566 -
0.0016779898324311 0.0017020410875689 0.0109 16 582 73 0 ?579 571 588 583 0 0 47
5 30 583 74 0 582 589 572 0 +-0.00141004064 0.00196999028 0.0099 -0.250562807085
7286 -0.250562807085729 0.9351131265310308 17 584 0 666 573 673 496 579 582 0 0
 -17 585 0 578 591 579 586 590 588 0 594 +18 586 75 0 585 580 614 587 ?475 29 58
7 76 0 586 615 581 -0.0016779898324311 0.0010979394724311 0.0109 16 588 77 0 ?58
5 582 592 589 0 0 475 30 589 78 0 588 593 583 0 +-0.0016779898324311 0.001399990
28 0.0109 0.0 -1.0 0.0 17 590 0 681 676 633 580 585 588 0 673 -17 591 0 578 506
 585 502 594 592 0 527 +16 592 79 0 ?591 588 601 593 0 0 475 30 593 80 0 592 602
 589 0 +-0.0016779898324311 0.0010979394724311 0.0109 0.2505628070857286 -0.2505
62807085729 -0.9351131265310308 17 594 0 627 628 527 586 591 592 0 633 -14 595 8
1 597 1.0e-08 608 574 599 483 596 -0 0 608 574 481 50 596 82 0 595 609 575 0 +-0
.00255004064 8.2999028000000017e-04 0.0109 1.0 0.0 0.0 0.0 0.0 -1.0 81 1 597 83
 6 595 0 0 610 576 598 83 3 598 0.8980392217636108 0.8980392217636108 0.89803922
17636108 15 599 84 0 600 595 0 17 600 0 599 531 569 520 603 601 0 528 -16 601 85
 0 ?603 592 605 602 0 0 475 30 602 86 0 601 606 593 0 +-0.00255004064 8.29990280
00000017e-04 -0.0027 0.0 1.0 0.0 17 603 0 690 652 618 559 600 601 0 649 +17 604
 0 599 569 531 565 607 605 0 672 -16 605 87 0 ?607 601 616 606 0 0 475 30 606 88
 0 605 617 602 0 +-0.00255004064 8.2999028000000017e-04 0.0099 0.0 -1.0 0.0 17 6
07 0 695 637 672 523 604 605 0 0 +14 608 89 610 1.0e-08 623 595 612 483 609 -0 0
 623 595 481 50 609 90 0 608 624 596 0 +-0.00198004064 0.0010979394724311 -0.003
7 0.0 0.9659258262890692 0.2588190451025175 0.0 -0.2588190451025175 0.9659258262
890692 81 1 610 91 6 608 0 0 625 597 611 83 3 611 0.8980392217636108 0.898039221
7636108 0.8980392217636108 15 612 92 0 519 608 0 17 613 0 612 619 519 614 618 61
6 0 622 -18 614 93 0 661 586 629 615 ?475 29 615 94 0 614 630 587 -0.00228209144
75689 0.0010979394724311 -0.0037 16 616 95 0 ?618 605 620 617 0 0 475 30 617 96
 0 616 621 606 0 +-0.0022820914475689 0.0010979394724311 -0.0037 -0.250562807085
7282 -0.2505628070857286 0.935113126531031 17 618 0 690 603 661 520 613 616 0 0
 +17 619 0 612 542 613 538 622 620 0 0 -16 620 97 0 ?622 616 631 621 0 0 475 30
 621 98 0 620 632 617 0 +-0.00198004064 0.0010979394724311 -0.0037 -1.0 0.0 0.0
 17 622 0 657 658 548 614 619 620 0 0 +14 623 99 625 1.0e-08 638 608 627 483 624
 +0 0 638 608 481 50 624 100 0 623 639 609 0 +-0.00198004064 0.0010979394724311
 0.0109 0.0 -0.9659258262890692 0.2588190451025175 0.0 -0.2588190451025175 -0.96
59258262890692 81 1 625 101 6 623 0 0 640 610 626 83 3 626 0.8980392217636108 0.
8980392217636108 0.8980392217636108 15 627 102 0 594 623 0 17 628 0 627 634 594
 629 633 631 0 682 +18 629 103 0 637 614 644 630 ?475 29 630 104 0 629 645 615 -
0.0022820914475689 0.0010979394724311 0.0109 16 631 105 0 ?628 620 635 632 0 0 4
75 30 632 106 0 631 636 621 0 +-0.00198004064 0.0010979394724311 0.0109 -1.0 0.0
 0.0 17 633 0 681 590 682 586 628 631 0 0 -17 634 0 627 527 628 523 637 635 0 52
2 +16 635 107 0 ?634 631 646 636 0 0 475 30 636 108 0 635 647 632 0 +-0.00228209
14475689 0.0010979394724311 0.0109 -0.250562807085729 -0.2505628070857286 -0.935
1131265310308 17 637 0 695 685 607 629 634 635 0 628 -14 638 109 640 1.0e-08 653
 623 642 483 639 -0 0 653 623 481 50 639 110 0 638 654 624 0 +-0.00198004064 0.0
017020410875689 -0.0037 0.0 -0.9659258262890692 0.2588190451025175 0.0 -0.258819
0451025175 -0.9659258262890692 81 1 640 111 6 638 0 0 655 625 641 83 3 641 0.898
0392217636108 0.8980392217636108 0.8980392217636108 15 642 112 0 563 638 0 17 64
3 0 642 649 552 644 648 646 0 652 -18 644 113 0 643 629 668 645 ?475 29 645 114
 0 644 669 630 -0.0022820914475689 0.0017020410875689 -0.0037 16 646 115 0 ?648
 635 650 647 0 0 475 30 647 116 0 646 651 636 0 +-0.00198004064 0.00170204108756
89 -0.0037 1.0 0.0 0.0 17 648 0 657 548 658 544 643 646 0 543 +17 649 0 642 563
 643 559 652 650 0 558 -16 650 117 0 ?652 646 659 651 0 0 475 30 651 118 0 650 6
60 647 0 +-0.00255004064 0.00196999028 -0.0027 0.2505628070857286 -0.25056280708
57286 -0.935113126531031 17 652 0 690 661 603 644 649 650 0 658 +14 653 119 655
 1.0e-08 662 638 657 483 654 -0 0 662 638 481 50 654 120 0 653 663 639 0 +-0.001
98004064 0.00139999028 -0.0037 0.0 0.0 1.0 1.0 0.0 0.0 81 1 655 121 6 653 0 0 66
4 640 656 83 3 656 0.8980392217636108 0.8980392217636108 0.8980392217636108 15 6
57 122 0 622 653 0 17 658 0 657 648 622 644 661 659 0 0 -16 659 123 0 ?661 650 6
70 660 0 0 475 30 660 124 0 659 671 651 0 +-0.0022820914475689 0.00139999028 -0.
0037 0.0 -1.0 0.0 17 661 0 690 618 652 614 658 659 0 613 +14 662 125 664 1.0e-08
 677 653 666 483 663 +0 0 677 653 481 50 663 126 0 662 678 654 0 +-0.00198004064
 0.0017020410875689 0.0109 0.0 0.9659258262890692 0.2588190451025175 0.0 -0.2588
190451025175 0.9659258262890692 81 1 664 127 6 662 0 0 679 655 665 83 3 665 0.89
80392217636108 0.8980392217636108 0.8980392217636108 15 666 128 0 667 662 0 17 6
67 0 666 673 573 668 672 670 0 676 +18 668 129 0 667 644 0 669 ?475 29 669 130 0
 668 0 645 -0.0022820914475689 0.0017020410875689 0.0109 16 670 131 0 ?667 659 6
74 671 0 0 475 30 671 132 0 670 675 660 0 +-0.00255004064 0.00196999028 0.0099 0
.250562807085729 -0.2505628070857286 0.9351131265310308 17 672 0 695 607 685 565
 667 670 0 564 -17 673 0 666 584 667 580 676 674 0 579 +16 674 133 0 ?673 670 68
3 675 0 0 475 30 675 134 0 674 684 671 0 +-0.00198004064 0.0017020410875689 0.01
09 1.0 0.0 0.0 17 676 0 681 682 590 668 673 674 0 685 -14 677 135 679 1.0e-08 68
6 662 681 483 678 +0 0 686 662 481 50 678 136 0 677 687 663 0 +-0.00198004064 0.
00139999028 0.0109 0.0 0.0 1.0 1.0 0.0 0.0 81 1 679 137 6 677 0 0 688 664 680 83
 3 680 0.8980392217636108 0.8980392217636108 0.8980392217636108 15 681 138 0 682
 677 0 17 682 0 681 633 676 629 685 683 0 0 +16 683 139 0 ?682 674 0 684 0 0 475
 30 684 140 0 683 0 675 0 +-0.0022820914475689 0.00139999028 0.0109 0.0 -1.0 0.0
 17 685 0 695 672 637 668 682 683 0 0 -14 686 141 688 1.0e-08 691 677 690 483 68
7 -0 0 691 677 481 50 687 142 0 686 692 678 0 +-0.0022820914475689 0.00139999028
 -0.0037 0.9659258262890692 0.0 0.2588190451025175 0.2588190451025175 0.0 -0.965
9258262890692 81 1 688 143 6 686 0 0 693 679 689 83 3 689 0.8980392217636108 0.8
980392217636108 0.8980392217636108 15 690 144 0 661 686 0 14 691 145 693 1.0e-08
 0 686 695 483 692 +0 0 0 686 481 50 692 146 0 691 0 687 0 +-0.0022820914475689
 0.00139999028 0.0109 -0.9659258262890692 0.0 0.2588190451025175 0.2588190451025
175 0.0 0.9659258262890692 81 1 693 147 6 691 0 0 0 688 694 83 3 694 0.898039221
7636108 0.8980392217636108 0.8980392217636108 15 695 148 0 672 691 0 12 696 148
 0 697 0 0 0 0 1000.0 1.0e-08 0 0 0 1 0 1 1 704 706 712 710 701 711 709 70 697 0
 696 0 0 4 1 20 0 698 698 1 T74 20 698 1 0 699 0 0 0 0 0 0 0 0 0 0 0 0 0 0 0 0 0
 0 0 81 1 699 7 6 705 0 0 734 0 700 83 3 700 0.8980392217636108 0.89803922176361
08 0.8980392217636108 19 701 1 0 696 703 0 702 V13 702 2 0 696 0 0 0 0 701 705 1
9 703 3 0 696 0 701 704 S13 704 4 0 696 0 705 0 0 703 0 14 705 5 699 1.0e-08 732
 0 707 704 706 -0 0 732 0 702 50 706 6 0 705 733 0 0 +0.00254995936 8.2999028000
000017e-04 0.0109 -1.0 0.0 0.0 0.0 0.0 1.0 15 707 8 0 708 705 0 17 708 0 707 716
 728 709 713 711 0 721 -18 709 9 0 708 0 714 710 ?696 29 710 10 0 709 715 0 0.00
254995936 0.00196999028 -0.0027 16 711 11 0 ?713 0 719 712 0 0 696 30 712 12 0 7
11 720 0 0 +0.00254995936 8.2999028000000017e-04 -0.0027 0.0 -1.0 0.0 17 713 0 7
57 758 770 714 708 711 0 763 +18 714 13 0 713 709 717 715 ?696 29 715 14 0 714 7
18 710 0.00254995936 8.2999027999999999e-04 -0.0027 17 716 0 707 722 708 717 721
 719 0 727 -18 717 15 0 716 714 723 718 ?696 29 718 16 0 717 724 715 0.002549959
36 0.00196999028 0.0099 16 719 17 0 ?721 711 725 720 0 0 696 30 720 18 0 719 726
 712 0 +0.00254995936 0.00196999028 0.0109 0.0 0.0 -1.0 17 721 0 778 779 791 709
 716 719 0 770 +17 722 0 707 728 716 723 727 725 0 731 -18 723 19 0 812 717 741
 724 ?696 29 724 20 0 723 742 718 0.00254995936 8.2999028000000053e-04 0.0099 16
 725 21 0 ?727 719 729 726 0 0 696 30 726 22 0 725 730 720 0 +0.00254995936 8.29
99028000000017e-04 0.0099 0.0 1.0 0.0 17 727 0 799 800 812 717 722 725 0 791 +17
 728 0 707 708 722 714 731 729 0 737 -16 729 23 0 ?731 725 738 730 0 0 696 30 73
0 24 0 729 739 726 0 +0.00254995936 8.2999028000000017e-04 0.0109 0.0 0.0 1.0 17
 731 0 736 743 737 723 728 729 0 748 +14 732 25 734 1.0e-08 753 705 736 704 733
 -0 0 753 705 702 50 733 26 0 732 754 706 0 +0.00254995936 8.2999028000000017e-0
4 0.0109 0.0 1.0 0.0 0.0 0.0 1.0 81 1 734 27 6 732 0 0 755 699 735 83 3 735 0.89
80392217636108 0.8980392217636108 0.8980392217636108 15 736 28 0 737 732 0 17 73
7 0 736 731 749 714 740 738 0 0 -16 738 29 0 ?740 729 746 739 0 0 696 30 739 30
 0 738 747 730 0 +0.00254995936 8.2999028000000017e-04 -0.0027 -1.0 0.0 0.0 17 7
40 0 833 834 763 741 737 738 0 839 +18 741 31 0 821 723 744 742 ?696 29 742 32 0
 741 745 724 0.00140995936 8.2999028000000017e-04 -0.0027 17 743 0 736 749 731 7
44 748 746 0 752 -18 744 33 0 828 741 759 745 ?696 29 745 34 0 744 760 742 0.001
40995936 8.2999028000000017e-04 0.0099 16 746 35 0 ?748 738 750 747 0 0 696 30 7
47 36 0 746 751 739 0 +0.00254995936 8.2999028000000017e-04 0.0099 1.0 0.0 0.0 1
7 748 0 848 815 855 723 743 746 0 0 +17 749 0 736 737 743 741 752 750 0 0 -16 75
0 37 0 ?752 746 761 751 0 0 696 30 751 38 0 750 762 747 0 +0.00140995936 8.29990
28000000017e-04 0.0109 0.0 0.0 1.0 17 752 0 820 825 821 744 749 750 0 855 +14 75
3 39 755 1.0e-08 774 732 757 704 754 -0 0 774 732 702 50 754 40 0 753 775 733 0
 +0.0022820101675689 0.00139999028 -0.0037 -0.9659258262890692 0.0 0.25881904510
25175 0.2588190451025175 0.0 0.9659258262890692 81 1 755 41 6 753 0 0 776 734 75
6 83 3 756 0.8980392217636108 0.8980392217636108 0.8980392217636108 15 757 42 0
 713 753 0 17 758 0 757 764 713 759 763 761 0 769 -18 759 43 0 758 744 765 760 ?
696 29 760 44 0 759 766 745 0.0022820101675689 0.0010979394724311 -0.0037 16 761
 45 0 ?763 750 767 762 0 0 696 30 762 46 0 761 768 751 0 +0.0022820101675689 0.0
010979394724311 -0.0037 0.2505628070857286 -0.2505628070857286 0.935113126531031
 17 763 0 833 740 840 714 758 761 0 728 +17 764 0 757 770 758 765 769 767 0 773
 -18 765 47 0 764 759 780 766 ?696 29 766 48 0 765 781 760 0.0022820101675689 0.
0017020410875689 -0.0037 16 767 49 0 ?769 761 771 768 0 0 696 30 768 50 0 767 77
2 762 0 +0.0022820101675689 0.00139999028 -0.0037 0.0 -1.0 0.0 17 769 0 878 843
 869 759 764 767 0 840 +17 770 0 757 713 764 709 773 771 0 784 -16 771 51 0 ?773
 767 782 772 0 0 696 30 772 52 0 771 783 768 0 +0.00254995936 0.00196999028 -0.0
027 -0.2505628070857286 -0.2505628070857286 -0.935113126531031 17 773 0 863 864
 784 765 770 771 0 869 +14 774 53 776 1.0e-08 795 753 778 704 775 -0 0 795 753 7
02 50 775 54 0 774 796 754 0 +0.00254995936 0.00196999028 0.0109 0.0 -1.0 0.0 0.
0 0.0 -1.0 81 1 776 55 6 774 0 0 797 755 777 83 3 777 0.8980392217636108 0.89803
92217636108 0.8980392217636108 15 778 56 0 779 774 0 17 779 0 778 785 721 780 78
4 782 0 790 -18 780 57 0 824 765 786 781 ?696 29 781 58 0 780 787 766 0.00140995
936 0.00196999028 -0.0027 16 782 59 0 ?784 771 788 783 0 0 696 30 783 60 0 782 7
89 772 0 +0.00254995936 0.00196999028 -0.0027 1.0 0.0 0.0 17 784 0 863 773 870 7
09 779 782 0 0 +17 785 0 778 791 779 786 790 788 0 794 -18 786 61 0 825 780 801
 787 ?696 29 787 62 0 786 802 781 0.00140995936 0.00196999028 0.0099 16 788 63 0
 ?790 782 792 789 0 0 696 30 789 64 0 788 793 783 0 +0.00140995936 0.00196999028
 0.0109 0.0 0.0 -1.0 17 790 0 820 821 825 780 785 788 0 870 +17 791 0 778 721 78
5 717 794 792 0 805 -16 792 65 0 ?794 788 803 793 0 0 696 30 793 66 0 792 804 78
9 0 +0.00254995936 0.00196999028 0.0099 -1.0 0.0 0.0 17 794 0 887 888 805 786 79
1 792 0 893 +14 795 67 797 1.0e-08 816 774 799 704 796 +0 0 816 774 702 50 796 6
8 0 795 817 775 0 +0.0022820101675689 0.00139999028 0.0109 0.9659258262890692 0.
0 0.2588190451025175 0.2588190451025175 0.0 -0.9659258262890692 81 1 797 69 6 79
5 0 0 818 776 798 83 3 798 0.8980392217636108 0.8980392217636108 0.8980392217636
108 15 799 70 0 800 795 0 17 800 0 799 806 727 801 805 803 0 894 +18 801 71 0 81
1 786 807 802 ?696 29 802 72 0 801 808 787 0.0022820101675689 0.0017020410875689
 0.0109 16 803 73 0 ?800 792 809 804 0 0 696 30 804 74 0 803 810 793 0 +0.002549
95936 0.00196999028 0.0099 -0.2505628070857286 -0.250562807085729 0.935113126531
0308 17 805 0 887 794 894 717 800 803 0 0 -17 806 0 799 812 800 807 811 809 0 81
5 +18 807 75 0 806 801 835 808 ?696 29 808 76 0 807 836 802 0.0022820101675689 0
.0010979394724311 0.0109 16 809 77 0 ?806 803 813 810 0 0 696 30 810 78 0 809 81
4 804 0 +0.0022820101675689 0.00139999028 0.0109 0.0 -1.0 0.0 17 811 0 902 897 8
54 801 806 809 0 800 -17 812 0 799 727 806 723 815 813 0 722 +16 813 79 0 ?812 8
09 822 814 0 0 696 30 814 80 0 813 823 810 0 +0.0022820101675689 0.0010979394724
311 0.0109 0.2505628070857286 -0.250562807085729 -0.9351131265310308 17 815 0 84
8 849 748 807 812 813 0 854 -14 816 81 818 1.0e-08 829 795 820 704 817 -0 0 829
 795 702 50 817 82 0 816 830 796 0 +0.00140995936 8.2999028000000017e-04 0.0109
 1.0 0.0 0.0 0.0 0.0 -1.0 81 1 818 83 6 816 0 0 831 797 819 83 3 819 0.898039221
7636108 0.8980392217636108 0.8980392217636108 15 820 84 0 821 816 0 17 821 0 820
 752 790 741 824 822 0 740 -16 822 85 0 ?824 813 826 823 0 0 696 30 823 86 0 822
 827 814 0 +0.00140995936 8.2999028000000017e-04 -0.0027 0.0 1.0 0.0 17 824 0 91
1 873 839 780 821 822 0 779 +17 825 0 820 790 752 786 828 826 0 785 -16 826 87 0
 ?828 822 837 827 0 0 696 30 827 88 0 826 838 823 0 +0.00140995936 8.29990280000
00017e-04 0.0099 0.0 -1.0 0.0 17 828 0 916 858 893 744 825 826 0 743 +14 829 89
 831 1.0e-08 844 816 833 704 830 -0 0 844 816 702 50 830 90 0 829 845 817 0 +0.0
0197995936 0.0010979394724311 -0.0037 0.0 0.9659258262890692 0.2588190451025175
 0.0 -0.2588190451025175 0.9659258262890692 81 1 831 91 6 829 0 0 846 818 832 83
 3 832 0.8980392217636108 0.8980392217636108 0.8980392217636108 15 833 92 0 740
 829 0 17 834 0 833 840 740 835 839 837 0 843 -18 835 93 0 834 807 850 836 ?696
 29 836 94 0 835 851 808 0.0016779085524311 0.0010979394724311 -0.0037 16 837 95
 0 ?839 826 841 838 0 0 696 30 838 96 0 837 842 827 0 +0.0016779085524311 0.0010
979394724311 -0.0037 -0.2505628070857282 -0.2505628070857286 0.935113126531031 1
7 839 0 911 824 882 741 834 837 0 749 +17 840 0 833 763 834 759 843 841 0 0 -16
 841 97 0 ?843 837 852 842 0 0 696 30 842 98 0 841 853 838 0 +0.00197995936 0.00
10979394724311 -0.0037 -1.0 0.0 0.0 17 843 0 878 879 769 835 840 841 0 882 +14 8
44 99 846 1.0e-08 859 829 848 704 845 +0 0 859 829 702 50 845 100 0 844 860 830
 0 +0.00197995936 0.0010979394724311 0.0109 0.0 -0.9659258262890692 0.2588190451
025175 0.0 -0.2588190451025175 -0.9659258262890692 81 1 846 101 6 844 0 0 861 83
1 847 83 3 847 0.8980392217636108 0.8980392217636108 0.8980392217636108 15 848 1
02 0 815 844 0 17 849 0 848 855 815 850 854 852 0 858 +18 850 103 0 849 835 865
 851 ?696 29 851 104 0 850 866 836 0.0016779085524311 0.0010979394724311 0.0109
 16 852 105 0 ?849 841 856 853 0 0 696 30 853 106 0 852 857 842 0 +0.00197995936
 0.0010979394724311 0.0109 -1.0 0.0 0.0 17 854 0 902 811 903 807 849 852 0 0 -17
 855 0 848 748 849 744 858 856 0 0 +16 856 107 0 ?855 852 867 857 0 0 696 30 857
 108 0 856 868 853 0 +0.0016779085524311 0.0010979394724311 0.0109 -0.2505628070
85729 -0.2505628070857286 -0.9351131265310308 17 858 0 916 906 828 850 855 856 0
 903 -14 859 109 861 1.0e-08 874 844 863 704 860 -0 0 874 844 702 50 860 110 0 8
59 875 845 0 +0.00197995936 0.0017020410875689 -0.0037 0.0 -0.9659258262890692 0
.2588190451025175 0.0 -0.2588190451025175 -0.9659258262890692 81 1 861 111 6 859
 0 0 876 846 862 83 3 862 0.8980392217636108 0.8980392217636108 0.89803922176361
08 15 863 112 0 784 859 0 17 864 0 863 870 773 865 869 867 0 873 -18 865 113 0 8
64 850 889 866 ?696 29 866 114 0 865 890 851 0.0016779085524311 0.00170204108756
89 -0.0037 16 867 115 0 ?869 856 871 868 0 0 696 30 868 116 0 867 872 857 0 +0.0
0197995936 0.0017020410875689 -0.0037 1.0 0.0 0.0 17 869 0 878 769 879 765 864 8
67 0 0 +17 870 0 863 784 864 780 873 871 0 0 -16 871 117 0 ?873 867 880 872 0 0
 696 30 872 118 0 871 881 868 0 +0.00140995936 0.00196999028 -0.0027 0.250562807
0857286 -0.2505628070857286 -0.935113126531031 17 873 0 911 882 824 865 870 871
 0 879 +14 874 119 876 1.0e-08 883 859 878 704 875 -0 0 883 859 702 50 875 120 0
 874 884 860 0 +0.00197995936 0.00139999028 -0.0037 0.0 0.0 1.0 1.0 0.0 0.0 81 1
 876 121 6 874 0 0 885 861 877 83 3 877 0.8980392217636108 0.8980392217636108 0.
8980392217636108 15 878 122 0 843 874 0 17 879 0 878 869 843 865 882 880 0 0 -16
 880 123 0 ?882 871 891 881 0 0 696 30 881 124 0 880 892 872 0 +0.00167790855243
11 0.00139999028 -0.0037 0.0 -1.0 0.0 17 882 0 911 839 873 835 879 880 0 0 +14 8
83 125 885 1.0e-08 898 874 887 704 884 +0 0 898 874 702 50 884 126 0 883 899 875
 0 +0.00197995936 0.0017020410875689 0.0109 0.0 0.9659258262890692 0.25881904510
25175 0.0 -0.2588190451025175 0.9659258262890692 81 1 885 127 6 883 0 0 900 876
 886 83 3 886 0.8980392217636108 0.8980392217636108 0.8980392217636108 15 887 12
8 0 888 883 0 17 888 0 887 894 794 889 893 891 0 897 +18 889 129 0 888 865 0 890
 ?696 29 890 130 0 889 0 866 0.0016779085524311 0.0017020410875689 0.0109 16 891
 131 0 ?888 880 895 892 0 0 696 30 892 132 0 891 896 881 0 +0.00140995936 0.0019
6999028 0.0099 0.250562807085729 -0.2505628070857286 0.9351131265310308 17 893 0
 916 828 906 786 888 891 0 0 -17 894 0 887 805 888 801 897 895 0 0 +16 895 133 0
 ?894 891 904 896 0 0 696 30 896 134 0 895 905 892 0 +0.00197995936 0.0017020410
875689 0.0109 1.0 0.0 0.0 17 897 0 902 903 811 889 894 895 0 906 -14 898 135 900
 1.0e-08 907 883 902 704 899 +0 0 907 883 702 50 899 136 0 898 908 884 0 +0.0019
7995936 0.00139999028 0.0109 0.0 0.0 1.0 1.0 0.0 0.0 81 1 900 137 6 898 0 0 909
 885 901 83 3 901 0.8980392217636108 0.8980392217636108 0.8980392217636108 15 90
2 138 0 903 898 0 17 903 0 902 854 897 850 906 904 0 0 +16 904 139 0 ?903 895 0
 905 0 0 696 30 905 140 0 904 0 896 0 +0.0016779085524311 0.00139999028 0.0109 0
.0 -1.0 0.0 17 906 0 916 893 858 889 903 904 0 0 -14 907 141 909 1.0e-08 912 898
 911 704 908 -0 0 912 898 702 50 908 142 0 907 913 899 0 +0.0016779085524311 0.0
0139999028 -0.0037 0.9659258262890692 0.0 0.2588190451025175 0.2588190451025175
 0.0 -0.9659258262890692 81 1 909 143 6 907 0 0 914 900 910 83 3 910 0.898039221
7636108 0.8980392217636108 0.8980392217636108 15 911 144 0 882 907 0 14 912 145
 914 1.0e-08 0 907 916 704 913 +0 0 0 907 702 50 913 146 0 912 0 908 0 +0.001677
9085524311 0.00139999028 0.0109 -0.9659258262890692 0.0 0.2588190451025175 0.258
8190451025175 0.0 0.9659258262890692 81 1 914 147 6 912 0 0 0 909 915 83 3 915 0
.8980392217636108 0.8980392217636108 0.8980392217636108 15 916 148 0 893 912 0 1
 0 
