<svg width="29.99999842mm" height="34.00000058mm" viewBox="0 0 11811023 13385827"  version="1.1" xmlns="http://www.w3.org/2000/svg" xmlns:xlink="http://www.w3.org/1999/xlink">
<desc>
Origin 0 0 Bound 3937008 10236220 11811023 13385827
</desc>
<g fill-rule="evenodd" fill="rgb(255, 0, 255)" stroke="black" stroke-width="1" transform="translate(0, 13385827) scale(1, -1) translate(-3937008, -10236220)">
<path id="N" d="M 14589564.00 23622046.00 A 119403.94 119403.94 0 0 0 14667948.00 23432809.00 L 14614046.00 23374616.00 A 629926.01 629926.01 0 0 1 15558792.00 22541965.00 A 119406.16 119406.16 0 0 0 15748029.00 22463580.00 L 15748030.00 11339908.00 A 1183659.99 1183659.99 0 0 0 14644342.00 10236220.00 L 5040695.00 10236220.00 A 1183641.20 1183641.20 0 0 0 3937007.00 11339908.00 L 3937008.00 22463580.00 A 119390.75 119390.75 0 0 0 4126245.00 22541965.00 L 4184437.00 22488062.00 A 629926.01 629926.01 0 0 1 5017088.00 23432808.00 A 119406.16 119406.16 0 0 0 5095473.00 23622045.00 L 14589564.00 23622046.00  zM 4724405.80 10629922.96 m -141132.04 0 a 141132.04 141132.04 0 1 1 282264.08 0a 141132.04 141132.04 0 1 1 -282264.08 0M 5019680.80 11220473.96 m -141132.04 0 a 141132.04 141132.04 0 1 1 282264.08 0a 141132.04 141132.04 0 1 1 -282264.08 0M 5314956.80 10629922.96 m -141132.04 0 a 141132.04 141132.04 0 1 1 282264.08 0a 141132.04 141132.04 0 1 1 -282264.08 0M 5905507.80 10629922.96 m -141132.04 0 a 141132.04 141132.04 0 1 1 282264.08 0a 141132.04 141132.04 0 1 1 -282264.08 0M 5610231.80 11220473.96 m -141132.04 0 a 141132.04 141132.04 0 1 1 282264.08 0a 141132.04 141132.04 0 1 1 -282264.08 0M 4724405.80 11811024.96 m -141132.04 0 a 141132.04 141132.04 0 1 1 282264.08 0a 141132.04 141132.04 0 1 1 -282264.08 0M 5314956.80 11811024.96 m -141132.04 0 a 141132.04 141132.04 0 1 1 282264.08 0a 141132.04 141132.04 0 1 1 -282264.08 0M 5610231.80 12401575.96 m -141132.04 0 a 141132.04 141132.04 0 1 1 282264.08 0a 141132.04 141132.04 0 1 1 -282264.08 0M 5019680.80 12401575.96 m -141132.04 0 a 141132.04 141132.04 0 1 1 282264.08 0a 141132.04 141132.04 0 1 1 -282264.08 0M 4724405.80 12992126.96 m -141132.04 0 a 141132.04 141132.04 0 1 1 282264.08 0a 141132.04 141132.04 0 1 1 -282264.08 0M 6496058.80 10629922.96 m -141132.04 0 a 141132.04 141132.04 0 1 1 282264.08 0a 141132.04 141132.04 0 1 1 -282264.08 0M 6200782.80 11220473.96 m -141132.04 0 a 141132.04 141132.04 0 1 1 282264.08 0a 141132.04 141132.04 0 1 1 -282264.08 0M 5905507.80 11811024.96 m -141132.04 0 a 141132.04 141132.04 0 1 1 282264.08 0a 141132.04 141132.04 0 1 1 -282264.08 0M 6791333.80 11220473.96 m -141132.04 0 a 141132.04 141132.04 0 1 1 282264.08 0a 141132.04 141132.04 0 1 1 -282264.08 0M 7086609.80 11811024.96 m -141132.04 0 a 141132.04 141132.04 0 1 1 282264.08 0a 141132.04 141132.04 0 1 1 -282264.08 0M 6496058.80 11811024.96 m -141132.04 0 a 141132.04 141132.04 0 1 1 282264.08 0a 141132.04 141132.04 0 1 1 -282264.08 0M 6200782.80 12401575.96 m -141132.04 0 a 141132.04 141132.04 0 1 1 282264.08 0a 141132.04 141132.04 0 1 1 -282264.08 0M 6791333.80 12401575.96 m -141132.04 0 a 141132.04 141132.04 0 1 1 282264.08 0a 141132.04 141132.04 0 1 1 -282264.08 0M 7086609.80 12992126.96 m -141132.04 0 a 141132.04 141132.04 0 1 1 282264.08 0a 141132.04 141132.04 0 1 1 -282264.08 0M 5314956.80 12992126.96 m -141132.04 0 a 141132.04 141132.04 0 1 1 282264.08 0a 141132.04 141132.04 0 1 1 -282264.08 0M 5019680.80 13582677.96 m -141132.04 0 a 141132.04 141132.04 0 1 1 282264.08 0a 141132.04 141132.04 0 1 1 -282264.08 0M 5905507.80 12992126.96 m -141132.04 0 a 141132.04 141132.04 0 1 1 282264.08 0a 141132.04 141132.04 0 1 1 -282264.08 0M 5610231.80 13582677.96 m -141132.04 0 a 141132.04 141132.04 0 1 1 282264.08 0a 141132.04 141132.04 0 1 1 -282264.08 0M 5314956.80 14173228.96 m -141132.04 0 a 141132.04 141132.04 0 1 1 282264.08 0a 141132.04 141132.04 0 1 1 -282264.08 0M 6496058.80 12992126.96 m -141132.04 0 a 141132.04 141132.04 0 1 1 282264.08 0a 141132.04 141132.04 0 1 1 -282264.08 0M 6200782.80 13582677.96 m -141132.04 0 a 141132.04 141132.04 0 1 1 282264.08 0a 141132.04 141132.04 0 1 1 -282264.08 0M 5905507.80 14173228.96 m -141132.04 0 a 141132.04 141132.04 0 1 1 282264.08 0a 141132.04 141132.04 0 1 1 -282264.08 0M 6791333.80 13582677.96 m -141132.04 0 a 141132.04 141132.04 0 1 1 282264.08 0a 141132.04 141132.04 0 1 1 -282264.08 0M 4724405.80 14173228.96 m -141132.04 0 a 141132.04 141132.04 0 1 1 282264.08 0a 141132.04 141132.04 0 1 1 -282264.08 0M 5019680.80 14763779.96 m -141132.04 0 a 141132.04 141132.04 0 1 1 282264.08 0a 141132.04 141132.04 0 1 1 -282264.08 0M 4724405.80 15354330.96 m -141132.04 0 a 141132.04 141132.04 0 1 1 282264.08 0a 141132.04 141132.04 0 1 1 -282264.08 0M 5610231.80 14763779.96 m -141132.04 0 a 141132.04 141132.04 0 1 1 282264.08 0a 141132.04 141132.04 0 1 1 -282264.08 0M 5905507.80 15354330.96 m -141132.04 0 a 141132.04 141132.04 0 1 1 282264.08 0a 141132.04 141132.04 0 1 1 -282264.08 0M 6496058.80 14173228.96 m -141132.04 0 a 141132.04 141132.04 0 1 1 282264.08 0a 141132.04 141132.04 0 1 1 -282264.08 0M 6791333.80 14763779.96 m -141132.04 0 a 141132.04 141132.04 0 1 1 282264.08 0a 141132.04 141132.04 0 1 1 -282264.08 0M 6200782.80 14763779.96 m -141132.04 0 a 141132.04 141132.04 0 1 1 282264.08 0a 141132.04 141132.04 0 1 1 -282264.08 0M 6496058.80 15354330.96 m -141132.04 0 a 141132.04 141132.04 0 1 1 282264.08 0a 141132.04 141132.04 0 1 1 -282264.08 0M 7086609.80 10629922.96 m -141132.04 0 a 141132.04 141132.04 0 1 1 282264.08 0a 141132.04 141132.04 0 1 1 -282264.08 0M 7677160.80 10629922.96 m -141132.04 0 a 141132.04 141132.04 0 1 1 282264.08 0a 141132.04 141132.04 0 1 1 -282264.08 0M 8228346.00 11407480.00 L 8090552.00 11407480.00 L 8090552.00 11147638.00 L 8228346.00 11147638.00 L 8228346.00 11407480.00  zM 8228346.00 12474410.00 L 8090552.00 12474410.00 L 8090552.00 12214568.00 L 8228346.00 12214568.00 L 8228346.00 12474410.00  zM 8391732.00 12474410.00 L 8301182.00 12474410.00 L 8301182.00 12214568.00 L 8391732.00 12214568.00 L 8391732.00 12474410.00  zM 8391732.00 11407480.00 L 8301182.00 11407480.00 L 8301182.00 11147638.00 L 8391732.00 11147638.00 L 8391732.00 11407480.00  zM 8706693.00 11407480.00 L 8616143.00 11407480.00 L 8616143.00 11147638.00 L 8706693.00 11147638.00 L 8706693.00 11407480.00  zM 8864173.00 11407480.00 L 8773623.00 11407480.00 L 8773623.00 11147638.00 L 8864173.00 11147638.00 L 8864173.00 11407480.00  zM 8549212.00 11407480.00 L 8458662.00 11407480.00 L 8458662.00 11147638.00 L 8549212.00 11147638.00 L 8549212.00 11407480.00  zM 9021653.00 12474410.00 L 8931103.00 12474410.00 L 8931103.00 12214568.00 L 9021653.00 12214568.00 L 9021653.00 12474410.00  zM 9021653.00 11407480.00 L 8931103.00 11407480.00 L 8931103.00 11147638.00 L 9021653.00 11147638.00 L 9021653.00 11407480.00  zM 9179134.00 11407480.00 L 9088584.00 11407480.00 L 9088584.00 11147638.00 L 9179134.00 11147638.00 L 9179134.00 11407480.00  zM 9336614.00 11407480.00 L 9246064.00 11407480.00 L 9246064.00 11147638.00 L 9336614.00 11147638.00 L 9336614.00 11407480.00  zM 9494094.00 11407480.00 L 9403544.00 11407480.00 L 9403544.00 11147638.00 L 9494094.00 11147638.00 L 9494094.00 11407480.00  zM 9809055.00 11407480.00 L 9718505.00 11407480.00 L 9718505.00 11147638.00 L 9809055.00 11147638.00 L 9809055.00 11407480.00  zM 9651575.00 11407480.00 L 9561025.00 11407480.00 L 9561025.00 11147638.00 L 9651575.00 11147638.00 L 9651575.00 11407480.00  zM 9809055.00 12474410.00 L 9718505.00 12474410.00 L 9718505.00 12214568.00 L 9809055.00 12214568.00 L 9809055.00 12474410.00  zM 9179134.00 12474410.00 L 9088584.00 12474410.00 L 9088584.00 12214568.00 L 9179134.00 12214568.00 L 9179134.00 12474410.00  zM 9651575.00 12474410.00 L 9561025.00 12474410.00 L 9561025.00 12214568.00 L 9651575.00 12214568.00 L 9651575.00 12474410.00  zM 8549212.00 12474410.00 L 8458662.00 12474410.00 L 8458662.00 12214568.00 L 8549212.00 12214568.00 L 8549212.00 12474410.00  zM 8706693.00 12474410.00 L 8616143.00 12474410.00 L 8616143.00 12214568.00 L 8706693.00 12214568.00 L 8706693.00 12474410.00  zM 8864173.00 12474410.00 L 8773623.00 12474410.00 L 8773623.00 12214568.00 L 8864173.00 12214568.00 L 8864173.00 12474410.00  zM 8267711.80 12992126.96 m -141132.04 0 a 141132.04 141132.04 0 1 1 282264.08 0a 141132.04 141132.04 0 1 1 -282264.08 0M 7972435.80 13582677.96 m -141132.04 0 a 141132.04 141132.04 0 1 1 282264.08 0a 141132.04 141132.04 0 1 1 -282264.08 0M 9336614.00 12474410.00 L 9246064.00 12474410.00 L 9246064.00 12214568.00 L 9336614.00 12214568.00 L 9336614.00 12474410.00  zM 9494094.00 12474410.00 L 9403544.00 12474410.00 L 9403544.00 12214568.00 L 9494094.00 12214568.00 L 9494094.00 12474410.00  zM 9448813.80 12992126.96 m -141132.04 0 a 141132.04 141132.04 0 1 1 282264.08 0a 141132.04 141132.04 0 1 1 -282264.08 0M 9153537.80 13582677.96 m -141132.04 0 a 141132.04 141132.04 0 1 1 282264.08 0a 141132.04 141132.04 0 1 1 -282264.08 0M 7086609.80 14173228.96 m -141132.04 0 a 141132.04 141132.04 0 1 1 282264.08 0a 141132.04 141132.04 0 1 1 -282264.08 0M 8112047.00 15473464.00 L 7787953.00 15473464.00 L 7787953.00 15133622.00 L 8112047.00 15133622.00 L 8112047.00 15473464.00  zM 7086609.80 15354330.96 m -141132.04 0 a 141132.04 141132.04 0 1 1 282264.08 0a 141132.04 141132.04 0 1 1 -282264.08 0M 9083071.00 15171266.00 L 8433463.00 15171266.00 A 111034.84 111034.84 0 0 1 8433463.00 14949206.00 L 9083071.00 14949206.00 A 111034.84 111034.84 0 0 1 9083071.00 15171266.00  zM 9083071.00 14659455.00 L 8433463.00 14659455.00 A 111034.84 111034.84 0 0 1 8433463.00 14437395.00 L 9083071.00 14437395.00 A 111034.84 111034.84 0 0 1 9083071.00 14659455.00  zM 9083071.00 14403549.00 L 8433463.00 14403549.00 A 111034.84 111034.84 0 0 1 8433463.00 14181489.00 L 9083071.00 14181489.00 A 111034.84 111034.84 0 0 1 9083071.00 14403549.00  zM 9083071.00 14915360.00 L 8433463.00 14915360.00 A 111034.84 111034.84 0 1 1 8433463.00 14693300.00 L 9083071.00 14693300.00 A 111034.84 111034.84 0 0 1 9083071.00 14915360.00  zM 9083071.00 15427171.00 L 8433463.00 15427171.00 A 111034.84 111034.84 0 0 1 8433463.00 15205111.00 L 9083071.00 15205111.00 A 111034.84 111034.84 0 0 1 9083071.00 15427171.00  zM 9399997.80 15118819.96 m -141132.04 0 a 141132.04 141132.04 0 1 1 282264.08 0a 141132.04 141132.04 0 1 1 -282264.08 0M 10039364.80 10629922.96 m -141132.04 0 a 141132.04 141132.04 0 1 1 282264.08 0a 141132.04 141132.04 0 1 1 -282264.08 0M 10629915.80 10629922.96 m -141132.04 0 a 141132.04 141132.04 0 1 1 282264.08 0a 141132.04 141132.04 0 1 1 -282264.08 0M 9966535.00 11407480.00 L 9875985.00 11407480.00 L 9875985.00 11147638.00 L 9966535.00 11147638.00 L 9966535.00 11407480.00  zM 10596456.00 11407480.00 L 10505906.00 11407480.00 L 10505906.00 11147638.00 L 10596456.00 11147638.00 L 10596456.00 11407480.00  zM 10753937.00 11407480.00 L 10663387.00 11407480.00 L 10663387.00 11147638.00 L 10753937.00 11147638.00 L 10753937.00 11407480.00  zM 11220466.80 10629922.96 m -141132.04 0 a 141132.04 141132.04 0 1 1 282264.08 0a 141132.04 141132.04 0 1 1 -282264.08 0M 11226378.00 11407480.00 L 11135828.00 11407480.00 L 11135828.00 11147638.00 L 11226378.00 11147638.00 L 11226378.00 11407480.00  zM 11068897.00 11407480.00 L 10978347.00 11407480.00 L 10978347.00 11147638.00 L 11068897.00 11147638.00 L 11068897.00 11407480.00  zM 10911417.00 11407480.00 L 10820867.00 11407480.00 L 10820867.00 11147638.00 L 10911417.00 11147638.00 L 10911417.00 11407480.00  zM 11594488.00 11407480.00 L 11456694.00 11407480.00 L 11456694.00 11147638.00 L 11594488.00 11147638.00 L 11594488.00 11407480.00  zM 10124015.00 11407480.00 L 10033465.00 11407480.00 L 10033465.00 11147638.00 L 10124015.00 11147638.00 L 10124015.00 11407480.00  zM 10281496.00 11407480.00 L 10190946.00 11407480.00 L 10190946.00 11147638.00 L 10281496.00 11147638.00 L 10281496.00 11407480.00  zM 10438976.00 11407480.00 L 10348426.00 11407480.00 L 10348426.00 11147638.00 L 10438976.00 11147638.00 L 10438976.00 11407480.00  zM 10124015.00 12474410.00 L 10033465.00 12474410.00 L 10033465.00 12214568.00 L 10124015.00 12214568.00 L 10124015.00 12474410.00  zM 10281496.00 12474410.00 L 10190946.00 12474410.00 L 10190946.00 12214568.00 L 10281496.00 12214568.00 L 10281496.00 12474410.00  zM 11383858.00 11407480.00 L 11293308.00 11407480.00 L 11293308.00 11147638.00 L 11383858.00 11147638.00 L 11383858.00 11407480.00  zM 11220466.80 11811024.96 m -141132.04 0 a 141132.04 141132.04 0 1 1 282264.08 0a 141132.04 141132.04 0 1 1 -282264.08 0M 10596456.00 12474410.00 L 10505906.00 12474410.00 L 10505906.00 12214568.00 L 10596456.00 12214568.00 L 10596456.00 12474410.00  zM 11226378.00 12474410.00 L 11135828.00 12474410.00 L 11135828.00 12214568.00 L 11226378.00 12214568.00 L 11226378.00 12474410.00  zM 9966535.00 12474410.00 L 9875985.00 12474410.00 L 9875985.00 12214568.00 L 9966535.00 12214568.00 L 9966535.00 12474410.00  zM 10438976.00 12474410.00 L 10348426.00 12474410.00 L 10348426.00 12214568.00 L 10438976.00 12214568.00 L 10438976.00 12474410.00  zM 10449997.80 12850004.96 m -141132.04 0 a 141132.04 141132.04 0 1 1 282264.08 0a 141132.04 141132.04 0 1 1 -282264.08 0M 10753937.00 12474410.00 L 10663387.00 12474410.00 L 10663387.00 12214568.00 L 10753937.00 12214568.00 L 10753937.00 12474410.00  zM 10911417.00 12474410.00 L 10820867.00 12474410.00 L 10820867.00 12214568.00 L 10911417.00 12214568.00 L 10911417.00 12474410.00  zM 11068897.00 12474410.00 L 10978347.00 12474410.00 L 10978347.00 12214568.00 L 11068897.00 12214568.00 L 11068897.00 12474410.00  zM 11383858.00 12474410.00 L 11293308.00 12474410.00 L 11293308.00 12214568.00 L 11383858.00 12214568.00 L 11383858.00 12474410.00  zM 11594488.00 12474410.00 L 11456694.00 12474410.00 L 11456694.00 12214568.00 L 11594488.00 12214568.00 L 11594488.00 12474410.00  zM 11811017.80 12992126.96 m -141132.04 0 a 141132.04 141132.04 0 1 1 282264.08 0a 141132.04 141132.04 0 1 1 -282264.08 0M 11220466.80 12992126.96 m -141132.04 0 a 141132.04 141132.04 0 1 1 282264.08 0a 141132.04 141132.04 0 1 1 -282264.08 0M 10925190.80 13582677.96 m -141132.04 0 a 141132.04 141132.04 0 1 1 282264.08 0a 141132.04 141132.04 0 1 1 -282264.08 0M 11515741.80 13582677.96 m -141132.04 0 a 141132.04 141132.04 0 1 1 282264.08 0a 141132.04 141132.04 0 1 1 -282264.08 0M 10334639.80 13582677.96 m -141132.04 0 a 141132.04 141132.04 0 1 1 282264.08 0a 141132.04 141132.04 0 1 1 -282264.08 0M 11366536.00 14403549.00 L 10716928.00 14403549.00 A 111034.84 111034.84 0 0 1 10716928.00 14181489.00 L 11366536.00 14181489.00 A 111034.84 111034.84 0 0 1 11366536.00 14403549.00  zM 11366536.00 14659455.00 L 10716928.00 14659455.00 A 111034.84 111034.84 0 0 1 10716928.00 14437395.00 L 11366536.00 14437395.00 A 111034.84 111034.84 0 0 1 11366536.00 14659455.00  zM 11366536.00 14915360.00 L 10716928.00 14915360.00 A 111034.84 111034.84 0 0 1 10716928.00 14693300.00 L 11366536.00 14693300.00 A 111034.84 111034.84 0 1 1 11366536.00 14915360.00  zM 11366536.00 15171266.00 L 10716928.00 15171266.00 A 111034.84 111034.84 0 0 1 10716928.00 14949206.00 L 11366536.00 14949206.00 A 111034.84 111034.84 0 0 1 11366536.00 15171266.00  zM 11366536.00 15427171.00 L 10716928.00 15427171.00 A 111034.84 111034.84 0 0 1 10716928.00 15205111.00 L 11366536.00 15205111.00 A 111034.84 111034.84 0 0 1 11366536.00 15427171.00  zM 11811017.80 10629922.96 m -141132.04 0 a 141132.04 141132.04 0 1 1 282264.08 0a 141132.04 141132.04 0 1 1 -282264.08 0M 12106292.80 11220473.96 m -141132.04 0 a 141132.04 141132.04 0 1 1 282264.08 0a 141132.04 141132.04 0 1 1 -282264.08 0M 12401568.80 10629922.96 m -141132.04 0 a 141132.04 141132.04 0 1 1 282264.08 0a 141132.04 141132.04 0 1 1 -282264.08 0M 11811017.80 11811024.96 m -141132.04 0 a 141132.04 141132.04 0 1 1 282264.08 0a 141132.04 141132.04 0 1 1 -282264.08 0M 12106292.80 12401575.96 m -141132.04 0 a 141132.04 141132.04 0 1 1 282264.08 0a 141132.04 141132.04 0 1 1 -282264.08 0M 12992119.80 10629922.96 m -141132.04 0 a 141132.04 141132.04 0 1 1 282264.08 0a 141132.04 141132.04 0 1 1 -282264.08 0M 13287394.80 11220473.96 m -141132.04 0 a 141132.04 141132.04 0 1 1 282264.08 0a 141132.04 141132.04 0 1 1 -282264.08 0M 13582670.80 10629922.96 m -141132.04 0 a 141132.04 141132.04 0 1 1 282264.08 0a 141132.04 141132.04 0 1 1 -282264.08 0M 12992119.80 11811024.96 m -141132.04 0 a 141132.04 141132.04 0 1 1 282264.08 0a 141132.04 141132.04 0 1 1 -282264.08 0M 13287394.80 12401575.96 m -141132.04 0 a 141132.04 141132.04 0 1 1 282264.08 0a 141132.04 141132.04 0 1 1 -282264.08 0M 14173221.80 10629922.96 m -141132.04 0 a 141132.04 141132.04 0 1 1 282264.08 0a 141132.04 141132.04 0 1 1 -282264.08 0M 13877945.80 11220473.96 m -141132.04 0 a 141132.04 141132.04 0 1 1 282264.08 0a 141132.04 141132.04 0 1 1 -282264.08 0M 14468496.80 11220473.96 m -141132.04 0 a 141132.04 141132.04 0 1 1 282264.08 0a 141132.04 141132.04 0 1 1 -282264.08 0M 14763772.80 10629922.96 m -141132.04 0 a 141132.04 141132.04 0 1 1 282264.08 0a 141132.04 141132.04 0 1 1 -282264.08 0M 15059047.80 11220473.96 m -141132.04 0 a 141132.04 141132.04 0 1 1 282264.08 0a 141132.04 141132.04 0 1 1 -282264.08 0M 13582670.80 11811024.96 m -141132.04 0 a 141132.04 141132.04 0 1 1 282264.08 0a 141132.04 141132.04 0 1 1 -282264.08 0M 14173221.80 11811024.96 m -141132.04 0 a 141132.04 141132.04 0 1 1 282264.08 0a 141132.04 141132.04 0 1 1 -282264.08 0M 14763772.80 11811024.96 m -141132.04 0 a 141132.04 141132.04 0 1 1 282264.08 0a 141132.04 141132.04 0 1 1 -282264.08 0M 14468496.80 12401575.96 m -141132.04 0 a 141132.04 141132.04 0 1 1 282264.08 0a 141132.04 141132.04 0 1 1 -282264.08 0M 12106292.80 13582677.96 m -141132.04 0 a 141132.04 141132.04 0 1 1 282264.08 0a 141132.04 141132.04 0 1 1 -282264.08 0M 12992119.80 12992126.96 m -141132.04 0 a 141132.04 141132.04 0 1 1 282264.08 0a 141132.04 141132.04 0 1 1 -282264.08 0M 13582670.80 12992126.96 m -141132.04 0 a 141132.04 141132.04 0 1 1 282264.08 0a 141132.04 141132.04 0 1 1 -282264.08 0M 12012047.00 14969921.00 L 11687953.00 14969921.00 L 11687953.00 14630079.00 L 12012047.00 14630079.00 L 12012047.00 14969921.00  zM 12696843.80 14763779.96 m -141132.04 0 a 141132.04 141132.04 0 1 1 282264.08 0a 141132.04 141132.04 0 1 1 -282264.08 0M 12012047.00 15316378.00 L 11687953.00 15316378.00 L 11687953.00 14976536.00 L 12012047.00 14976536.00 L 12012047.00 15316378.00  zM 12401568.80 15354330.96 m -141132.04 0 a 141132.04 141132.04 0 1 1 282264.08 0a 141132.04 141132.04 0 1 1 -282264.08 0M 13317165.00 15346693.00 L 12882835.00 15346693.00 L 12882835.00 14853307.00 L 13317165.00 14853307.00 L 13317165.00 15346693.00  zM 13868346.00 15346693.00 L 13434016.00 15346693.00 L 13434016.00 14853307.00 L 13868346.00 14853307.00 L 13868346.00 15346693.00  zM 13877945.80 12401575.96 m -141132.04 0 a 141132.04 141132.04 0 1 1 282264.08 0a 141132.04 141132.04 0 1 1 -282264.08 0M 14173221.80 12992126.96 m -141132.04 0 a 141132.04 141132.04 0 1 1 282264.08 0a 141132.04 141132.04 0 1 1 -282264.08 0M 13877945.80 13582677.96 m -141132.04 0 a 141132.04 141132.04 0 1 1 282264.08 0a 141132.04 141132.04 0 1 1 -282264.08 0M 15059047.80 12401575.96 m -141132.04 0 a 141132.04 141132.04 0 1 1 282264.08 0a 141132.04 141132.04 0 1 1 -282264.08 0M 14763772.80 12992126.96 m -141132.04 0 a 141132.04 141132.04 0 1 1 282264.08 0a 141132.04 141132.04 0 1 1 -282264.08 0M 14468496.80 13582677.96 m -141132.04 0 a 141132.04 141132.04 0 1 1 282264.08 0a 141132.04 141132.04 0 1 1 -282264.08 0M 15059047.80 13582677.96 m -141132.04 0 a 141132.04 141132.04 0 1 1 282264.08 0a 141132.04 141132.04 0 1 1 -282264.08 0M 14763772.80 14173228.96 m -141132.04 0 a 141132.04 141132.04 0 1 1 282264.08 0a 141132.04 141132.04 0 1 1 -282264.08 0M 15059047.80 14763779.96 m -141132.04 0 a 141132.04 141132.04 0 1 1 282264.08 0a 141132.04 141132.04 0 1 1 -282264.08 0M 5314956.80 15354330.96 m -141132.04 0 a 141132.04 141132.04 0 1 1 282264.08 0a 141132.04 141132.04 0 1 1 -282264.08 0M 5019680.80 15944881.96 m -141132.04 0 a 141132.04 141132.04 0 1 1 282264.08 0a 141132.04 141132.04 0 1 1 -282264.08 0M 4724405.80 16535432.96 m -141132.04 0 a 141132.04 141132.04 0 1 1 282264.08 0a 141132.04 141132.04 0 1 1 -282264.08 0M 5314956.80 16535432.96 m -141132.04 0 a 141132.04 141132.04 0 1 1 282264.08 0a 141132.04 141132.04 0 1 1 -282264.08 0M 5019680.80 17125983.96 m -141132.04 0 a 141132.04 141132.04 0 1 1 282264.08 0a 141132.04 141132.04 0 1 1 -282264.08 0M 5610231.80 15944881.96 m -141132.04 0 a 141132.04 141132.04 0 1 1 282264.08 0a 141132.04 141132.04 0 1 1 -282264.08 0M 5905507.80 16535432.96 m -141132.04 0 a 141132.04 141132.04 0 1 1 282264.08 0a 141132.04 141132.04 0 1 1 -282264.08 0M 6200782.80 15944881.96 m -141132.04 0 a 141132.04 141132.04 0 1 1 282264.08 0a 141132.04 141132.04 0 1 1 -282264.08 0M 5610231.80 17125983.96 m -141132.04 0 a 141132.04 141132.04 0 1 1 282264.08 0a 141132.04 141132.04 0 1 1 -282264.08 0M 6496058.80 16535432.96 m -141132.04 0 a 141132.04 141132.04 0 1 1 282264.08 0a 141132.04 141132.04 0 1 1 -282264.08 0M 4724405.80 17716534.96 m -141132.04 0 a 141132.04 141132.04 0 1 1 282264.08 0a 141132.04 141132.04 0 1 1 -282264.08 0M 5314956.80 17716534.96 m -141132.04 0 a 141132.04 141132.04 0 1 1 282264.08 0a 141132.04 141132.04 0 1 1 -282264.08 0M 5905507.80 17716534.96 m -141132.04 0 a 141132.04 141132.04 0 1 1 282264.08 0a 141132.04 141132.04 0 1 1 -282264.08 0M 6200782.80 17125983.96 m -141132.04 0 a 141132.04 141132.04 0 1 1 282264.08 0a 141132.04 141132.04 0 1 1 -282264.08 0M 6200782.80 18307085.96 m -141132.04 0 a 141132.04 141132.04 0 1 1 282264.08 0a 141132.04 141132.04 0 1 1 -282264.08 0M 5019680.80 18307085.96 m -141132.04 0 a 141132.04 141132.04 0 1 1 282264.08 0a 141132.04 141132.04 0 1 1 -282264.08 0M 4724405.80 18897636.96 m -141132.04 0 a 141132.04 141132.04 0 1 1 282264.08 0a 141132.04 141132.04 0 1 1 -282264.08 0M 5610231.80 18307085.96 m -141132.04 0 a 141132.04 141132.04 0 1 1 282264.08 0a 141132.04 141132.04 0 1 1 -282264.08 0M 5905507.80 18897636.96 m -141132.04 0 a 141132.04 141132.04 0 1 1 282264.08 0a 141132.04 141132.04 0 1 1 -282264.08 0M 6791333.80 15944881.96 m -141132.04 0 a 141132.04 141132.04 0 1 1 282264.08 0a 141132.04 141132.04 0 1 1 -282264.08 0M 7086609.80 16535432.96 m -141132.04 0 a 141132.04 141132.04 0 1 1 282264.08 0a 141132.04 141132.04 0 1 1 -282264.08 0M 8112047.00 15819921.00 L 7787953.00 15819921.00 L 7787953.00 15480079.00 L 8112047.00 15480079.00 L 8112047.00 15819921.00  zM 9083071.00 15683077.00 L 8433463.00 15683077.00 A 111034.84 111034.84 0 0 1 8433463.00 15461017.00 L 9083071.00 15461017.00 A 111034.84 111034.84 0 0 1 9083071.00 15683077.00  zM 9083071.00 16194888.00 L 8433463.00 16194888.00 A 111034.84 111034.84 0 0 1 8433463.00 15972828.00 L 9083071.00 15972828.00 A 111034.84 111034.84 0 0 1 9083071.00 16194888.00  zM 9083071.00 15938982.00 L 8433463.00 15938982.00 A 111034.84 111034.84 0 1 1 8433463.00 15716922.00 L 9083071.00 15716922.00 A 111034.84 111034.84 0 0 1 9083071.00 15938982.00  zM 9083071.00 16450793.00 L 8433463.00 16450793.00 A 111034.84 111034.84 0 0 1 8433463.00 16228733.00 L 9083071.00 16228733.00 A 111034.84 111034.84 0 0 1 9083071.00 16450793.00  zM 9083071.00 16706699.00 L 8433463.00 16706699.00 A 111034.84 111034.84 0 0 1 8433463.00 16484639.00 L 9083071.00 16484639.00 A 111034.84 111034.84 0 0 1 9083071.00 16706699.00  zM 9359520.80 15833007.96 m -141132.04 0 a 141132.04 141132.04 0 1 1 282264.08 0a 141132.04 141132.04 0 1 1 -282264.08 0M 6791333.80 17125983.96 m -141132.04 0 a 141132.04 141132.04 0 1 1 282264.08 0a 141132.04 141132.04 0 1 1 -282264.08 0M 6496058.80 17716534.96 m -141132.04 0 a 141132.04 141132.04 0 1 1 282264.08 0a 141132.04 141132.04 0 1 1 -282264.08 0M 6791333.80 18307085.96 m -141132.04 0 a 141132.04 141132.04 0 1 1 282264.08 0a 141132.04 141132.04 0 1 1 -282264.08 0M 6496058.80 18897636.96 m -141132.04 0 a 141132.04 141132.04 0 1 1 282264.08 0a 141132.04 141132.04 0 1 1 -282264.08 0M 7972435.80 18307085.96 m -141132.04 0 a 141132.04 141132.04 0 1 1 282264.08 0a 141132.04 141132.04 0 1 1 -282264.08 0M 9083071.00 16962604.00 L 8433463.00 16962604.00 A 111034.84 111034.84 0 0 1 8433463.00 16740544.00 L 9083071.00 16740544.00 A 111034.84 111034.84 0 0 1 9083071.00 16962604.00  zM 9083071.00 17218510.00 L 8433463.00 17218510.00 A 111034.84 111034.84 0 0 1 8433463.00 16996450.00 L 9083071.00 16996450.00 A 111034.84 111034.84 0 0 1 9083071.00 17218510.00  zM 8267711.80 17716534.96 m -141132.04 0 a 141132.04 141132.04 0 1 1 282264.08 0a 141132.04 141132.04 0 1 1 -282264.08 0M 8267711.80 18897636.96 m -141132.04 0 a 141132.04 141132.04 0 1 1 282264.08 0a 141132.04 141132.04 0 1 1 -282264.08 0M 5314956.80 18897636.96 m -141132.04 0 a 141132.04 141132.04 0 1 1 282264.08 0a 141132.04 141132.04 0 1 1 -282264.08 0M 5019680.80 19488187.96 m -141132.04 0 a 141132.04 141132.04 0 1 1 282264.08 0a 141132.04 141132.04 0 1 1 -282264.08 0M 5610231.80 19488187.96 m -141132.04 0 a 141132.04 141132.04 0 1 1 282264.08 0a 141132.04 141132.04 0 1 1 -282264.08 0M 6200782.80 19488187.96 m -141132.04 0 a 141132.04 141132.04 0 1 1 282264.08 0a 141132.04 141132.04 0 1 1 -282264.08 0M 5905507.80 20078738.96 m -141132.04 0 a 141132.04 141132.04 0 1 1 282264.08 0a 141132.04 141132.04 0 1 1 -282264.08 0M 4724405.80 20078738.96 m -141132.04 0 a 141132.04 141132.04 0 1 1 282264.08 0a 141132.04 141132.04 0 1 1 -282264.08 0M 5019680.80 20669289.96 m -141132.04 0 a 141132.04 141132.04 0 1 1 282264.08 0a 141132.04 141132.04 0 1 1 -282264.08 0M 5314956.80 20078738.96 m -141132.04 0 a 141132.04 141132.04 0 1 1 282264.08 0a 141132.04 141132.04 0 1 1 -282264.08 0M 5610231.80 20669289.96 m -141132.04 0 a 141132.04 141132.04 0 1 1 282264.08 0a 141132.04 141132.04 0 1 1 -282264.08 0M 6200782.80 20669289.96 m -141132.04 0 a 141132.04 141132.04 0 1 1 282264.08 0a 141132.04 141132.04 0 1 1 -282264.08 0M 4724405.80 21259840.96 m -141132.04 0 a 141132.04 141132.04 0 1 1 282264.08 0a 141132.04 141132.04 0 1 1 -282264.08 0M 5314956.80 21259840.96 m -141132.04 0 a 141132.04 141132.04 0 1 1 282264.08 0a 141132.04 141132.04 0 1 1 -282264.08 0M 5610231.80 21850391.96 m -141132.04 0 a 141132.04 141132.04 0 1 1 282264.08 0a 141132.04 141132.04 0 1 1 -282264.08 0M 5905507.80 21259840.96 m -141132.04 0 a 141132.04 141132.04 0 1 1 282264.08 0a 141132.04 141132.04 0 1 1 -282264.08 0M 5905507.80 22440942.96 m -141132.04 0 a 141132.04 141132.04 0 1 1 282264.08 0a 141132.04 141132.04 0 1 1 -282264.08 0M 6496058.80 21259840.96 m -141132.04 0 a 141132.04 141132.04 0 1 1 282264.08 0a 141132.04 141132.04 0 1 1 -282264.08 0M 6200782.80 21850391.96 m -141132.04 0 a 141132.04 141132.04 0 1 1 282264.08 0a 141132.04 141132.04 0 1 1 -282264.08 0M 6496058.80 22440942.96 m -141132.04 0 a 141132.04 141132.04 0 1 1 282264.08 0a 141132.04 141132.04 0 1 1 -282264.08 0M 6200782.80 23031493.96 m -141132.04 0 a 141132.04 141132.04 0 1 1 282264.08 0a 141132.04 141132.04 0 1 1 -282264.08 0M 6791333.80 19488187.96 m -141132.04 0 a 141132.04 141132.04 0 1 1 282264.08 0a 141132.04 141132.04 0 1 1 -282264.08 0M 6496058.80 20078738.96 m -141132.04 0 a 141132.04 141132.04 0 1 1 282264.08 0a 141132.04 141132.04 0 1 1 -282264.08 0M 7086609.80 20078738.96 m -141132.04 0 a 141132.04 141132.04 0 1 1 282264.08 0a 141132.04 141132.04 0 1 1 -282264.08 0M 7972435.80 19488187.96 m -141132.04 0 a 141132.04 141132.04 0 1 1 282264.08 0a 141132.04 141132.04 0 1 1 -282264.08 0M 7677160.80 20078738.96 m -141132.04 0 a 141132.04 141132.04 0 1 1 282264.08 0a 141132.04 141132.04 0 1 1 -282264.08 0M 8562986.80 19488187.96 m -141132.04 0 a 141132.04 141132.04 0 1 1 282264.08 0a 141132.04 141132.04 0 1 1 -282264.08 0M 8267711.80 20078738.96 m -141132.04 0 a 141132.04 141132.04 0 1 1 282264.08 0a 141132.04 141132.04 0 1 1 -282264.08 0M 9744088.80 19488187.96 m -141132.04 0 a 141132.04 141132.04 0 1 1 282264.08 0a 141132.04 141132.04 0 1 1 -282264.08 0M 9448813.80 20078738.96 m -141132.04 0 a 141132.04 141132.04 0 1 1 282264.08 0a 141132.04 141132.04 0 1 1 -282264.08 0M 6791333.80 20669289.96 m -141132.04 0 a 141132.04 141132.04 0 1 1 282264.08 0a 141132.04 141132.04 0 1 1 -282264.08 0M 6791333.80 21850391.96 m -141132.04 0 a 141132.04 141132.04 0 1 1 282264.08 0a 141132.04 141132.04 0 1 1 -282264.08 0M 7972435.80 20669289.96 m -141132.04 0 a 141132.04 141132.04 0 1 1 282264.08 0a 141132.04 141132.04 0 1 1 -282264.08 0M 8562986.80 20669289.96 m -141132.04 0 a 141132.04 141132.04 0 1 1 282264.08 0a 141132.04 141132.04 0 1 1 -282264.08 0M 8267711.80 21259840.96 m -141132.04 0 a 141132.04 141132.04 0 1 1 282264.08 0a 141132.04 141132.04 0 1 1 -282264.08 0M 6791333.80 23031493.96 m -141132.04 0 a 141132.04 141132.04 0 1 1 282264.08 0a 141132.04 141132.04 0 1 1 -282264.08 0M 7972435.80 21850391.96 m -141132.04 0 a 141132.04 141132.04 0 1 1 282264.08 0a 141132.04 141132.04 0 1 1 -282264.08 0M 8267711.80 22440942.96 m -141132.04 0 a 141132.04 141132.04 0 1 1 282264.08 0a 141132.04 141132.04 0 1 1 -282264.08 0M 7972435.80 23031493.96 m -141132.04 0 a 141132.04 141132.04 0 1 1 282264.08 0a 141132.04 141132.04 0 1 1 -282264.08 0M 10115589.80 16185737.96 m -141132.04 0 a 141132.04 141132.04 0 1 1 282264.08 0a 141132.04 141132.04 0 1 1 -282264.08 0M 10039364.80 16535432.96 m -141132.04 0 a 141132.04 141132.04 0 1 1 282264.08 0a 141132.04 141132.04 0 1 1 -282264.08 0M 11366536.00 15683077.00 L 10716928.00 15683077.00 A 111034.84 111034.84 0 0 1 10716928.00 15461017.00 L 11366536.00 15461017.00 A 111034.84 111034.84 0 0 1 11366536.00 15683077.00  zM 11366536.00 16194888.00 L 10716928.00 16194888.00 A 111034.84 111034.84 0 0 1 10716928.00 15972828.00 L 11366536.00 15972828.00 A 111034.84 111034.84 0 0 1 11366536.00 16194888.00  zM 11366536.00 16450793.00 L 10716928.00 16450793.00 A 111034.84 111034.84 0 0 1 10716928.00 16228733.00 L 11366536.00 16228733.00 A 111034.84 111034.84 0 0 1 11366536.00 16450793.00  zM 11366536.00 15938982.00 L 10716928.00 15938982.00 A 111034.84 111034.84 0 0 1 10716928.00 15716922.00 L 11366536.00 15716922.00 A 111034.84 111034.84 0 1 1 11366536.00 15938982.00  zM 11366536.00 16706699.00 L 10716928.00 16706699.00 A 111034.84 111034.84 0 0 1 10716928.00 16484639.00 L 11366536.00 16484639.00 A 111034.84 111034.84 0 0 1 11366536.00 16706699.00  zM 12106292.80 15944881.96 m -141132.04 0 a 141132.04 141132.04 0 1 1 282264.08 0a 141132.04 141132.04 0 1 1 -282264.08 0M 12696843.80 15944881.96 m -141132.04 0 a 141132.04 141132.04 0 1 1 282264.08 0a 141132.04 141132.04 0 1 1 -282264.08 0M 12313106.80 16661755.96 m -141132.04 0 a 141132.04 141132.04 0 1 1 282264.08 0a 141132.04 141132.04 0 1 1 -282264.08 0M 10039364.80 17716534.96 m -141132.04 0 a 141132.04 141132.04 0 1 1 282264.08 0a 141132.04 141132.04 0 1 1 -282264.08 0M 10549997.80 17450004.96 m -141132.04 0 a 141132.04 141132.04 0 1 1 282264.08 0a 141132.04 141132.04 0 1 1 -282264.08 0M 11366536.00 17218510.00 L 10716928.00 17218510.00 A 111034.84 111034.84 0 0 1 10716928.00 16996450.00 L 11366536.00 16996450.00 A 111034.84 111034.84 0 0 1 11366536.00 17218510.00  zM 9744088.80 18307085.96 m -141132.04 0 a 141132.04 141132.04 0 1 1 282264.08 0a 141132.04 141132.04 0 1 1 -282264.08 0M 10039364.80 18897636.96 m -141132.04 0 a 141132.04 141132.04 0 1 1 282264.08 0a 141132.04 141132.04 0 1 1 -282264.08 0M 11366536.00 16962604.00 L 10716928.00 16962604.00 A 111034.84 111034.84 0 0 1 10716928.00 16740544.00 L 11366536.00 16740544.00 A 111034.84 111034.84 0 0 1 11366536.00 16962604.00  zM 11515741.80 18307085.96 m -141132.04 0 a 141132.04 141132.04 0 1 1 282264.08 0a 141132.04 141132.04 0 1 1 -282264.08 0M 12992119.80 17716534.96 m -141132.04 0 a 141132.04 141132.04 0 1 1 282264.08 0a 141132.04 141132.04 0 1 1 -282264.08 0M 12992119.80 18897636.96 m -141132.04 0 a 141132.04 141132.04 0 1 1 282264.08 0a 141132.04 141132.04 0 1 1 -282264.08 0M 13287394.80 15944881.96 m -141132.04 0 a 141132.04 141132.04 0 1 1 282264.08 0a 141132.04 141132.04 0 1 1 -282264.08 0M 13877945.80 15944881.96 m -141132.04 0 a 141132.04 141132.04 0 1 1 282264.08 0a 141132.04 141132.04 0 1 1 -282264.08 0M 14763772.80 15354330.96 m -141132.04 0 a 141132.04 141132.04 0 1 1 282264.08 0a 141132.04 141132.04 0 1 1 -282264.08 0M 15059047.80 15944881.96 m -141132.04 0 a 141132.04 141132.04 0 1 1 282264.08 0a 141132.04 141132.04 0 1 1 -282264.08 0M 14763772.80 16535432.96 m -141132.04 0 a 141132.04 141132.04 0 1 1 282264.08 0a 141132.04 141132.04 0 1 1 -282264.08 0M 13265984.00 16846693.00 L 12831654.00 16846693.00 L 12831654.00 16353307.00 L 13265984.00 16353307.00 L 13265984.00 16846693.00  zM 13817165.00 16846693.00 L 13382835.00 16846693.00 L 13382835.00 16353307.00 L 13817165.00 16353307.00 L 13817165.00 16846693.00  zM 15059047.80 17125983.96 m -141132.04 0 a 141132.04 141132.04 0 1 1 282264.08 0a 141132.04 141132.04 0 1 1 -282264.08 0M 14763772.80 17716534.96 m -141132.04 0 a 141132.04 141132.04 0 1 1 282264.08 0a 141132.04 141132.04 0 1 1 -282264.08 0M 13582670.80 17716534.96 m -141132.04 0 a 141132.04 141132.04 0 1 1 282264.08 0a 141132.04 141132.04 0 1 1 -282264.08 0M 13287394.80 18307085.96 m -141132.04 0 a 141132.04 141132.04 0 1 1 282264.08 0a 141132.04 141132.04 0 1 1 -282264.08 0M 14173221.80 17716534.96 m -141132.04 0 a 141132.04 141132.04 0 1 1 282264.08 0a 141132.04 141132.04 0 1 1 -282264.08 0M 13877945.80 18307085.96 m -141132.04 0 a 141132.04 141132.04 0 1 1 282264.08 0a 141132.04 141132.04 0 1 1 -282264.08 0M 13582670.80 18897636.96 m -141132.04 0 a 141132.04 141132.04 0 1 1 282264.08 0a 141132.04 141132.04 0 1 1 -282264.08 0M 14468496.80 18307085.96 m -141132.04 0 a 141132.04 141132.04 0 1 1 282264.08 0a 141132.04 141132.04 0 1 1 -282264.08 0M 14173221.80 18897636.96 m -141132.04 0 a 141132.04 141132.04 0 1 1 282264.08 0a 141132.04 141132.04 0 1 1 -282264.08 0M 15059047.80 18307085.96 m -141132.04 0 a 141132.04 141132.04 0 1 1 282264.08 0a 141132.04 141132.04 0 1 1 -282264.08 0M 14763772.80 18897636.96 m -141132.04 0 a 141132.04 141132.04 0 1 1 282264.08 0a 141132.04 141132.04 0 1 1 -282264.08 0M 10334639.80 19488187.96 m -141132.04 0 a 141132.04 141132.04 0 1 1 282264.08 0a 141132.04 141132.04 0 1 1 -282264.08 0M 10039364.80 20078738.96 m -141132.04 0 a 141132.04 141132.04 0 1 1 282264.08 0a 141132.04 141132.04 0 1 1 -282264.08 0M 10334639.80 20669289.96 m -141132.04 0 a 141132.04 141132.04 0 1 1 282264.08 0a 141132.04 141132.04 0 1 1 -282264.08 0M 11515741.80 19488187.96 m -141132.04 0 a 141132.04 141132.04 0 1 1 282264.08 0a 141132.04 141132.04 0 1 1 -282264.08 0M 11220466.80 20078738.96 m -141132.04 0 a 141132.04 141132.04 0 1 1 282264.08 0a 141132.04 141132.04 0 1 1 -282264.08 0M 11811017.80 20078738.96 m -141132.04 0 a 141132.04 141132.04 0 1 1 282264.08 0a 141132.04 141132.04 0 1 1 -282264.08 0M 11515741.80 20669289.96 m -141132.04 0 a 141132.04 141132.04 0 1 1 282264.08 0a 141132.04 141132.04 0 1 1 -282264.08 0M 12696843.80 19488187.96 m -141132.04 0 a 141132.04 141132.04 0 1 1 282264.08 0a 141132.04 141132.04 0 1 1 -282264.08 0M 12992119.80 20078738.96 m -141132.04 0 a 141132.04 141132.04 0 1 1 282264.08 0a 141132.04 141132.04 0 1 1 -282264.08 0M 12696843.80 20669289.96 m -141132.04 0 a 141132.04 141132.04 0 1 1 282264.08 0a 141132.04 141132.04 0 1 1 -282264.08 0M 9744088.80 20669289.96 m -141132.04 0 a 141132.04 141132.04 0 1 1 282264.08 0a 141132.04 141132.04 0 1 1 -282264.08 0M 10039364.80 21259840.96 m -141132.04 0 a 141132.04 141132.04 0 1 1 282264.08 0a 141132.04 141132.04 0 1 1 -282264.08 0M 9744088.80 21850391.96 m -141132.04 0 a 141132.04 141132.04 0 1 1 282264.08 0a 141132.04 141132.04 0 1 1 -282264.08 0M 10039364.80 22440942.96 m -141132.04 0 a 141132.04 141132.04 0 1 1 282264.08 0a 141132.04 141132.04 0 1 1 -282264.08 0M 9744088.80 23031493.96 m -141132.04 0 a 141132.04 141132.04 0 1 1 282264.08 0a 141132.04 141132.04 0 1 1 -282264.08 0M 11515741.80 21850391.96 m -141132.04 0 a 141132.04 141132.04 0 1 1 282264.08 0a 141132.04 141132.04 0 1 1 -282264.08 0M 12992119.80 21259840.96 m -141132.04 0 a 141132.04 141132.04 0 1 1 282264.08 0a 141132.04 141132.04 0 1 1 -282264.08 0M 11515741.80 23031493.96 m -141132.04 0 a 141132.04 141132.04 0 1 1 282264.08 0a 141132.04 141132.04 0 1 1 -282264.08 0M 12992119.80 22440942.96 m -141132.04 0 a 141132.04 141132.04 0 1 1 282264.08 0a 141132.04 141132.04 0 1 1 -282264.08 0M 13287394.80 19488187.96 m -141132.04 0 a 141132.04 141132.04 0 1 1 282264.08 0a 141132.04 141132.04 0 1 1 -282264.08 0M 13877945.80 19488187.96 m -141132.04 0 a 141132.04 141132.04 0 1 1 282264.08 0a 141132.04 141132.04 0 1 1 -282264.08 0M 14173221.80 20078738.96 m -141132.04 0 a 141132.04 141132.04 0 1 1 282264.08 0a 141132.04 141132.04 0 1 1 -282264.08 0M 13582670.80 20078738.96 m -141132.04 0 a 141132.04 141132.04 0 1 1 282264.08 0a 141132.04 141132.04 0 1 1 -282264.08 0M 13877945.80 20669289.96 m -141132.04 0 a 141132.04 141132.04 0 1 1 282264.08 0a 141132.04 141132.04 0 1 1 -282264.08 0M 14468496.80 19488187.96 m -141132.04 0 a 141132.04 141132.04 0 1 1 282264.08 0a 141132.04 141132.04 0 1 1 -282264.08 0M 15059047.80 19488187.96 m -141132.04 0 a 141132.04 141132.04 0 1 1 282264.08 0a 141132.04 141132.04 0 1 1 -282264.08 0M 14763772.80 20078738.96 m -141132.04 0 a 141132.04 141132.04 0 1 1 282264.08 0a 141132.04 141132.04 0 1 1 -282264.08 0M 15059047.80 20669289.96 m -141132.04 0 a 141132.04 141132.04 0 1 1 282264.08 0a 141132.04 141132.04 0 1 1 -282264.08 0M 13287394.80 20669289.96 m -141132.04 0 a 141132.04 141132.04 0 1 1 282264.08 0a 141132.04 141132.04 0 1 1 -282264.08 0M 13582670.80 21259840.96 m -141132.04 0 a 141132.04 141132.04 0 1 1 282264.08 0a 141132.04 141132.04 0 1 1 -282264.08 0M 14173221.80 21259840.96 m -141132.04 0 a 141132.04 141132.04 0 1 1 282264.08 0a 141132.04 141132.04 0 1 1 -282264.08 0M 14468496.80 20669289.96 m -141132.04 0 a 141132.04 141132.04 0 1 1 282264.08 0a 141132.04 141132.04 0 1 1 -282264.08 0M 14763772.80 21259840.96 m -141132.04 0 a 141132.04 141132.04 0 1 1 282264.08 0a 141132.04 141132.04 0 1 1 -282264.08 0M 13287394.80 21850391.96 m -141132.04 0 a 141132.04 141132.04 0 1 1 282264.08 0a 141132.04 141132.04 0 1 1 -282264.08 0M 13877945.80 21850391.96 m -141132.04 0 a 141132.04 141132.04 0 1 1 282264.08 0a 141132.04 141132.04 0 1 1 -282264.08 0M 13582670.80 22440942.96 m -141132.04 0 a 141132.04 141132.04 0 1 1 282264.08 0a 141132.04 141132.04 0 1 1 -282264.08 0M 13287394.80 23031493.96 m -141132.04 0 a 141132.04 141132.04 0 1 1 282264.08 0a 141132.04 141132.04 0 1 1 -282264.08 0"/>
</g>
</svg>
