<svg width="29.99999842mm" height="34.00000058mm" viewBox="0 0 11811023 13385827"  version="1.1" xmlns="http://www.w3.org/2000/svg" xmlns:xlink="http://www.w3.org/1999/xlink">
<desc>
Origin 0 0 Bound 3937008 10236220 11811023 13385827
</desc>
<g fill-rule="evenodd" fill="rgb(128, 0, 128)" stroke="black" stroke-width="1" transform="translate(0, 13385827) scale(1, -1) translate(-3937008, -10236220)">
<path id="N" d="M 14589564.00 23622046.00 A 119403.94 119403.94 0 0 0 14667948.00 23432809.00 L 14614046.00 23374616.00 A 629926.01 629926.01 0 0 1 15558792.00 22541965.00 A 119406.16 119406.16 0 0 0 15748029.00 22463580.00 L 15748030.00 11339908.00 A 1183659.99 1183659.99 0 0 0 14644342.00 10236220.00 L 5040695.00 10236220.00 A 1183641.20 1183641.20 0 0 0 3937007.00 11339908.00 L 3937008.00 22463580.00 A 119390.75 119390.75 0 0 0 4126245.00 22541965.00 L 4184437.00 22488062.00 A 629926.01 629926.01 0 0 1 5017088.00 23432808.00 A 119406.16 119406.16 0 0 0 5095473.00 23622045.00 L 14589564.00 23622046.00  zM 4724405.80 10629922.96 m -141132.04 0 a 141132.04 141132.04 0 1 1 282264.08 0a 141132.04 141132.04 0 1 1 -282264.08 0M 5314956.80 10629922.96 m -141132.04 0 a 141132.04 141132.04 0 1 1 282264.08 0a 141132.04 141132.04 0 1 1 -282264.08 0M 5019680.80 11220473.96 m -141132.04 0 a 141132.04 141132.04 0 1 1 282264.08 0a 141132.04 141132.04 0 1 1 -282264.08 0M 4724405.80 11811024.96 m -141132.04 0 a 141132.04 141132.04 0 1 1 282264.08 0a 141132.04 141132.04 0 1 1 -282264.08 0M 5905507.80 10629922.96 m -141132.04 0 a 141132.04 141132.04 0 1 1 282264.08 0a 141132.04 141132.04 0 1 1 -282264.08 0M 5610231.80 11220473.96 m -141132.04 0 a 141132.04 141132.04 0 1 1 282264.08 0a 141132.04 141132.04 0 1 1 -282264.08 0M 5314956.80 11811024.96 m -141132.04 0 a 141132.04 141132.04 0 1 1 282264.08 0a 141132.04 141132.04 0 1 1 -282264.08 0M 5905507.80 11811024.96 m -141132.04 0 a 141132.04 141132.04 0 1 1 282264.08 0a 141132.04 141132.04 0 1 1 -282264.08 0M 5019680.80 12401575.96 m -141132.04 0 a 141132.04 141132.04 0 1 1 282264.08 0a 141132.04 141132.04 0 1 1 -282264.08 0M 4724405.80 12992126.96 m -141132.04 0 a 141132.04 141132.04 0 1 1 282264.08 0a 141132.04 141132.04 0 1 1 -282264.08 0M 5610231.80 12401575.96 m -141132.04 0 a 141132.04 141132.04 0 1 1 282264.08 0a 141132.04 141132.04 0 1 1 -282264.08 0M 5314956.80 12992126.96 m -141132.04 0 a 141132.04 141132.04 0 1 1 282264.08 0a 141132.04 141132.04 0 1 1 -282264.08 0M 6200782.80 12401575.96 m -141132.04 0 a 141132.04 141132.04 0 1 1 282264.08 0a 141132.04 141132.04 0 1 1 -282264.08 0M 5905507.80 12992126.96 m -141132.04 0 a 141132.04 141132.04 0 1 1 282264.08 0a 141132.04 141132.04 0 1 1 -282264.08 0M 5610231.80 13582677.96 m -141132.04 0 a 141132.04 141132.04 0 1 1 282264.08 0a 141132.04 141132.04 0 1 1 -282264.08 0M 6496058.80 10629922.96 m -141132.04 0 a 141132.04 141132.04 0 1 1 282264.08 0a 141132.04 141132.04 0 1 1 -282264.08 0M 6200782.80 11220473.96 m -141132.04 0 a 141132.04 141132.04 0 1 1 282264.08 0a 141132.04 141132.04 0 1 1 -282264.08 0M 6791333.80 11220473.96 m -141132.04 0 a 141132.04 141132.04 0 1 1 282264.08 0a 141132.04 141132.04 0 1 1 -282264.08 0M 6496058.80 11811024.96 m -141132.04 0 a 141132.04 141132.04 0 1 1 282264.08 0a 141132.04 141132.04 0 1 1 -282264.08 0M 7086609.80 10629922.96 m -141132.04 0 a 141132.04 141132.04 0 1 1 282264.08 0a 141132.04 141132.04 0 1 1 -282264.08 0M 7677160.80 10629922.96 m -141132.04 0 a 141132.04 141132.04 0 1 1 282264.08 0a 141132.04 141132.04 0 1 1 -282264.08 0M 7086609.80 11811024.96 m -141132.04 0 a 141132.04 141132.04 0 1 1 282264.08 0a 141132.04 141132.04 0 1 1 -282264.08 0M 6791333.80 12401575.96 m -141132.04 0 a 141132.04 141132.04 0 1 1 282264.08 0a 141132.04 141132.04 0 1 1 -282264.08 0M 6496058.80 12992126.96 m -141132.04 0 a 141132.04 141132.04 0 1 1 282264.08 0a 141132.04 141132.04 0 1 1 -282264.08 0M 6200782.80 13582677.96 m -141132.04 0 a 141132.04 141132.04 0 1 1 282264.08 0a 141132.04 141132.04 0 1 1 -282264.08 0M 6791333.80 13582677.96 m -141132.04 0 a 141132.04 141132.04 0 1 1 282264.08 0a 141132.04 141132.04 0 1 1 -282264.08 0M 7086609.80 12992126.96 m -141132.04 0 a 141132.04 141132.04 0 1 1 282264.08 0a 141132.04 141132.04 0 1 1 -282264.08 0M 7972435.80 13582677.96 m -141132.04 0 a 141132.04 141132.04 0 1 1 282264.08 0a 141132.04 141132.04 0 1 1 -282264.08 0M 8267711.80 12992126.96 m -141132.04 0 a 141132.04 141132.04 0 1 1 282264.08 0a 141132.04 141132.04 0 1 1 -282264.08 0M 5019680.80 13582677.96 m -141132.04 0 a 141132.04 141132.04 0 1 1 282264.08 0a 141132.04 141132.04 0 1 1 -282264.08 0M 4724405.80 14173228.96 m -141132.04 0 a 141132.04 141132.04 0 1 1 282264.08 0a 141132.04 141132.04 0 1 1 -282264.08 0M 5314956.80 14173228.96 m -141132.04 0 a 141132.04 141132.04 0 1 1 282264.08 0a 141132.04 141132.04 0 1 1 -282264.08 0M 5905507.80 14173228.96 m -141132.04 0 a 141132.04 141132.04 0 1 1 282264.08 0a 141132.04 141132.04 0 1 1 -282264.08 0M 5019680.80 14763779.96 m -141132.04 0 a 141132.04 141132.04 0 1 1 282264.08 0a 141132.04 141132.04 0 1 1 -282264.08 0M 5314956.80 15354330.96 m -141132.04 0 a 141132.04 141132.04 0 1 1 282264.08 0a 141132.04 141132.04 0 1 1 -282264.08 0M 5610231.80 14763779.96 m -141132.04 0 a 141132.04 141132.04 0 1 1 282264.08 0a 141132.04 141132.04 0 1 1 -282264.08 0M 6496058.80 14173228.96 m -141132.04 0 a 141132.04 141132.04 0 1 1 282264.08 0a 141132.04 141132.04 0 1 1 -282264.08 0M 6200782.80 14763779.96 m -141132.04 0 a 141132.04 141132.04 0 1 1 282264.08 0a 141132.04 141132.04 0 1 1 -282264.08 0M 6791333.80 14763779.96 m -141132.04 0 a 141132.04 141132.04 0 1 1 282264.08 0a 141132.04 141132.04 0 1 1 -282264.08 0M 6496058.80 15354330.96 m -141132.04 0 a 141132.04 141132.04 0 1 1 282264.08 0a 141132.04 141132.04 0 1 1 -282264.08 0M 7086609.80 14173228.96 m -141132.04 0 a 141132.04 141132.04 0 1 1 282264.08 0a 141132.04 141132.04 0 1 1 -282264.08 0M 7086609.80 15354330.96 m -141132.04 0 a 141132.04 141132.04 0 1 1 282264.08 0a 141132.04 141132.04 0 1 1 -282264.08 0M 9153537.80 13582677.96 m -141132.04 0 a 141132.04 141132.04 0 1 1 282264.08 0a 141132.04 141132.04 0 1 1 -282264.08 0M 4724405.80 15354330.96 m -141132.04 0 a 141132.04 141132.04 0 1 1 282264.08 0a 141132.04 141132.04 0 1 1 -282264.08 0M 5019680.80 15944881.96 m -141132.04 0 a 141132.04 141132.04 0 1 1 282264.08 0a 141132.04 141132.04 0 1 1 -282264.08 0M 5610231.80 15944881.96 m -141132.04 0 a 141132.04 141132.04 0 1 1 282264.08 0a 141132.04 141132.04 0 1 1 -282264.08 0M 5314956.80 16535432.96 m -141132.04 0 a 141132.04 141132.04 0 1 1 282264.08 0a 141132.04 141132.04 0 1 1 -282264.08 0M 4724405.80 16535432.96 m -141132.04 0 a 141132.04 141132.04 0 1 1 282264.08 0a 141132.04 141132.04 0 1 1 -282264.08 0M 5019680.80 17125983.96 m -141132.04 0 a 141132.04 141132.04 0 1 1 282264.08 0a 141132.04 141132.04 0 1 1 -282264.08 0M 5905507.80 16535432.96 m -141132.04 0 a 141132.04 141132.04 0 1 1 282264.08 0a 141132.04 141132.04 0 1 1 -282264.08 0M 5905507.80 15354330.96 m -141132.04 0 a 141132.04 141132.04 0 1 1 282264.08 0a 141132.04 141132.04 0 1 1 -282264.08 0M 6200782.80 15944881.96 m -141132.04 0 a 141132.04 141132.04 0 1 1 282264.08 0a 141132.04 141132.04 0 1 1 -282264.08 0M 6791333.80 15944881.96 m -141132.04 0 a 141132.04 141132.04 0 1 1 282264.08 0a 141132.04 141132.04 0 1 1 -282264.08 0M 6496058.80 16535432.96 m -141132.04 0 a 141132.04 141132.04 0 1 1 282264.08 0a 141132.04 141132.04 0 1 1 -282264.08 0M 6200782.80 17125983.96 m -141132.04 0 a 141132.04 141132.04 0 1 1 282264.08 0a 141132.04 141132.04 0 1 1 -282264.08 0M 6791333.80 17125983.96 m -141132.04 0 a 141132.04 141132.04 0 1 1 282264.08 0a 141132.04 141132.04 0 1 1 -282264.08 0M 7086609.80 16535432.96 m -141132.04 0 a 141132.04 141132.04 0 1 1 282264.08 0a 141132.04 141132.04 0 1 1 -282264.08 0M 10039364.80 10629922.96 m -141132.04 0 a 141132.04 141132.04 0 1 1 282264.08 0a 141132.04 141132.04 0 1 1 -282264.08 0M 10629915.80 10629922.96 m -141132.04 0 a 141132.04 141132.04 0 1 1 282264.08 0a 141132.04 141132.04 0 1 1 -282264.08 0M 11220466.80 10629922.96 m -141132.04 0 a 141132.04 141132.04 0 1 1 282264.08 0a 141132.04 141132.04 0 1 1 -282264.08 0M 11811017.80 10629922.96 m -141132.04 0 a 141132.04 141132.04 0 1 1 282264.08 0a 141132.04 141132.04 0 1 1 -282264.08 0M 11220466.80 11811024.96 m -141132.04 0 a 141132.04 141132.04 0 1 1 282264.08 0a 141132.04 141132.04 0 1 1 -282264.08 0M 10449997.80 12850004.96 m -141132.04 0 a 141132.04 141132.04 0 1 1 282264.08 0a 141132.04 141132.04 0 1 1 -282264.08 0M 11811017.80 11811024.96 m -141132.04 0 a 141132.04 141132.04 0 1 1 282264.08 0a 141132.04 141132.04 0 1 1 -282264.08 0M 11811017.80 12992126.96 m -141132.04 0 a 141132.04 141132.04 0 1 1 282264.08 0a 141132.04 141132.04 0 1 1 -282264.08 0M 12401568.80 10629922.96 m -141132.04 0 a 141132.04 141132.04 0 1 1 282264.08 0a 141132.04 141132.04 0 1 1 -282264.08 0M 12992119.80 10629922.96 m -141132.04 0 a 141132.04 141132.04 0 1 1 282264.08 0a 141132.04 141132.04 0 1 1 -282264.08 0M 12106292.80 11220473.96 m -141132.04 0 a 141132.04 141132.04 0 1 1 282264.08 0a 141132.04 141132.04 0 1 1 -282264.08 0M 12992119.80 11811024.96 m -141132.04 0 a 141132.04 141132.04 0 1 1 282264.08 0a 141132.04 141132.04 0 1 1 -282264.08 0M 12106292.80 12401575.96 m -141132.04 0 a 141132.04 141132.04 0 1 1 282264.08 0a 141132.04 141132.04 0 1 1 -282264.08 0M 12992119.80 12992126.96 m -141132.04 0 a 141132.04 141132.04 0 1 1 282264.08 0a 141132.04 141132.04 0 1 1 -282264.08 0M 13287394.80 12401575.96 m -141132.04 0 a 141132.04 141132.04 0 1 1 282264.08 0a 141132.04 141132.04 0 1 1 -282264.08 0M 13582670.80 10629922.96 m -141132.04 0 a 141132.04 141132.04 0 1 1 282264.08 0a 141132.04 141132.04 0 1 1 -282264.08 0M 13287394.80 11220473.96 m -141132.04 0 a 141132.04 141132.04 0 1 1 282264.08 0a 141132.04 141132.04 0 1 1 -282264.08 0M 14173221.80 10629922.96 m -141132.04 0 a 141132.04 141132.04 0 1 1 282264.08 0a 141132.04 141132.04 0 1 1 -282264.08 0M 13877945.80 11220473.96 m -141132.04 0 a 141132.04 141132.04 0 1 1 282264.08 0a 141132.04 141132.04 0 1 1 -282264.08 0M 14763772.80 10629922.96 m -141132.04 0 a 141132.04 141132.04 0 1 1 282264.08 0a 141132.04 141132.04 0 1 1 -282264.08 0M 14468496.80 11220473.96 m -141132.04 0 a 141132.04 141132.04 0 1 1 282264.08 0a 141132.04 141132.04 0 1 1 -282264.08 0M 15059047.80 11220473.96 m -141132.04 0 a 141132.04 141132.04 0 1 1 282264.08 0a 141132.04 141132.04 0 1 1 -282264.08 0M 13582670.80 11811024.96 m -141132.04 0 a 141132.04 141132.04 0 1 1 282264.08 0a 141132.04 141132.04 0 1 1 -282264.08 0M 14173221.80 11811024.96 m -141132.04 0 a 141132.04 141132.04 0 1 1 282264.08 0a 141132.04 141132.04 0 1 1 -282264.08 0M 13877945.80 12401575.96 m -141132.04 0 a 141132.04 141132.04 0 1 1 282264.08 0a 141132.04 141132.04 0 1 1 -282264.08 0M 13582670.80 12992126.96 m -141132.04 0 a 141132.04 141132.04 0 1 1 282264.08 0a 141132.04 141132.04 0 1 1 -282264.08 0M 14763772.80 11811024.96 m -141132.04 0 a 141132.04 141132.04 0 1 1 282264.08 0a 141132.04 141132.04 0 1 1 -282264.08 0M 14468496.80 12401575.96 m -141132.04 0 a 141132.04 141132.04 0 1 1 282264.08 0a 141132.04 141132.04 0 1 1 -282264.08 0M 15059047.80 12401575.96 m -141132.04 0 a 141132.04 141132.04 0 1 1 282264.08 0a 141132.04 141132.04 0 1 1 -282264.08 0M 9448813.80 12992126.96 m -141132.04 0 a 141132.04 141132.04 0 1 1 282264.08 0a 141132.04 141132.04 0 1 1 -282264.08 0M 10925190.80 13582677.96 m -141132.04 0 a 141132.04 141132.04 0 1 1 282264.08 0a 141132.04 141132.04 0 1 1 -282264.08 0M 10334639.80 13582677.96 m -141132.04 0 a 141132.04 141132.04 0 1 1 282264.08 0a 141132.04 141132.04 0 1 1 -282264.08 0M 9399997.80 15118819.96 m -141132.04 0 a 141132.04 141132.04 0 1 1 282264.08 0a 141132.04 141132.04 0 1 1 -282264.08 0M 11220466.80 12992126.96 m -141132.04 0 a 141132.04 141132.04 0 1 1 282264.08 0a 141132.04 141132.04 0 1 1 -282264.08 0M 11515741.80 13582677.96 m -141132.04 0 a 141132.04 141132.04 0 1 1 282264.08 0a 141132.04 141132.04 0 1 1 -282264.08 0M 12106292.80 13582677.96 m -141132.04 0 a 141132.04 141132.04 0 1 1 282264.08 0a 141132.04 141132.04 0 1 1 -282264.08 0M 9359520.80 15833007.96 m -141132.04 0 a 141132.04 141132.04 0 1 1 282264.08 0a 141132.04 141132.04 0 1 1 -282264.08 0M 10039364.80 16535432.96 m -141132.04 0 a 141132.04 141132.04 0 1 1 282264.08 0a 141132.04 141132.04 0 1 1 -282264.08 0M 10115589.80 16185737.96 m -141132.04 0 a 141132.04 141132.04 0 1 1 282264.08 0a 141132.04 141132.04 0 1 1 -282264.08 0M 12106292.80 15944881.96 m -141132.04 0 a 141132.04 141132.04 0 1 1 282264.08 0a 141132.04 141132.04 0 1 1 -282264.08 0M 12401568.80 15354330.96 m -141132.04 0 a 141132.04 141132.04 0 1 1 282264.08 0a 141132.04 141132.04 0 1 1 -282264.08 0M 12696843.80 15944881.96 m -141132.04 0 a 141132.04 141132.04 0 1 1 282264.08 0a 141132.04 141132.04 0 1 1 -282264.08 0M 12313106.80 16661755.96 m -141132.04 0 a 141132.04 141132.04 0 1 1 282264.08 0a 141132.04 141132.04 0 1 1 -282264.08 0M 14173221.80 12992126.96 m -141132.04 0 a 141132.04 141132.04 0 1 1 282264.08 0a 141132.04 141132.04 0 1 1 -282264.08 0M 13877945.80 13582677.96 m -141132.04 0 a 141132.04 141132.04 0 1 1 282264.08 0a 141132.04 141132.04 0 1 1 -282264.08 0M 14763772.80 12992126.96 m -141132.04 0 a 141132.04 141132.04 0 1 1 282264.08 0a 141132.04 141132.04 0 1 1 -282264.08 0M 14468496.80 13582677.96 m -141132.04 0 a 141132.04 141132.04 0 1 1 282264.08 0a 141132.04 141132.04 0 1 1 -282264.08 0M 15059047.80 13582677.96 m -141132.04 0 a 141132.04 141132.04 0 1 1 282264.08 0a 141132.04 141132.04 0 1 1 -282264.08 0M 14763772.80 14173228.96 m -141132.04 0 a 141132.04 141132.04 0 1 1 282264.08 0a 141132.04 141132.04 0 1 1 -282264.08 0M 15059047.80 14763779.96 m -141132.04 0 a 141132.04 141132.04 0 1 1 282264.08 0a 141132.04 141132.04 0 1 1 -282264.08 0M 12696843.80 14763779.96 m -141132.04 0 a 141132.04 141132.04 0 1 1 282264.08 0a 141132.04 141132.04 0 1 1 -282264.08 0M 13287394.80 15944881.96 m -141132.04 0 a 141132.04 141132.04 0 1 1 282264.08 0a 141132.04 141132.04 0 1 1 -282264.08 0M 13877945.80 15944881.96 m -141132.04 0 a 141132.04 141132.04 0 1 1 282264.08 0a 141132.04 141132.04 0 1 1 -282264.08 0M 14763772.80 16535432.96 m -141132.04 0 a 141132.04 141132.04 0 1 1 282264.08 0a 141132.04 141132.04 0 1 1 -282264.08 0M 14763772.80 15354330.96 m -141132.04 0 a 141132.04 141132.04 0 1 1 282264.08 0a 141132.04 141132.04 0 1 1 -282264.08 0M 15059047.80 15944881.96 m -141132.04 0 a 141132.04 141132.04 0 1 1 282264.08 0a 141132.04 141132.04 0 1 1 -282264.08 0M 15059047.80 17125983.96 m -141132.04 0 a 141132.04 141132.04 0 1 1 282264.08 0a 141132.04 141132.04 0 1 1 -282264.08 0M 4724405.80 17716534.96 m -141132.04 0 a 141132.04 141132.04 0 1 1 282264.08 0a 141132.04 141132.04 0 1 1 -282264.08 0M 5314956.80 17716534.96 m -141132.04 0 a 141132.04 141132.04 0 1 1 282264.08 0a 141132.04 141132.04 0 1 1 -282264.08 0M 5610231.80 17125983.96 m -141132.04 0 a 141132.04 141132.04 0 1 1 282264.08 0a 141132.04 141132.04 0 1 1 -282264.08 0M 5905507.80 17716534.96 m -141132.04 0 a 141132.04 141132.04 0 1 1 282264.08 0a 141132.04 141132.04 0 1 1 -282264.08 0M 5019680.80 18307085.96 m -141132.04 0 a 141132.04 141132.04 0 1 1 282264.08 0a 141132.04 141132.04 0 1 1 -282264.08 0M 5610231.80 18307085.96 m -141132.04 0 a 141132.04 141132.04 0 1 1 282264.08 0a 141132.04 141132.04 0 1 1 -282264.08 0M 6200782.80 18307085.96 m -141132.04 0 a 141132.04 141132.04 0 1 1 282264.08 0a 141132.04 141132.04 0 1 1 -282264.08 0M 5905507.80 18897636.96 m -141132.04 0 a 141132.04 141132.04 0 1 1 282264.08 0a 141132.04 141132.04 0 1 1 -282264.08 0M 4724405.80 18897636.96 m -141132.04 0 a 141132.04 141132.04 0 1 1 282264.08 0a 141132.04 141132.04 0 1 1 -282264.08 0M 5314956.80 18897636.96 m -141132.04 0 a 141132.04 141132.04 0 1 1 282264.08 0a 141132.04 141132.04 0 1 1 -282264.08 0M 5019680.80 19488187.96 m -141132.04 0 a 141132.04 141132.04 0 1 1 282264.08 0a 141132.04 141132.04 0 1 1 -282264.08 0M 5314956.80 20078738.96 m -141132.04 0 a 141132.04 141132.04 0 1 1 282264.08 0a 141132.04 141132.04 0 1 1 -282264.08 0M 5610231.80 19488187.96 m -141132.04 0 a 141132.04 141132.04 0 1 1 282264.08 0a 141132.04 141132.04 0 1 1 -282264.08 0M 5905507.80 20078738.96 m -141132.04 0 a 141132.04 141132.04 0 1 1 282264.08 0a 141132.04 141132.04 0 1 1 -282264.08 0M 6200782.80 19488187.96 m -141132.04 0 a 141132.04 141132.04 0 1 1 282264.08 0a 141132.04 141132.04 0 1 1 -282264.08 0M 6496058.80 17716534.96 m -141132.04 0 a 141132.04 141132.04 0 1 1 282264.08 0a 141132.04 141132.04 0 1 1 -282264.08 0M 6791333.80 18307085.96 m -141132.04 0 a 141132.04 141132.04 0 1 1 282264.08 0a 141132.04 141132.04 0 1 1 -282264.08 0M 7972435.80 18307085.96 m -141132.04 0 a 141132.04 141132.04 0 1 1 282264.08 0a 141132.04 141132.04 0 1 1 -282264.08 0M 7822481.00 19137243.00 L 6955079.00 19137243.00 L 6955079.00 17679291.00 L 7822481.00 17679291.00 L 7822481.00 19137243.00  zM 6496058.80 18897636.96 m -141132.04 0 a 141132.04 141132.04 0 1 1 282264.08 0a 141132.04 141132.04 0 1 1 -282264.08 0M 6791333.80 19488187.96 m -141132.04 0 a 141132.04 141132.04 0 1 1 282264.08 0a 141132.04 141132.04 0 1 1 -282264.08 0M 6496058.80 20078738.96 m -141132.04 0 a 141132.04 141132.04 0 1 1 282264.08 0a 141132.04 141132.04 0 1 1 -282264.08 0M 8267711.80 17716534.96 m -141132.04 0 a 141132.04 141132.04 0 1 1 282264.08 0a 141132.04 141132.04 0 1 1 -282264.08 0M 9397284.00 19137243.00 L 8529882.00 19137243.00 L 8529882.00 17679291.00 L 9397284.00 17679291.00 L 9397284.00 19137243.00  zM 8267711.80 18897636.96 m -141132.04 0 a 141132.04 141132.04 0 1 1 282264.08 0a 141132.04 141132.04 0 1 1 -282264.08 0M 8562986.80 19488187.96 m -141132.04 0 a 141132.04 141132.04 0 1 1 282264.08 0a 141132.04 141132.04 0 1 1 -282264.08 0M 7972435.80 19488187.96 m -141132.04 0 a 141132.04 141132.04 0 1 1 282264.08 0a 141132.04 141132.04 0 1 1 -282264.08 0M 8267711.80 20078738.96 m -141132.04 0 a 141132.04 141132.04 0 1 1 282264.08 0a 141132.04 141132.04 0 1 1 -282264.08 0M 9448813.80 20078738.96 m -141132.04 0 a 141132.04 141132.04 0 1 1 282264.08 0a 141132.04 141132.04 0 1 1 -282264.08 0M 4724405.80 20078738.96 m -141132.04 0 a 141132.04 141132.04 0 1 1 282264.08 0a 141132.04 141132.04 0 1 1 -282264.08 0M 5019680.80 20669289.96 m -141132.04 0 a 141132.04 141132.04 0 1 1 282264.08 0a 141132.04 141132.04 0 1 1 -282264.08 0M 4724405.80 21259840.96 m -141132.04 0 a 141132.04 141132.04 0 1 1 282264.08 0a 141132.04 141132.04 0 1 1 -282264.08 0M 5314956.80 21259840.96 m -141132.04 0 a 141132.04 141132.04 0 1 1 282264.08 0a 141132.04 141132.04 0 1 1 -282264.08 0M 5610231.80 20669289.96 m -141132.04 0 a 141132.04 141132.04 0 1 1 282264.08 0a 141132.04 141132.04 0 1 1 -282264.08 0M 6200782.80 20669289.96 m -141132.04 0 a 141132.04 141132.04 0 1 1 282264.08 0a 141132.04 141132.04 0 1 1 -282264.08 0M 6496058.80 21259840.96 m -141132.04 0 a 141132.04 141132.04 0 1 1 282264.08 0a 141132.04 141132.04 0 1 1 -282264.08 0M 5905507.80 21259840.96 m -141132.04 0 a 141132.04 141132.04 0 1 1 282264.08 0a 141132.04 141132.04 0 1 1 -282264.08 0M 5610231.80 21850391.96 m -141132.04 0 a 141132.04 141132.04 0 1 1 282264.08 0a 141132.04 141132.04 0 1 1 -282264.08 0M 6200782.80 21850391.96 m -141132.04 0 a 141132.04 141132.04 0 1 1 282264.08 0a 141132.04 141132.04 0 1 1 -282264.08 0M 6791333.80 21850391.96 m -141132.04 0 a 141132.04 141132.04 0 1 1 282264.08 0a 141132.04 141132.04 0 1 1 -282264.08 0M 5905507.80 22440942.96 m -141132.04 0 a 141132.04 141132.04 0 1 1 282264.08 0a 141132.04 141132.04 0 1 1 -282264.08 0M 6200782.80 23031493.96 m -141132.04 0 a 141132.04 141132.04 0 1 1 282264.08 0a 141132.04 141132.04 0 1 1 -282264.08 0M 6496058.80 22440942.96 m -141132.04 0 a 141132.04 141132.04 0 1 1 282264.08 0a 141132.04 141132.04 0 1 1 -282264.08 0M 7086609.80 20078738.96 m -141132.04 0 a 141132.04 141132.04 0 1 1 282264.08 0a 141132.04 141132.04 0 1 1 -282264.08 0M 6791333.80 20669289.96 m -141132.04 0 a 141132.04 141132.04 0 1 1 282264.08 0a 141132.04 141132.04 0 1 1 -282264.08 0M 7677160.80 20078738.96 m -141132.04 0 a 141132.04 141132.04 0 1 1 282264.08 0a 141132.04 141132.04 0 1 1 -282264.08 0M 7972435.80 20669289.96 m -141132.04 0 a 141132.04 141132.04 0 1 1 282264.08 0a 141132.04 141132.04 0 1 1 -282264.08 0M 8562986.80 20669289.96 m -141132.04 0 a 141132.04 141132.04 0 1 1 282264.08 0a 141132.04 141132.04 0 1 1 -282264.08 0M 8267711.80 21259840.96 m -141132.04 0 a 141132.04 141132.04 0 1 1 282264.08 0a 141132.04 141132.04 0 1 1 -282264.08 0M 9744088.80 20669289.96 m -141132.04 0 a 141132.04 141132.04 0 1 1 282264.08 0a 141132.04 141132.04 0 1 1 -282264.08 0M 7972435.80 21850391.96 m -141132.04 0 a 141132.04 141132.04 0 1 1 282264.08 0a 141132.04 141132.04 0 1 1 -282264.08 0M 7822481.00 23271102.00 L 6955079.00 23271102.00 L 6955079.00 20828898.00 L 7822481.00 20828898.00 L 7822481.00 23271102.00  zM 6791333.80 23031493.96 m -141132.04 0 a 141132.04 141132.04 0 1 1 282264.08 0a 141132.04 141132.04 0 1 1 -282264.08 0M 7972435.80 23031493.96 m -141132.04 0 a 141132.04 141132.04 0 1 1 282264.08 0a 141132.04 141132.04 0 1 1 -282264.08 0M 9397284.00 23271102.00 L 8529882.00 23271102.00 L 8529882.00 20828898.00 L 9397284.00 20828898.00 L 9397284.00 23271102.00  zM 8267711.80 22440942.96 m -141132.04 0 a 141132.04 141132.04 0 1 1 282264.08 0a 141132.04 141132.04 0 1 1 -282264.08 0M 9744088.80 23031493.96 m -141132.04 0 a 141132.04 141132.04 0 1 1 282264.08 0a 141132.04 141132.04 0 1 1 -282264.08 0M 10039364.80 17716534.96 m -141132.04 0 a 141132.04 141132.04 0 1 1 282264.08 0a 141132.04 141132.04 0 1 1 -282264.08 0M 10549997.80 17450004.96 m -141132.04 0 a 141132.04 141132.04 0 1 1 282264.08 0a 141132.04 141132.04 0 1 1 -282264.08 0M 9744088.80 18307085.96 m -141132.04 0 a 141132.04 141132.04 0 1 1 282264.08 0a 141132.04 141132.04 0 1 1 -282264.08 0M 11120119.00 19137243.00 L 10252717.00 19137243.00 L 10252717.00 17679291.00 L 11120119.00 17679291.00 L 11120119.00 19137243.00  zM 10039364.80 18897636.96 m -141132.04 0 a 141132.04 141132.04 0 1 1 282264.08 0a 141132.04 141132.04 0 1 1 -282264.08 0M 9744088.80 19488187.96 m -141132.04 0 a 141132.04 141132.04 0 1 1 282264.08 0a 141132.04 141132.04 0 1 1 -282264.08 0M 10334639.80 19488187.96 m -141132.04 0 a 141132.04 141132.04 0 1 1 282264.08 0a 141132.04 141132.04 0 1 1 -282264.08 0M 10039364.80 20078738.96 m -141132.04 0 a 141132.04 141132.04 0 1 1 282264.08 0a 141132.04 141132.04 0 1 1 -282264.08 0M 11515741.80 18307085.96 m -141132.04 0 a 141132.04 141132.04 0 1 1 282264.08 0a 141132.04 141132.04 0 1 1 -282264.08 0M 12694922.00 19137243.00 L 11827520.00 19137243.00 L 11827520.00 17679291.00 L 12694922.00 17679291.00 L 12694922.00 19137243.00  zM 12992119.80 17716534.96 m -141132.04 0 a 141132.04 141132.04 0 1 1 282264.08 0a 141132.04 141132.04 0 1 1 -282264.08 0M 12992119.80 18897636.96 m -141132.04 0 a 141132.04 141132.04 0 1 1 282264.08 0a 141132.04 141132.04 0 1 1 -282264.08 0M 11515741.80 19488187.96 m -141132.04 0 a 141132.04 141132.04 0 1 1 282264.08 0a 141132.04 141132.04 0 1 1 -282264.08 0M 11811017.80 20078738.96 m -141132.04 0 a 141132.04 141132.04 0 1 1 282264.08 0a 141132.04 141132.04 0 1 1 -282264.08 0M 12696843.80 19488187.96 m -141132.04 0 a 141132.04 141132.04 0 1 1 282264.08 0a 141132.04 141132.04 0 1 1 -282264.08 0M 10334639.80 20669289.96 m -141132.04 0 a 141132.04 141132.04 0 1 1 282264.08 0a 141132.04 141132.04 0 1 1 -282264.08 0M 11220466.80 20078738.96 m -141132.04 0 a 141132.04 141132.04 0 1 1 282264.08 0a 141132.04 141132.04 0 1 1 -282264.08 0M 10039364.80 21259840.96 m -141132.04 0 a 141132.04 141132.04 0 1 1 282264.08 0a 141132.04 141132.04 0 1 1 -282264.08 0M 9744088.80 21850391.96 m -141132.04 0 a 141132.04 141132.04 0 1 1 282264.08 0a 141132.04 141132.04 0 1 1 -282264.08 0M 11120119.00 23271102.00 L 10252717.00 23271102.00 L 10252717.00 20828898.00 L 11120119.00 20828898.00 L 11120119.00 23271102.00  zM 10039364.80 22440942.96 m -141132.04 0 a 141132.04 141132.04 0 1 1 282264.08 0a 141132.04 141132.04 0 1 1 -282264.08 0M 11515741.80 23031493.96 m -141132.04 0 a 141132.04 141132.04 0 1 1 282264.08 0a 141132.04 141132.04 0 1 1 -282264.08 0M 11515741.80 20669289.96 m -141132.04 0 a 141132.04 141132.04 0 1 1 282264.08 0a 141132.04 141132.04 0 1 1 -282264.08 0M 12696843.80 20669289.96 m -141132.04 0 a 141132.04 141132.04 0 1 1 282264.08 0a 141132.04 141132.04 0 1 1 -282264.08 0M 12992119.80 20078738.96 m -141132.04 0 a 141132.04 141132.04 0 1 1 282264.08 0a 141132.04 141132.04 0 1 1 -282264.08 0M 12992119.80 21259840.96 m -141132.04 0 a 141132.04 141132.04 0 1 1 282264.08 0a 141132.04 141132.04 0 1 1 -282264.08 0M 11515741.80 21850391.96 m -141132.04 0 a 141132.04 141132.04 0 1 1 282264.08 0a 141132.04 141132.04 0 1 1 -282264.08 0M 12694922.00 23271102.00 L 11827520.00 23271102.00 L 11827520.00 20828898.00 L 12694922.00 20828898.00 L 12694922.00 23271102.00  zM 12992119.80 22440942.96 m -141132.04 0 a 141132.04 141132.04 0 1 1 282264.08 0a 141132.04 141132.04 0 1 1 -282264.08 0M 13582670.80 17716534.96 m -141132.04 0 a 141132.04 141132.04 0 1 1 282264.08 0a 141132.04 141132.04 0 1 1 -282264.08 0M 13877945.80 18307085.96 m -141132.04 0 a 141132.04 141132.04 0 1 1 282264.08 0a 141132.04 141132.04 0 1 1 -282264.08 0M 13287394.80 18307085.96 m -141132.04 0 a 141132.04 141132.04 0 1 1 282264.08 0a 141132.04 141132.04 0 1 1 -282264.08 0M 14173221.80 18897636.96 m -141132.04 0 a 141132.04 141132.04 0 1 1 282264.08 0a 141132.04 141132.04 0 1 1 -282264.08 0M 13582670.80 18897636.96 m -141132.04 0 a 141132.04 141132.04 0 1 1 282264.08 0a 141132.04 141132.04 0 1 1 -282264.08 0M 13287394.80 19488187.96 m -141132.04 0 a 141132.04 141132.04 0 1 1 282264.08 0a 141132.04 141132.04 0 1 1 -282264.08 0M 13877945.80 19488187.96 m -141132.04 0 a 141132.04 141132.04 0 1 1 282264.08 0a 141132.04 141132.04 0 1 1 -282264.08 0M 14173221.80 17716534.96 m -141132.04 0 a 141132.04 141132.04 0 1 1 282264.08 0a 141132.04 141132.04 0 1 1 -282264.08 0M 14468496.80 18307085.96 m -141132.04 0 a 141132.04 141132.04 0 1 1 282264.08 0a 141132.04 141132.04 0 1 1 -282264.08 0M 14763772.80 17716534.96 m -141132.04 0 a 141132.04 141132.04 0 1 1 282264.08 0a 141132.04 141132.04 0 1 1 -282264.08 0M 15059047.80 18307085.96 m -141132.04 0 a 141132.04 141132.04 0 1 1 282264.08 0a 141132.04 141132.04 0 1 1 -282264.08 0M 14763772.80 18897636.96 m -141132.04 0 a 141132.04 141132.04 0 1 1 282264.08 0a 141132.04 141132.04 0 1 1 -282264.08 0M 14468496.80 19488187.96 m -141132.04 0 a 141132.04 141132.04 0 1 1 282264.08 0a 141132.04 141132.04 0 1 1 -282264.08 0M 15059047.80 19488187.96 m -141132.04 0 a 141132.04 141132.04 0 1 1 282264.08 0a 141132.04 141132.04 0 1 1 -282264.08 0M 13582670.80 20078738.96 m -141132.04 0 a 141132.04 141132.04 0 1 1 282264.08 0a 141132.04 141132.04 0 1 1 -282264.08 0M 13287394.80 20669289.96 m -141132.04 0 a 141132.04 141132.04 0 1 1 282264.08 0a 141132.04 141132.04 0 1 1 -282264.08 0M 14173221.80 20078738.96 m -141132.04 0 a 141132.04 141132.04 0 1 1 282264.08 0a 141132.04 141132.04 0 1 1 -282264.08 0M 13877945.80 20669289.96 m -141132.04 0 a 141132.04 141132.04 0 1 1 282264.08 0a 141132.04 141132.04 0 1 1 -282264.08 0M 14763772.80 20078738.96 m -141132.04 0 a 141132.04 141132.04 0 1 1 282264.08 0a 141132.04 141132.04 0 1 1 -282264.08 0M 14468496.80 20669289.96 m -141132.04 0 a 141132.04 141132.04 0 1 1 282264.08 0a 141132.04 141132.04 0 1 1 -282264.08 0M 15059047.80 20669289.96 m -141132.04 0 a 141132.04 141132.04 0 1 1 282264.08 0a 141132.04 141132.04 0 1 1 -282264.08 0M 13582670.80 21259840.96 m -141132.04 0 a 141132.04 141132.04 0 1 1 282264.08 0a 141132.04 141132.04 0 1 1 -282264.08 0M 13877945.80 21850391.96 m -141132.04 0 a 141132.04 141132.04 0 1 1 282264.08 0a 141132.04 141132.04 0 1 1 -282264.08 0M 14173221.80 21259840.96 m -141132.04 0 a 141132.04 141132.04 0 1 1 282264.08 0a 141132.04 141132.04 0 1 1 -282264.08 0M 14763772.80 21259840.96 m -141132.04 0 a 141132.04 141132.04 0 1 1 282264.08 0a 141132.04 141132.04 0 1 1 -282264.08 0M 13287394.80 21850391.96 m -141132.04 0 a 141132.04 141132.04 0 1 1 282264.08 0a 141132.04 141132.04 0 1 1 -282264.08 0M 13582670.80 22440942.96 m -141132.04 0 a 141132.04 141132.04 0 1 1 282264.08 0a 141132.04 141132.04 0 1 1 -282264.08 0M 13287394.80 23031493.96 m -141132.04 0 a 141132.04 141132.04 0 1 1 282264.08 0a 141132.04 141132.04 0 1 1 -282264.08 0"/>
</g>
</svg>
