<svg width="29.99999842mm" height="34.00000058mm" viewBox="0 0 11811023 13385827"  version="1.1" xmlns="http://www.w3.org/2000/svg" xmlns:xlink="http://www.w3.org/1999/xlink">
<desc>
Origin 0 0 Bound 3937008 10236220 11811023 13385827
</desc>
<g fill-rule="evenodd" fill="rgb(128, 128, 0)" stroke="black" stroke-width="1" transform="translate(0, 13385827) scale(1, -1) translate(-3937008, -10236220)">
<path id="N" d="M 10520684.00 17285251.00 L 10533165.00 17255118.00 L 10533165.00 14144882.00 L 10520684.00 14114749.00 L 10490551.00 14102268.00 L 9309449.00 14102268.00 L 9279316.00 14114749.00 L 9266835.00 14144882.00 L 9266835.00 17255118.00 L 9279316.00 17285251.00 L 9309449.00 17297732.00 L 10490551.00 17297732.00 L 10520684.00 17285251.00  zM 10447937.00 17212504.00 L 9352063.00 17212504.00 L 9352063.00 14187496.00 L 10447937.00 14187496.00 L 10447937.00 17212504.00  z"/>
<path id="N" d="M 10096841.06 16861408.06 m -240860.29 0 a 240860.29 240860.29 0 1 1 481720.58 0a 240860.29 240860.29 0 1 1 -481720.58 0"/>
<path id="N" d="M 8352361.47 12687006.47 m -100354.75 0 a 100354.75 100354.75 0 1 1 200709.51 0a 100354.75 100354.75 0 1 1 -200709.51 0"/>
<path id="N" d="M 11041730.47 17392911.47 m -100354.75 0 a 100354.75 100354.75 0 1 1 200709.51 0a 100354.75 100354.75 0 1 1 -200709.51 0"/>
<path id="N" d="M 11786039.00 12244700.00 L 11798520.00 12214567.00 L 11798520.00 11407481.00 L 11786039.00 11377348.00 L 11755906.00 11364867.00 L 11742126.00 11364867.00 L 11711993.00 11377348.00 L 11699512.00 11407481.00 L 11713292.00 11438152.04 L 11713292.00 12183895.96 L 11699512.00 12214567.00 L 11711993.00 12244700.00 L 11742126.00 12257181.00 L 11755906.00 12257181.00 L 11786039.00 12244700.00  z"/>
<path id="N" d="M 7973047.00 12244700.00 L 7985528.00 12214567.00 L 7971748.00 12183895.96 L 7971748.00 11438152.04 L 7985528.00 11407481.00 L 7973047.00 11377348.00 L 7942914.00 11364867.00 L 7929134.00 11364867.00 L 7899001.00 11377348.00 L 7886520.00 11407481.00 L 7886520.00 12214567.00 L 7899001.00 12244700.00 L 7929134.00 12257181.00 L 7942914.00 12257181.00 L 7973047.00 12244700.00  z"/>
</g>
</svg>
