<svg width="29.99999842mm" height="34.00000058mm" viewBox="0 0 11811023 13385827"  version="1.1" xmlns="http://www.w3.org/2000/svg" xmlns:xlink="http://www.w3.org/1999/xlink">
<desc>
Origin 0 0 Bound 3937008 10236220 11811023 13385827
</desc>
<g fill-rule="evenodd" fill="rgb(255, 255, 0)" stroke="black" stroke-width="1" transform="translate(0, 13385827) scale(1, -1) translate(-3937008, -10236220)">
<path id="N" d="M 6867732.00 23064385.00 L 6880213.00 23034252.00 L 6867732.00 23004119.00 L 6837599.00 22991638.00 L 6663677.00 22991638.00 L 6663677.00 18076866.00 L 6837599.00 18076866.00 L 6867732.00 18064385.00 L 6880213.00 18034252.00 L 6867732.00 18004119.00 L 6837599.00 17991638.00 L 6621063.00 17991638.00 L 6590930.00 18004119.00 L 6578449.00 18034252.00 L 6578449.00 23034252.00 L 6590930.00 23064385.00 L 6621063.00 23076866.00 L 6837599.00 23076866.00 L 6867732.00 23064385.00  z"/>
<path id="N" d="M 13059071.00 23064385.00 L 13071552.00 23034252.00 L 13071552.00 18034252.00 L 13059071.00 18004119.00 L 13028938.00 17991638.00 L 12812402.00 17991638.00 L 12782269.00 18004119.00 L 12769788.00 18034252.00 L 12782269.00 18064385.00 L 12812402.00 18076866.00 L 12986324.00 18076866.00 L 12986324.00 22991638.00 L 12812402.00 22991638.00 L 12782269.00 23004119.00 L 12769788.00 23034252.00 L 12782269.00 23064385.00 L 12812402.00 23076866.00 L 13028938.00 23076866.00 L 13059071.00 23064385.00  z"/>
<path id="N" d="M 10165370.00 23064385.00 L 10177851.00 23034252.00 L 10165370.00 23004119.00 L 10135237.00 22991638.00 L 9961315.00 22991638.00 L 9961315.00 18076866.00 L 10135237.00 18076866.00 L 10165370.00 18064385.00 L 10177851.00 18034252.00 L 10165370.00 18004119.00 L 10135237.00 17991638.00 L 9918701.00 17991638.00 L 9888568.00 18004119.00 L 9876087.00 18034252.00 L 9876087.00 23034252.00 L 9888568.00 23064385.00 L 9918701.00 23076866.00 L 10135237.00 23076866.00 L 10165370.00 23064385.00  z"/>
<path id="N" d="M 9761433.00 23064385.00 L 9773914.00 23034252.00 L 9773914.00 18034252.00 L 9761433.00 18004119.00 L 9731300.00 17991638.00 L 9514764.00 17991638.00 L 9484631.00 18004119.00 L 9472150.00 18034252.00 L 9484631.00 18064385.00 L 9514764.00 18076866.00 L 9688686.00 18076866.00 L 9688686.00 22991638.00 L 9514764.00 22991638.00 L 9484631.00 23004119.00 L 9472150.00 23034252.00 L 9484631.00 23064385.00 L 9514764.00 23076866.00 L 9731300.00 23076866.00 L 9761433.00 23064385.00  z"/>
<path id="N" d="M 8963581.47 23447636.47 m -100354.75 0 a 100354.75 100354.75 0 1 1 200709.51 0a 100354.75 100354.75 0 1 1 -200709.51 0"/>
<path id="N" d="M 12261219.47 23447636.47 m -100354.75 0 a 100354.75 100354.75 0 1 1 200709.51 0a 100354.75 100354.75 0 1 1 -200709.51 0"/>
</g>
</svg>
