<svg width="29.99999842mm" height="34.00000058mm" viewBox="0 0 11811023 13385827"  version="1.1" xmlns="http://www.w3.org/2000/svg" xmlns:xlink="http://www.w3.org/1999/xlink">
<desc>
Origin 0 0 Bound 3937008 10236220 11811023 13385827
</desc>
<g fill-rule="evenodd" fill="rgb(255, 0, 0)" stroke="black" stroke-width="1" transform="translate(0, 13385827) scale(1, -1) translate(-3937008, -10236220)">
<path id="N" d="M 9359523.00 15732650.00 L 9339659.24 15736601.24 L 9205695.00 15602637.00 L 9205695.00 14170842.99 L 10430135.44 12946401.61 L 10450000.00 12950353.00 A 100353.26 100353.26 0 1 0 10349647.00 12850000.00 L 10353598.39 12869864.56 L 9113306.00 14110156.00 L 9097455.00 14148427.41 L 9097454.00 15625055.00 L 9113306.00 15663324.00 L 9263121.24 15813139.24 L 9259170.00 15833003.00 A 100353.26 100353.26 0 1 0 9359523.00 15732650.00  z"/>
<path id="N" d="M 12654922.00 20868898.00 L 12315341.00 20868898.00 L 12315341.00 19097243.00 L 12654922.00 19097243.00 L 12654922.00 17719291.00 L 12367229.00 17719291.00 L 12367229.00 16743963.18 L 12384069.00 16732711.00 A 100353.26 100353.26 0 0 0 12242149.00 16590791.00 L 12230896.82 16607631.00 L 10965354.00 16607631.00 L 9496401.76 15138678.76 L 9500353.00 15118815.00 A 100353.26 100353.26 0 1 0 9400000.00 15219168.00 L 9419863.76 15215216.76 L 10904667.00 16700020.00 L 10942938.41 16715871.00 L 12230896.82 16715871.00 L 12242149.00 16732711.00 L 12258989.00 16743963.18 L 12258989.00 17719291.00 L 11867520.00 17719291.00 L 11867520.00 19097243.00 L 12207101.00 19097243.00 L 12207101.00 20868898.00 L 11867520.00 20868898.00 L 11867520.00 23231102.00 L 12654922.00 23231102.00 L 12654922.00 20868898.00  z"/>
<path id="N" d="M 9357284.00 20868898.00 L 9017703.00 20868898.00 L 9017703.00 19097243.00 L 9357284.00 19097243.00 L 9357284.00 17795827.44 L 9638269.00 17514843.00 L 9654120.00 17476571.59 L 9654120.00 16572417.95 L 9968153.05 16258384.00 L 10047162.75 16258384.00 A 96455.98 96455.98 0 0 0 10215945.00 16185733.00 A 100353.26 100353.26 0 0 0 10022878.00 16147330.00 L 10022318.25 16150144.00 L 9945736.00 16150143.00 L 9907466.29 16165996.71 L 9561731.00 16511731.00 L 9545880.00 16550002.41 L 9545880.00 17454156.98 L 9280745.56 17719291.00 L 8569882.00 17719291.00 L 8569882.00 19097243.00 L 8909463.00 19097243.00 L 8909463.00 20868898.00 L 8569882.00 20868898.00 L 8569882.00 23231102.00 L 9357284.00 23231102.00 L 9357284.00 20868898.00  z"/>
<path id="N" d="M 11080119.00 20868898.00 L 10740538.00 20868898.00 L 10740538.00 19097243.00 L 11080119.00 19097243.00 L 11080119.00 17719291.00 L 10604120.00 17719291.00 L 10604120.00 17532212.18 L 10620960.00 17520960.00 A 100353.26 100353.26 0 1 0 10479040.00 17520960.00 L 10495880.00 17532212.18 L 10495880.00 17719291.00 L 10292717.00 17719291.00 L 10292717.00 19097243.00 L 10632298.00 19097243.00 L 10632298.00 20868898.00 L 10292717.00 20868898.00 L 10292717.00 23231102.00 L 11080119.00 23231102.00 L 11080119.00 20868898.00  z"/>
<path id="N" d="M 7782481.00 20868898.00 L 7442900.00 20868898.00 L 7442900.00 19097243.00 L 7782481.00 19097243.00 L 7782481.00 17719291.00 L 6995079.00 17719291.00 L 6995079.00 19097243.00 L 7334660.00 19097243.00 L 7334660.00 20868898.00 L 6995079.00 20868898.00 L 6995079.00 23231102.00 L 7782481.00 23231102.00 L 7782481.00 20868898.00  z"/>
<path id="N" d="M 14540816.34 23520091.01 L 14562980.13 23470090.56 L 14529274.00 23431259.00 L 14460669.00 23328585.00 L 14451247.00 23310957.00 L 14403992.00 23196871.00 L 14398190.00 23177745.00 L 14374099.00 23056633.00 L 14372140.00 23036742.00 L 14372140.00 22913256.00 L 14374099.00 22893365.00 L 14398190.00 22772251.00 L 14403992.00 22753125.00 L 14451247.00 22639040.00 L 14460669.00 22621412.00 L 14529274.00 22518739.00 L 14541954.00 22503288.00 L 14629271.00 22415971.00 L 14644721.00 22403291.00 L 14747395.00 22334686.00 L 14765023.00 22325264.00 L 14879109.00 22278009.00 L 14898235.00 22272207.00 L 15019348.00 22248116.00 L 15039239.00 22246157.00 L 15162725.00 22246157.00 L 15182616.00 22248116.00 L 15303729.00 22272207.00 L 15322855.00 22278009.00 L 15436940.00 22325264.00 L 15454568.00 22334686.00 L 15569067.00 22412520.00 L 15596076.56 22436999.84 L 15646076.99 22414836.05 L 15646075.91 11346591.83 A 1081520.89 1081520.89 0 0 0 14637657.21 10338174.09 L 5047379.48 10338174.00 A 1081479.04 1081479.04 0 0 0 4038961.09 11346592.79 L 4038962.00 22414834.28 L 4088962.44 22436997.03 L 4127794.00 22403290.00 L 4230468.00 22334685.00 L 4248096.00 22325263.00 L 4362182.00 22278008.00 L 4381308.00 22272206.00 L 4502421.00 22248115.00 L 4522312.00 22246156.00 L 4645798.00 22246156.00 L 4665689.00 22248115.00 L 4786802.00 22272206.00 L 4805928.00 22278008.00 L 4920013.00 22325263.00 L 4937641.00 22334685.00 L 5040314.00 22403290.00 L 5055765.00 22415970.00 L 5143082.00 22503287.00 L 5155762.00 22518737.00 L 5224367.00 22621411.00 L 5233789.00 22639039.00 L 5281044.00 22753125.00 L 5286846.00 22772251.00 L 5310937.00 22893363.00 L 5312896.00 22913254.00 L 5312896.00 23036740.00 L 5310937.00 23056631.00 L 5286846.00 23177745.00 L 5281044.00 23196871.00 L 5233789.00 23310956.00 L 5224367.00 23328584.00 L 5146534.00 23443082.00 L 5122053.84 23470092.56 L 5144217.99 23520092.99 L 14540816.34 23520091.01  zM 12704922.00 23281102.00 L 11817520.00 23281102.00 L 11817520.00 20818898.00 L 12159262.00 20818898.00 L 12159262.00 19147243.00 L 11817520.00 19147243.00 L 11817520.00 17669291.00 L 12211150.00 17669291.00 L 12211150.00 16769697.00 L 12205163.00 16763710.00 L 10942936.00 16763710.00 L 10903918.00 16755949.00 L 10870840.00 16733847.00 L 10314017.43 16177024.43 L 10264017.00 16197735.28 L 10264017.00 16215257.00 A 151331.73 151331.73 0 0 1 10031516.00 16311562.00 L 10026177.00 16306223.00 L 9987969.00 16306223.00 L 9701959.00 16592233.00 L 9701959.00 17476574.00 L 9694198.00 17515592.00 L 9672096.00 17548670.00 L 9407284.00 17813482.00 L 9407284.00 19147243.00 L 9065542.00 19147243.00 L 9065542.00 20818898.00 L 9407284.00 20818898.00 L 9407284.00 23281102.00 L 8519882.00 23281102.00 L 8519882.00 20818898.00 L 8861624.00 20818898.00 L 8861624.00 19147243.00 L 8519882.00 19147243.00 L 8519882.00 17669291.00 L 9263091.00 17669291.00 L 9498041.00 17434341.00 L 9498041.00 16550000.00 L 9505802.00 16510982.00 L 9527904.00 16477904.00 L 9873640.00 16132168.00 L 9906718.00 16110066.00 L 9945736.00 16102305.00 L 9989763.00 16101657.00 L 10031516.00 16059904.00 L 10086068.00 16037308.00 L 10103589.72 16037308.00 L 10124300.57 15987307.57 L 9404233.00 15267240.00 L 9370476.00 15267240.00 L 9315924.00 15244644.00 L 9303534.43 15232254.43 L 9253534.00 15252965.28 L 9253534.00 15582822.00 L 9355290.00 15684578.00 L 9389047.00 15684578.00 A 151331.73 151331.73 0 1 1 9211098.00 15862527.00 L 9211098.00 15828770.00 L 9079479.00 15697151.00 L 9057377.00 15664073.00 L 9049616.00 15625055.00 L 9049616.00 14148425.00 L 9057377.00 14109407.00 L 9079479.00 14076329.00 L 10301575.00 12854233.00 L 10301575.00 12820476.00 A 151331.73 151331.73 0 1 1 10479524.00 12998425.00 L 10445767.00 12998425.00 L 9253534.00 14190658.00 L 9253534.00 14984664.72 L 9303534.43 15005375.57 L 9315924.00 14992986.00 A 151334.29 151334.29 0 0 1 9548425.00 15089291.00 L 9548425.00 15123048.00 L 10985169.00 16559792.00 L 12205163.00 16559792.00 L 12229033.00 16535922.00 A 151334.29 151334.29 0 0 1 12438938.00 16745827.00 L 12415068.00 16769697.00 L 12415068.00 17669291.00 L 12704922.00 17669291.00 L 12704922.00 19147243.00 L 12363180.00 19147243.00 L 12363180.00 20818898.00 L 12704922.00 20818898.00 L 12704922.00 23281102.00  zM 11130119.00 23281102.00 L 10242717.00 23281102.00 L 10242717.00 20818898.00 L 10584459.00 20818898.00 L 10584459.00 19147243.00 L 10242717.00 19147243.00 L 10242717.00 17669291.00 L 10448041.00 17669291.00 L 10448041.00 17557946.00 L 10424171.00 17534076.00 A 151334.29 151334.29 0 1 1 10675829.00 17534076.00 L 10651959.00 17557946.00 L 10651959.00 17669291.00 L 11130119.00 17669291.00 L 11130119.00 19147243.00 L 10788377.00 19147243.00 L 10788377.00 20818898.00 L 11130119.00 20818898.00 L 11130119.00 23281102.00  zM 7832481.00 23281102.00 L 6945079.00 23281102.00 L 6945079.00 20818898.00 L 7286821.00 20818898.00 L 7286821.00 19147243.00 L 6945079.00 19147243.00 L 6945079.00 17669291.00 L 7832481.00 17669291.00 L 7832481.00 19147243.00 L 7490739.00 19147243.00 L 7490739.00 20818898.00 L 7832481.00 20818898.00 L 7832481.00 23281102.00  z"/>
</g>
</svg>
