<svg width="29.99999842mm" height="34.00000058mm" viewBox="0 0 11811023 13385827"  version="1.1" xmlns="http://www.w3.org/2000/svg" xmlns:xlink="http://www.w3.org/1999/xlink">
<desc>
Origin 0 0 Bound 3937008 10236220 11811023 13385827
</desc>
<g fill-rule="evenodd" fill="rgb(0, 0, 255)" stroke="black" stroke-width="1" transform="translate(0, 13385827) scale(1, -1) translate(-3937008, -10236220)">
<path id="N" d="M 9083071.00 16013611.00 L 8812387.00 16013611.00 L 8812387.00 15898199.00 L 9083071.00 15898199.00 L 9109953.00 15892852.00 L 9122305.81 15884598.00 L 9275623.66 15884598.00 L 9288563.00 15903963.00 A 100353.26 100353.26 0 1 0 9288563.00 15762043.00 L 9278997.98 15776358.00 L 9129866.56 15776358.00 L 9109953.00 15763052.00 L 9083071.00 15757705.00 L 8433463.00 15757705.00 A 70244.85 70244.85 0 1 0 8433463.00 15898199.00 L 8704147.00 15898199.00 L 8704147.00 16013611.00 L 8433463.00 16013611.00 A 70244.85 70244.85 0 1 0 8433463.00 16154105.00 L 9083071.00 16154105.00 A 70250.25 70250.25 0 1 0 9083071.00 16013611.00  z"/>
<path id="N" d="M 10450000.00 12749647.00 L 10430136.24 12753598.24 L 10285226.00 12608688.00 L 10285226.00 12344489.00 L 10281496.00 12335483.78 L 10281496.00 12214568.00 L 10190946.00 12214568.00 L 10190946.00 12335483.78 L 10187216.00 12344489.00 L 10187216.00 12623870.24 L 10182100.00 12636221.00 L 10197952.00 12674490.00 L 10353598.24 12830136.24 L 10349647.00 12850000.00 A 100353.26 100353.26 0 1 0 10450000.00 12749647.00  z"/>
<path id="N" d="M 9109953.00 16660569.00 L 9126086.19 16649789.00 L 9354331.00 16649790.00 L 9392600.00 16633938.00 L 10117009.00 15909529.00 L 10132860.00 15871257.59 L 10132860.00 15623590.00 L 10127745.00 15611240.88 L 10127745.00 12344489.00 L 10124015.00 12335483.78 L 10124015.00 12214568.00 L 10033465.00 12214568.00 L 10033465.00 12335483.78 L 10029735.00 12344489.00 L 10029735.00 15611240.88 L 10024620.00 15623590.00 L 10024620.00 15848842.00 L 9331913.00 16541549.00 L 9126086.19 16541549.00 L 9109953.00 16530769.00 L 9083071.00 16525422.00 L 8433463.00 16525422.00 A 70244.85 70244.85 0 1 0 8433463.00 16665916.00 L 9083071.00 16665916.00 L 9109953.00 16660569.00  z"/>
<path id="N" d="M 11972047.00 15016536.00 L 11727953.00 15016536.00 L 11727953.00 15043123.00 L 11436187.43 15043123.00 L 11432681.81 15039617.28 L 11431436.00 15033354.00 A 70250.25 70250.25 0 0 0 11366536.00 14989989.00 L 10716928.00 14989989.00 A 70244.85 70244.85 0 0 0 10716928.00 15130483.00 L 11369819.70 15129829.85 L 11375501.00 15135512.00 L 11413772.41 15151363.00 L 11727953.00 15151363.00 L 11727953.00 15276378.00 L 11972047.00 15276378.00 L 11972047.00 15016536.00  z"/>
<path id="N" d="M 10588403.00 17357286.00 L 10573415.00 17354304.64 L 10573415.00 16024413.00 L 10603654.00 15994174.00 L 10619505.00 15955905.00 L 10603654.00 15917636.00 L 10573415.00 15887397.00 L 10573415.00 15768506.00 L 10603653.00 15738268.00 L 10619505.00 15699999.00 L 10603651.29 15661729.29 L 10573415.00 15631492.34 L 10573415.00 15512602.00 L 10603654.00 15482363.00 L 10619505.00 15444094.00 L 10603654.00 15405825.00 L 10573415.00 15375586.00 L 10573415.00 15256695.00 L 10603653.00 15226457.00 L 10619505.00 15188188.00 L 10603651.29 15149918.29 L 10573415.00 15119681.34 L 10573415.00 15000789.66 L 10603651.00 14970554.00 L 10619503.00 14932285.00 L 10603651.00 14894017.00 L 10573411.00 14863776.34 L 10573411.00 14744884.00 L 10657483.00 14660812.00 L 11041732.00 14660812.00 L 11080001.00 14644961.00 L 11090889.89 14618672.00 L 11366536.00 14618672.00 A 70244.85 70244.85 0 0 0 11366536.00 14478178.00 L 10716928.00 14478178.00 A 70244.85 70244.85 0 0 0 10646681.00 14548425.00 L 10647505.86 14552572.00 L 10635065.00 14552572.00 L 10596796.00 14568423.00 L 10481022.00 14684197.00 L 10465171.00 14722468.41 L 10465170.00 14886194.00 L 10481022.00 14924463.00 L 10488844.17 14932285.00 L 10481025.00 14940104.00 L 10465175.00 14978377.83 L 10465174.00 15142099.00 L 10481026.00 15180368.00 L 10488846.08 15188187.92 L 10481025.00 15196009.00 L 10465175.00 15234282.83 L 10465174.00 15398004.00 L 10481026.00 15436273.00 L 10488847.00 15444094.00 L 10481026.00 15451915.00 L 10465175.00 15490186.41 L 10465174.00 15653910.00 L 10481026.00 15692179.00 L 10488846.08 15699998.92 L 10481025.00 15707820.00 L 10465175.00 15746093.83 L 10465174.00 15909815.00 L 10481026.00 15948084.00 L 10488847.00 15955905.00 L 10481026.00 15963726.00 L 10465175.00 16001997.41 L 10465175.00 17399790.34 L 10457286.00 17411597.00 A 100349.83 100349.83 0 1 0 10588403.00 17357286.00  z"/>
<path id="N" d="M 8072047.00 15704120.00 L 8222047.00 15704121.00 L 8260316.00 15688269.00 L 8315187.00 15633398.00 L 8401269.62 15633398.00 L 8406581.00 15636947.00 L 8433463.00 15642294.00 L 9083071.00 15642294.00 L 9109953.00 15636947.00 L 9115264.38 15633398.00 L 9228626.04 15633398.00 L 9241423.41 15638697.00 L 9341421.00 15638698.00 L 9379690.00 15622846.00 L 9438269.00 15564267.00 L 9454120.00 15525998.00 L 9454120.00 15201027.18 L 9470960.00 15189775.00 A 100353.26 100353.26 0 0 0 9361597.00 15026101.00 L 9359211.11 15027695.21 L 9353483.00 15021967.00 L 9315211.59 15006116.00 L 9126086.19 15006116.00 L 9109953.00 14995336.00 L 9083071.00 14989989.00 L 8433463.00 14989989.00 L 8406581.00 14995336.00 L 8390447.81 15006116.00 L 8241232.13 15006116.00 L 8154120.00 14919003.13 L 8154120.00 14072418.98 L 8857166.00 13369372.00 L 8873018.00 13331103.00 L 8867903.00 13318754.98 L 8867903.00 12344489.00 L 8864173.00 12335483.78 L 8864173.00 12214568.00 L 8773623.00 12214568.00 L 8773623.00 12335483.78 L 8769893.00 12344489.00 L 8769893.00 13303570.99 L 8061731.00 14011732.00 L 8045880.00 14050003.41 L 8045879.00 14941421.00 L 8061731.00 14979690.00 L 8180546.00 15098505.00 L 8218817.41 15114356.00 L 8390447.81 15114356.00 L 8406581.00 15125136.00 L 8433463.00 15130483.00 L 9083071.00 15130483.00 L 9109953.00 15125136.00 L 9126086.19 15114356.00 L 9292796.27 15114356.00 L 9300240.86 15121800.46 L 9307286.00 15157218.00 L 9329040.00 15189775.00 L 9345880.00 15201027.18 L 9345880.00 15503580.73 L 9319003.27 15530457.00 L 9248916.96 15530457.00 L 9236119.59 15525158.00 L 9134602.57 15525158.00 L 9132743.00 15522375.00 L 9109953.00 15507147.00 L 9083071.00 15501800.00 L 8433463.00 15501800.00 L 8406581.00 15507147.00 L 8383791.00 15522375.00 L 8381931.43 15525158.00 L 8292769.00 15525157.00 L 8254500.00 15541009.00 L 8199629.00 15595880.00 L 8072047.00 15595880.00 L 8072047.00 15520079.00 L 7827953.00 15520079.00 L 7827953.00 15779921.00 L 8072047.00 15779921.00 L 8072047.00 15704120.00  z"/>
<path id="N" d="M 13225984.00 16393307.00 L 12871654.00 16393307.00 L 12871654.00 16545880.00 L 12374860.00 16545880.00 L 12336591.00 16561731.00 L 12332972.76 16565349.24 L 12313109.00 16561398.00 A 100353.26 100353.26 0 1 0 12413462.00 16661751.00 L 12411944.07 16654120.00 L 12871654.00 16654120.00 L 12871654.00 16806693.00 L 13225984.00 16806693.00 L 13225984.00 16393307.00  z"/>
<path id="N" d="M 9083071.00 16781327.00 L 8433463.00 16781327.00 L 8406581.00 16786674.00 L 8390447.81 16797454.00 L 7823991.06 16797454.00 L 7603333.00 16576795.06 L 7603333.00 11529332.97 L 8085943.03 11046722.00 L 9367822.27 11046722.00 L 9399814.00 11078713.18 L 9399814.00 11277559.00 L 9403544.00 11286564.22 L 9403544.00 11407480.00 L 9494094.00 11407480.00 L 9494094.00 11286564.22 L 9497824.00 11277559.00 L 9497824.00 11063529.02 L 9502939.00 11051181.00 L 9487087.00 11012912.00 L 9428509.00 10954333.00 L 9390237.59 10938482.00 L 8063526.00 10938482.00 L 8025256.29 10954334.71 L 7510944.00 11468646.00 L 7495093.00 11506917.41 L 7495092.00 16599213.00 L 7510944.00 16637482.00 L 7763305.00 16889843.00 L 7801574.00 16905694.00 L 8390447.81 16905694.00 L 8406581.00 16916474.00 L 8433463.00 16921821.00 L 9083071.00 16921821.00 A 70250.25 70250.25 0 0 0 9083071.00 16781327.00  z"/>
<path id="N" d="M 11366536.00 16269516.00 L 10716928.00 16269516.00 A 70244.85 70244.85 0 0 0 10716928.00 16410010.00 L 11366536.00 16410010.00 A 70250.25 70250.25 0 1 0 11366536.00 16269516.00  z"/>
<path id="N" d="M 8391732.00 12214568.00 L 8301182.00 12214568.00 L 8301182.00 12474410.00 L 8391732.00 12474410.00 L 8391732.00 12214568.00  z"/>
<path id="N" d="M 9179134.00 12214568.00 L 9088584.00 12214568.00 L 9088584.00 12474410.00 L 9179134.00 12474410.00 L 9179134.00 12214568.00  z"/>
<path id="N" d="M 8706693.00 12214568.00 L 8616143.00 12214568.00 L 8616143.00 12474410.00 L 8706693.00 12474410.00 L 8706693.00 12214568.00  z"/>
<path id="N" d="M 10596456.00 11147638.00 L 10505906.00 11147638.00 L 10505906.00 11407480.00 L 10596456.00 11407480.00 L 10596456.00 11147638.00  z"/>
<path id="N" d="M 9966535.00 11147638.00 L 9875985.00 11147638.00 L 9875985.00 11407480.00 L 9966535.00 11407480.00 L 9966535.00 11147638.00  z"/>
<path id="N" d="M 9179134.00 11147638.00 L 9088584.00 11147638.00 L 9088584.00 11407480.00 L 9179134.00 11407480.00 L 9179134.00 11147638.00  z"/>
<path id="N" d="M 11226378.00 11147638.00 L 11135828.00 11147638.00 L 11135828.00 11407480.00 L 11226378.00 11407480.00 L 11226378.00 11147638.00  z"/>
<path id="N" d="M 11068897.00 11147638.00 L 10978347.00 11147638.00 L 10978347.00 11407480.00 L 11068897.00 11407480.00 L 11068897.00 11147638.00  z"/>
<path id="N" d="M 10911417.00 11147638.00 L 10820867.00 11147638.00 L 10820867.00 11407480.00 L 10911417.00 11407480.00 L 10911417.00 11147638.00  z"/>
<path id="N" d="M 11383858.00 11147638.00 L 11293308.00 11147638.00 L 11293308.00 11407480.00 L 11383858.00 11407480.00 L 11383858.00 11147638.00  z"/>
<path id="N" d="M 10596456.00 12214568.00 L 10505906.00 12214568.00 L 10505906.00 12474410.00 L 10596456.00 12474410.00 L 10596456.00 12214568.00  z"/>
<path id="N" d="M 10438976.00 12214568.00 L 10348426.00 12214568.00 L 10348426.00 12474410.00 L 10438976.00 12474410.00 L 10438976.00 12214568.00  z"/>
<path id="N" d="M 8549212.00 12214568.00 L 8458662.00 12214568.00 L 8458662.00 12474410.00 L 8549212.00 12474410.00 L 8549212.00 12214568.00  z"/>
<path id="N" d="M 9494094.00 12214568.00 L 9403544.00 12214568.00 L 9403544.00 12474410.00 L 9494094.00 12474410.00 L 9494094.00 12214568.00  z"/>
<path id="N" d="M 10438976.00 11147638.00 L 10348426.00 11147638.00 L 10348426.00 11407480.00 L 10438976.00 11407480.00 L 10438976.00 11147638.00  z"/>
<path id="N" d="M 10124015.00 11147638.00 L 10033465.00 11147638.00 L 10033465.00 11407480.00 L 10124015.00 11407480.00 L 10124015.00 11147638.00  z"/>
<path id="N" d="M 9809055.00 12214568.00 L 9718505.00 12214568.00 L 9718505.00 12474410.00 L 9809055.00 12474410.00 L 9809055.00 12214568.00  z"/>
<path id="N" d="M 9083071.00 17037233.00 L 8433463.00 17037233.00 L 8406581.00 17042580.00 L 8390447.81 17053360.00 L 7579898.00 17053360.00 L 7404120.00 16877582.00 L 7404120.00 11422418.00 L 7972418.00 10854120.00 L 9519003.24 10854120.00 L 9557295.00 10892411.17 L 9557295.00 11277559.00 L 9561025.00 11286564.22 L 9561025.00 11407480.00 L 9651575.00 11407480.00 L 9651575.00 11286564.22 L 9655305.00 11277559.00 L 9655305.00 10877229.76 L 9660421.00 10864879.00 L 9644569.00 10826611.00 L 9579690.00 10761731.00 L 9541418.59 10745880.00 L 7950000.00 10745880.00 L 7911731.00 10761731.00 L 7311731.00 11361731.00 L 7295880.00 11400002.41 L 7295879.00 16900000.00 L 7311731.00 16938269.00 L 7519211.00 17145749.00 L 7557482.41 17161600.00 L 8390447.81 17161600.00 L 8406581.00 17172380.00 L 8433463.00 17177727.00 L 9083071.00 17177727.00 A 70250.25 70250.25 0 1 0 9083071.00 17037233.00  z"/>
<path id="N" d="M 11972047.00 14670079.00 L 11727953.00 14670079.00 L 11727953.00 14748045.00 L 11406311.08 14748045.00 L 11393418.00 14739430.00 L 11366536.00 14734083.00 L 10716928.00 14734083.00 A 70244.85 70244.85 0 0 0 10716928.00 14874577.00 L 11366536.00 14874577.00 L 11393418.00 14869230.00 L 11412791.30 14856285.00 L 11727953.00 14856285.00 L 11727953.00 14929921.00 L 11972047.00 14929921.00 L 11972047.00 14670079.00  z"/>
<path id="N" d="M 13777165.00 16393307.00 L 13654120.00 16393307.00 L 13654120.00 15306693.00 L 13828346.00 15306693.00 L 13828346.00 14893307.00 L 13550553.00 14893307.00 L 12911496.00 14254250.00 L 12873224.59 14238399.00 L 11409551.19 14238399.00 L 11393418.00 14227619.00 L 11366536.00 14222272.00 L 10716928.00 14222272.00 L 10690046.00 14227619.00 L 10673912.81 14238399.00 L 10457481.00 14238399.00 L 10419212.00 14254250.00 L 10211068.00 14462394.00 L 10195217.00 14500665.41 L 10195217.00 16003363.00 L 10112606.04 16085973.96 A 96455.02 96455.02 0 1 0 10208306.00 16147330.00 L 10206711.83 16144944.17 L 10287606.00 16064050.00 L 10303457.00 16025778.59 L 10303457.00 14523081.00 L 10479899.00 14346639.00 L 10673912.81 14346639.00 L 10690046.00 14357419.00 L 10716928.00 14362766.00 L 11366536.00 14362766.00 L 11393418.00 14357419.00 L 11409551.19 14346639.00 L 12850809.00 14346639.00 L 13474016.00 14969846.00 L 13474016.00 15306693.00 L 13545880.00 15306693.00 L 13545880.00 16393307.00 L 13422835.00 16393307.00 L 13422835.00 16806693.00 L 13777165.00 16806693.00 L 13777165.00 16393307.00  z"/>
<path id="N" d="M 11393418.00 17172380.00 L 11409551.19 17161600.00 L 14096083.00 17161601.00 L 14134352.00 17145749.00 L 14338269.00 16941832.00 L 14354120.00 16903563.00 L 14354121.00 14150000.00 L 14338267.29 14111730.29 L 14138269.00 13911731.00 L 14099997.59 13895880.00 L 13434550.00 13895880.00 L 12504120.00 12965450.00 L 12504120.00 10958579.00 L 12488267.29 10920309.29 L 12429690.00 10861731.00 L 12391418.59 10845880.00 L 10858579.00 10845879.00 L 10820309.29 10861732.71 L 10670393.00 11011648.00 L 10654541.00 11049917.00 L 10659657.00 11062267.76 L 10659657.00 11513805.96 L 10427582.06 11745880.00 L 9184957.00 11745880.00 L 9146687.29 11761732.71 L 8938109.00 11970310.00 L 8922257.00 12008579.00 L 8927373.00 12020929.76 L 8927373.00 12344489.00 L 8931103.00 12353494.22 L 8931103.00 12474410.00 L 9021653.00 12474410.00 L 9021653.00 12353494.22 L 9025383.00 12344489.00 L 9025383.00 12036111.95 L 9207374.08 11854120.00 L 10450000.00 11854121.00 L 10488269.00 11838269.00 L 10746930.00 11579607.00 L 10762782.00 11541338.00 L 10757667.00 11528989.98 L 10757667.00 11077449.93 L 10880996.11 10954120.00 L 12369003.27 10954120.00 L 12395880.00 10980996.27 L 12395879.00 12987868.00 L 12411731.00 13026137.00 L 13373863.00 13988269.00 L 13412132.00 14004120.00 L 14077582.08 14004120.00 L 14245880.00 14172417.08 L 14245880.00 16881145.92 L 14073665.08 17053360.00 L 11409551.19 17053360.00 L 11393418.00 17042580.00 L 11366536.00 17037233.00 L 10716928.00 17037233.00 A 70244.85 70244.85 0 0 0 10716928.00 17177727.00 L 11366536.00 17177727.00 L 11393418.00 17172380.00  z"/>
<path id="N" d="M 14540816.34 23520091.01 L 14562980.13 23470090.56 L 14529274.00 23431259.00 L 14460669.00 23328585.00 L 14451247.00 23310957.00 L 14403992.00 23196871.00 L 14398190.00 23177745.00 L 14374099.00 23056633.00 L 14372140.00 23036742.00 L 14372140.00 22913256.00 L 14374099.00 22893365.00 L 14398190.00 22772251.00 L 14403992.00 22753125.00 L 14451247.00 22639040.00 L 14460669.00 22621412.00 L 14529274.00 22518739.00 L 14541954.00 22503288.00 L 14629271.00 22415971.00 L 14644721.00 22403291.00 L 14747395.00 22334686.00 L 14765023.00 22325264.00 L 14879109.00 22278009.00 L 14898235.00 22272207.00 L 15019348.00 22248116.00 L 15039239.00 22246157.00 L 15162725.00 22246157.00 L 15182616.00 22248116.00 L 15303729.00 22272207.00 L 15322855.00 22278009.00 L 15436940.00 22325264.00 L 15454568.00 22334686.00 L 15569067.00 22412520.00 L 15596076.56 22436999.84 L 15646076.99 22414836.05 L 15646075.91 11346591.83 A 1081520.89 1081520.89 0 0 0 14637657.21 10338174.09 L 5047379.48 10338174.00 A 1081479.04 1081479.04 0 0 0 4038961.09 11346592.79 L 4038962.00 22414834.28 L 4088962.44 22436997.03 L 4127794.00 22403290.00 L 4230468.00 22334685.00 L 4248096.00 22325263.00 L 4362182.00 22278008.00 L 4381308.00 22272206.00 L 4502421.00 22248115.00 L 4522312.00 22246156.00 L 4645798.00 22246156.00 L 4665689.00 22248115.00 L 4786802.00 22272206.00 L 4805928.00 22278008.00 L 4920013.00 22325263.00 L 4937641.00 22334685.00 L 5040314.00 22403290.00 L 5055765.00 22415970.00 L 5143082.00 22503287.00 L 5155762.00 22518737.00 L 5224367.00 22621411.00 L 5233789.00 22639039.00 L 5281044.00 22753125.00 L 5286846.00 22772251.00 L 5310937.00 22893363.00 L 5312896.00 22913254.00 L 5312896.00 23036740.00 L 5310937.00 23056631.00 L 5286846.00 23177745.00 L 5281044.00 23196871.00 L 5233789.00 23310956.00 L 5224367.00 23328584.00 L 5146534.00 23443082.00 L 5122053.84 23470092.56 L 5144217.99 23520092.99 L 14540816.34 23520091.01  zM 8090552.00 12294489.00 L 7990552.00 12294489.00 L 7990552.00 12114568.00 L 8105329.00 12114568.00 L 8105329.00 12214568.00 L 8090552.00 12214568.00 L 8090552.00 12294489.00  zM 8109449.00 12574410.00 L 7990552.00 12574410.00 L 7990552.00 12394489.00 L 8090552.00 12394489.00 L 8090552.00 12474410.00 L 8109449.00 12474410.00 L 8109449.00 12574410.00  zM 9341339.00 12574410.00 L 9341339.00 12114568.00 L 9556300.00 12114568.00 L 9556300.00 12574410.00 L 9341339.00 12574410.00  zM 10186221.00 11507480.00 L 10090946.00 11507480.00 L 10090946.00 11457480.00 L 9909055.00 11457480.00 L 9909055.00 11507480.00 L 9813780.00 11507480.00 L 9813780.00 11047638.00 L 9909055.00 11047638.00 L 9909055.00 11097638.00 L 10090946.00 11097638.00 L 10090946.00 11047638.00 L 10186221.00 11047638.00 L 10186221.00 11507480.00  zM 10816142.00 12574410.00 L 10758662.00 12574410.00 L 10758662.00 12114568.00 L 10816142.00 12114568.00 L 10816142.00 12574410.00  zM 9656300.00 12574410.00 L 9656300.00 12114568.00 L 9871260.00 12114568.00 L 9871260.00 12574410.00 L 9656300.00 12574410.00  zM 8384281.90 14242518.98 L 8271202.38 14242518.98 L 8274365.00 14226619.00 A 172209.46 172209.46 0 0 1 8433463.00 14120313.00 L 8708267.01 14120313.00 L 8708267.00 14222272.00 L 8433463.00 14222272.00 L 8406581.00 14227619.00 L 8384281.90 14242518.98  zM 7827953.00 15253543.00 L 7727953.00 15253543.00 L 7727953.00 15073622.00 L 7900000.00 15073622.00 L 7900000.00 15173622.00 L 7827953.00 15173622.00 L 7827953.00 15253543.00  zM 9245331.63 14498425.02 L 9132252.14 14498425.02 L 9109953.00 14483525.00 L 9083071.00 14478178.00 L 8433463.00 14478178.00 L 8406581.00 14483525.00 L 8384281.90 14498424.98 L 8271202.38 14498424.98 L 8274365.00 14482525.00 L 8311694.53 14426657.71 L 8311694.53 14414286.29 L 8274365.00 14358419.00 L 8271202.37 14342518.98 L 8384281.86 14342518.98 L 8406581.00 14357419.00 L 8433463.00 14362766.00 L 9083071.00 14362766.00 L 9109953.00 14357419.00 L 9132252.10 14342519.02 L 9245331.62 14342519.02 L 9242169.00 14358419.00 L 9226903.68 14381265.04 L 9207846.11 14420472.00 L 9226903.68 14459678.96 L 9242169.00 14482525.00 L 9245331.63 14498425.02  zM 9245331.63 14754330.02 L 9132252.14 14754330.02 L 9109953.00 14739430.00 L 9083071.00 14734083.00 L 8433463.00 14734083.00 L 8406581.00 14739430.00 L 8384281.90 14754329.98 L 8271202.38 14754329.98 L 8274365.00 14738430.00 L 8289629.85 14715584.65 L 8308688.05 14676377.50 L 8289629.85 14637170.35 L 8274365.00 14614325.00 L 8271202.37 14598424.98 L 8384281.86 14598424.98 L 8406581.00 14613325.00 L 8433463.00 14618672.00 L 9083071.00 14618672.00 L 9109953.00 14613325.00 L 9132252.10 14598425.02 L 9245331.62 14598425.02 L 9242169.00 14614325.00 L 9226904.15 14637170.35 L 9207845.95 14676377.50 L 9226904.15 14715584.65 L 9242169.00 14738430.00 L 9245331.63 14754330.02  zM 9245331.63 14242519.02 L 9132252.14 14242519.02 L 9109953.00 14227619.00 L 9083071.00 14222272.00 L 8808267.00 14222272.00 L 8808267.01 14120313.00 L 9083071.00 14120313.00 A 172203.00 172203.00 0 0 1 9242169.00 14226619.00 L 9245331.63 14242519.02  zM 10401575.00 17420476.00 L 10417336.00 17382425.28 L 10417336.00 16001995.00 L 10425097.00 15962977.00 L 10429822.36 15955905.00 L 10425097.00 15948833.00 L 10417336.00 15909815.00 L 10417335.00 15746089.00 L 10425096.00 15707071.00 L 10429821.52 15699998.75 L 10425097.00 15692928.00 L 10417336.00 15653910.00 L 10417336.00 15490184.00 L 10425097.00 15451166.00 L 10429822.36 15444094.00 L 10425097.00 15437022.00 L 10417336.00 15398004.00 L 10417335.00 15234278.00 L 10425096.00 15195260.00 L 10429821.52 15188187.75 L 10425097.00 15181117.00 L 10417336.00 15142099.00 L 10417335.00 14978373.00 L 10425096.00 14939355.00 L 10429819.52 14932285.74 L 10425093.00 14925212.00 L 10417332.00 14886194.00 L 10417332.00 14722466.00 L 10425093.00 14683448.00 L 10447195.00 14650370.00 L 10562969.00 14534596.00 L 10596047.00 14512494.00 L 10603129.55 14511085.22 L 10604930.00 14502034.00 L 10631207.55 14462705.67 L 10624973.56 14406736.04 L 10614780.91 14394478.00 L 10499714.00 14394478.00 L 10351296.00 14542896.00 L 10351296.00 16025781.00 L 10343535.00 16064799.00 L 10321433.00 16097877.00 L 10264017.00 16156209.00 A 151334.29 151334.29 0 0 1 9967167.00 16215257.00 L 9967167.00 16197736.28 L 9917166.57 16177025.43 L 9426427.00 16667765.00 L 9393349.00 16689867.00 L 9354331.00 16697628.00 L 9185214.44 16697628.00 L 9175024.16 16709884.19 L 9168791.45 16765854.67 A 121230.82 121230.82 0 0 1 9168791.00 16937294.00 L 9146980.18 16952187.54 L 9147157.89 17007305.65 L 9168791.00 17021760.00 A 121231.85 121231.85 0 0 1 9083071.00 17228706.00 L 8433463.00 17228706.00 L 8387072.00 17219478.00 L 8372047.12 17209439.00 L 7557480.00 17209439.00 L 7518462.00 17201678.00 L 7485384.00 17179576.00 L 7277904.00 16972096.00 L 7255802.00 16939018.00 L 7248041.00 16900000.00 L 7248041.00 11400000.00 L 7255802.00 11360982.00 L 7277904.00 11327904.00 L 7877904.00 10727904.00 L 7910982.00 10705802.00 L 7950000.00 10698041.00 L 9541421.00 10698041.00 L 9580439.00 10705802.00 L 9613517.00 10727904.00 L 9678396.00 10792783.00 L 9700498.00 10825861.00 L 9708259.00 10864879.00 L 9703442.00 10889096.20 L 9703442.00 11047638.00 L 9713780.00 11047638.00 L 9713780.00 11507480.00 L 9618505.00 11507480.00 L 9618505.00 11457480.00 L 9436614.00 11457480.00 L 9436614.00 11507480.00 L 9341339.00 11507480.00 L 9341339.00 11277559.00 L 9336614.00 11277559.00 L 9336614.00 11147638.00 L 9246064.00 11147638.00 L 9246064.00 11277559.00 L 9241339.00 11277559.00 L 9241339.00 11507480.00 L 9026378.00 11507480.00 L 9026378.00 11277559.00 L 9021653.00 11277559.00 L 9021653.00 11147638.00 L 8931103.00 11147638.00 L 8931103.00 11277559.00 L 8926378.00 11277559.00 L 8926378.00 11507480.00 L 8868898.00 11507480.00 L 8868898.00 11277559.00 L 8864173.00 11277559.00 L 8864173.00 11147638.00 L 8773623.00 11147638.00 L 8773623.00 11277559.00 L 8768898.00 11277559.00 L 8768898.00 11507480.00 L 8711418.00 11507480.00 L 8711418.00 11277559.00 L 8706693.00 11277559.00 L 8706693.00 11147638.00 L 8616143.00 11147638.00 L 8616143.00 11277559.00 L 8611418.00 11277559.00 L 8611418.00 11507480.00 L 8553937.00 11507480.00 L 8553937.00 11277559.00 L 8549212.00 11277559.00 L 8549212.00 11147638.00 L 8458662.00 11147638.00 L 8458662.00 11277559.00 L 8453937.00 11277559.00 L 8453937.00 11507480.00 L 8396457.00 11507480.00 L 8396457.00 11277559.00 L 8391732.00 11277559.00 L 8391732.00 11147638.00 L 8301182.00 11147638.00 L 8301182.00 11277559.00 L 8296457.00 11277559.00 L 8296457.00 11507480.00 L 8213569.00 11507480.00 L 8213569.00 11407480.00 L 8228346.00 11407480.00 L 8228346.00 11147638.00 L 8090552.00 11147638.00 L 8090552.00 11407480.00 L 8105329.00 11407480.00 L 8105329.00 11507480.00 L 7990552.00 11507480.00 L 7990552.00 11275096.75 L 7944357.60 11255962.40 L 7651172.00 11549148.00 L 7651172.00 16556980.00 L 7843807.00 16749615.00 L 8331319.56 16749615.00 L 8341509.83 16737358.81 L 8347742.55 16681388.33 A 121230.82 121230.82 0 0 1 8347742.53 16509949.71 L 8347742.73 16485617.45 L 8311695.00 16461531.00 L 8274365.00 16405663.00 L 8271202.37 16389762.98 L 8384281.86 16389762.98 L 8406581.00 16404663.00 L 8433463.00 16410010.00 L 9083071.00 16410010.00 L 9109953.00 16404663.00 L 9132252.10 16389763.02 L 9245331.62 16389763.02 L 9242169.00 16405663.00 L 9216746.99 16443709.52 L 9239827.33 16493710.00 L 9312098.00 16493710.00 L 9976781.00 15829027.00 L 9976781.00 15623590.00 L 9981598.00 15599372.80 L 9981598.00 12574410.00 L 9971260.00 12574410.00 L 9971260.00 12114568.00 L 10066535.00 12114568.00 L 10066535.00 12164568.00 L 10563387.00 12164568.00 L 10563387.00 12114568.00 L 10658662.00 12114568.00 L 10658662.00 12574410.00 L 10563387.00 12574410.00 L 10563387.00 12524410.00 L 10333363.00 12524410.00 L 10333363.00 12589171.00 L 10445767.00 12701575.00 L 10479524.00 12701575.00 A 151331.73 151331.73 0 1 1 10301575.00 12879524.00 L 10301575.00 12845767.00 L 10222076.40 12766268.40 L 10175882.00 12785402.75 L 10175882.00 14359214.72 L 10225882.43 14379925.57 L 10385385.00 14220423.00 L 10418463.00 14198321.00 L 10457481.00 14190560.00 L 10655512.12 14190560.00 L 10670537.00 14180521.00 L 10716928.00 14171293.00 L 11366536.00 14171293.00 L 11412927.00 14180521.00 L 11427951.88 14190560.00 L 12873227.00 14190560.00 L 12912245.00 14198321.00 L 12945323.00 14220423.00 L 13568207.00 14843307.00 L 13878346.00 14843307.00 L 13878346.00 15356693.00 L 13701959.00 15356693.00 L 13701959.00 16343307.00 L 13827165.00 16343307.00 L 13827165.00 16856693.00 L 13372835.00 16856693.00 L 13372835.00 16343307.00 L 13498041.00 16343307.00 L 13498041.00 15356693.00 L 13424016.76 15356693.65 L 13377165.00 15364296.01 L 13377165.00 15406693.00 L 13150000.00 15406693.00 L 13150000.00 15306693.00 L 13277165.00 15306693.00 L 13277165.00 14893307.00 L 13150000.00 14893307.00 L 13150000.00 14793307.00 L 13164494.25 14793307.00 L 13183628.60 14747112.60 L 12830994.00 14394478.00 L 11468683.09 14394478.00 L 11458490.44 14406736.04 L 11452256.45 14462705.67 A 121230.82 121230.82 0 0 1 11452256.00 14634145.00 L 11430397.19 14649158.47 L 11429726.89 14655177.28 L 11443385.86 14700206.00 L 11677953.00 14700206.00 L 11677953.00 14620079.00 L 12022047.00 14620079.00 L 12022047.00 15326378.00 L 11677953.00 15326378.00 L 11677953.00 15199202.00 L 11544565.24 15199202.00 L 11520995.20 15243298.58 L 11525634.00 15250241.00 L 11528796.63 15266141.02 L 11415717.14 15266141.02 L 11393418.00 15251241.00 L 11366536.00 15245894.00 L 10716928.00 15245894.00 A 70244.85 70244.85 0 0 0 10716928.00 15386388.00 L 11366536.00 15386388.00 L 11393418.00 15381041.00 L 11415717.10 15366141.02 L 11528796.62 15366141.02 L 11525634.00 15382041.00 L 11510368.68 15404887.04 L 11491311.11 15444094.00 L 11510368.68 15483300.96 L 11525634.00 15506147.00 L 11528796.63 15522047.02 L 11415717.14 15522047.02 L 11393418.00 15507147.00 L 11366536.00 15501800.00 L 10716928.00 15501800.00 A 70244.85 70244.85 0 0 0 10716928.00 15642294.00 L 11366536.00 15642294.00 L 11393418.00 15636947.00 L 11415717.10 15622047.02 L 11528796.62 15622047.02 L 11525634.00 15637947.00 L 11510369.15 15660792.35 L 11491310.95 15699999.50 L 11510369.15 15739206.65 L 11525634.00 15762052.00 L 11528796.63 15777952.02 L 11415717.14 15777952.02 L 11393418.00 15763052.00 L 11366536.00 15757705.00 L 10716928.00 15757705.00 A 70244.85 70244.85 0 0 0 10716928.00 15898199.00 L 11366536.00 15898199.00 L 11393418.00 15892852.00 L 11415717.10 15877952.02 L 11528796.62 15877952.02 L 11525634.00 15893852.00 L 11510368.68 15916698.04 L 11491311.11 15955905.00 L 11510368.68 15995111.96 L 11525634.00 16017958.00 L 11528796.63 16033858.02 L 11415717.14 16033858.02 L 11393418.00 16018958.00 L 11366536.00 16013611.00 L 10716928.00 16013611.00 A 70244.85 70244.85 0 0 0 10716928.00 16154105.00 L 11366536.00 16154105.00 L 11393418.00 16148758.00 L 11415717.10 16133858.02 L 11528796.62 16133858.02 L 11525634.00 16149758.00 L 11488304.00 16205626.00 L 11452256.27 16229712.45 L 11452256.47 16254043.71 A 121230.77 121230.77 0 0 1 11452256.47 16425482.29 L 11452256.27 16449814.55 L 11488304.00 16473901.00 L 11525634.00 16529769.00 L 11528796.63 16545669.02 L 11415717.14 16545669.02 L 11393418.00 16530769.00 L 11366536.00 16525422.00 L 10716928.00 16525422.00 A 70244.85 70244.85 0 0 0 10716928.00 16665916.00 L 11366536.00 16665916.00 L 11393418.00 16660569.00 L 11415717.10 16645669.02 L 11528796.62 16645669.02 L 11525634.00 16661569.00 L 11510369.15 16684414.35 L 11491310.95 16723621.50 L 11510369.15 16762828.65 L 11525634.00 16785674.00 L 11528796.63 16801574.02 L 11415717.14 16801574.02 L 11393418.00 16786674.00 L 11366536.00 16781327.00 L 10716928.00 16781327.00 A 70244.85 70244.85 0 0 0 10716928.00 16921821.00 L 11366536.00 16921821.00 L 11393418.00 16916474.00 L 11415717.10 16901574.02 L 11528796.62 16901574.02 L 11525634.00 16917474.00 L 11500211.99 16955520.52 L 11523292.33 17005521.00 L 14053850.00 17005521.00 L 14198041.00 16861330.00 L 14198041.00 14192233.00 L 14057767.00 14051959.00 L 13412132.00 14051959.00 L 13373114.00 14044198.00 L 13340036.00 14022096.00 L 12377904.00 13059964.00 L 12355802.00 13026886.00 L 12348041.00 12987868.00 L 12348041.00 11001959.00 L 11704920.46 11001959.00 L 11694488.00 11047638.78 L 11694488.00 11227559.00 L 11594488.00 11227559.00 L 11594488.00 11147638.00 L 11456694.00 11147638.00 L 11456694.00 11407480.00 L 11471471.00 11407480.00 L 11471471.00 11507480.00 L 11356694.00 11507480.00 L 11356694.00 11457480.00 L 10805804.00 11457480.00 L 10805804.00 11517120.80 L 10810621.00 11541338.00 L 10802860.00 11580356.00 L 10780758.00 11613434.00 L 10522096.00 11872096.00 L 10489018.00 11894198.00 L 10450000.00 11901959.00 L 9227190.00 11901959.00 L 9073520.00 12055629.00 L 9073520.00 12164568.00 L 9146064.00 12164568.00 L 9146064.00 12114568.00 L 9241339.00 12114568.00 L 9241339.00 12574410.00 L 9146064.00 12574410.00 L 9146064.00 12524410.00 L 8916040.00 12524410.00 L 8916040.00 13306885.80 L 8920857.00 13331103.00 L 8913096.00 13370121.00 L 8890994.00 13403199.00 L 8201959.00 14092234.00 L 8201959.00 14897025.16 L 8239017.70 14930432.28 L 8252812.22 14927972.39 L 8276221.64 14873008.64 L 8274365.00 14870230.00 L 8271202.37 14854329.98 L 8384281.86 14854329.98 L 8406581.00 14869230.00 L 8433463.00 14874577.00 L 9083071.00 14874577.00 L 9109953.00 14869230.00 L 9132252.10 14854330.02 L 9245331.62 14854330.02 L 9242169.00 14870230.00 L 9216746.99 14908276.52 L 9239827.33 14958277.00 L 9315214.00 14958277.00 L 9354232.00 14966038.00 L 9364469.02 14972878.15 L 9370476.00 14970390.00 A 151334.29 151334.29 0 0 1 9525829.00 15202891.00 L 9501959.00 15226761.00 L 9501959.00 15525998.00 L 9494198.00 15565016.00 L 9472096.00 15598094.00 L 9424886.86 15645303.14 L 9427248.09 15687949.26 L 9433929.53 15703168.81 L 9443599.00 15707174.00 A 151331.73 151331.73 0 0 1 9275447.00 15958832.00 L 9249052.00 15932437.00 L 9160459.65 15932437.00 L 9146395.64 15978800.99 L 9147157.89 15983683.65 L 9168791.00 15998138.00 A 121231.85 121231.85 0 0 1 9168791.47 16169577.29 L 9168791.27 16193908.55 L 9204839.00 16217995.00 L 9242169.00 16273863.00 L 9245331.63 16289763.02 L 9132252.14 16289763.02 L 9109953.00 16274863.00 L 9083071.00 16269516.00 L 8433463.00 16269516.00 L 8406581.00 16274863.00 L 8384281.90 16289762.98 L 8271202.38 16289762.98 L 8274365.00 16273863.00 L 8311695.00 16217995.00 L 8347742.73 16193908.55 L 8347742.53 16169577.29 A 121230.77 121230.77 0 0 1 8347743.00 15998138.00 L 8369553.82 15983244.46 L 8369376.11 15928126.35 L 8347743.00 15913672.00 A 121231.85 121231.85 0 0 1 8321465.00 15781561.00 L 8330335.61 15768284.80 L 8310270.15 15711713.27 L 8305676.42 15710562.58 L 8294143.00 15722096.00 L 8261065.00 15744198.00 L 8222047.00 15751959.00 L 8122047.00 15751959.00 L 8122047.00 15829921.00 L 7777953.00 15829921.00 L 7777953.00 15533464.00 L 7727953.00 15533464.00 L 7727953.00 15353543.00 L 7827953.00 15353543.00 L 7827953.00 15433464.00 L 8072047.00 15433464.00 L 8072047.00 15363962.00 L 8382554.18 15363962.00 L 8406581.00 15381041.00 L 8433463.00 15386388.00 L 9083071.00 15386388.00 A 70244.85 70244.85 0 1 0 9083071.00 15245894.00 L 8433463.00 15245894.00 L 8406581.00 15251241.00 L 8399874.80 15255722.00 L 8072047.00 15255722.00 L 8072047.00 15173622.00 L 8000000.00 15173622.00 L 8000000.00 15073622.00 L 8022680.25 15073622.00 L 8041814.60 15027427.60 L 8027904.00 15013517.00 L 8005802.00 14980439.00 L 7998041.00 14941421.00 L 7998041.00 14050001.00 L 8005802.00 14010983.00 L 8027904.00 13977905.00 L 8721756.00 13284053.00 L 8721756.00 12524410.00 L 8328346.00 12524410.00 L 8328346.00 12574410.00 L 8209449.00 12574410.00 L 8209449.00 12474410.00 L 8228346.00 12474410.00 L 8228346.00 12214568.00 L 8213569.00 12214568.00 L 8213569.00 12114568.00 L 8328346.00 12114568.00 L 8328346.00 12164568.00 L 8879236.00 12164568.00 L 8879236.00 12032796.20 L 8874419.00 12008579.00 L 8882180.00 11969561.00 L 8904282.00 11936483.00 L 9112861.00 11727904.00 L 9145939.00 11705802.00 L 9184957.00 11698041.00 L 10407767.00 11698041.00 L 10598327.58 11507480.42 L 10579671.09 11457480.00 L 10381496.00 11457480.00 L 10381496.00 11507480.00 L 10286221.00 11507480.00 L 10286221.00 11047638.00 L 10381496.00 11047638.00 L 10381496.00 11097638.00 L 10571667.16 11097638.00 L 10606703.19 11049916.07 L 10614464.00 11010899.00 L 10636566.00 10977821.00 L 10786483.00 10827904.00 L 10819561.00 10805802.00 L 10858579.00 10798041.00 L 12391421.00 10798041.00 L 12430439.00 10805802.00 L 12463517.00 10827904.00 L 12522096.00 10886483.00 L 12544198.00 10919561.00 L 12551959.00 10958579.00 L 12551959.00 12945635.00 L 13454365.00 13848041.00 L 14100000.00 13848041.00 L 14139018.00 13855802.00 L 14172096.00 13877904.00 L 14372096.00 14077904.00 L 14394198.00 14110982.00 L 14401959.00 14150000.00 L 14401959.00 16903563.00 L 14394198.00 16942581.00 L 14372096.00 16975659.00 L 14168179.00 17179576.00 L 14135101.00 17201678.00 L 14096083.00 17209439.00 L 11427951.88 17209439.00 L 11412927.00 17219478.00 L 11366536.00 17228706.00 L 10716928.00 17228706.00 L 10670537.79 17219478.16 L 10621254.00 17246683.66 L 10621254.00 17318860.00 L 10634076.00 17324171.00 A 151331.73 151331.73 0 1 1 10401575.00 17420476.00  zM 10973622.00 12574410.00 L 10916142.00 12574410.00 L 10916142.00 12114568.00 L 10973622.00 12114568.00 L 10973622.00 12574410.00  zM 11131103.00 12574410.00 L 11073622.00 12574410.00 L 11073622.00 12114568.00 L 11131103.00 12114568.00 L 11131103.00 12574410.00  zM 11288583.00 12574410.00 L 11231103.00 12574410.00 L 11231103.00 12114568.00 L 11288583.00 12114568.00 L 11288583.00 12574410.00  zM 11475591.00 12574410.00 L 11388583.00 12574410.00 L 11388583.00 12114568.00 L 11471471.00 12114568.00 L 11471471.00 12214568.00 L 11456694.00 12214568.00 L 11456694.00 12474410.00 L 11475591.00 12474410.00 L 11475591.00 12574410.00  zM 11694488.00 12574410.00 L 11575591.00 12574410.00 L 11575591.00 12474410.00 L 11594488.00 12474410.00 L 11594488.00 12394489.00 L 11694488.00 12394489.00 L 11694488.00 12574410.00  zM 11694488.00 11507480.00 L 11579711.00 11507480.00 L 11579711.00 11407480.00 L 11594488.00 11407480.00 L 11594488.00 11327559.00 L 11694488.00 11327559.00 L 11694488.00 11507480.00  zM 11694488.00 12294489.00 L 11594488.00 12294489.00 L 11594488.00 12214568.00 L 11579711.00 12214568.00 L 11579711.00 12114568.00 L 11694488.00 12114568.00 L 11694488.00 12294489.00  zM 12922835.00 15050000.00 L 12822835.00 15050000.00 L 12822835.00 14793307.00 L 13050000.00 14793307.00 L 13050000.00 14893307.00 L 12922835.00 14893307.00 L 12922835.00 15050000.00  zM 13050000.00 15406693.00 L 12822835.00 15406693.00 L 12822835.00 15150000.00 L 12922835.00 15150000.00 L 12922835.00 15306693.00 L 13050000.00 15306693.00 L 13050000.00 15406693.00  zM 13275984.00 16856693.00 L 12821654.00 16856693.00 L 12821654.00 16701959.00 L 12457108.58 16701959.00 L 12438938.00 16745827.00 A 151331.73 151331.73 0 1 1 12283585.00 16513326.00 L 12324581.53 16513326.00 L 12335842.00 16505802.00 L 12374860.00 16498041.00 L 12821654.00 16498041.00 L 12821654.00 16343307.00 L 13275984.00 16343307.00 L 13275984.00 16856693.00  z"/>
</g>
</svg>
