<svg width="30.0000035mm" height="49.99999906mm" viewBox="0 0 11811025 19685039"  version="1.1" xmlns="http://www.w3.org/2000/svg" xmlns:xlink="http://www.w3.org/1999/xlink">
<desc>
Origin 0 0 Bound 1968504 1968504 11811025 19685039
</desc>
<g fill-rule="evenodd" fill="rgb(255, 0, 0)" stroke="black" stroke-width="1" transform="translate(0, 19685039) scale(1, -1) translate(-1968504, -1968504)">
<path id="N" d="M 8674521.00 14615927.00 L 8263899.00 14205305.00 L 8180383.00 14288821.00 L 8591005.00 14699443.00 L 8674521.00 14615927.00  z"/>
<path id="N" d="M 7567649.00 14288821.00 L 7484133.00 14205305.00 L 7073511.00 14615927.00 L 7157027.00 14699443.00 L 7567649.00 14288821.00  z"/>
<path id="N" d="M 8813715.00 14476733.00 L 8403093.00 14066111.00 L 8319577.00 14149627.00 L 8730199.00 14560249.00 L 8813715.00 14476733.00  z"/>
<path id="N" d="M 7428455.00 14149627.00 L 7344939.00 14066111.00 L 6934317.00 14476733.00 L 7017833.00 14560249.00 L 7428455.00 14149627.00  z"/>
<path id="N" d="M 8952910.00 14337538.00 L 8542288.00 13926916.00 L 8458772.00 14010432.00 L 8869394.00 14421054.00 L 8952910.00 14337538.00  z"/>
<path id="N" d="M 7289260.00 14010432.00 L 7205744.00 13926916.00 L 6795122.00 14337538.00 L 6878638.00 14421054.00 L 7289260.00 14010432.00  z"/>
<path id="N" d="M 9092104.00 14198344.00 L 8681482.00 13787722.00 L 8597966.00 13871238.00 L 9008588.00 14281860.00 L 9092104.00 14198344.00  z"/>
<path id="N" d="M 7150066.00 13871238.00 L 7066550.00 13787722.00 L 6655928.00 14198344.00 L 6739444.00 14281860.00 L 7150066.00 13871238.00  z"/>
<path id="N" d="M 9231299.00 14059150.00 L 8820677.00 13648528.00 L 8737161.00 13732044.00 L 9147783.00 14142666.00 L 9231299.00 14059150.00  z"/>
<path id="N" d="M 7010871.00 13732044.00 L 6927355.00 13648528.00 L 6516733.00 14059150.00 L 6600249.00 14142666.00 L 7010871.00 13732044.00  z"/>
<path id="N" d="M 9370492.00 13919956.00 L 8959870.00 13509334.00 L 8876354.00 13592850.00 L 9286976.00 14003472.00 L 9370492.00 13919956.00  z"/>
<path id="N" d="M 6871678.00 13592850.00 L 6788162.00 13509334.00 L 6377540.00 13919956.00 L 6461056.00 14003472.00 L 6871678.00 13592850.00  z"/>
<path id="N" d="M 9509686.00 13780762.00 L 9099064.00 13370140.00 L 9015548.00 13453656.00 L 9426170.00 13864278.00 L 9509686.00 13780762.00  z"/>
<path id="N" d="M 6732484.00 13453656.00 L 6648968.00 13370140.00 L 6238346.00 13780762.00 L 6321862.00 13864278.00 L 6732484.00 13453656.00  z"/>
<path id="N" d="M 9648881.00 13641567.00 L 9238259.00 13230945.00 L 9154743.00 13314461.00 L 9565365.00 13725083.00 L 9648881.00 13641567.00  z"/>
<path id="N" d="M 6593289.00 13314461.00 L 6509773.00 13230945.00 L 6099151.00 13641567.00 L 6182667.00 13725083.00 L 6593289.00 13314461.00  z"/>
<path id="N" d="M 9788075.00 13502373.00 L 9377453.00 13091751.00 L 9293937.00 13175267.00 L 9704559.00 13585889.00 L 9788075.00 13502373.00  z"/>
<path id="N" d="M 6454095.00 13175267.00 L 6370579.00 13091751.00 L 5959957.00 13502373.00 L 6043473.00 13585889.00 L 6454095.00 13175267.00  z"/>
<path id="N" d="M 9927270.00 13363178.00 L 9516648.00 12952556.00 L 9433132.00 13036072.00 L 9843754.00 13446694.00 L 9927270.00 13363178.00  z"/>
<path id="N" d="M 6314900.00 13036072.00 L 6231384.00 12952556.00 L 5820762.00 13363178.00 L 5904278.00 13446694.00 L 6314900.00 13036072.00  z"/>
<path id="N" d="M 10066464.00 13223984.00 L 9655842.00 12813362.00 L 9572326.00 12896878.00 L 9982948.00 13307500.00 L 10066464.00 13223984.00  z"/>
<path id="N" d="M 6175706.00 12896878.00 L 6092190.00 12813362.00 L 5681568.00 13223984.00 L 5765084.00 13307500.00 L 6175706.00 12896878.00  z"/>
<path id="N" d="M 10205658.00 13084791.00 L 9795036.00 12674169.00 L 9711520.00 12757685.00 L 10122142.00 13168307.00 L 10205658.00 13084791.00  z"/>
<path id="N" d="M 6036512.00 12757685.00 L 5952996.00 12674169.00 L 5542374.00 13084791.00 L 5625890.00 13168307.00 L 6036512.00 12757685.00  z"/>
<path id="N" d="M 10344852.00 12945596.00 L 9934230.00 12534974.00 L 9850714.00 12618490.00 L 10261336.00 13029112.00 L 10344852.00 12945596.00  z"/>
<path id="N" d="M 5897318.00 12618490.00 L 5813802.00 12534974.00 L 5403180.00 12945596.00 L 5486696.00 13029112.00 L 5897318.00 12618490.00  z"/>
<path id="N" d="M 10484046.00 12806402.00 L 10073424.00 12395780.00 L 9989908.00 12479296.00 L 10400530.00 12889918.00 L 10484046.00 12806402.00  z"/>
<path id="N" d="M 5758124.00 12479296.00 L 5674608.00 12395780.00 L 5263986.00 12806402.00 L 5347502.00 12889918.00 L 5758124.00 12479296.00  z"/>
<path id="N" d="M 10623241.00 12667207.00 L 10212619.00 12256585.00 L 10129103.00 12340101.00 L 10539725.00 12750723.00 L 10623241.00 12667207.00  z"/>
<path id="N" d="M 5618929.00 12340101.00 L 5535413.00 12256585.00 L 5124791.00 12667207.00 L 5208307.00 12750723.00 L 5618929.00 12340101.00  z"/>
<path id="N" d="M 10762435.00 12528013.00 L 10351813.00 12117391.00 L 10268297.00 12200907.00 L 10678919.00 12611529.00 L 10762435.00 12528013.00  z"/>
<path id="N" d="M 5479735.00 12200907.00 L 5396219.00 12117391.00 L 4985597.00 12528013.00 L 5069113.00 12611529.00 L 5479735.00 12200907.00  z"/>
<path id="N" d="M 10762435.00 11094035.00 L 10678919.00 11010519.00 L 10268297.00 11421141.00 L 10351813.00 11504657.00 L 10762435.00 11094035.00  z"/>
<path id="N" d="M 5479735.00 11421141.00 L 5069113.00 11010519.00 L 4985597.00 11094035.00 L 5396219.00 11504657.00 L 5479735.00 11421141.00  z"/>
<path id="N" d="M 10623241.00 10954841.00 L 10539725.00 10871325.00 L 10129103.00 11281947.00 L 10212619.00 11365463.00 L 10623241.00 10954841.00  z"/>
<path id="N" d="M 5618929.00 11281947.00 L 5208307.00 10871325.00 L 5124791.00 10954841.00 L 5535413.00 11365463.00 L 5618929.00 11281947.00  z"/>
<path id="N" d="M 10484046.00 10815646.00 L 10400530.00 10732130.00 L 9989908.00 11142752.00 L 10073424.00 11226268.00 L 10484046.00 10815646.00  z"/>
<path id="N" d="M 5758124.00 11142752.00 L 5347502.00 10732130.00 L 5263986.00 10815646.00 L 5674608.00 11226268.00 L 5758124.00 11142752.00  z"/>
<path id="N" d="M 10344852.00 10676452.00 L 10261336.00 10592936.00 L 9850714.00 11003558.00 L 9934230.00 11087074.00 L 10344852.00 10676452.00  z"/>
<path id="N" d="M 5897318.00 11003558.00 L 5486696.00 10592936.00 L 5403180.00 10676452.00 L 5813802.00 11087074.00 L 5897318.00 11003558.00  z"/>
<path id="N" d="M 10205658.00 10537257.00 L 10122142.00 10453741.00 L 9711520.00 10864363.00 L 9795036.00 10947879.00 L 10205658.00 10537257.00  z"/>
<path id="N" d="M 6036512.00 10864363.00 L 5625890.00 10453741.00 L 5542374.00 10537257.00 L 5952996.00 10947879.00 L 6036512.00 10864363.00  z"/>
<path id="N" d="M 10066464.00 10398064.00 L 9982948.00 10314548.00 L 9572326.00 10725170.00 L 9655842.00 10808686.00 L 10066464.00 10398064.00  z"/>
<path id="N" d="M 6175706.00 10725170.00 L 5765084.00 10314548.00 L 5681568.00 10398064.00 L 6092190.00 10808686.00 L 6175706.00 10725170.00  z"/>
<path id="N" d="M 9927270.00 10258870.00 L 9843754.00 10175354.00 L 9433132.00 10585976.00 L 9516648.00 10669492.00 L 9927270.00 10258870.00  z"/>
<path id="N" d="M 6314900.00 10585976.00 L 5904278.00 10175354.00 L 5820762.00 10258870.00 L 6231384.00 10669492.00 L 6314900.00 10585976.00  z"/>
<path id="N" d="M 9788075.00 10119675.00 L 9704559.00 10036159.00 L 9293937.00 10446781.00 L 9377453.00 10530297.00 L 9788075.00 10119675.00  z"/>
<path id="N" d="M 6454095.00 10446781.00 L 6043473.00 10036159.00 L 5959957.00 10119675.00 L 6370579.00 10530297.00 L 6454095.00 10446781.00  z"/>
<path id="N" d="M 9648881.00 9980481.00 L 9565365.00 9896965.00 L 9154743.00 10307587.00 L 9238259.00 10391103.00 L 9648881.00 9980481.00  z"/>
<path id="N" d="M 6593289.00 10307587.00 L 6182667.00 9896965.00 L 6099151.00 9980481.00 L 6509773.00 10391103.00 L 6593289.00 10307587.00  z"/>
<path id="N" d="M 9509686.00 9841286.00 L 9426170.00 9757770.00 L 9015548.00 10168392.00 L 9099064.00 10251908.00 L 9509686.00 9841286.00  z"/>
<path id="N" d="M 6732484.00 10168392.00 L 6321862.00 9757770.00 L 6238346.00 9841286.00 L 6648968.00 10251908.00 L 6732484.00 10168392.00  z"/>
<path id="N" d="M 9370492.00 9702092.00 L 9286976.00 9618576.00 L 8876354.00 10029198.00 L 8959870.00 10112714.00 L 9370492.00 9702092.00  z"/>
<path id="N" d="M 6871678.00 10029198.00 L 6461056.00 9618576.00 L 6377540.00 9702092.00 L 6788162.00 10112714.00 L 6871678.00 10029198.00  z"/>
<path id="N" d="M 9231299.00 9562898.00 L 9147783.00 9479382.00 L 8737161.00 9890004.00 L 8820677.00 9973520.00 L 9231299.00 9562898.00  z"/>
<path id="N" d="M 7010871.00 9890004.00 L 6600249.00 9479382.00 L 6516733.00 9562898.00 L 6927355.00 9973520.00 L 7010871.00 9890004.00  z"/>
<path id="N" d="M 9092104.00 9423704.00 L 9008588.00 9340188.00 L 8597966.00 9750810.00 L 8681482.00 9834326.00 L 9092104.00 9423704.00  z"/>
<path id="N" d="M 7150066.00 9750810.00 L 6739444.00 9340188.00 L 6655928.00 9423704.00 L 7066550.00 9834326.00 L 7150066.00 9750810.00  z"/>
<path id="N" d="M 8952910.00 9284510.00 L 8869394.00 9200994.00 L 8458772.00 9611616.00 L 8542288.00 9695132.00 L 8952910.00 9284510.00  z"/>
<path id="N" d="M 7289260.00 9611616.00 L 6878638.00 9200994.00 L 6795122.00 9284510.00 L 7205744.00 9695132.00 L 7289260.00 9611616.00  z"/>
<path id="N" d="M 8813715.00 9145315.00 L 8730199.00 9061799.00 L 8319577.00 9472421.00 L 8403093.00 9555937.00 L 8813715.00 9145315.00  z"/>
<path id="N" d="M 7428455.00 9472421.00 L 7017833.00 9061799.00 L 6934317.00 9145315.00 L 7344939.00 9555937.00 L 7428455.00 9472421.00  z"/>
<path id="N" d="M 8674521.00 9006121.00 L 8591005.00 8922605.00 L 8180383.00 9333227.00 L 8263899.00 9416743.00 L 8674521.00 9006121.00  z"/>
<path id="N" d="M 7567649.00 9333227.00 L 7157027.00 8922605.00 L 7073511.00 9006121.00 L 7484133.00 9416743.00 L 7567649.00 9333227.00  z"/>
</g>
</svg>
